G04 (created by PCBNEW-RS274X (2012-01-19 BZR 3256)-stable) date 2/15/2013 12:00:00 AM*
G01*
G70*
G90*
%MOIN*%
G04 Gerber Fmt 3.4, Leading zero omitted, Abs format*
%FSLAX34Y34*%
G04 APERTURE LIST*
%ADD10C,0.006000*%
%ADD11C,0.180000*%
%ADD12R,0.075000X0.075000*%
%ADD13C,0.075000*%
%ADD14R,0.080000X0.080000*%
%ADD15C,0.080000*%
%ADD16R,0.090000X0.320000*%
%ADD17R,0.157800X0.035400*%
%ADD18C,0.055400*%
%ADD19C,0.088900*%
%ADD20C,0.110600*%
%ADD21R,0.197200X0.138100*%
G04 APERTURE END LIST*
G54D10*
G54D11*
X79500Y-26500D03*
X79500Y-48750D03*
G54D12*
X43000Y-45500D03*
G54D13*
X44000Y-45500D03*
X45000Y-45500D03*
X46000Y-45500D03*
X47000Y-45500D03*
X48000Y-45500D03*
X49000Y-45500D03*
X50000Y-45500D03*
X51000Y-45500D03*
X52000Y-45500D03*
X52000Y-42500D03*
X51000Y-42500D03*
X50000Y-42500D03*
X49000Y-42500D03*
X48000Y-42500D03*
X47000Y-42500D03*
X46000Y-42500D03*
X45000Y-42500D03*
X44000Y-42500D03*
X43000Y-42500D03*
G54D12*
X58000Y-38750D03*
G54D13*
X59000Y-38750D03*
X60000Y-38750D03*
X61000Y-38750D03*
X62000Y-38750D03*
X63000Y-38750D03*
X64000Y-38750D03*
X65000Y-38750D03*
X65000Y-35750D03*
X64000Y-35750D03*
X63000Y-35750D03*
X62000Y-35750D03*
X61000Y-35750D03*
X60000Y-35750D03*
X59000Y-35750D03*
X58000Y-35750D03*
X51000Y-26500D03*
X51000Y-28500D03*
X68000Y-38750D03*
X68000Y-40750D03*
X41000Y-29500D03*
X41000Y-31500D03*
X41000Y-36250D03*
X41000Y-38250D03*
X41000Y-43000D03*
X41000Y-45000D03*
X54000Y-43000D03*
X54000Y-45000D03*
X47000Y-27500D03*
X50000Y-27500D03*
X47000Y-26500D03*
X50000Y-26500D03*
X67000Y-34500D03*
X67000Y-37500D03*
X68000Y-34500D03*
X68000Y-37500D03*
X68000Y-42000D03*
X68000Y-45000D03*
G54D12*
X43000Y-47500D03*
G54D13*
X41000Y-47500D03*
G54D12*
X68000Y-47375D03*
G54D13*
X66000Y-47375D03*
G54D14*
X43000Y-26500D03*
G54D15*
X43000Y-27500D03*
G54D12*
X46000Y-41500D03*
G54D13*
X47000Y-41500D03*
X48000Y-41500D03*
X49000Y-41500D03*
X50000Y-41500D03*
X51000Y-41500D03*
G54D12*
X56000Y-41500D03*
G54D13*
X57000Y-41500D03*
X58000Y-41500D03*
X59000Y-41500D03*
X60000Y-41500D03*
X61000Y-41500D03*
X62000Y-41500D03*
X63000Y-41500D03*
X64000Y-41500D03*
X65000Y-41500D03*
G54D12*
X52000Y-38750D03*
G54D13*
X53000Y-38750D03*
X54000Y-38750D03*
X55000Y-38750D03*
X55000Y-35750D03*
X54000Y-35750D03*
X53000Y-35750D03*
X52000Y-35750D03*
G54D12*
X53000Y-32000D03*
G54D13*
X54000Y-32000D03*
X55000Y-32000D03*
X56000Y-32000D03*
X57000Y-32000D03*
X58000Y-32000D03*
X59000Y-32000D03*
X60000Y-32000D03*
X61000Y-32000D03*
X62000Y-32000D03*
X63000Y-32000D03*
X64000Y-32000D03*
X65000Y-32000D03*
X66000Y-32000D03*
X66000Y-26000D03*
X65000Y-26000D03*
X64000Y-26000D03*
X63000Y-26000D03*
X62000Y-26000D03*
X61000Y-26000D03*
X60000Y-26000D03*
X59000Y-26000D03*
X58000Y-26000D03*
X57000Y-26000D03*
X56000Y-26000D03*
X55000Y-26000D03*
X54000Y-26000D03*
X53000Y-26000D03*
G54D12*
X56000Y-45500D03*
G54D13*
X57000Y-45500D03*
X58000Y-45500D03*
X59000Y-45500D03*
X60000Y-45500D03*
X61000Y-45500D03*
X62000Y-45500D03*
X63000Y-45500D03*
X64000Y-45500D03*
X65000Y-45500D03*
X65000Y-42500D03*
X64000Y-42500D03*
X63000Y-42500D03*
X62000Y-42500D03*
X61000Y-42500D03*
X60000Y-42500D03*
X59000Y-42500D03*
X58000Y-42500D03*
X57000Y-42500D03*
X56000Y-42500D03*
G54D12*
X43000Y-38750D03*
G54D13*
X44000Y-38750D03*
X45000Y-38750D03*
X46000Y-38750D03*
X47000Y-38750D03*
X48000Y-38750D03*
X49000Y-38750D03*
X49000Y-35750D03*
X48000Y-35750D03*
X47000Y-35750D03*
X46000Y-35750D03*
X45000Y-35750D03*
X44000Y-35750D03*
X43000Y-35750D03*
G54D12*
X43000Y-32000D03*
G54D13*
X44000Y-32000D03*
X45000Y-32000D03*
X46000Y-32000D03*
X47000Y-32000D03*
X48000Y-32000D03*
X49000Y-32000D03*
X49000Y-29000D03*
X48000Y-29000D03*
X47000Y-29000D03*
X46000Y-29000D03*
X45000Y-29000D03*
X44000Y-29000D03*
X43000Y-29000D03*
G54D16*
X70000Y-51375D03*
X69000Y-51375D03*
X68000Y-51375D03*
X67000Y-51375D03*
X66000Y-51375D03*
X65000Y-51375D03*
X64000Y-51375D03*
X63000Y-51375D03*
X61000Y-51375D03*
X60000Y-51375D03*
X59000Y-51375D03*
X58000Y-51375D03*
X57000Y-51375D03*
X56000Y-51375D03*
X55000Y-51375D03*
X54000Y-51375D03*
X53000Y-51375D03*
X52000Y-51375D03*
X51000Y-51375D03*
X50000Y-51375D03*
X49000Y-51375D03*
X48000Y-51375D03*
X47000Y-51375D03*
X46000Y-51375D03*
X45000Y-51375D03*
X44000Y-51375D03*
X43000Y-51375D03*
X42000Y-51375D03*
X41000Y-51375D03*
G54D13*
X45000Y-26500D03*
X45000Y-27500D03*
G54D17*
X70736Y-43895D03*
X70736Y-43383D03*
X70736Y-42872D03*
X70736Y-42360D03*
X70736Y-41848D03*
X70736Y-41336D03*
X70736Y-40824D03*
X70736Y-40312D03*
X70736Y-39801D03*
X70736Y-39289D03*
X70736Y-38777D03*
X70736Y-38265D03*
X70736Y-37753D03*
X70736Y-37242D03*
X70736Y-36730D03*
X70736Y-36218D03*
X70736Y-35706D03*
X70736Y-35194D03*
X70736Y-34683D03*
X70736Y-34171D03*
X70736Y-33659D03*
X70736Y-33147D03*
X70736Y-32635D03*
X70736Y-32123D03*
X70736Y-31612D03*
X70736Y-43639D03*
X70736Y-43127D03*
X70736Y-42616D03*
X70736Y-42104D03*
X70736Y-41592D03*
X70736Y-41080D03*
X70736Y-40568D03*
X70736Y-40057D03*
X70736Y-39545D03*
X70736Y-39033D03*
X70736Y-38521D03*
X70736Y-38009D03*
X70736Y-37498D03*
X70736Y-36986D03*
X70736Y-36474D03*
X70736Y-35962D03*
X70736Y-35450D03*
X70736Y-34938D03*
X70736Y-34427D03*
X70736Y-33915D03*
X70736Y-33403D03*
X70736Y-32891D03*
X70736Y-32379D03*
X70736Y-31868D03*
X70736Y-31356D03*
G54D18*
X80283Y-46680D03*
X80283Y-28570D03*
G54D19*
X73000Y-45251D03*
X73000Y-29999D03*
G54D20*
X71819Y-45251D03*
X71819Y-29999D03*
G54D21*
X78906Y-46975D03*
X78906Y-28275D03*
M02*
