G04 (created by PCBNEW-RS274X (2012-01-19 BZR 3256)-stable) date 4/5/2013 11:43:26 PM*
G01*
G70*
G90*
%MOIN*%
G04 Gerber Fmt 3.4, Leading zero omitted, Abs format*
%FSLAX34Y34*%
G04 APERTURE LIST*
%ADD10C,0.006000*%
%ADD11C,0.160000*%
%ADD12R,0.055000X0.055000*%
%ADD13C,0.055000*%
%ADD14R,0.060000X0.060000*%
%ADD15C,0.060000*%
%ADD16R,0.070000X0.300000*%
%ADD17R,0.137800X0.015000*%
%ADD18C,0.035400*%
%ADD19C,0.068900*%
%ADD20C,0.090600*%
%ADD21R,0.177200X0.118100*%
%ADD22C,0.035000*%
%ADD23C,0.014500*%
%ADD24C,0.040000*%
%ADD25C,0.010000*%
G04 APERTURE END LIST*
G54D10*
G54D11*
X79500Y-26500D03*
X79500Y-48750D03*
G54D12*
X43000Y-45500D03*
G54D13*
X44000Y-45500D03*
X45000Y-45500D03*
X46000Y-45500D03*
X47000Y-45500D03*
X48000Y-45500D03*
X49000Y-45500D03*
X50000Y-45500D03*
X51000Y-45500D03*
X52000Y-45500D03*
X52000Y-42500D03*
X51000Y-42500D03*
X50000Y-42500D03*
X49000Y-42500D03*
X48000Y-42500D03*
X47000Y-42500D03*
X46000Y-42500D03*
X45000Y-42500D03*
X44000Y-42500D03*
X43000Y-42500D03*
G54D12*
X58000Y-38750D03*
G54D13*
X59000Y-38750D03*
X60000Y-38750D03*
X61000Y-38750D03*
X62000Y-38750D03*
X63000Y-38750D03*
X64000Y-38750D03*
X65000Y-38750D03*
X65000Y-35750D03*
X64000Y-35750D03*
X63000Y-35750D03*
X62000Y-35750D03*
X61000Y-35750D03*
X60000Y-35750D03*
X59000Y-35750D03*
X58000Y-35750D03*
X51000Y-26500D03*
X51000Y-28500D03*
X68000Y-38750D03*
X68000Y-40750D03*
X41000Y-29500D03*
X41000Y-31500D03*
X41000Y-36250D03*
X41000Y-38250D03*
X41000Y-43000D03*
X41000Y-45000D03*
X54000Y-43000D03*
X54000Y-45000D03*
X47000Y-27500D03*
X50000Y-27500D03*
X47000Y-26500D03*
X50000Y-26500D03*
X67000Y-34500D03*
X67000Y-37500D03*
X68000Y-34500D03*
X68000Y-37500D03*
X68000Y-42000D03*
X68000Y-45000D03*
G54D12*
X43000Y-47500D03*
G54D13*
X41000Y-47500D03*
G54D12*
X68000Y-47375D03*
G54D13*
X66000Y-47375D03*
G54D14*
X43000Y-26500D03*
G54D15*
X43000Y-27500D03*
G54D12*
X46000Y-41500D03*
G54D13*
X47000Y-41500D03*
X48000Y-41500D03*
X49000Y-41500D03*
X50000Y-41500D03*
X51000Y-41500D03*
G54D12*
X56000Y-41500D03*
G54D13*
X57000Y-41500D03*
X58000Y-41500D03*
X59000Y-41500D03*
X60000Y-41500D03*
X61000Y-41500D03*
X62000Y-41500D03*
X63000Y-41500D03*
X64000Y-41500D03*
X65000Y-41500D03*
G54D12*
X52000Y-38750D03*
G54D13*
X53000Y-38750D03*
X54000Y-38750D03*
X55000Y-38750D03*
X55000Y-35750D03*
X54000Y-35750D03*
X53000Y-35750D03*
X52000Y-35750D03*
G54D12*
X53000Y-32000D03*
G54D13*
X54000Y-32000D03*
X55000Y-32000D03*
X56000Y-32000D03*
X57000Y-32000D03*
X58000Y-32000D03*
X59000Y-32000D03*
X60000Y-32000D03*
X61000Y-32000D03*
X62000Y-32000D03*
X63000Y-32000D03*
X64000Y-32000D03*
X65000Y-32000D03*
X66000Y-32000D03*
X66000Y-26000D03*
X65000Y-26000D03*
X64000Y-26000D03*
X63000Y-26000D03*
X62000Y-26000D03*
X61000Y-26000D03*
X60000Y-26000D03*
X59000Y-26000D03*
X58000Y-26000D03*
X57000Y-26000D03*
X56000Y-26000D03*
X55000Y-26000D03*
X54000Y-26000D03*
X53000Y-26000D03*
G54D12*
X56000Y-45500D03*
G54D13*
X57000Y-45500D03*
X58000Y-45500D03*
X59000Y-45500D03*
X60000Y-45500D03*
X61000Y-45500D03*
X62000Y-45500D03*
X63000Y-45500D03*
X64000Y-45500D03*
X65000Y-45500D03*
X65000Y-42500D03*
X64000Y-42500D03*
X63000Y-42500D03*
X62000Y-42500D03*
X61000Y-42500D03*
X60000Y-42500D03*
X59000Y-42500D03*
X58000Y-42500D03*
X57000Y-42500D03*
X56000Y-42500D03*
G54D12*
X43000Y-38750D03*
G54D13*
X44000Y-38750D03*
X45000Y-38750D03*
X46000Y-38750D03*
X47000Y-38750D03*
X48000Y-38750D03*
X49000Y-38750D03*
X49000Y-35750D03*
X48000Y-35750D03*
X47000Y-35750D03*
X46000Y-35750D03*
X45000Y-35750D03*
X44000Y-35750D03*
X43000Y-35750D03*
G54D12*
X43000Y-32000D03*
G54D13*
X44000Y-32000D03*
X45000Y-32000D03*
X46000Y-32000D03*
X47000Y-32000D03*
X48000Y-32000D03*
X49000Y-32000D03*
X49000Y-29000D03*
X48000Y-29000D03*
X47000Y-29000D03*
X46000Y-29000D03*
X45000Y-29000D03*
X44000Y-29000D03*
X43000Y-29000D03*
G54D16*
X70000Y-51375D03*
X69000Y-51375D03*
X68000Y-51375D03*
X67000Y-51375D03*
X66000Y-51375D03*
X65000Y-51375D03*
X64000Y-51375D03*
X63000Y-51375D03*
X61000Y-51375D03*
X60000Y-51375D03*
X59000Y-51375D03*
X58000Y-51375D03*
X57000Y-51375D03*
X56000Y-51375D03*
X55000Y-51375D03*
X54000Y-51375D03*
X53000Y-51375D03*
X52000Y-51375D03*
X51000Y-51375D03*
X50000Y-51375D03*
X49000Y-51375D03*
X48000Y-51375D03*
X47000Y-51375D03*
X46000Y-51375D03*
X45000Y-51375D03*
X44000Y-51375D03*
X43000Y-51375D03*
X42000Y-51375D03*
X41000Y-51375D03*
G54D13*
X45000Y-26500D03*
X45000Y-27500D03*
G54D17*
X70736Y-43750D03*
X70736Y-43250D03*
X70736Y-42750D03*
X70736Y-42250D03*
X70736Y-41750D03*
X70736Y-41250D03*
X70736Y-40750D03*
X70736Y-40250D03*
X70736Y-39750D03*
X70736Y-39250D03*
X70736Y-38750D03*
X70736Y-38250D03*
X70736Y-37750D03*
X70736Y-37250D03*
X70736Y-36750D03*
X70736Y-36250D03*
X70736Y-35750D03*
X70736Y-35250D03*
X70736Y-34750D03*
X70736Y-34250D03*
X70736Y-33750D03*
X70736Y-33250D03*
X70736Y-32750D03*
X70736Y-32250D03*
X70736Y-31750D03*
X70736Y-43500D03*
X70736Y-43000D03*
X70736Y-42500D03*
X70736Y-42000D03*
X70736Y-41500D03*
X70736Y-41000D03*
X70736Y-40500D03*
X70736Y-40000D03*
X70736Y-39500D03*
X70736Y-39000D03*
X70736Y-38500D03*
X70736Y-38000D03*
X70736Y-37500D03*
X70736Y-37000D03*
X70736Y-36500D03*
X70736Y-36000D03*
X70736Y-35500D03*
X70736Y-35000D03*
X70736Y-34500D03*
X70736Y-34000D03*
X70736Y-33500D03*
X70736Y-33000D03*
X70736Y-32500D03*
X70736Y-32000D03*
X70736Y-31500D03*
G54D18*
X80283Y-46680D03*
X80283Y-28570D03*
G54D19*
X73000Y-45251D03*
X73000Y-29999D03*
G54D20*
X71819Y-45251D03*
X71819Y-29999D03*
G54D21*
X78906Y-46975D03*
X78906Y-28275D03*
G54D22*
X60500Y-36750D03*
X58000Y-37250D03*
X56750Y-39000D03*
X55500Y-33750D03*
X56500Y-35750D03*
X58000Y-46500D03*
X66000Y-41125D03*
X66375Y-40875D03*
X66750Y-40625D03*
X66625Y-45125D03*
X69375Y-43250D03*
X66875Y-44375D03*
X69375Y-42750D03*
X68250Y-43375D03*
X69375Y-42250D03*
X68625Y-42500D03*
X69375Y-41750D03*
X63000Y-35000D03*
X56500Y-40500D03*
X56250Y-40000D03*
X58500Y-39625D03*
X59500Y-39375D03*
X57750Y-38000D03*
X61500Y-36750D03*
X73500Y-48000D03*
X62000Y-49000D03*
X55000Y-41500D03*
X54500Y-42000D03*
X42000Y-28000D03*
X55000Y-42500D03*
X72000Y-28000D03*
X42000Y-27000D03*
X73000Y-28000D03*
X74000Y-28000D03*
X74000Y-26000D03*
X62000Y-48000D03*
X73000Y-38750D03*
X68500Y-39125D03*
X40500Y-48250D03*
X80000Y-37750D03*
X80000Y-39750D03*
X42000Y-26000D03*
X73000Y-37750D03*
X72000Y-27000D03*
X41000Y-28000D03*
X80000Y-35750D03*
X73000Y-35750D03*
X72000Y-26000D03*
X73000Y-39750D03*
X62000Y-47000D03*
X71000Y-48875D03*
X72500Y-48000D03*
X41000Y-27000D03*
X73000Y-27000D03*
X48750Y-47500D03*
X41000Y-26000D03*
X41000Y-48250D03*
X48500Y-44750D03*
X74000Y-27000D03*
X80000Y-36750D03*
X73000Y-26000D03*
X71750Y-35750D03*
X63000Y-47000D03*
X54000Y-47500D03*
X73000Y-36750D03*
X80000Y-38750D03*
X46500Y-34500D03*
X58000Y-44625D03*
X52000Y-41000D03*
X67375Y-40750D03*
X62500Y-46500D03*
G54D23*
X41750Y-48250D02*
X41750Y-30500D01*
X41000Y-49250D02*
X41000Y-49000D01*
X41000Y-49000D02*
X41750Y-48250D01*
X41750Y-30500D02*
X42500Y-29750D01*
X59750Y-29750D02*
X62000Y-32000D01*
X42500Y-29750D02*
X59750Y-29750D01*
X41000Y-51375D02*
X41000Y-49250D01*
X42750Y-30000D02*
X59000Y-30000D01*
X69000Y-34250D02*
X68250Y-33500D01*
X42000Y-51375D02*
X42000Y-30750D01*
X70736Y-34250D02*
X69000Y-34250D01*
X68250Y-33500D02*
X62500Y-33500D01*
X42000Y-30750D02*
X42750Y-30000D01*
X59000Y-30000D02*
X61000Y-32000D01*
X62500Y-33500D02*
X61000Y-32000D01*
X57750Y-37000D02*
X58000Y-36750D01*
X58000Y-36750D02*
X60500Y-36750D01*
X52500Y-44250D02*
X52500Y-47000D01*
X52500Y-42500D02*
X52500Y-42250D01*
X55750Y-39000D02*
X57750Y-37000D01*
X52500Y-44250D02*
X52500Y-42500D01*
X55250Y-39500D02*
X52500Y-42250D01*
X51000Y-48500D02*
X51000Y-51375D01*
X55250Y-39500D02*
X55750Y-39000D01*
X52500Y-47000D02*
X51000Y-48500D01*
X56250Y-39000D02*
X57750Y-37500D01*
X55500Y-39750D02*
X53000Y-42250D01*
X53000Y-45500D02*
X53000Y-47500D01*
X53000Y-42250D02*
X53000Y-45500D01*
X53000Y-47500D02*
X52000Y-48500D01*
X55500Y-39750D02*
X56000Y-39250D01*
X52000Y-48500D02*
X52000Y-51375D01*
X57750Y-37500D02*
X58000Y-37250D01*
X56000Y-39250D02*
X56250Y-39000D01*
X53500Y-48000D02*
X53000Y-48500D01*
X53000Y-51375D02*
X53000Y-48500D01*
X55250Y-40500D02*
X56250Y-39500D01*
X53500Y-46000D02*
X53500Y-48000D01*
X53500Y-42250D02*
X55250Y-40500D01*
X53500Y-42500D02*
X53500Y-42250D01*
X56250Y-39500D02*
X56750Y-39000D01*
X53500Y-46000D02*
X53500Y-42500D01*
X60250Y-43250D02*
X55250Y-43250D01*
X60250Y-43250D02*
X61000Y-42500D01*
X54000Y-51375D02*
X54000Y-48500D01*
X54500Y-44000D02*
X55000Y-43500D01*
X54000Y-48500D02*
X54500Y-48000D01*
X55250Y-43250D02*
X55000Y-43500D01*
X54500Y-48000D02*
X54500Y-44000D01*
X62000Y-43500D02*
X63000Y-42500D01*
X54750Y-44250D02*
X55250Y-43750D01*
X55000Y-48500D02*
X54750Y-48250D01*
X62000Y-43500D02*
X55500Y-43500D01*
X55500Y-43500D02*
X55250Y-43750D01*
X54750Y-48250D02*
X54750Y-44250D01*
X55000Y-51375D02*
X55000Y-48500D01*
X55500Y-44000D02*
X55750Y-43750D01*
X55000Y-44500D02*
X55500Y-44000D01*
X55750Y-43750D02*
X63750Y-43750D01*
X63750Y-43750D02*
X65000Y-42500D01*
X56000Y-48500D02*
X55000Y-47500D01*
X55000Y-47500D02*
X55000Y-44500D01*
X56000Y-51375D02*
X56000Y-48500D01*
X61498Y-43998D02*
X63000Y-45500D01*
X57000Y-48500D02*
X55250Y-46750D01*
X55250Y-44750D02*
X55500Y-44500D01*
X57000Y-51375D02*
X57000Y-48500D01*
X55500Y-44498D02*
X56000Y-43998D01*
X55500Y-44500D02*
X55500Y-44498D01*
X55250Y-46750D02*
X55250Y-44750D01*
X56000Y-43998D02*
X61498Y-43998D01*
X56250Y-44250D02*
X59750Y-44250D01*
X55500Y-46000D02*
X55500Y-45000D01*
X58000Y-51375D02*
X58000Y-49000D01*
X58000Y-49000D02*
X58000Y-48500D01*
X58000Y-48500D02*
X55500Y-46000D01*
X55500Y-45000D02*
X56250Y-44250D01*
X59750Y-44250D02*
X61000Y-45500D01*
X59000Y-49000D02*
X59000Y-48500D01*
X59000Y-51375D02*
X59000Y-49000D01*
X56500Y-46000D02*
X56500Y-45250D01*
X59000Y-48500D02*
X56500Y-46000D01*
X58500Y-45000D02*
X59000Y-45500D01*
X56750Y-45000D02*
X58500Y-45000D01*
X56500Y-45250D02*
X56750Y-45000D01*
X60000Y-51375D02*
X60000Y-49000D01*
X57000Y-45750D02*
X57000Y-45500D01*
X57000Y-45750D02*
X57000Y-46000D01*
X57000Y-46000D02*
X60000Y-49000D01*
X70736Y-34750D02*
X69000Y-34750D01*
X68000Y-33750D02*
X61750Y-33750D01*
X61750Y-33750D02*
X60000Y-32000D01*
X69000Y-34750D02*
X68000Y-33750D01*
X42250Y-48250D02*
X42250Y-31000D01*
X42250Y-31000D02*
X43000Y-30250D01*
X58250Y-30250D02*
X60000Y-32000D01*
X43000Y-49250D02*
X43000Y-49000D01*
X43000Y-30250D02*
X58250Y-30250D01*
X43000Y-51375D02*
X43000Y-49250D01*
X43000Y-49000D02*
X42250Y-48250D01*
X42500Y-48000D02*
X42500Y-31250D01*
X68000Y-35250D02*
X67500Y-34750D01*
X67250Y-34000D02*
X61000Y-34000D01*
X42500Y-31250D02*
X43250Y-30500D01*
X61000Y-34000D02*
X59000Y-32000D01*
X67500Y-34750D02*
X67500Y-34250D01*
X70736Y-35250D02*
X68000Y-35250D01*
X43250Y-30500D02*
X57500Y-30500D01*
X44000Y-49500D02*
X42500Y-48000D01*
X57500Y-30500D02*
X59000Y-32000D01*
X67500Y-34250D02*
X67250Y-34000D01*
X44000Y-51375D02*
X44000Y-49500D01*
X44500Y-30750D02*
X56750Y-30750D01*
X56750Y-30750D02*
X58000Y-32000D01*
X43500Y-38750D02*
X43500Y-39000D01*
X43500Y-31750D02*
X43500Y-32000D01*
X43000Y-32000D02*
X43500Y-32000D01*
X45000Y-51375D02*
X45000Y-48500D01*
X43500Y-32000D02*
X43500Y-38750D01*
X43000Y-38750D02*
X43500Y-38750D01*
X44500Y-30750D02*
X43500Y-31750D01*
X45000Y-48500D02*
X43500Y-47000D01*
X43500Y-39000D02*
X43500Y-47000D01*
X45250Y-31000D02*
X56000Y-31000D01*
X44000Y-45500D02*
X44000Y-44250D01*
X44000Y-46500D02*
X46000Y-48500D01*
X44000Y-44250D02*
X44500Y-43750D01*
X44500Y-43750D02*
X44500Y-31750D01*
X56000Y-31000D02*
X57000Y-32000D01*
X46000Y-48500D02*
X46000Y-51375D01*
X44500Y-31750D02*
X45250Y-31000D01*
X44000Y-45500D02*
X44000Y-46500D01*
X45500Y-40500D02*
X45500Y-32250D01*
X44750Y-46000D02*
X44500Y-45750D01*
X45500Y-46000D02*
X44750Y-46000D01*
X55250Y-31250D02*
X55250Y-31250D01*
X46000Y-47000D02*
X46000Y-46000D01*
X55250Y-31250D02*
X56000Y-32000D01*
X45500Y-32250D02*
X45500Y-31623D01*
X47000Y-48500D02*
X46000Y-47500D01*
X46000Y-46000D02*
X46000Y-45500D01*
X46000Y-46000D02*
X45500Y-46000D01*
X45500Y-31623D02*
X45875Y-31248D01*
X45500Y-43500D02*
X45500Y-40500D01*
X44500Y-44500D02*
X45500Y-43500D01*
X55250Y-31248D02*
X55250Y-31250D01*
X47002Y-31248D02*
X55250Y-31248D01*
X46000Y-47500D02*
X46000Y-47000D01*
X47000Y-51375D02*
X47000Y-48500D01*
X44500Y-45750D02*
X44500Y-44500D01*
X45875Y-31248D02*
X47002Y-31248D01*
X54500Y-31500D02*
X47750Y-31500D01*
X46500Y-44500D02*
X47500Y-43500D01*
X48000Y-46000D02*
X48000Y-45500D01*
X46500Y-33500D02*
X47500Y-34500D01*
X48000Y-46000D02*
X46750Y-46000D01*
X46500Y-32250D02*
X46500Y-33500D01*
X48000Y-51375D02*
X48000Y-46000D01*
X47500Y-43500D02*
X47500Y-34500D01*
X46750Y-46000D02*
X46500Y-45750D01*
X46500Y-45750D02*
X46500Y-44500D01*
X46500Y-32250D02*
X46500Y-31750D01*
X46750Y-31500D02*
X47750Y-31500D01*
X46500Y-31750D02*
X46750Y-31500D01*
X55000Y-32000D02*
X54500Y-31500D01*
X50000Y-47500D02*
X49000Y-48500D01*
X50000Y-45500D02*
X50000Y-47500D01*
X52250Y-40250D02*
X53500Y-39000D01*
X51500Y-40250D02*
X52250Y-40250D01*
X53500Y-35500D02*
X53500Y-39000D01*
X55250Y-33750D02*
X55500Y-33750D01*
X50500Y-44000D02*
X50500Y-41250D01*
X50000Y-44500D02*
X50500Y-44000D01*
X50000Y-45500D02*
X50000Y-44500D01*
X49000Y-51375D02*
X49000Y-48500D01*
X55250Y-33750D02*
X53500Y-35500D01*
X50500Y-41250D02*
X51500Y-40250D01*
X52000Y-42500D02*
X52000Y-43750D01*
X52000Y-42000D02*
X54500Y-39500D01*
X54500Y-39250D02*
X54500Y-39500D01*
X54500Y-38250D02*
X56250Y-36500D01*
X51500Y-44250D02*
X51500Y-47000D01*
X52000Y-43750D02*
X51500Y-44250D01*
X56250Y-36500D02*
X56500Y-36250D01*
X51500Y-47000D02*
X50000Y-48500D01*
X54500Y-38500D02*
X54500Y-38250D01*
X56500Y-36250D02*
X56500Y-35750D01*
X54500Y-39250D02*
X54500Y-38500D01*
X50000Y-51375D02*
X50000Y-48500D01*
X52000Y-42500D02*
X52000Y-42000D01*
X58500Y-46750D02*
X58250Y-46500D01*
X61000Y-49250D02*
X58500Y-46750D01*
X58250Y-46500D02*
X58000Y-46500D01*
X61000Y-49250D02*
X61000Y-51375D01*
X70736Y-35000D02*
X68500Y-35000D01*
X68500Y-35000D02*
X68000Y-34500D01*
X67000Y-34750D02*
X67000Y-34500D01*
X67000Y-34750D02*
X67000Y-34500D01*
X70736Y-35500D02*
X67750Y-35500D01*
X67750Y-35500D02*
X67000Y-34750D01*
X69375Y-33750D02*
X68625Y-33000D01*
X63000Y-49000D02*
X63000Y-48625D01*
X65500Y-46125D02*
X63000Y-48625D01*
X70736Y-33750D02*
X69375Y-33750D01*
X68625Y-33000D02*
X64000Y-33000D01*
X65500Y-45875D02*
X65500Y-46125D01*
X64000Y-33000D02*
X63000Y-32000D01*
X66000Y-43250D02*
X66000Y-41125D01*
X65500Y-43750D02*
X66000Y-43250D01*
X65500Y-43750D02*
X65500Y-45875D01*
X63000Y-51375D02*
X63000Y-49000D01*
X66375Y-43375D02*
X66375Y-40875D01*
X65875Y-44250D02*
X65875Y-44000D01*
X65875Y-45875D02*
X65875Y-46250D01*
X65875Y-43875D02*
X66375Y-43375D01*
X65875Y-44250D02*
X65875Y-45875D01*
X70736Y-33250D02*
X69375Y-33250D01*
X68500Y-32750D02*
X66625Y-32750D01*
X65875Y-46250D02*
X64000Y-48125D01*
X66625Y-32750D02*
X64750Y-32750D01*
X68500Y-32750D02*
X68875Y-32750D01*
X64750Y-32750D02*
X64000Y-32000D01*
X64000Y-51375D02*
X64000Y-48125D01*
X69375Y-33250D02*
X68875Y-32750D01*
X65875Y-44000D02*
X65875Y-43875D01*
X66750Y-43500D02*
X66750Y-41500D01*
X65000Y-51375D02*
X65000Y-47625D01*
X68625Y-32500D02*
X69000Y-32500D01*
X66500Y-43750D02*
X66750Y-43500D01*
X66750Y-41500D02*
X66750Y-40625D01*
X69000Y-32500D02*
X69125Y-32500D01*
X69375Y-32750D02*
X70736Y-32750D01*
X65000Y-47625D02*
X66250Y-46375D01*
X68625Y-32500D02*
X65500Y-32500D01*
X65000Y-32000D02*
X65500Y-32500D01*
X66250Y-44000D02*
X66250Y-46375D01*
X69125Y-32500D02*
X69375Y-32750D01*
X66250Y-44000D02*
X66500Y-43750D01*
X66625Y-45125D02*
X66625Y-48500D01*
X69375Y-43250D02*
X70736Y-43250D01*
X66625Y-48500D02*
X66000Y-49125D01*
X66000Y-49125D02*
X66000Y-51375D01*
X67000Y-51375D02*
X67000Y-44750D01*
X67000Y-44500D02*
X66875Y-44375D01*
X69375Y-42750D02*
X70736Y-42750D01*
X67000Y-44750D02*
X67000Y-44500D01*
X68000Y-51375D02*
X68000Y-49125D01*
X68625Y-44625D02*
X68250Y-44250D01*
X68250Y-44250D02*
X68250Y-43375D01*
X68000Y-49125D02*
X68625Y-48500D01*
X68625Y-48500D02*
X68625Y-44625D01*
X69375Y-42250D02*
X70736Y-42250D01*
X69000Y-49250D02*
X69000Y-45000D01*
X68625Y-42500D02*
X68625Y-44125D01*
X69000Y-45000D02*
X69000Y-44625D01*
X69000Y-44500D02*
X68625Y-44125D01*
X69000Y-49250D02*
X69000Y-51375D01*
X69000Y-44500D02*
X69000Y-44625D01*
X70736Y-41750D02*
X69375Y-41750D01*
X70000Y-47000D02*
X70000Y-46500D01*
X70000Y-45000D02*
X69000Y-44000D01*
X70000Y-45750D02*
X70000Y-45000D01*
X70000Y-46500D02*
X70000Y-45750D01*
X70000Y-51375D02*
X70000Y-47000D01*
X70736Y-41250D02*
X69375Y-41250D01*
X69000Y-41750D02*
X69000Y-42000D01*
X69000Y-41750D02*
X69000Y-41625D01*
X68000Y-42000D02*
X69000Y-42000D01*
X69000Y-44000D02*
X69000Y-42000D01*
X69375Y-41250D02*
X69000Y-41625D01*
X62750Y-35000D02*
X63000Y-35000D01*
X60250Y-35000D02*
X62750Y-35000D01*
X60000Y-34750D02*
X60250Y-35000D01*
X58250Y-33000D02*
X60000Y-34750D01*
X48000Y-33000D02*
X58250Y-33000D01*
X47000Y-32000D02*
X48000Y-33000D01*
X68750Y-40250D02*
X68750Y-40250D01*
X70736Y-40750D02*
X69252Y-40750D01*
X56750Y-40250D02*
X56500Y-40500D01*
X68750Y-40250D02*
X56750Y-40250D01*
X68750Y-40248D02*
X68750Y-40250D01*
X69252Y-40750D02*
X68750Y-40248D01*
X69500Y-40500D02*
X69000Y-40000D01*
X69000Y-40000D02*
X56250Y-40000D01*
X70736Y-40500D02*
X69500Y-40500D01*
X70736Y-34000D02*
X69250Y-34000D01*
X63500Y-33250D02*
X62500Y-32250D01*
X60250Y-29500D02*
X48500Y-29500D01*
X68500Y-33250D02*
X63500Y-33250D01*
X62500Y-32250D02*
X62500Y-31750D01*
X48500Y-29500D02*
X48000Y-29000D01*
X62500Y-31750D02*
X60250Y-29500D01*
X69250Y-34000D02*
X68500Y-33250D01*
X58500Y-32500D02*
X60500Y-34500D01*
X48500Y-32500D02*
X48000Y-32000D01*
X60500Y-34500D02*
X66250Y-34500D01*
X67750Y-36000D02*
X66250Y-34500D01*
X48500Y-32500D02*
X58500Y-32500D01*
X70736Y-36000D02*
X67750Y-36000D01*
X70736Y-39500D02*
X69375Y-39500D01*
X69125Y-39750D02*
X58625Y-39750D01*
X58625Y-39750D02*
X58500Y-39625D01*
X69375Y-39500D02*
X69125Y-39750D01*
X69375Y-39000D02*
X68875Y-39500D01*
X68875Y-39500D02*
X59625Y-39500D01*
X59625Y-39500D02*
X59500Y-39375D01*
X70736Y-39000D02*
X69375Y-39000D01*
X57750Y-38000D02*
X58000Y-37750D01*
X58000Y-37750D02*
X60500Y-37750D01*
X60500Y-37750D02*
X61500Y-36750D01*
X70736Y-37000D02*
X69625Y-37000D01*
X71750Y-37000D02*
X70736Y-37000D01*
X41000Y-45000D02*
X40500Y-45500D01*
X61500Y-36250D02*
X62000Y-35750D01*
X66000Y-32000D02*
X72000Y-26000D01*
X40500Y-32125D02*
X40500Y-32000D01*
X48500Y-44250D02*
X48500Y-44750D01*
X58500Y-42000D02*
X59000Y-42500D01*
X66500Y-37000D02*
X65250Y-37000D01*
X54000Y-35750D02*
X54500Y-35250D01*
X57500Y-35250D02*
X59500Y-35250D01*
X63500Y-36250D02*
X63000Y-35750D01*
X66500Y-37375D02*
X66500Y-38375D01*
X65250Y-37000D02*
X64000Y-35750D01*
X55125Y-42625D02*
X54500Y-42000D01*
X55000Y-41500D02*
X55000Y-42500D01*
X73000Y-28000D02*
X74000Y-28000D01*
X40500Y-26000D02*
X41000Y-26000D01*
X42000Y-26000D02*
X42000Y-27000D01*
X72500Y-48000D02*
X73500Y-48000D01*
X78906Y-27094D02*
X79500Y-26500D01*
X48500Y-44750D02*
X48500Y-47250D01*
G54D24*
X49000Y-42500D02*
X49000Y-43625D01*
G54D23*
X49000Y-43750D02*
X48500Y-44250D01*
X41000Y-48250D02*
X40500Y-48250D01*
X40500Y-32000D02*
X41000Y-31500D01*
X78906Y-29844D02*
X78906Y-28275D01*
X40500Y-38750D02*
X40500Y-32125D01*
X40500Y-26125D02*
X40500Y-26000D01*
G54D24*
X49000Y-43625D02*
X48500Y-44125D01*
G54D23*
X66000Y-32000D02*
X68500Y-32000D01*
X54500Y-35250D02*
X57500Y-35250D01*
X62500Y-36250D02*
X62000Y-35750D01*
X58000Y-35750D02*
X57500Y-35250D01*
X60000Y-35750D02*
X60500Y-36250D01*
X60500Y-36250D02*
X61000Y-35750D01*
X55750Y-42000D02*
X57500Y-42000D01*
X73000Y-39750D02*
X80000Y-39750D01*
X59500Y-35250D02*
X60000Y-35750D01*
X40500Y-39000D02*
X40500Y-38750D01*
X70736Y-31500D02*
X77250Y-31500D01*
X66500Y-37375D02*
X66500Y-37000D01*
X57500Y-42000D02*
X58000Y-42500D01*
X71750Y-35750D02*
X70736Y-35750D01*
X61000Y-35750D02*
X61500Y-36250D01*
G54D24*
X48500Y-44125D02*
X48500Y-44500D01*
X48500Y-44500D02*
X48500Y-44750D01*
G54D23*
X68375Y-39250D02*
X68500Y-39125D01*
X72000Y-27000D02*
X72000Y-28000D01*
X55125Y-42625D02*
X55750Y-42000D01*
X70736Y-37252D02*
X70736Y-37250D01*
X71750Y-37250D02*
X71748Y-37252D01*
X71748Y-37252D02*
X70736Y-37252D01*
X71750Y-37000D02*
X71750Y-37250D01*
X69625Y-38250D02*
X69625Y-38750D01*
X71750Y-36250D02*
X71750Y-36750D01*
X71750Y-35750D02*
X71750Y-36250D01*
X70736Y-36750D02*
X71750Y-36750D01*
X70736Y-36250D02*
X71750Y-36250D01*
X68875Y-38750D02*
X68500Y-39125D01*
X69625Y-38750D02*
X68875Y-38750D01*
X70736Y-38750D02*
X69625Y-38750D01*
X71750Y-36750D02*
X71750Y-37000D01*
X40500Y-45500D02*
X40500Y-39000D01*
X41000Y-47500D02*
X40500Y-47000D01*
X48500Y-47250D02*
X48750Y-47500D01*
X40500Y-32125D02*
X40500Y-26125D01*
X70736Y-37252D02*
X70736Y-37250D01*
X74000Y-27000D02*
X73000Y-27000D01*
G54D24*
X65000Y-45500D02*
X65000Y-46000D01*
G54D23*
X69500Y-43875D02*
X69625Y-43750D01*
X69625Y-43750D02*
X70736Y-43750D01*
X71000Y-48875D02*
X70500Y-48375D01*
X70500Y-48375D02*
X70500Y-45750D01*
X69625Y-36750D02*
X69625Y-37000D01*
X70500Y-45750D02*
X70500Y-45000D01*
X69500Y-44000D02*
X69500Y-43875D01*
X71750Y-40250D02*
X71750Y-39750D01*
X71750Y-43750D02*
X71750Y-40250D01*
X70736Y-43750D02*
X71750Y-43750D01*
X70736Y-40250D02*
X71750Y-40250D01*
X69625Y-40250D02*
X69625Y-39748D01*
X69625Y-39748D02*
X69627Y-39750D01*
X69627Y-39750D02*
X70736Y-39750D01*
X70500Y-45000D02*
X69500Y-44000D01*
X69625Y-37250D02*
X69627Y-37252D01*
X69625Y-37250D02*
X69627Y-37252D01*
X69627Y-37252D02*
X70736Y-37252D01*
X69625Y-36250D02*
X69625Y-36750D01*
X70736Y-36250D02*
X69625Y-36250D01*
X70736Y-36750D02*
X69625Y-36750D01*
X70736Y-40250D02*
X69625Y-40250D01*
X69625Y-37000D02*
X68500Y-37000D01*
X73000Y-35750D02*
X73000Y-36750D01*
X58000Y-42500D02*
X58500Y-42000D01*
X69625Y-37000D02*
X69625Y-37250D01*
X71750Y-38750D02*
X70736Y-38750D01*
X71750Y-39750D02*
X71750Y-39250D01*
X71750Y-39250D02*
X71750Y-38750D01*
X70736Y-39250D02*
X71750Y-39250D01*
X68500Y-37000D02*
X68000Y-37500D01*
X54000Y-43750D02*
X55125Y-42625D01*
X68500Y-32000D02*
X68625Y-32000D01*
X78906Y-48156D02*
X78906Y-46975D01*
X67500Y-37000D02*
X68000Y-37500D01*
X66750Y-37000D02*
X67500Y-37000D01*
X70736Y-38250D02*
X69625Y-38250D01*
G54D24*
X54000Y-45000D02*
X54000Y-43750D01*
G54D23*
X69125Y-31500D02*
X70736Y-31500D01*
X68625Y-32000D02*
X69125Y-31500D01*
X80000Y-38750D02*
X80000Y-37750D01*
X78906Y-28275D02*
X78906Y-27094D01*
X40500Y-47000D02*
X40500Y-45500D01*
X66500Y-37375D02*
X66500Y-37250D01*
X66750Y-37000D02*
X66500Y-37000D01*
X71750Y-35750D02*
X71706Y-35706D01*
X64000Y-35750D02*
X63500Y-36250D01*
X41000Y-38250D02*
X40500Y-38750D01*
X70736Y-39750D02*
X71750Y-39750D01*
X77250Y-31500D02*
X78906Y-29844D01*
X73000Y-39750D02*
X71801Y-39750D01*
X41000Y-48250D02*
X41000Y-47500D01*
X80000Y-36750D02*
X80000Y-35750D01*
X68375Y-39250D02*
X67375Y-39250D01*
X66500Y-38375D02*
X67375Y-39250D01*
X63000Y-35750D02*
X62500Y-36250D01*
X79500Y-48750D02*
X78906Y-48156D01*
G54D24*
X54000Y-45000D02*
X54000Y-47500D01*
G54D23*
X41000Y-27000D02*
X41000Y-28000D01*
X73000Y-26000D02*
X74000Y-26000D01*
X62000Y-48000D02*
X62000Y-47000D01*
G54D24*
X65000Y-46000D02*
X62000Y-49000D01*
G54D23*
X73000Y-37750D02*
X73000Y-38750D01*
X46000Y-37625D02*
X46000Y-37500D01*
X46000Y-37500D02*
X46500Y-37000D01*
X46000Y-38750D02*
X46000Y-37625D01*
X46500Y-37000D02*
X46500Y-34500D01*
X64750Y-40500D02*
X61000Y-40500D01*
X62000Y-45500D02*
X62500Y-46000D01*
X65750Y-43000D02*
X65750Y-41498D01*
X62500Y-46000D02*
X64250Y-46000D01*
X64750Y-40500D02*
X64750Y-40500D01*
X61000Y-40500D02*
X60000Y-41500D01*
X64250Y-46000D02*
X64500Y-45750D01*
X64500Y-44250D02*
X65750Y-43000D01*
X64500Y-45750D02*
X64500Y-44250D01*
X64750Y-40498D02*
X64750Y-40500D01*
X65750Y-41498D02*
X64750Y-40498D01*
X62625Y-42000D02*
X63500Y-42000D01*
X62000Y-41500D02*
X62125Y-41500D01*
X62125Y-41500D02*
X62625Y-42000D01*
X63500Y-42000D02*
X64000Y-42500D01*
X61500Y-41750D02*
X61500Y-41250D01*
X63500Y-41000D02*
X61750Y-41000D01*
X61250Y-42000D02*
X61500Y-41750D01*
X60500Y-42000D02*
X61250Y-42000D01*
X64000Y-41500D02*
X63500Y-41000D01*
X61500Y-41250D02*
X61750Y-41000D01*
X60500Y-42000D02*
X60000Y-42500D01*
X56000Y-45125D02*
X56500Y-44625D01*
X56500Y-44625D02*
X58000Y-44625D01*
X56000Y-45500D02*
X56000Y-45125D01*
X43750Y-27500D02*
X43000Y-27500D01*
X45000Y-29000D02*
X45000Y-28750D01*
X45000Y-28750D02*
X43750Y-27500D01*
X47000Y-26500D02*
X45000Y-26500D01*
X64000Y-45500D02*
X64000Y-44750D01*
X61000Y-41250D02*
X61000Y-41500D01*
X64500Y-41125D02*
X64125Y-40750D01*
X65250Y-42000D02*
X64750Y-42000D01*
X64125Y-40750D02*
X61500Y-40750D01*
X64750Y-42000D02*
X64500Y-41750D01*
X64500Y-41750D02*
X64500Y-41125D01*
X64000Y-44750D02*
X64000Y-44250D01*
X65500Y-42750D02*
X65500Y-42250D01*
X61500Y-40750D02*
X61000Y-41250D01*
X64000Y-44250D02*
X65500Y-42750D01*
X65500Y-42250D02*
X65250Y-42000D01*
X46375Y-27500D02*
X45875Y-27000D01*
X47000Y-27500D02*
X46375Y-27500D01*
X45875Y-27000D02*
X44250Y-27000D01*
X44250Y-27000D02*
X43750Y-26500D01*
X43750Y-26500D02*
X43000Y-26500D01*
X48500Y-43250D02*
X48500Y-42000D01*
X52500Y-38250D02*
X51250Y-38250D01*
X47000Y-44750D02*
X48500Y-43250D01*
X48500Y-42000D02*
X48000Y-41500D01*
X53000Y-38750D02*
X52500Y-38250D01*
X47000Y-45500D02*
X47000Y-44750D01*
X51250Y-38250D02*
X48000Y-41500D01*
X49000Y-44250D02*
X49000Y-45500D01*
X49000Y-41500D02*
X49500Y-42000D01*
X49000Y-44250D02*
X49500Y-43750D01*
X49500Y-43750D02*
X49500Y-42000D01*
X51750Y-38750D02*
X49000Y-41500D01*
X52000Y-38750D02*
X51750Y-38750D01*
X45000Y-44750D02*
X46500Y-43250D01*
X46500Y-42000D02*
X47000Y-41500D01*
X54000Y-39000D02*
X52000Y-41000D01*
X45000Y-45500D02*
X45000Y-44750D01*
X54000Y-38750D02*
X54000Y-39000D01*
X46500Y-43250D02*
X46500Y-42000D01*
X47000Y-29000D02*
X47000Y-28750D01*
X47000Y-28750D02*
X45750Y-27500D01*
X45750Y-27500D02*
X45000Y-27500D01*
X44000Y-42500D02*
X44000Y-38750D01*
G54D24*
X67375Y-46750D02*
X67375Y-40750D01*
X69125Y-37625D02*
X68000Y-38750D01*
X67000Y-37750D02*
X67000Y-37500D01*
X68000Y-47375D02*
X67375Y-46750D01*
X60000Y-46500D02*
X59000Y-46500D01*
X68000Y-38750D02*
X67000Y-37750D01*
G54D23*
X72125Y-37498D02*
X72125Y-37500D01*
G54D24*
X69750Y-37625D02*
X69125Y-37625D01*
X59000Y-46500D02*
X58000Y-45500D01*
G54D23*
X72125Y-37753D02*
X72125Y-37750D01*
X71750Y-34500D02*
X72125Y-34875D01*
X69250Y-37500D02*
X69125Y-37625D01*
X70736Y-37500D02*
X69250Y-37500D01*
X69250Y-37750D02*
X69125Y-37625D01*
X70736Y-37750D02*
X69250Y-37750D01*
X72125Y-37750D02*
X70736Y-37750D01*
X72125Y-37500D02*
X70736Y-37500D01*
X71750Y-38500D02*
X72125Y-38125D01*
X72125Y-38125D02*
X72125Y-37750D01*
X72125Y-34875D02*
X72125Y-37500D01*
X51000Y-45500D02*
X51000Y-42500D01*
X70736Y-34500D02*
X71750Y-34500D01*
X70736Y-38500D02*
X71750Y-38500D01*
G54D24*
X60000Y-45500D02*
X60000Y-46500D01*
X60000Y-46500D02*
X62500Y-46500D01*
G54D23*
X72125Y-37500D02*
X72125Y-37750D01*
G54D10*
G36*
X44071Y-35750D02*
X44000Y-35821D01*
X43929Y-35750D01*
X44000Y-35679D01*
X44071Y-35750D01*
X44071Y-35750D01*
G37*
G54D25*
X44071Y-35750D02*
X44000Y-35821D01*
X43929Y-35750D01*
X44000Y-35679D01*
X44071Y-35750D01*
G54D10*
G36*
X45071Y-32000D02*
X45000Y-32071D01*
X44929Y-32000D01*
X45000Y-31929D01*
X45071Y-32000D01*
X45071Y-32000D01*
G37*
G54D25*
X45071Y-32000D02*
X45000Y-32071D01*
X44929Y-32000D01*
X45000Y-31929D01*
X45071Y-32000D01*
G54D10*
G36*
X45071Y-35750D02*
X45000Y-35821D01*
X44929Y-35750D01*
X45000Y-35679D01*
X45071Y-35750D01*
X45071Y-35750D01*
G37*
G54D25*
X45071Y-35750D02*
X45000Y-35821D01*
X44929Y-35750D01*
X45000Y-35679D01*
X45071Y-35750D01*
G54D10*
G36*
X45071Y-42500D02*
X45000Y-42571D01*
X44929Y-42500D01*
X45000Y-42429D01*
X45071Y-42500D01*
X45071Y-42500D01*
G37*
G54D25*
X45071Y-42500D02*
X45000Y-42571D01*
X44929Y-42500D01*
X45000Y-42429D01*
X45071Y-42500D01*
G54D10*
G36*
X46071Y-42500D02*
X46000Y-42571D01*
X45929Y-42500D01*
X46000Y-42429D01*
X46071Y-42500D01*
X46071Y-42500D01*
G37*
G54D25*
X46071Y-42500D02*
X46000Y-42571D01*
X45929Y-42500D01*
X46000Y-42429D01*
X46071Y-42500D01*
G54D10*
G36*
X47071Y-35750D02*
X47000Y-35821D01*
X46929Y-35750D01*
X47000Y-35679D01*
X47071Y-35750D01*
X47071Y-35750D01*
G37*
G54D25*
X47071Y-35750D02*
X47000Y-35821D01*
X46929Y-35750D01*
X47000Y-35679D01*
X47071Y-35750D01*
G54D10*
G36*
X47071Y-42500D02*
X47000Y-42571D01*
X46929Y-42500D01*
X47000Y-42429D01*
X47071Y-42500D01*
X47071Y-42500D01*
G37*
G54D25*
X47071Y-42500D02*
X47000Y-42571D01*
X46929Y-42500D01*
X47000Y-42429D01*
X47071Y-42500D01*
G54D10*
G36*
X48071Y-42500D02*
X48000Y-42571D01*
X47929Y-42500D01*
X48000Y-42429D01*
X48071Y-42500D01*
X48071Y-42500D01*
G37*
G54D25*
X48071Y-42500D02*
X48000Y-42571D01*
X47929Y-42500D01*
X48000Y-42429D01*
X48071Y-42500D01*
G54D10*
G36*
X49071Y-32000D02*
X49000Y-32071D01*
X48929Y-32000D01*
X49000Y-31929D01*
X49071Y-32000D01*
X49071Y-32000D01*
G37*
G54D25*
X49071Y-32000D02*
X49000Y-32071D01*
X48929Y-32000D01*
X49000Y-31929D01*
X49071Y-32000D01*
G54D10*
G36*
X49071Y-42500D02*
X49000Y-42571D01*
X48929Y-42500D01*
X49000Y-42429D01*
X49071Y-42500D01*
X49071Y-42500D01*
G37*
G54D25*
X49071Y-42500D02*
X49000Y-42571D01*
X48929Y-42500D01*
X49000Y-42429D01*
X49071Y-42500D01*
G54D10*
G36*
X50071Y-42500D02*
X50000Y-42571D01*
X49929Y-42500D01*
X50000Y-42429D01*
X50071Y-42500D01*
X50071Y-42500D01*
G37*
G54D25*
X50071Y-42500D02*
X50000Y-42571D01*
X49929Y-42500D01*
X50000Y-42429D01*
X50071Y-42500D01*
G54D10*
G36*
X50229Y-43887D02*
X49808Y-44308D01*
X49750Y-44396D01*
X49746Y-44414D01*
X49728Y-44500D01*
X49729Y-44504D01*
X49729Y-45100D01*
X49598Y-45231D01*
X49526Y-45405D01*
X49526Y-45594D01*
X49598Y-45768D01*
X49729Y-45899D01*
X49729Y-47387D01*
X48808Y-48308D01*
X48750Y-48396D01*
X48746Y-48414D01*
X48728Y-48500D01*
X48729Y-48504D01*
X48729Y-49325D01*
X48271Y-49325D01*
X48271Y-46000D01*
X48271Y-45899D01*
X48402Y-45769D01*
X48474Y-45595D01*
X48474Y-45406D01*
X48402Y-45232D01*
X48269Y-45098D01*
X48095Y-45026D01*
X47906Y-45026D01*
X47732Y-45098D01*
X47598Y-45231D01*
X47526Y-45405D01*
X47526Y-45594D01*
X47581Y-45729D01*
X47418Y-45729D01*
X47474Y-45595D01*
X47474Y-45406D01*
X47402Y-45232D01*
X47271Y-45100D01*
X47271Y-44862D01*
X48689Y-43443D01*
X48691Y-43442D01*
X48692Y-43442D01*
X48750Y-43354D01*
X48750Y-43353D01*
X48771Y-43250D01*
X48771Y-42965D01*
X48926Y-43019D01*
X49130Y-43008D01*
X49229Y-42967D01*
X49229Y-43637D01*
X48808Y-44058D01*
X48750Y-44146D01*
X48746Y-44164D01*
X48728Y-44250D01*
X48729Y-44254D01*
X48729Y-45100D01*
X48598Y-45231D01*
X48526Y-45405D01*
X48526Y-45594D01*
X48598Y-45768D01*
X48731Y-45902D01*
X48905Y-45974D01*
X49094Y-45974D01*
X49268Y-45902D01*
X49402Y-45769D01*
X49474Y-45595D01*
X49474Y-45406D01*
X49402Y-45232D01*
X49271Y-45100D01*
X49271Y-44363D01*
X49692Y-43942D01*
X49750Y-43854D01*
X49750Y-43853D01*
X49771Y-43750D01*
X49771Y-42965D01*
X49926Y-43019D01*
X50130Y-43008D01*
X50229Y-42967D01*
X50229Y-43887D01*
X50229Y-43887D01*
G37*
G54D25*
X50229Y-43887D02*
X49808Y-44308D01*
X49750Y-44396D01*
X49746Y-44414D01*
X49728Y-44500D01*
X49729Y-44504D01*
X49729Y-45100D01*
X49598Y-45231D01*
X49526Y-45405D01*
X49526Y-45594D01*
X49598Y-45768D01*
X49729Y-45899D01*
X49729Y-47387D01*
X48808Y-48308D01*
X48750Y-48396D01*
X48746Y-48414D01*
X48728Y-48500D01*
X48729Y-48504D01*
X48729Y-49325D01*
X48271Y-49325D01*
X48271Y-46000D01*
X48271Y-45899D01*
X48402Y-45769D01*
X48474Y-45595D01*
X48474Y-45406D01*
X48402Y-45232D01*
X48269Y-45098D01*
X48095Y-45026D01*
X47906Y-45026D01*
X47732Y-45098D01*
X47598Y-45231D01*
X47526Y-45405D01*
X47526Y-45594D01*
X47581Y-45729D01*
X47418Y-45729D01*
X47474Y-45595D01*
X47474Y-45406D01*
X47402Y-45232D01*
X47271Y-45100D01*
X47271Y-44862D01*
X48689Y-43443D01*
X48691Y-43442D01*
X48692Y-43442D01*
X48750Y-43354D01*
X48750Y-43353D01*
X48771Y-43250D01*
X48771Y-42965D01*
X48926Y-43019D01*
X49130Y-43008D01*
X49229Y-42967D01*
X49229Y-43637D01*
X48808Y-44058D01*
X48750Y-44146D01*
X48746Y-44164D01*
X48728Y-44250D01*
X48729Y-44254D01*
X48729Y-45100D01*
X48598Y-45231D01*
X48526Y-45405D01*
X48526Y-45594D01*
X48598Y-45768D01*
X48731Y-45902D01*
X48905Y-45974D01*
X49094Y-45974D01*
X49268Y-45902D01*
X49402Y-45769D01*
X49474Y-45595D01*
X49474Y-45406D01*
X49402Y-45232D01*
X49271Y-45100D01*
X49271Y-44363D01*
X49692Y-43942D01*
X49750Y-43854D01*
X49750Y-43853D01*
X49771Y-43750D01*
X49771Y-42965D01*
X49926Y-43019D01*
X50130Y-43008D01*
X50229Y-42967D01*
X50229Y-43887D01*
G54D10*
G36*
X52071Y-45500D02*
X52000Y-45571D01*
X51929Y-45500D01*
X52000Y-45429D01*
X52071Y-45500D01*
X52071Y-45500D01*
G37*
G54D25*
X52071Y-45500D02*
X52000Y-45571D01*
X51929Y-45500D01*
X52000Y-45429D01*
X52071Y-45500D01*
G54D10*
G36*
X54071Y-45000D02*
X54000Y-45071D01*
X53929Y-45000D01*
X54000Y-44929D01*
X54071Y-45000D01*
X54071Y-45000D01*
G37*
G54D25*
X54071Y-45000D02*
X54000Y-45071D01*
X53929Y-45000D01*
X54000Y-44929D01*
X54071Y-45000D01*
G54D10*
G36*
X54229Y-47887D02*
X53808Y-48308D01*
X53750Y-48396D01*
X53746Y-48414D01*
X53728Y-48500D01*
X53729Y-48504D01*
X53729Y-49325D01*
X53271Y-49325D01*
X53271Y-48613D01*
X53692Y-48192D01*
X53750Y-48104D01*
X53750Y-48103D01*
X53771Y-48000D01*
X53771Y-46000D01*
X53771Y-45465D01*
X53926Y-45519D01*
X54130Y-45508D01*
X54229Y-45467D01*
X54229Y-47887D01*
X54229Y-47887D01*
G37*
G54D25*
X54229Y-47887D02*
X53808Y-48308D01*
X53750Y-48396D01*
X53746Y-48414D01*
X53728Y-48500D01*
X53729Y-48504D01*
X53729Y-49325D01*
X53271Y-49325D01*
X53271Y-48613D01*
X53692Y-48192D01*
X53750Y-48104D01*
X53750Y-48103D01*
X53771Y-48000D01*
X53771Y-46000D01*
X53771Y-45465D01*
X53926Y-45519D01*
X54130Y-45508D01*
X54229Y-45467D01*
X54229Y-47887D01*
G54D10*
G36*
X60595Y-40521D02*
X60090Y-41026D01*
X59906Y-41026D01*
X59732Y-41098D01*
X59598Y-41231D01*
X59526Y-41405D01*
X59526Y-41594D01*
X59598Y-41768D01*
X59731Y-41902D01*
X59905Y-41974D01*
X60094Y-41974D01*
X60175Y-41940D01*
X60090Y-42026D01*
X59906Y-42026D01*
X59732Y-42098D01*
X59598Y-42231D01*
X59526Y-42405D01*
X59526Y-42594D01*
X59598Y-42768D01*
X59731Y-42902D01*
X59905Y-42974D01*
X60094Y-42974D01*
X60176Y-42940D01*
X60137Y-42979D01*
X59519Y-42979D01*
X59519Y-42574D01*
X59508Y-42370D01*
X59474Y-42286D01*
X59474Y-41595D01*
X59474Y-41406D01*
X59402Y-41232D01*
X59269Y-41098D01*
X59095Y-41026D01*
X58906Y-41026D01*
X58732Y-41098D01*
X58598Y-41231D01*
X58526Y-41405D01*
X58526Y-41594D01*
X58598Y-41768D01*
X58731Y-41902D01*
X58905Y-41974D01*
X59094Y-41974D01*
X59268Y-41902D01*
X59402Y-41769D01*
X59474Y-41595D01*
X59474Y-42286D01*
X59452Y-42233D01*
X59361Y-42210D01*
X59290Y-42281D01*
X59290Y-42139D01*
X59267Y-42048D01*
X59074Y-41981D01*
X58870Y-41992D01*
X58733Y-42048D01*
X58710Y-42139D01*
X59000Y-42429D01*
X59290Y-42139D01*
X59290Y-42281D01*
X59071Y-42500D01*
X59361Y-42790D01*
X59452Y-42767D01*
X59519Y-42574D01*
X59519Y-42979D01*
X59200Y-42979D01*
X59267Y-42952D01*
X59290Y-42861D01*
X59000Y-42571D01*
X58929Y-42642D01*
X58929Y-42500D01*
X58639Y-42210D01*
X58548Y-42233D01*
X58503Y-42359D01*
X58474Y-42287D01*
X58474Y-41595D01*
X58474Y-41406D01*
X58402Y-41232D01*
X58269Y-41098D01*
X58095Y-41026D01*
X57906Y-41026D01*
X57732Y-41098D01*
X57598Y-41231D01*
X57526Y-41405D01*
X57526Y-41594D01*
X57598Y-41768D01*
X57731Y-41902D01*
X57905Y-41974D01*
X58094Y-41974D01*
X58268Y-41902D01*
X58402Y-41769D01*
X58474Y-41595D01*
X58474Y-42287D01*
X58452Y-42233D01*
X58361Y-42210D01*
X58290Y-42281D01*
X58290Y-42139D01*
X58267Y-42048D01*
X58074Y-41981D01*
X57870Y-41992D01*
X57733Y-42048D01*
X57710Y-42139D01*
X58000Y-42429D01*
X58290Y-42139D01*
X58290Y-42281D01*
X58071Y-42500D01*
X58361Y-42790D01*
X58452Y-42767D01*
X58496Y-42640D01*
X58548Y-42767D01*
X58639Y-42790D01*
X58929Y-42500D01*
X58929Y-42642D01*
X58710Y-42861D01*
X58733Y-42952D01*
X58810Y-42979D01*
X58200Y-42979D01*
X58267Y-42952D01*
X58290Y-42861D01*
X58000Y-42571D01*
X57929Y-42642D01*
X57929Y-42500D01*
X57639Y-42210D01*
X57548Y-42233D01*
X57481Y-42426D01*
X57492Y-42630D01*
X57548Y-42767D01*
X57639Y-42790D01*
X57929Y-42500D01*
X57929Y-42642D01*
X57710Y-42861D01*
X57733Y-42952D01*
X57810Y-42979D01*
X57474Y-42979D01*
X57474Y-42595D01*
X57474Y-42406D01*
X57474Y-41595D01*
X57474Y-41406D01*
X57402Y-41232D01*
X57269Y-41098D01*
X57095Y-41026D01*
X56906Y-41026D01*
X56732Y-41098D01*
X56598Y-41231D01*
X56526Y-41405D01*
X56526Y-41594D01*
X56598Y-41768D01*
X56731Y-41902D01*
X56905Y-41974D01*
X57094Y-41974D01*
X57268Y-41902D01*
X57402Y-41769D01*
X57474Y-41595D01*
X57474Y-42406D01*
X57402Y-42232D01*
X57269Y-42098D01*
X57095Y-42026D01*
X56906Y-42026D01*
X56732Y-42098D01*
X56598Y-42231D01*
X56526Y-42405D01*
X56526Y-42594D01*
X56598Y-42768D01*
X56731Y-42902D01*
X56905Y-42974D01*
X57094Y-42974D01*
X57268Y-42902D01*
X57402Y-42769D01*
X57474Y-42595D01*
X57474Y-42979D01*
X56474Y-42979D01*
X56474Y-42595D01*
X56474Y-42406D01*
X56473Y-42403D01*
X56473Y-41815D01*
X56473Y-41736D01*
X56473Y-41186D01*
X56443Y-41113D01*
X56387Y-41057D01*
X56315Y-41027D01*
X56236Y-41027D01*
X55686Y-41027D01*
X55613Y-41057D01*
X55557Y-41113D01*
X55527Y-41185D01*
X55527Y-41264D01*
X55527Y-41814D01*
X55557Y-41887D01*
X55613Y-41943D01*
X55685Y-41973D01*
X55764Y-41973D01*
X56314Y-41973D01*
X56387Y-41943D01*
X56443Y-41887D01*
X56473Y-41815D01*
X56473Y-42403D01*
X56402Y-42232D01*
X56269Y-42098D01*
X56095Y-42026D01*
X55906Y-42026D01*
X55732Y-42098D01*
X55598Y-42231D01*
X55526Y-42405D01*
X55526Y-42594D01*
X55598Y-42768D01*
X55731Y-42902D01*
X55905Y-42974D01*
X56094Y-42974D01*
X56268Y-42902D01*
X56402Y-42769D01*
X56474Y-42595D01*
X56474Y-42979D01*
X55250Y-42979D01*
X55146Y-43000D01*
X55058Y-43058D01*
X55056Y-43060D01*
X54808Y-43308D01*
X54308Y-43808D01*
X54250Y-43896D01*
X54246Y-43914D01*
X54228Y-44000D01*
X54229Y-44004D01*
X54229Y-44534D01*
X54074Y-44481D01*
X53870Y-44492D01*
X53771Y-44532D01*
X53771Y-43418D01*
X53905Y-43474D01*
X54094Y-43474D01*
X54268Y-43402D01*
X54402Y-43269D01*
X54474Y-43095D01*
X54474Y-42906D01*
X54402Y-42732D01*
X54269Y-42598D01*
X54095Y-42526D01*
X53906Y-42526D01*
X53771Y-42581D01*
X53771Y-42500D01*
X53771Y-42362D01*
X55439Y-40693D01*
X55441Y-40692D01*
X55442Y-40692D01*
X55929Y-40203D01*
X55933Y-40211D01*
X56038Y-40317D01*
X56151Y-40364D01*
X56126Y-40425D01*
X56126Y-40574D01*
X56183Y-40711D01*
X56288Y-40817D01*
X56425Y-40874D01*
X56574Y-40874D01*
X56711Y-40817D01*
X56817Y-40712D01*
X56874Y-40575D01*
X56874Y-40521D01*
X60595Y-40521D01*
X60595Y-40521D01*
G37*
G54D25*
X60595Y-40521D02*
X60090Y-41026D01*
X59906Y-41026D01*
X59732Y-41098D01*
X59598Y-41231D01*
X59526Y-41405D01*
X59526Y-41594D01*
X59598Y-41768D01*
X59731Y-41902D01*
X59905Y-41974D01*
X60094Y-41974D01*
X60175Y-41940D01*
X60090Y-42026D01*
X59906Y-42026D01*
X59732Y-42098D01*
X59598Y-42231D01*
X59526Y-42405D01*
X59526Y-42594D01*
X59598Y-42768D01*
X59731Y-42902D01*
X59905Y-42974D01*
X60094Y-42974D01*
X60176Y-42940D01*
X60137Y-42979D01*
X59519Y-42979D01*
X59519Y-42574D01*
X59508Y-42370D01*
X59474Y-42286D01*
X59474Y-41595D01*
X59474Y-41406D01*
X59402Y-41232D01*
X59269Y-41098D01*
X59095Y-41026D01*
X58906Y-41026D01*
X58732Y-41098D01*
X58598Y-41231D01*
X58526Y-41405D01*
X58526Y-41594D01*
X58598Y-41768D01*
X58731Y-41902D01*
X58905Y-41974D01*
X59094Y-41974D01*
X59268Y-41902D01*
X59402Y-41769D01*
X59474Y-41595D01*
X59474Y-42286D01*
X59452Y-42233D01*
X59361Y-42210D01*
X59290Y-42281D01*
X59290Y-42139D01*
X59267Y-42048D01*
X59074Y-41981D01*
X58870Y-41992D01*
X58733Y-42048D01*
X58710Y-42139D01*
X59000Y-42429D01*
X59290Y-42139D01*
X59290Y-42281D01*
X59071Y-42500D01*
X59361Y-42790D01*
X59452Y-42767D01*
X59519Y-42574D01*
X59519Y-42979D01*
X59200Y-42979D01*
X59267Y-42952D01*
X59290Y-42861D01*
X59000Y-42571D01*
X58929Y-42642D01*
X58929Y-42500D01*
X58639Y-42210D01*
X58548Y-42233D01*
X58503Y-42359D01*
X58474Y-42287D01*
X58474Y-41595D01*
X58474Y-41406D01*
X58402Y-41232D01*
X58269Y-41098D01*
X58095Y-41026D01*
X57906Y-41026D01*
X57732Y-41098D01*
X57598Y-41231D01*
X57526Y-41405D01*
X57526Y-41594D01*
X57598Y-41768D01*
X57731Y-41902D01*
X57905Y-41974D01*
X58094Y-41974D01*
X58268Y-41902D01*
X58402Y-41769D01*
X58474Y-41595D01*
X58474Y-42287D01*
X58452Y-42233D01*
X58361Y-42210D01*
X58290Y-42281D01*
X58290Y-42139D01*
X58267Y-42048D01*
X58074Y-41981D01*
X57870Y-41992D01*
X57733Y-42048D01*
X57710Y-42139D01*
X58000Y-42429D01*
X58290Y-42139D01*
X58290Y-42281D01*
X58071Y-42500D01*
X58361Y-42790D01*
X58452Y-42767D01*
X58496Y-42640D01*
X58548Y-42767D01*
X58639Y-42790D01*
X58929Y-42500D01*
X58929Y-42642D01*
X58710Y-42861D01*
X58733Y-42952D01*
X58810Y-42979D01*
X58200Y-42979D01*
X58267Y-42952D01*
X58290Y-42861D01*
X58000Y-42571D01*
X57929Y-42642D01*
X57929Y-42500D01*
X57639Y-42210D01*
X57548Y-42233D01*
X57481Y-42426D01*
X57492Y-42630D01*
X57548Y-42767D01*
X57639Y-42790D01*
X57929Y-42500D01*
X57929Y-42642D01*
X57710Y-42861D01*
X57733Y-42952D01*
X57810Y-42979D01*
X57474Y-42979D01*
X57474Y-42595D01*
X57474Y-42406D01*
X57474Y-41595D01*
X57474Y-41406D01*
X57402Y-41232D01*
X57269Y-41098D01*
X57095Y-41026D01*
X56906Y-41026D01*
X56732Y-41098D01*
X56598Y-41231D01*
X56526Y-41405D01*
X56526Y-41594D01*
X56598Y-41768D01*
X56731Y-41902D01*
X56905Y-41974D01*
X57094Y-41974D01*
X57268Y-41902D01*
X57402Y-41769D01*
X57474Y-41595D01*
X57474Y-42406D01*
X57402Y-42232D01*
X57269Y-42098D01*
X57095Y-42026D01*
X56906Y-42026D01*
X56732Y-42098D01*
X56598Y-42231D01*
X56526Y-42405D01*
X56526Y-42594D01*
X56598Y-42768D01*
X56731Y-42902D01*
X56905Y-42974D01*
X57094Y-42974D01*
X57268Y-42902D01*
X57402Y-42769D01*
X57474Y-42595D01*
X57474Y-42979D01*
X56474Y-42979D01*
X56474Y-42595D01*
X56474Y-42406D01*
X56473Y-42403D01*
X56473Y-41815D01*
X56473Y-41736D01*
X56473Y-41186D01*
X56443Y-41113D01*
X56387Y-41057D01*
X56315Y-41027D01*
X56236Y-41027D01*
X55686Y-41027D01*
X55613Y-41057D01*
X55557Y-41113D01*
X55527Y-41185D01*
X55527Y-41264D01*
X55527Y-41814D01*
X55557Y-41887D01*
X55613Y-41943D01*
X55685Y-41973D01*
X55764Y-41973D01*
X56314Y-41973D01*
X56387Y-41943D01*
X56443Y-41887D01*
X56473Y-41815D01*
X56473Y-42403D01*
X56402Y-42232D01*
X56269Y-42098D01*
X56095Y-42026D01*
X55906Y-42026D01*
X55732Y-42098D01*
X55598Y-42231D01*
X55526Y-42405D01*
X55526Y-42594D01*
X55598Y-42768D01*
X55731Y-42902D01*
X55905Y-42974D01*
X56094Y-42974D01*
X56268Y-42902D01*
X56402Y-42769D01*
X56474Y-42595D01*
X56474Y-42979D01*
X55250Y-42979D01*
X55146Y-43000D01*
X55058Y-43058D01*
X55056Y-43060D01*
X54808Y-43308D01*
X54308Y-43808D01*
X54250Y-43896D01*
X54246Y-43914D01*
X54228Y-44000D01*
X54229Y-44004D01*
X54229Y-44534D01*
X54074Y-44481D01*
X53870Y-44492D01*
X53771Y-44532D01*
X53771Y-43418D01*
X53905Y-43474D01*
X54094Y-43474D01*
X54268Y-43402D01*
X54402Y-43269D01*
X54474Y-43095D01*
X54474Y-42906D01*
X54402Y-42732D01*
X54269Y-42598D01*
X54095Y-42526D01*
X53906Y-42526D01*
X53771Y-42581D01*
X53771Y-42500D01*
X53771Y-42362D01*
X55439Y-40693D01*
X55441Y-40692D01*
X55442Y-40692D01*
X55929Y-40203D01*
X55933Y-40211D01*
X56038Y-40317D01*
X56151Y-40364D01*
X56126Y-40425D01*
X56126Y-40574D01*
X56183Y-40711D01*
X56288Y-40817D01*
X56425Y-40874D01*
X56574Y-40874D01*
X56711Y-40817D01*
X56817Y-40712D01*
X56874Y-40575D01*
X56874Y-40521D01*
X60595Y-40521D01*
G54D10*
G36*
X65071Y-45500D02*
X65000Y-45571D01*
X64929Y-45500D01*
X65000Y-45429D01*
X65071Y-45500D01*
X65071Y-45500D01*
G37*
G54D25*
X65071Y-45500D02*
X65000Y-45571D01*
X64929Y-45500D01*
X65000Y-45429D01*
X65071Y-45500D01*
G54D10*
G36*
X65229Y-46012D02*
X62808Y-48433D01*
X62750Y-48521D01*
X62746Y-48539D01*
X62728Y-48625D01*
X62729Y-48629D01*
X62729Y-49000D01*
X62729Y-49325D01*
X61271Y-49325D01*
X61271Y-49250D01*
X61250Y-49146D01*
X61192Y-49058D01*
X61189Y-49056D01*
X59032Y-46899D01*
X60000Y-46899D01*
X62500Y-46899D01*
X62653Y-46869D01*
X62782Y-46782D01*
X62869Y-46653D01*
X62899Y-46500D01*
X62869Y-46347D01*
X62817Y-46271D01*
X64245Y-46271D01*
X64250Y-46272D01*
X64250Y-46271D01*
X64335Y-46253D01*
X64353Y-46250D01*
X64354Y-46250D01*
X64442Y-46192D01*
X64688Y-45943D01*
X64693Y-45948D01*
X64723Y-45917D01*
X64733Y-45952D01*
X64926Y-46019D01*
X65130Y-46008D01*
X65229Y-45967D01*
X65229Y-46012D01*
X65229Y-46012D01*
G37*
G54D25*
X65229Y-46012D02*
X62808Y-48433D01*
X62750Y-48521D01*
X62746Y-48539D01*
X62728Y-48625D01*
X62729Y-48629D01*
X62729Y-49000D01*
X62729Y-49325D01*
X61271Y-49325D01*
X61271Y-49250D01*
X61250Y-49146D01*
X61192Y-49058D01*
X61189Y-49056D01*
X59032Y-46899D01*
X60000Y-46899D01*
X62500Y-46899D01*
X62653Y-46869D01*
X62782Y-46782D01*
X62869Y-46653D01*
X62899Y-46500D01*
X62869Y-46347D01*
X62817Y-46271D01*
X64245Y-46271D01*
X64250Y-46272D01*
X64250Y-46271D01*
X64335Y-46253D01*
X64353Y-46250D01*
X64354Y-46250D01*
X64442Y-46192D01*
X64688Y-45943D01*
X64693Y-45948D01*
X64723Y-45917D01*
X64733Y-45952D01*
X64926Y-46019D01*
X65130Y-46008D01*
X65229Y-45967D01*
X65229Y-46012D01*
G54D10*
G36*
X66354Y-48387D02*
X66290Y-48451D01*
X65808Y-48933D01*
X65750Y-49021D01*
X65746Y-49039D01*
X65728Y-49125D01*
X65729Y-49129D01*
X65729Y-49325D01*
X65271Y-49325D01*
X65271Y-47737D01*
X65495Y-47513D01*
X65548Y-47642D01*
X65639Y-47665D01*
X65894Y-47410D01*
X65929Y-47375D01*
X66000Y-47304D01*
X66071Y-47375D01*
X66000Y-47446D01*
X65965Y-47481D01*
X65710Y-47736D01*
X65733Y-47827D01*
X65926Y-47894D01*
X66130Y-47883D01*
X66267Y-47827D01*
X66275Y-47791D01*
X66290Y-47806D01*
X66307Y-47823D01*
X66354Y-47776D01*
X66354Y-48387D01*
X66354Y-48387D01*
G37*
G54D25*
X66354Y-48387D02*
X66290Y-48451D01*
X65808Y-48933D01*
X65750Y-49021D01*
X65746Y-49039D01*
X65728Y-49125D01*
X65729Y-49129D01*
X65729Y-49325D01*
X65271Y-49325D01*
X65271Y-47737D01*
X65495Y-47513D01*
X65548Y-47642D01*
X65639Y-47665D01*
X65894Y-47410D01*
X65929Y-47375D01*
X66000Y-47304D01*
X66071Y-47375D01*
X66000Y-47446D01*
X65965Y-47481D01*
X65710Y-47736D01*
X65733Y-47827D01*
X65926Y-47894D01*
X66130Y-47883D01*
X66267Y-47827D01*
X66275Y-47791D01*
X66290Y-47806D01*
X66307Y-47823D01*
X66354Y-47776D01*
X66354Y-48387D01*
G54D10*
G36*
X68071Y-45000D02*
X68000Y-45071D01*
X67929Y-45000D01*
X68000Y-44929D01*
X68071Y-45000D01*
X68071Y-45000D01*
G37*
G54D25*
X68071Y-45000D02*
X68000Y-45071D01*
X67929Y-45000D01*
X68000Y-44929D01*
X68071Y-45000D01*
G54D10*
G36*
X69241Y-41019D02*
X69183Y-41058D01*
X69181Y-41060D01*
X68808Y-41433D01*
X68750Y-41521D01*
X68746Y-41539D01*
X68728Y-41625D01*
X68729Y-41629D01*
X68729Y-41729D01*
X68399Y-41729D01*
X68269Y-41598D01*
X68095Y-41526D01*
X67906Y-41526D01*
X67774Y-41580D01*
X67774Y-41216D01*
X67926Y-41269D01*
X68130Y-41258D01*
X68267Y-41202D01*
X68290Y-41111D01*
X68035Y-40856D01*
X68000Y-40821D01*
X67929Y-40750D01*
X68000Y-40679D01*
X68071Y-40750D01*
X68106Y-40785D01*
X68361Y-41040D01*
X68452Y-41017D01*
X68519Y-40824D01*
X68508Y-40620D01*
X68467Y-40521D01*
X68639Y-40521D01*
X69058Y-40939D01*
X69060Y-40942D01*
X69148Y-41000D01*
X69241Y-41019D01*
X69241Y-41019D01*
G37*
G54D25*
X69241Y-41019D02*
X69183Y-41058D01*
X69181Y-41060D01*
X68808Y-41433D01*
X68750Y-41521D01*
X68746Y-41539D01*
X68728Y-41625D01*
X68729Y-41629D01*
X68729Y-41729D01*
X68399Y-41729D01*
X68269Y-41598D01*
X68095Y-41526D01*
X67906Y-41526D01*
X67774Y-41580D01*
X67774Y-41216D01*
X67926Y-41269D01*
X68130Y-41258D01*
X68267Y-41202D01*
X68290Y-41111D01*
X68035Y-40856D01*
X68000Y-40821D01*
X67929Y-40750D01*
X68000Y-40679D01*
X68071Y-40750D01*
X68106Y-40785D01*
X68361Y-41040D01*
X68452Y-41017D01*
X68519Y-40824D01*
X68508Y-40620D01*
X68467Y-40521D01*
X68639Y-40521D01*
X69058Y-40939D01*
X69060Y-40942D01*
X69148Y-41000D01*
X69241Y-41019D01*
G54D10*
G36*
X69951Y-38250D02*
X69935Y-38257D01*
X69905Y-38287D01*
X69859Y-38287D01*
X69797Y-38349D01*
X69798Y-38374D01*
X69836Y-38466D01*
X69849Y-38479D01*
X69849Y-38521D01*
X69836Y-38534D01*
X69798Y-38626D01*
X69797Y-38650D01*
X69797Y-38651D01*
X69797Y-38729D01*
X69375Y-38729D01*
X69271Y-38750D01*
X69183Y-38808D01*
X68762Y-39229D01*
X65474Y-39229D01*
X65474Y-38845D01*
X65474Y-38656D01*
X65474Y-35845D01*
X65474Y-35656D01*
X65402Y-35482D01*
X65269Y-35348D01*
X65095Y-35276D01*
X64906Y-35276D01*
X64732Y-35348D01*
X64598Y-35481D01*
X64526Y-35655D01*
X64526Y-35844D01*
X64598Y-36018D01*
X64731Y-36152D01*
X64905Y-36224D01*
X65094Y-36224D01*
X65268Y-36152D01*
X65402Y-36019D01*
X65474Y-35845D01*
X65474Y-38656D01*
X65402Y-38482D01*
X65269Y-38348D01*
X65095Y-38276D01*
X64906Y-38276D01*
X64732Y-38348D01*
X64598Y-38481D01*
X64526Y-38655D01*
X64526Y-38844D01*
X64598Y-39018D01*
X64731Y-39152D01*
X64905Y-39224D01*
X65094Y-39224D01*
X65268Y-39152D01*
X65402Y-39019D01*
X65474Y-38845D01*
X65474Y-39229D01*
X64519Y-39229D01*
X64519Y-35824D01*
X64508Y-35620D01*
X64452Y-35483D01*
X64361Y-35460D01*
X64290Y-35531D01*
X64290Y-35389D01*
X64267Y-35298D01*
X64074Y-35231D01*
X63870Y-35242D01*
X63733Y-35298D01*
X63710Y-35389D01*
X64000Y-35679D01*
X64290Y-35389D01*
X64290Y-35531D01*
X64071Y-35750D01*
X64361Y-36040D01*
X64452Y-36017D01*
X64519Y-35824D01*
X64519Y-39229D01*
X64474Y-39229D01*
X64474Y-38845D01*
X64474Y-38656D01*
X64402Y-38482D01*
X64290Y-38369D01*
X64290Y-36111D01*
X64000Y-35821D01*
X63929Y-35892D01*
X63929Y-35750D01*
X63639Y-35460D01*
X63548Y-35483D01*
X63503Y-35609D01*
X63452Y-35483D01*
X63361Y-35460D01*
X63071Y-35750D01*
X63361Y-36040D01*
X63452Y-36017D01*
X63496Y-35890D01*
X63548Y-36017D01*
X63639Y-36040D01*
X63929Y-35750D01*
X63929Y-35892D01*
X63710Y-36111D01*
X63733Y-36202D01*
X63926Y-36269D01*
X64130Y-36258D01*
X64267Y-36202D01*
X64290Y-36111D01*
X64290Y-38369D01*
X64269Y-38348D01*
X64095Y-38276D01*
X63906Y-38276D01*
X63732Y-38348D01*
X63598Y-38481D01*
X63526Y-38655D01*
X63526Y-38844D01*
X63598Y-39018D01*
X63731Y-39152D01*
X63905Y-39224D01*
X64094Y-39224D01*
X64268Y-39152D01*
X64402Y-39019D01*
X64474Y-38845D01*
X64474Y-39229D01*
X63474Y-39229D01*
X63474Y-38845D01*
X63474Y-38656D01*
X63402Y-38482D01*
X63290Y-38369D01*
X63290Y-36111D01*
X63000Y-35821D01*
X62929Y-35892D01*
X62929Y-35750D01*
X62639Y-35460D01*
X62548Y-35483D01*
X62503Y-35609D01*
X62452Y-35483D01*
X62361Y-35460D01*
X62071Y-35750D01*
X62361Y-36040D01*
X62452Y-36017D01*
X62496Y-35890D01*
X62548Y-36017D01*
X62639Y-36040D01*
X62929Y-35750D01*
X62929Y-35892D01*
X62710Y-36111D01*
X62733Y-36202D01*
X62926Y-36269D01*
X63130Y-36258D01*
X63267Y-36202D01*
X63290Y-36111D01*
X63290Y-38369D01*
X63269Y-38348D01*
X63095Y-38276D01*
X62906Y-38276D01*
X62732Y-38348D01*
X62598Y-38481D01*
X62526Y-38655D01*
X62526Y-38844D01*
X62598Y-39018D01*
X62731Y-39152D01*
X62905Y-39224D01*
X63094Y-39224D01*
X63268Y-39152D01*
X63402Y-39019D01*
X63474Y-38845D01*
X63474Y-39229D01*
X62474Y-39229D01*
X62474Y-38845D01*
X62474Y-38656D01*
X62402Y-38482D01*
X62290Y-38369D01*
X62290Y-36111D01*
X62000Y-35821D01*
X61929Y-35892D01*
X61929Y-35750D01*
X61639Y-35460D01*
X61548Y-35483D01*
X61503Y-35609D01*
X61452Y-35483D01*
X61361Y-35460D01*
X61071Y-35750D01*
X61361Y-36040D01*
X61452Y-36017D01*
X61496Y-35890D01*
X61548Y-36017D01*
X61639Y-36040D01*
X61929Y-35750D01*
X61929Y-35892D01*
X61710Y-36111D01*
X61733Y-36202D01*
X61926Y-36269D01*
X62130Y-36258D01*
X62267Y-36202D01*
X62290Y-36111D01*
X62290Y-38369D01*
X62269Y-38348D01*
X62095Y-38276D01*
X61906Y-38276D01*
X61732Y-38348D01*
X61598Y-38481D01*
X61526Y-38655D01*
X61526Y-38844D01*
X61598Y-39018D01*
X61731Y-39152D01*
X61905Y-39224D01*
X62094Y-39224D01*
X62268Y-39152D01*
X62402Y-39019D01*
X62474Y-38845D01*
X62474Y-39229D01*
X61474Y-39229D01*
X61474Y-38845D01*
X61474Y-38656D01*
X61402Y-38482D01*
X61269Y-38348D01*
X61095Y-38276D01*
X60906Y-38276D01*
X60732Y-38348D01*
X60598Y-38481D01*
X60526Y-38655D01*
X60526Y-38844D01*
X60598Y-39018D01*
X60731Y-39152D01*
X60905Y-39224D01*
X61094Y-39224D01*
X61268Y-39152D01*
X61402Y-39019D01*
X61474Y-38845D01*
X61474Y-39229D01*
X59844Y-39229D01*
X59828Y-39192D01*
X59905Y-39224D01*
X60094Y-39224D01*
X60268Y-39152D01*
X60402Y-39019D01*
X60474Y-38845D01*
X60474Y-38656D01*
X60402Y-38482D01*
X60269Y-38348D01*
X60095Y-38276D01*
X59906Y-38276D01*
X59732Y-38348D01*
X59598Y-38481D01*
X59526Y-38655D01*
X59526Y-38844D01*
X59594Y-39009D01*
X59575Y-39001D01*
X59426Y-39001D01*
X59406Y-39009D01*
X59474Y-38845D01*
X59474Y-38656D01*
X59402Y-38482D01*
X59269Y-38348D01*
X59095Y-38276D01*
X58906Y-38276D01*
X58732Y-38348D01*
X58598Y-38481D01*
X58526Y-38655D01*
X58526Y-38844D01*
X58598Y-39018D01*
X58731Y-39152D01*
X58905Y-39224D01*
X59094Y-39224D01*
X59170Y-39192D01*
X59126Y-39300D01*
X59126Y-39449D01*
X59138Y-39479D01*
X58844Y-39479D01*
X58817Y-39414D01*
X58712Y-39308D01*
X58575Y-39251D01*
X58426Y-39251D01*
X58289Y-39308D01*
X58183Y-39413D01*
X58126Y-39550D01*
X58126Y-39699D01*
X58138Y-39729D01*
X56507Y-39729D01*
X56462Y-39683D01*
X56454Y-39679D01*
X56760Y-39374D01*
X56824Y-39374D01*
X56961Y-39317D01*
X57067Y-39212D01*
X57124Y-39075D01*
X57124Y-38926D01*
X57067Y-38789D01*
X56962Y-38683D01*
X56953Y-38679D01*
X57429Y-38203D01*
X57433Y-38211D01*
X57538Y-38317D01*
X57583Y-38336D01*
X57557Y-38363D01*
X57527Y-38435D01*
X57527Y-38514D01*
X57527Y-39064D01*
X57557Y-39137D01*
X57613Y-39193D01*
X57685Y-39223D01*
X57764Y-39223D01*
X58314Y-39223D01*
X58387Y-39193D01*
X58443Y-39137D01*
X58473Y-39065D01*
X58473Y-38986D01*
X58473Y-38436D01*
X58443Y-38363D01*
X58387Y-38307D01*
X58315Y-38277D01*
X58236Y-38277D01*
X58001Y-38277D01*
X58067Y-38212D01*
X58124Y-38075D01*
X58124Y-38021D01*
X60495Y-38021D01*
X60500Y-38022D01*
X60500Y-38021D01*
X60585Y-38003D01*
X60603Y-38000D01*
X60604Y-38000D01*
X60692Y-37942D01*
X61509Y-37124D01*
X61574Y-37124D01*
X61711Y-37067D01*
X61817Y-36962D01*
X61874Y-36825D01*
X61874Y-36676D01*
X61817Y-36539D01*
X61712Y-36433D01*
X61575Y-36376D01*
X61426Y-36376D01*
X61290Y-36432D01*
X61290Y-36111D01*
X61000Y-35821D01*
X60929Y-35892D01*
X60929Y-35750D01*
X60639Y-35460D01*
X60548Y-35483D01*
X60503Y-35609D01*
X60452Y-35483D01*
X60361Y-35460D01*
X60290Y-35531D01*
X60290Y-35389D01*
X60267Y-35298D01*
X60074Y-35231D01*
X59870Y-35242D01*
X59733Y-35298D01*
X59710Y-35389D01*
X60000Y-35679D01*
X60290Y-35389D01*
X60290Y-35531D01*
X60071Y-35750D01*
X60361Y-36040D01*
X60452Y-36017D01*
X60496Y-35890D01*
X60548Y-36017D01*
X60639Y-36040D01*
X60929Y-35750D01*
X60929Y-35892D01*
X60710Y-36111D01*
X60733Y-36202D01*
X60926Y-36269D01*
X61130Y-36258D01*
X61267Y-36202D01*
X61290Y-36111D01*
X61290Y-36432D01*
X61289Y-36433D01*
X61183Y-36538D01*
X61126Y-36675D01*
X61126Y-36740D01*
X60387Y-37479D01*
X58299Y-37479D01*
X58317Y-37462D01*
X58374Y-37325D01*
X58374Y-37176D01*
X58317Y-37039D01*
X58299Y-37021D01*
X60242Y-37021D01*
X60288Y-37067D01*
X60425Y-37124D01*
X60574Y-37124D01*
X60711Y-37067D01*
X60817Y-36962D01*
X60874Y-36825D01*
X60874Y-36676D01*
X60817Y-36539D01*
X60712Y-36433D01*
X60575Y-36376D01*
X60426Y-36376D01*
X60290Y-36432D01*
X60290Y-36111D01*
X60000Y-35821D01*
X59929Y-35892D01*
X59929Y-35750D01*
X59639Y-35460D01*
X59548Y-35483D01*
X59481Y-35676D01*
X59492Y-35880D01*
X59548Y-36017D01*
X59639Y-36040D01*
X59929Y-35750D01*
X59929Y-35892D01*
X59710Y-36111D01*
X59733Y-36202D01*
X59926Y-36269D01*
X60130Y-36258D01*
X60267Y-36202D01*
X60290Y-36111D01*
X60290Y-36432D01*
X60289Y-36433D01*
X60242Y-36479D01*
X59474Y-36479D01*
X59474Y-35845D01*
X59474Y-35656D01*
X59402Y-35482D01*
X59269Y-35348D01*
X59095Y-35276D01*
X58906Y-35276D01*
X58732Y-35348D01*
X58598Y-35481D01*
X58526Y-35655D01*
X58526Y-35844D01*
X58598Y-36018D01*
X58731Y-36152D01*
X58905Y-36224D01*
X59094Y-36224D01*
X59268Y-36152D01*
X59402Y-36019D01*
X59474Y-35845D01*
X59474Y-36479D01*
X58519Y-36479D01*
X58519Y-35824D01*
X58508Y-35620D01*
X58452Y-35483D01*
X58361Y-35460D01*
X58290Y-35531D01*
X58290Y-35389D01*
X58267Y-35298D01*
X58074Y-35231D01*
X57870Y-35242D01*
X57733Y-35298D01*
X57710Y-35389D01*
X58000Y-35679D01*
X58290Y-35389D01*
X58290Y-35531D01*
X58071Y-35750D01*
X58361Y-36040D01*
X58452Y-36017D01*
X58519Y-35824D01*
X58519Y-36479D01*
X58290Y-36479D01*
X58290Y-36111D01*
X58000Y-35821D01*
X57929Y-35892D01*
X57929Y-35750D01*
X57639Y-35460D01*
X57548Y-35483D01*
X57481Y-35676D01*
X57492Y-35880D01*
X57548Y-36017D01*
X57639Y-36040D01*
X57929Y-35750D01*
X57929Y-35892D01*
X57710Y-36111D01*
X57733Y-36202D01*
X57926Y-36269D01*
X58130Y-36258D01*
X58267Y-36202D01*
X58290Y-36111D01*
X58290Y-36479D01*
X58000Y-36479D01*
X57896Y-36500D01*
X57808Y-36558D01*
X57806Y-36560D01*
X57558Y-36808D01*
X57556Y-36810D01*
X55558Y-38808D01*
X55440Y-38925D01*
X55474Y-38845D01*
X55474Y-38656D01*
X55402Y-38482D01*
X55269Y-38348D01*
X55095Y-38276D01*
X54906Y-38276D01*
X54823Y-38309D01*
X56439Y-36693D01*
X56441Y-36692D01*
X56442Y-36692D01*
X56689Y-36443D01*
X56691Y-36442D01*
X56692Y-36442D01*
X56750Y-36354D01*
X56771Y-36250D01*
X56771Y-36007D01*
X56817Y-35962D01*
X56874Y-35825D01*
X56874Y-35676D01*
X56817Y-35539D01*
X56712Y-35433D01*
X56575Y-35376D01*
X56426Y-35376D01*
X56289Y-35433D01*
X56183Y-35538D01*
X56126Y-35675D01*
X56126Y-35824D01*
X56183Y-35961D01*
X56229Y-36007D01*
X56229Y-36137D01*
X56058Y-36308D01*
X56056Y-36310D01*
X55474Y-36892D01*
X55474Y-35845D01*
X55474Y-35656D01*
X55402Y-35482D01*
X55269Y-35348D01*
X55095Y-35276D01*
X54906Y-35276D01*
X54732Y-35348D01*
X54598Y-35481D01*
X54526Y-35655D01*
X54526Y-35844D01*
X54598Y-36018D01*
X54731Y-36152D01*
X54905Y-36224D01*
X55094Y-36224D01*
X55268Y-36152D01*
X55402Y-36019D01*
X55474Y-35845D01*
X55474Y-36892D01*
X54519Y-37847D01*
X54519Y-35824D01*
X54508Y-35620D01*
X54452Y-35483D01*
X54361Y-35460D01*
X54071Y-35750D01*
X54361Y-36040D01*
X54452Y-36017D01*
X54519Y-35824D01*
X54519Y-37847D01*
X54308Y-38058D01*
X54250Y-38146D01*
X54246Y-38164D01*
X54228Y-38250D01*
X54229Y-38254D01*
X54229Y-38331D01*
X54095Y-38276D01*
X53906Y-38276D01*
X53771Y-38331D01*
X53771Y-36215D01*
X53926Y-36269D01*
X54130Y-36258D01*
X54267Y-36202D01*
X54290Y-36111D01*
X54035Y-35856D01*
X54000Y-35821D01*
X53929Y-35750D01*
X54000Y-35679D01*
X54035Y-35644D01*
X54290Y-35389D01*
X54267Y-35298D01*
X54132Y-35251D01*
X55307Y-34075D01*
X55425Y-34124D01*
X55574Y-34124D01*
X55711Y-34067D01*
X55817Y-33962D01*
X55874Y-33825D01*
X55874Y-33676D01*
X55817Y-33539D01*
X55712Y-33433D01*
X55575Y-33376D01*
X55426Y-33376D01*
X55289Y-33433D01*
X55240Y-33480D01*
X55146Y-33500D01*
X55058Y-33558D01*
X55056Y-33560D01*
X53310Y-35305D01*
X53307Y-35302D01*
X53275Y-35333D01*
X53267Y-35298D01*
X53074Y-35231D01*
X52870Y-35242D01*
X52733Y-35298D01*
X52710Y-35389D01*
X52965Y-35644D01*
X53000Y-35679D01*
X53071Y-35750D01*
X53000Y-35821D01*
X52965Y-35856D01*
X52929Y-35892D01*
X52929Y-35750D01*
X52639Y-35460D01*
X52548Y-35483D01*
X52503Y-35609D01*
X52452Y-35483D01*
X52361Y-35460D01*
X52290Y-35531D01*
X52290Y-35389D01*
X52267Y-35298D01*
X52074Y-35231D01*
X51870Y-35242D01*
X51733Y-35298D01*
X51710Y-35389D01*
X52000Y-35679D01*
X52290Y-35389D01*
X52290Y-35531D01*
X52071Y-35750D01*
X52361Y-36040D01*
X52452Y-36017D01*
X52496Y-35890D01*
X52548Y-36017D01*
X52639Y-36040D01*
X52929Y-35750D01*
X52929Y-35892D01*
X52710Y-36111D01*
X52733Y-36202D01*
X52926Y-36269D01*
X53130Y-36258D01*
X53229Y-36217D01*
X53229Y-38331D01*
X53095Y-38276D01*
X52910Y-38276D01*
X52692Y-38058D01*
X52604Y-38000D01*
X52585Y-37996D01*
X52500Y-37978D01*
X52495Y-37979D01*
X52290Y-37979D01*
X52290Y-36111D01*
X52000Y-35821D01*
X51929Y-35892D01*
X51929Y-35750D01*
X51639Y-35460D01*
X51548Y-35483D01*
X51481Y-35676D01*
X51492Y-35880D01*
X51548Y-36017D01*
X51639Y-36040D01*
X51929Y-35750D01*
X51929Y-35892D01*
X51710Y-36111D01*
X51733Y-36202D01*
X51926Y-36269D01*
X52130Y-36258D01*
X52267Y-36202D01*
X52290Y-36111D01*
X52290Y-37979D01*
X51250Y-37979D01*
X51146Y-38000D01*
X51058Y-38058D01*
X51056Y-38060D01*
X49519Y-39597D01*
X49519Y-38824D01*
X49508Y-38620D01*
X49474Y-38536D01*
X49474Y-35845D01*
X49474Y-35656D01*
X49402Y-35482D01*
X49269Y-35348D01*
X49095Y-35276D01*
X48906Y-35276D01*
X48732Y-35348D01*
X48598Y-35481D01*
X48526Y-35655D01*
X48526Y-35844D01*
X48598Y-36018D01*
X48731Y-36152D01*
X48905Y-36224D01*
X49094Y-36224D01*
X49268Y-36152D01*
X49402Y-36019D01*
X49474Y-35845D01*
X49474Y-38536D01*
X49452Y-38483D01*
X49361Y-38460D01*
X49290Y-38531D01*
X49290Y-38389D01*
X49267Y-38298D01*
X49074Y-38231D01*
X48870Y-38242D01*
X48733Y-38298D01*
X48710Y-38389D01*
X49000Y-38679D01*
X49290Y-38389D01*
X49290Y-38531D01*
X49071Y-38750D01*
X49361Y-39040D01*
X49452Y-39017D01*
X49519Y-38824D01*
X49519Y-39597D01*
X49290Y-39826D01*
X49290Y-39111D01*
X49000Y-38821D01*
X48929Y-38892D01*
X48929Y-38750D01*
X48639Y-38460D01*
X48548Y-38483D01*
X48519Y-38566D01*
X48519Y-35824D01*
X48508Y-35620D01*
X48452Y-35483D01*
X48361Y-35460D01*
X48071Y-35750D01*
X48361Y-36040D01*
X48452Y-36017D01*
X48519Y-35824D01*
X48519Y-38566D01*
X48481Y-38676D01*
X48492Y-38880D01*
X48548Y-39017D01*
X48639Y-39040D01*
X48929Y-38750D01*
X48929Y-38892D01*
X48710Y-39111D01*
X48733Y-39202D01*
X48926Y-39269D01*
X49130Y-39258D01*
X49267Y-39202D01*
X49290Y-39111D01*
X49290Y-39826D01*
X48090Y-41026D01*
X47906Y-41026D01*
X47771Y-41081D01*
X47771Y-39168D01*
X47905Y-39224D01*
X48094Y-39224D01*
X48268Y-39152D01*
X48402Y-39019D01*
X48474Y-38845D01*
X48474Y-38656D01*
X48402Y-38482D01*
X48269Y-38348D01*
X48095Y-38276D01*
X47906Y-38276D01*
X47771Y-38331D01*
X47771Y-36215D01*
X47926Y-36269D01*
X48130Y-36258D01*
X48267Y-36202D01*
X48290Y-36111D01*
X48035Y-35856D01*
X48000Y-35821D01*
X47929Y-35750D01*
X48000Y-35679D01*
X48035Y-35644D01*
X48290Y-35389D01*
X48267Y-35298D01*
X48074Y-35231D01*
X47870Y-35242D01*
X47771Y-35282D01*
X47771Y-34500D01*
X47750Y-34397D01*
X47750Y-34396D01*
X47692Y-34308D01*
X47689Y-34306D01*
X46771Y-33387D01*
X46771Y-32418D01*
X46905Y-32474D01*
X47090Y-32474D01*
X47806Y-33189D01*
X47808Y-33192D01*
X47896Y-33250D01*
X47897Y-33250D01*
X48000Y-33271D01*
X58137Y-33271D01*
X59806Y-34939D01*
X59808Y-34942D01*
X60056Y-35189D01*
X60058Y-35192D01*
X60146Y-35250D01*
X60250Y-35271D01*
X60799Y-35271D01*
X60733Y-35298D01*
X60710Y-35389D01*
X61000Y-35679D01*
X61290Y-35389D01*
X61267Y-35298D01*
X61189Y-35271D01*
X61799Y-35271D01*
X61733Y-35298D01*
X61710Y-35389D01*
X62000Y-35679D01*
X62290Y-35389D01*
X62267Y-35298D01*
X62189Y-35271D01*
X62742Y-35271D01*
X62758Y-35287D01*
X62733Y-35298D01*
X62710Y-35389D01*
X63000Y-35679D01*
X63290Y-35389D01*
X63267Y-35298D01*
X63239Y-35288D01*
X63317Y-35212D01*
X63374Y-35075D01*
X63374Y-34926D01*
X63317Y-34789D01*
X63299Y-34771D01*
X66137Y-34771D01*
X67556Y-36189D01*
X67558Y-36192D01*
X67646Y-36250D01*
X67647Y-36250D01*
X67750Y-36271D01*
X69797Y-36271D01*
X69797Y-36349D01*
X69797Y-36350D01*
X69798Y-36374D01*
X69836Y-36466D01*
X69849Y-36479D01*
X69849Y-36521D01*
X69836Y-36534D01*
X69798Y-36626D01*
X69797Y-36651D01*
X69859Y-36713D01*
X69905Y-36713D01*
X69906Y-36714D01*
X69836Y-36784D01*
X69817Y-36828D01*
X69797Y-36849D01*
X69798Y-36874D01*
X69798Y-36875D01*
X69798Y-36876D01*
X69797Y-36901D01*
X69817Y-36921D01*
X69836Y-36966D01*
X69870Y-37000D01*
X69836Y-37034D01*
X69817Y-37078D01*
X69797Y-37099D01*
X69798Y-37124D01*
X69798Y-37125D01*
X69798Y-37126D01*
X69797Y-37150D01*
X69797Y-37151D01*
X69797Y-37229D01*
X69765Y-37229D01*
X69750Y-37226D01*
X69125Y-37226D01*
X68972Y-37256D01*
X68843Y-37343D01*
X68842Y-37343D01*
X68842Y-37344D01*
X68469Y-37716D01*
X68519Y-37574D01*
X68508Y-37370D01*
X68452Y-37233D01*
X68361Y-37210D01*
X68290Y-37281D01*
X68290Y-37139D01*
X68267Y-37048D01*
X68074Y-36981D01*
X67870Y-36992D01*
X67733Y-37048D01*
X67710Y-37139D01*
X68000Y-37429D01*
X68290Y-37139D01*
X68290Y-37281D01*
X68106Y-37465D01*
X68071Y-37500D01*
X68000Y-37571D01*
X67929Y-37500D01*
X67894Y-37465D01*
X67639Y-37210D01*
X67548Y-37233D01*
X67481Y-37426D01*
X67492Y-37630D01*
X67525Y-37711D01*
X67454Y-37640D01*
X67474Y-37595D01*
X67474Y-37406D01*
X67402Y-37232D01*
X67269Y-37098D01*
X67095Y-37026D01*
X66906Y-37026D01*
X66732Y-37098D01*
X66598Y-37231D01*
X66526Y-37405D01*
X66526Y-37594D01*
X66598Y-37768D01*
X66606Y-37776D01*
X66631Y-37903D01*
X66718Y-38032D01*
X67526Y-38840D01*
X67526Y-38844D01*
X67598Y-39018D01*
X67731Y-39152D01*
X67905Y-39224D01*
X68094Y-39224D01*
X68268Y-39152D01*
X68402Y-39019D01*
X68474Y-38845D01*
X68474Y-38840D01*
X69290Y-38024D01*
X69750Y-38024D01*
X69765Y-38021D01*
X69849Y-38021D01*
X69836Y-38034D01*
X69798Y-38126D01*
X69797Y-38151D01*
X69859Y-38213D01*
X69905Y-38213D01*
X69935Y-38243D01*
X69951Y-38250D01*
X69951Y-38250D01*
G37*
G54D25*
X69951Y-38250D02*
X69935Y-38257D01*
X69905Y-38287D01*
X69859Y-38287D01*
X69797Y-38349D01*
X69798Y-38374D01*
X69836Y-38466D01*
X69849Y-38479D01*
X69849Y-38521D01*
X69836Y-38534D01*
X69798Y-38626D01*
X69797Y-38650D01*
X69797Y-38651D01*
X69797Y-38729D01*
X69375Y-38729D01*
X69271Y-38750D01*
X69183Y-38808D01*
X68762Y-39229D01*
X65474Y-39229D01*
X65474Y-38845D01*
X65474Y-38656D01*
X65474Y-35845D01*
X65474Y-35656D01*
X65402Y-35482D01*
X65269Y-35348D01*
X65095Y-35276D01*
X64906Y-35276D01*
X64732Y-35348D01*
X64598Y-35481D01*
X64526Y-35655D01*
X64526Y-35844D01*
X64598Y-36018D01*
X64731Y-36152D01*
X64905Y-36224D01*
X65094Y-36224D01*
X65268Y-36152D01*
X65402Y-36019D01*
X65474Y-35845D01*
X65474Y-38656D01*
X65402Y-38482D01*
X65269Y-38348D01*
X65095Y-38276D01*
X64906Y-38276D01*
X64732Y-38348D01*
X64598Y-38481D01*
X64526Y-38655D01*
X64526Y-38844D01*
X64598Y-39018D01*
X64731Y-39152D01*
X64905Y-39224D01*
X65094Y-39224D01*
X65268Y-39152D01*
X65402Y-39019D01*
X65474Y-38845D01*
X65474Y-39229D01*
X64519Y-39229D01*
X64519Y-35824D01*
X64508Y-35620D01*
X64452Y-35483D01*
X64361Y-35460D01*
X64290Y-35531D01*
X64290Y-35389D01*
X64267Y-35298D01*
X64074Y-35231D01*
X63870Y-35242D01*
X63733Y-35298D01*
X63710Y-35389D01*
X64000Y-35679D01*
X64290Y-35389D01*
X64290Y-35531D01*
X64071Y-35750D01*
X64361Y-36040D01*
X64452Y-36017D01*
X64519Y-35824D01*
X64519Y-39229D01*
X64474Y-39229D01*
X64474Y-38845D01*
X64474Y-38656D01*
X64402Y-38482D01*
X64290Y-38369D01*
X64290Y-36111D01*
X64000Y-35821D01*
X63929Y-35892D01*
X63929Y-35750D01*
X63639Y-35460D01*
X63548Y-35483D01*
X63503Y-35609D01*
X63452Y-35483D01*
X63361Y-35460D01*
X63071Y-35750D01*
X63361Y-36040D01*
X63452Y-36017D01*
X63496Y-35890D01*
X63548Y-36017D01*
X63639Y-36040D01*
X63929Y-35750D01*
X63929Y-35892D01*
X63710Y-36111D01*
X63733Y-36202D01*
X63926Y-36269D01*
X64130Y-36258D01*
X64267Y-36202D01*
X64290Y-36111D01*
X64290Y-38369D01*
X64269Y-38348D01*
X64095Y-38276D01*
X63906Y-38276D01*
X63732Y-38348D01*
X63598Y-38481D01*
X63526Y-38655D01*
X63526Y-38844D01*
X63598Y-39018D01*
X63731Y-39152D01*
X63905Y-39224D01*
X64094Y-39224D01*
X64268Y-39152D01*
X64402Y-39019D01*
X64474Y-38845D01*
X64474Y-39229D01*
X63474Y-39229D01*
X63474Y-38845D01*
X63474Y-38656D01*
X63402Y-38482D01*
X63290Y-38369D01*
X63290Y-36111D01*
X63000Y-35821D01*
X62929Y-35892D01*
X62929Y-35750D01*
X62639Y-35460D01*
X62548Y-35483D01*
X62503Y-35609D01*
X62452Y-35483D01*
X62361Y-35460D01*
X62071Y-35750D01*
X62361Y-36040D01*
X62452Y-36017D01*
X62496Y-35890D01*
X62548Y-36017D01*
X62639Y-36040D01*
X62929Y-35750D01*
X62929Y-35892D01*
X62710Y-36111D01*
X62733Y-36202D01*
X62926Y-36269D01*
X63130Y-36258D01*
X63267Y-36202D01*
X63290Y-36111D01*
X63290Y-38369D01*
X63269Y-38348D01*
X63095Y-38276D01*
X62906Y-38276D01*
X62732Y-38348D01*
X62598Y-38481D01*
X62526Y-38655D01*
X62526Y-38844D01*
X62598Y-39018D01*
X62731Y-39152D01*
X62905Y-39224D01*
X63094Y-39224D01*
X63268Y-39152D01*
X63402Y-39019D01*
X63474Y-38845D01*
X63474Y-39229D01*
X62474Y-39229D01*
X62474Y-38845D01*
X62474Y-38656D01*
X62402Y-38482D01*
X62290Y-38369D01*
X62290Y-36111D01*
X62000Y-35821D01*
X61929Y-35892D01*
X61929Y-35750D01*
X61639Y-35460D01*
X61548Y-35483D01*
X61503Y-35609D01*
X61452Y-35483D01*
X61361Y-35460D01*
X61071Y-35750D01*
X61361Y-36040D01*
X61452Y-36017D01*
X61496Y-35890D01*
X61548Y-36017D01*
X61639Y-36040D01*
X61929Y-35750D01*
X61929Y-35892D01*
X61710Y-36111D01*
X61733Y-36202D01*
X61926Y-36269D01*
X62130Y-36258D01*
X62267Y-36202D01*
X62290Y-36111D01*
X62290Y-38369D01*
X62269Y-38348D01*
X62095Y-38276D01*
X61906Y-38276D01*
X61732Y-38348D01*
X61598Y-38481D01*
X61526Y-38655D01*
X61526Y-38844D01*
X61598Y-39018D01*
X61731Y-39152D01*
X61905Y-39224D01*
X62094Y-39224D01*
X62268Y-39152D01*
X62402Y-39019D01*
X62474Y-38845D01*
X62474Y-39229D01*
X61474Y-39229D01*
X61474Y-38845D01*
X61474Y-38656D01*
X61402Y-38482D01*
X61269Y-38348D01*
X61095Y-38276D01*
X60906Y-38276D01*
X60732Y-38348D01*
X60598Y-38481D01*
X60526Y-38655D01*
X60526Y-38844D01*
X60598Y-39018D01*
X60731Y-39152D01*
X60905Y-39224D01*
X61094Y-39224D01*
X61268Y-39152D01*
X61402Y-39019D01*
X61474Y-38845D01*
X61474Y-39229D01*
X59844Y-39229D01*
X59828Y-39192D01*
X59905Y-39224D01*
X60094Y-39224D01*
X60268Y-39152D01*
X60402Y-39019D01*
X60474Y-38845D01*
X60474Y-38656D01*
X60402Y-38482D01*
X60269Y-38348D01*
X60095Y-38276D01*
X59906Y-38276D01*
X59732Y-38348D01*
X59598Y-38481D01*
X59526Y-38655D01*
X59526Y-38844D01*
X59594Y-39009D01*
X59575Y-39001D01*
X59426Y-39001D01*
X59406Y-39009D01*
X59474Y-38845D01*
X59474Y-38656D01*
X59402Y-38482D01*
X59269Y-38348D01*
X59095Y-38276D01*
X58906Y-38276D01*
X58732Y-38348D01*
X58598Y-38481D01*
X58526Y-38655D01*
X58526Y-38844D01*
X58598Y-39018D01*
X58731Y-39152D01*
X58905Y-39224D01*
X59094Y-39224D01*
X59170Y-39192D01*
X59126Y-39300D01*
X59126Y-39449D01*
X59138Y-39479D01*
X58844Y-39479D01*
X58817Y-39414D01*
X58712Y-39308D01*
X58575Y-39251D01*
X58426Y-39251D01*
X58289Y-39308D01*
X58183Y-39413D01*
X58126Y-39550D01*
X58126Y-39699D01*
X58138Y-39729D01*
X56507Y-39729D01*
X56462Y-39683D01*
X56454Y-39679D01*
X56760Y-39374D01*
X56824Y-39374D01*
X56961Y-39317D01*
X57067Y-39212D01*
X57124Y-39075D01*
X57124Y-38926D01*
X57067Y-38789D01*
X56962Y-38683D01*
X56953Y-38679D01*
X57429Y-38203D01*
X57433Y-38211D01*
X57538Y-38317D01*
X57583Y-38336D01*
X57557Y-38363D01*
X57527Y-38435D01*
X57527Y-38514D01*
X57527Y-39064D01*
X57557Y-39137D01*
X57613Y-39193D01*
X57685Y-39223D01*
X57764Y-39223D01*
X58314Y-39223D01*
X58387Y-39193D01*
X58443Y-39137D01*
X58473Y-39065D01*
X58473Y-38986D01*
X58473Y-38436D01*
X58443Y-38363D01*
X58387Y-38307D01*
X58315Y-38277D01*
X58236Y-38277D01*
X58001Y-38277D01*
X58067Y-38212D01*
X58124Y-38075D01*
X58124Y-38021D01*
X60495Y-38021D01*
X60500Y-38022D01*
X60500Y-38021D01*
X60585Y-38003D01*
X60603Y-38000D01*
X60604Y-38000D01*
X60692Y-37942D01*
X61509Y-37124D01*
X61574Y-37124D01*
X61711Y-37067D01*
X61817Y-36962D01*
X61874Y-36825D01*
X61874Y-36676D01*
X61817Y-36539D01*
X61712Y-36433D01*
X61575Y-36376D01*
X61426Y-36376D01*
X61290Y-36432D01*
X61290Y-36111D01*
X61000Y-35821D01*
X60929Y-35892D01*
X60929Y-35750D01*
X60639Y-35460D01*
X60548Y-35483D01*
X60503Y-35609D01*
X60452Y-35483D01*
X60361Y-35460D01*
X60290Y-35531D01*
X60290Y-35389D01*
X60267Y-35298D01*
X60074Y-35231D01*
X59870Y-35242D01*
X59733Y-35298D01*
X59710Y-35389D01*
X60000Y-35679D01*
X60290Y-35389D01*
X60290Y-35531D01*
X60071Y-35750D01*
X60361Y-36040D01*
X60452Y-36017D01*
X60496Y-35890D01*
X60548Y-36017D01*
X60639Y-36040D01*
X60929Y-35750D01*
X60929Y-35892D01*
X60710Y-36111D01*
X60733Y-36202D01*
X60926Y-36269D01*
X61130Y-36258D01*
X61267Y-36202D01*
X61290Y-36111D01*
X61290Y-36432D01*
X61289Y-36433D01*
X61183Y-36538D01*
X61126Y-36675D01*
X61126Y-36740D01*
X60387Y-37479D01*
X58299Y-37479D01*
X58317Y-37462D01*
X58374Y-37325D01*
X58374Y-37176D01*
X58317Y-37039D01*
X58299Y-37021D01*
X60242Y-37021D01*
X60288Y-37067D01*
X60425Y-37124D01*
X60574Y-37124D01*
X60711Y-37067D01*
X60817Y-36962D01*
X60874Y-36825D01*
X60874Y-36676D01*
X60817Y-36539D01*
X60712Y-36433D01*
X60575Y-36376D01*
X60426Y-36376D01*
X60290Y-36432D01*
X60290Y-36111D01*
X60000Y-35821D01*
X59929Y-35892D01*
X59929Y-35750D01*
X59639Y-35460D01*
X59548Y-35483D01*
X59481Y-35676D01*
X59492Y-35880D01*
X59548Y-36017D01*
X59639Y-36040D01*
X59929Y-35750D01*
X59929Y-35892D01*
X59710Y-36111D01*
X59733Y-36202D01*
X59926Y-36269D01*
X60130Y-36258D01*
X60267Y-36202D01*
X60290Y-36111D01*
X60290Y-36432D01*
X60289Y-36433D01*
X60242Y-36479D01*
X59474Y-36479D01*
X59474Y-35845D01*
X59474Y-35656D01*
X59402Y-35482D01*
X59269Y-35348D01*
X59095Y-35276D01*
X58906Y-35276D01*
X58732Y-35348D01*
X58598Y-35481D01*
X58526Y-35655D01*
X58526Y-35844D01*
X58598Y-36018D01*
X58731Y-36152D01*
X58905Y-36224D01*
X59094Y-36224D01*
X59268Y-36152D01*
X59402Y-36019D01*
X59474Y-35845D01*
X59474Y-36479D01*
X58519Y-36479D01*
X58519Y-35824D01*
X58508Y-35620D01*
X58452Y-35483D01*
X58361Y-35460D01*
X58290Y-35531D01*
X58290Y-35389D01*
X58267Y-35298D01*
X58074Y-35231D01*
X57870Y-35242D01*
X57733Y-35298D01*
X57710Y-35389D01*
X58000Y-35679D01*
X58290Y-35389D01*
X58290Y-35531D01*
X58071Y-35750D01*
X58361Y-36040D01*
X58452Y-36017D01*
X58519Y-35824D01*
X58519Y-36479D01*
X58290Y-36479D01*
X58290Y-36111D01*
X58000Y-35821D01*
X57929Y-35892D01*
X57929Y-35750D01*
X57639Y-35460D01*
X57548Y-35483D01*
X57481Y-35676D01*
X57492Y-35880D01*
X57548Y-36017D01*
X57639Y-36040D01*
X57929Y-35750D01*
X57929Y-35892D01*
X57710Y-36111D01*
X57733Y-36202D01*
X57926Y-36269D01*
X58130Y-36258D01*
X58267Y-36202D01*
X58290Y-36111D01*
X58290Y-36479D01*
X58000Y-36479D01*
X57896Y-36500D01*
X57808Y-36558D01*
X57806Y-36560D01*
X57558Y-36808D01*
X57556Y-36810D01*
X55558Y-38808D01*
X55440Y-38925D01*
X55474Y-38845D01*
X55474Y-38656D01*
X55402Y-38482D01*
X55269Y-38348D01*
X55095Y-38276D01*
X54906Y-38276D01*
X54823Y-38309D01*
X56439Y-36693D01*
X56441Y-36692D01*
X56442Y-36692D01*
X56689Y-36443D01*
X56691Y-36442D01*
X56692Y-36442D01*
X56750Y-36354D01*
X56771Y-36250D01*
X56771Y-36007D01*
X56817Y-35962D01*
X56874Y-35825D01*
X56874Y-35676D01*
X56817Y-35539D01*
X56712Y-35433D01*
X56575Y-35376D01*
X56426Y-35376D01*
X56289Y-35433D01*
X56183Y-35538D01*
X56126Y-35675D01*
X56126Y-35824D01*
X56183Y-35961D01*
X56229Y-36007D01*
X56229Y-36137D01*
X56058Y-36308D01*
X56056Y-36310D01*
X55474Y-36892D01*
X55474Y-35845D01*
X55474Y-35656D01*
X55402Y-35482D01*
X55269Y-35348D01*
X55095Y-35276D01*
X54906Y-35276D01*
X54732Y-35348D01*
X54598Y-35481D01*
X54526Y-35655D01*
X54526Y-35844D01*
X54598Y-36018D01*
X54731Y-36152D01*
X54905Y-36224D01*
X55094Y-36224D01*
X55268Y-36152D01*
X55402Y-36019D01*
X55474Y-35845D01*
X55474Y-36892D01*
X54519Y-37847D01*
X54519Y-35824D01*
X54508Y-35620D01*
X54452Y-35483D01*
X54361Y-35460D01*
X54071Y-35750D01*
X54361Y-36040D01*
X54452Y-36017D01*
X54519Y-35824D01*
X54519Y-37847D01*
X54308Y-38058D01*
X54250Y-38146D01*
X54246Y-38164D01*
X54228Y-38250D01*
X54229Y-38254D01*
X54229Y-38331D01*
X54095Y-38276D01*
X53906Y-38276D01*
X53771Y-38331D01*
X53771Y-36215D01*
X53926Y-36269D01*
X54130Y-36258D01*
X54267Y-36202D01*
X54290Y-36111D01*
X54035Y-35856D01*
X54000Y-35821D01*
X53929Y-35750D01*
X54000Y-35679D01*
X54035Y-35644D01*
X54290Y-35389D01*
X54267Y-35298D01*
X54132Y-35251D01*
X55307Y-34075D01*
X55425Y-34124D01*
X55574Y-34124D01*
X55711Y-34067D01*
X55817Y-33962D01*
X55874Y-33825D01*
X55874Y-33676D01*
X55817Y-33539D01*
X55712Y-33433D01*
X55575Y-33376D01*
X55426Y-33376D01*
X55289Y-33433D01*
X55240Y-33480D01*
X55146Y-33500D01*
X55058Y-33558D01*
X55056Y-33560D01*
X53310Y-35305D01*
X53307Y-35302D01*
X53275Y-35333D01*
X53267Y-35298D01*
X53074Y-35231D01*
X52870Y-35242D01*
X52733Y-35298D01*
X52710Y-35389D01*
X52965Y-35644D01*
X53000Y-35679D01*
X53071Y-35750D01*
X53000Y-35821D01*
X52965Y-35856D01*
X52929Y-35892D01*
X52929Y-35750D01*
X52639Y-35460D01*
X52548Y-35483D01*
X52503Y-35609D01*
X52452Y-35483D01*
X52361Y-35460D01*
X52290Y-35531D01*
X52290Y-35389D01*
X52267Y-35298D01*
X52074Y-35231D01*
X51870Y-35242D01*
X51733Y-35298D01*
X51710Y-35389D01*
X52000Y-35679D01*
X52290Y-35389D01*
X52290Y-35531D01*
X52071Y-35750D01*
X52361Y-36040D01*
X52452Y-36017D01*
X52496Y-35890D01*
X52548Y-36017D01*
X52639Y-36040D01*
X52929Y-35750D01*
X52929Y-35892D01*
X52710Y-36111D01*
X52733Y-36202D01*
X52926Y-36269D01*
X53130Y-36258D01*
X53229Y-36217D01*
X53229Y-38331D01*
X53095Y-38276D01*
X52910Y-38276D01*
X52692Y-38058D01*
X52604Y-38000D01*
X52585Y-37996D01*
X52500Y-37978D01*
X52495Y-37979D01*
X52290Y-37979D01*
X52290Y-36111D01*
X52000Y-35821D01*
X51929Y-35892D01*
X51929Y-35750D01*
X51639Y-35460D01*
X51548Y-35483D01*
X51481Y-35676D01*
X51492Y-35880D01*
X51548Y-36017D01*
X51639Y-36040D01*
X51929Y-35750D01*
X51929Y-35892D01*
X51710Y-36111D01*
X51733Y-36202D01*
X51926Y-36269D01*
X52130Y-36258D01*
X52267Y-36202D01*
X52290Y-36111D01*
X52290Y-37979D01*
X51250Y-37979D01*
X51146Y-38000D01*
X51058Y-38058D01*
X51056Y-38060D01*
X49519Y-39597D01*
X49519Y-38824D01*
X49508Y-38620D01*
X49474Y-38536D01*
X49474Y-35845D01*
X49474Y-35656D01*
X49402Y-35482D01*
X49269Y-35348D01*
X49095Y-35276D01*
X48906Y-35276D01*
X48732Y-35348D01*
X48598Y-35481D01*
X48526Y-35655D01*
X48526Y-35844D01*
X48598Y-36018D01*
X48731Y-36152D01*
X48905Y-36224D01*
X49094Y-36224D01*
X49268Y-36152D01*
X49402Y-36019D01*
X49474Y-35845D01*
X49474Y-38536D01*
X49452Y-38483D01*
X49361Y-38460D01*
X49290Y-38531D01*
X49290Y-38389D01*
X49267Y-38298D01*
X49074Y-38231D01*
X48870Y-38242D01*
X48733Y-38298D01*
X48710Y-38389D01*
X49000Y-38679D01*
X49290Y-38389D01*
X49290Y-38531D01*
X49071Y-38750D01*
X49361Y-39040D01*
X49452Y-39017D01*
X49519Y-38824D01*
X49519Y-39597D01*
X49290Y-39826D01*
X49290Y-39111D01*
X49000Y-38821D01*
X48929Y-38892D01*
X48929Y-38750D01*
X48639Y-38460D01*
X48548Y-38483D01*
X48519Y-38566D01*
X48519Y-35824D01*
X48508Y-35620D01*
X48452Y-35483D01*
X48361Y-35460D01*
X48071Y-35750D01*
X48361Y-36040D01*
X48452Y-36017D01*
X48519Y-35824D01*
X48519Y-38566D01*
X48481Y-38676D01*
X48492Y-38880D01*
X48548Y-39017D01*
X48639Y-39040D01*
X48929Y-38750D01*
X48929Y-38892D01*
X48710Y-39111D01*
X48733Y-39202D01*
X48926Y-39269D01*
X49130Y-39258D01*
X49267Y-39202D01*
X49290Y-39111D01*
X49290Y-39826D01*
X48090Y-41026D01*
X47906Y-41026D01*
X47771Y-41081D01*
X47771Y-39168D01*
X47905Y-39224D01*
X48094Y-39224D01*
X48268Y-39152D01*
X48402Y-39019D01*
X48474Y-38845D01*
X48474Y-38656D01*
X48402Y-38482D01*
X48269Y-38348D01*
X48095Y-38276D01*
X47906Y-38276D01*
X47771Y-38331D01*
X47771Y-36215D01*
X47926Y-36269D01*
X48130Y-36258D01*
X48267Y-36202D01*
X48290Y-36111D01*
X48035Y-35856D01*
X48000Y-35821D01*
X47929Y-35750D01*
X48000Y-35679D01*
X48035Y-35644D01*
X48290Y-35389D01*
X48267Y-35298D01*
X48074Y-35231D01*
X47870Y-35242D01*
X47771Y-35282D01*
X47771Y-34500D01*
X47750Y-34397D01*
X47750Y-34396D01*
X47692Y-34308D01*
X47689Y-34306D01*
X46771Y-33387D01*
X46771Y-32418D01*
X46905Y-32474D01*
X47090Y-32474D01*
X47806Y-33189D01*
X47808Y-33192D01*
X47896Y-33250D01*
X47897Y-33250D01*
X48000Y-33271D01*
X58137Y-33271D01*
X59806Y-34939D01*
X59808Y-34942D01*
X60056Y-35189D01*
X60058Y-35192D01*
X60146Y-35250D01*
X60250Y-35271D01*
X60799Y-35271D01*
X60733Y-35298D01*
X60710Y-35389D01*
X61000Y-35679D01*
X61290Y-35389D01*
X61267Y-35298D01*
X61189Y-35271D01*
X61799Y-35271D01*
X61733Y-35298D01*
X61710Y-35389D01*
X62000Y-35679D01*
X62290Y-35389D01*
X62267Y-35298D01*
X62189Y-35271D01*
X62742Y-35271D01*
X62758Y-35287D01*
X62733Y-35298D01*
X62710Y-35389D01*
X63000Y-35679D01*
X63290Y-35389D01*
X63267Y-35298D01*
X63239Y-35288D01*
X63317Y-35212D01*
X63374Y-35075D01*
X63374Y-34926D01*
X63317Y-34789D01*
X63299Y-34771D01*
X66137Y-34771D01*
X67556Y-36189D01*
X67558Y-36192D01*
X67646Y-36250D01*
X67647Y-36250D01*
X67750Y-36271D01*
X69797Y-36271D01*
X69797Y-36349D01*
X69797Y-36350D01*
X69798Y-36374D01*
X69836Y-36466D01*
X69849Y-36479D01*
X69849Y-36521D01*
X69836Y-36534D01*
X69798Y-36626D01*
X69797Y-36651D01*
X69859Y-36713D01*
X69905Y-36713D01*
X69906Y-36714D01*
X69836Y-36784D01*
X69817Y-36828D01*
X69797Y-36849D01*
X69798Y-36874D01*
X69798Y-36875D01*
X69798Y-36876D01*
X69797Y-36901D01*
X69817Y-36921D01*
X69836Y-36966D01*
X69870Y-37000D01*
X69836Y-37034D01*
X69817Y-37078D01*
X69797Y-37099D01*
X69798Y-37124D01*
X69798Y-37125D01*
X69798Y-37126D01*
X69797Y-37150D01*
X69797Y-37151D01*
X69797Y-37229D01*
X69765Y-37229D01*
X69750Y-37226D01*
X69125Y-37226D01*
X68972Y-37256D01*
X68843Y-37343D01*
X68842Y-37343D01*
X68842Y-37344D01*
X68469Y-37716D01*
X68519Y-37574D01*
X68508Y-37370D01*
X68452Y-37233D01*
X68361Y-37210D01*
X68290Y-37281D01*
X68290Y-37139D01*
X68267Y-37048D01*
X68074Y-36981D01*
X67870Y-36992D01*
X67733Y-37048D01*
X67710Y-37139D01*
X68000Y-37429D01*
X68290Y-37139D01*
X68290Y-37281D01*
X68106Y-37465D01*
X68071Y-37500D01*
X68000Y-37571D01*
X67929Y-37500D01*
X67894Y-37465D01*
X67639Y-37210D01*
X67548Y-37233D01*
X67481Y-37426D01*
X67492Y-37630D01*
X67525Y-37711D01*
X67454Y-37640D01*
X67474Y-37595D01*
X67474Y-37406D01*
X67402Y-37232D01*
X67269Y-37098D01*
X67095Y-37026D01*
X66906Y-37026D01*
X66732Y-37098D01*
X66598Y-37231D01*
X66526Y-37405D01*
X66526Y-37594D01*
X66598Y-37768D01*
X66606Y-37776D01*
X66631Y-37903D01*
X66718Y-38032D01*
X67526Y-38840D01*
X67526Y-38844D01*
X67598Y-39018D01*
X67731Y-39152D01*
X67905Y-39224D01*
X68094Y-39224D01*
X68268Y-39152D01*
X68402Y-39019D01*
X68474Y-38845D01*
X68474Y-38840D01*
X69290Y-38024D01*
X69750Y-38024D01*
X69765Y-38021D01*
X69849Y-38021D01*
X69836Y-38034D01*
X69798Y-38126D01*
X69797Y-38151D01*
X69859Y-38213D01*
X69905Y-38213D01*
X69935Y-38243D01*
X69951Y-38250D01*
G54D10*
G36*
X70786Y-37050D02*
X70686Y-37050D01*
X70686Y-37037D01*
X70686Y-37013D01*
X70686Y-36987D01*
X70686Y-36963D01*
X70686Y-36950D01*
X70786Y-36950D01*
X70786Y-36963D01*
X70786Y-36987D01*
X70786Y-37013D01*
X70786Y-37037D01*
X70786Y-37050D01*
X70786Y-37050D01*
G37*
G54D25*
X70786Y-37050D02*
X70686Y-37050D01*
X70686Y-37037D01*
X70686Y-37013D01*
X70686Y-36987D01*
X70686Y-36963D01*
X70686Y-36950D01*
X70786Y-36950D01*
X70786Y-36963D01*
X70786Y-36987D01*
X70786Y-37013D01*
X70786Y-37037D01*
X70786Y-37050D01*
G54D10*
G36*
X71854Y-37229D02*
X71675Y-37229D01*
X71675Y-37151D01*
X71675Y-37150D01*
X71674Y-37150D01*
X71674Y-37126D01*
X71673Y-37125D01*
X71674Y-37124D01*
X71675Y-37099D01*
X71654Y-37078D01*
X71636Y-37034D01*
X71602Y-37000D01*
X71636Y-36966D01*
X71654Y-36921D01*
X71675Y-36901D01*
X71674Y-36876D01*
X71673Y-36875D01*
X71674Y-36874D01*
X71675Y-36849D01*
X71654Y-36828D01*
X71636Y-36784D01*
X71566Y-36714D01*
X71567Y-36713D01*
X71613Y-36713D01*
X71675Y-36651D01*
X71674Y-36626D01*
X71636Y-36534D01*
X71623Y-36521D01*
X71623Y-36479D01*
X71636Y-36466D01*
X71674Y-36374D01*
X71675Y-36349D01*
X71613Y-36287D01*
X71567Y-36287D01*
X71537Y-36257D01*
X71520Y-36249D01*
X71537Y-36243D01*
X71567Y-36213D01*
X71613Y-36213D01*
X71675Y-36151D01*
X71674Y-36126D01*
X71636Y-36034D01*
X71623Y-36021D01*
X71623Y-35979D01*
X71636Y-35966D01*
X71674Y-35874D01*
X71675Y-35849D01*
X71613Y-35787D01*
X71567Y-35787D01*
X71537Y-35757D01*
X71520Y-35749D01*
X71537Y-35743D01*
X71567Y-35713D01*
X71613Y-35713D01*
X71675Y-35651D01*
X71674Y-35626D01*
X71636Y-35534D01*
X71623Y-35521D01*
X71623Y-35386D01*
X71618Y-35375D01*
X71623Y-35365D01*
X71623Y-35286D01*
X71623Y-35136D01*
X71618Y-35125D01*
X71623Y-35115D01*
X71623Y-35036D01*
X71623Y-34886D01*
X71618Y-34875D01*
X71623Y-34865D01*
X71623Y-34786D01*
X71623Y-34771D01*
X71637Y-34771D01*
X71854Y-34987D01*
X71854Y-37229D01*
X71854Y-37229D01*
G37*
G54D25*
X71854Y-37229D02*
X71675Y-37229D01*
X71675Y-37151D01*
X71675Y-37150D01*
X71674Y-37150D01*
X71674Y-37126D01*
X71673Y-37125D01*
X71674Y-37124D01*
X71675Y-37099D01*
X71654Y-37078D01*
X71636Y-37034D01*
X71602Y-37000D01*
X71636Y-36966D01*
X71654Y-36921D01*
X71675Y-36901D01*
X71674Y-36876D01*
X71673Y-36875D01*
X71674Y-36874D01*
X71675Y-36849D01*
X71654Y-36828D01*
X71636Y-36784D01*
X71566Y-36714D01*
X71567Y-36713D01*
X71613Y-36713D01*
X71675Y-36651D01*
X71674Y-36626D01*
X71636Y-36534D01*
X71623Y-36521D01*
X71623Y-36479D01*
X71636Y-36466D01*
X71674Y-36374D01*
X71675Y-36349D01*
X71613Y-36287D01*
X71567Y-36287D01*
X71537Y-36257D01*
X71520Y-36249D01*
X71537Y-36243D01*
X71567Y-36213D01*
X71613Y-36213D01*
X71675Y-36151D01*
X71674Y-36126D01*
X71636Y-36034D01*
X71623Y-36021D01*
X71623Y-35979D01*
X71636Y-35966D01*
X71674Y-35874D01*
X71675Y-35849D01*
X71613Y-35787D01*
X71567Y-35787D01*
X71537Y-35757D01*
X71520Y-35749D01*
X71537Y-35743D01*
X71567Y-35713D01*
X71613Y-35713D01*
X71675Y-35651D01*
X71674Y-35626D01*
X71636Y-35534D01*
X71623Y-35521D01*
X71623Y-35386D01*
X71618Y-35375D01*
X71623Y-35365D01*
X71623Y-35286D01*
X71623Y-35136D01*
X71618Y-35125D01*
X71623Y-35115D01*
X71623Y-35036D01*
X71623Y-34886D01*
X71618Y-34875D01*
X71623Y-34865D01*
X71623Y-34786D01*
X71623Y-34771D01*
X71637Y-34771D01*
X71854Y-34987D01*
X71854Y-37229D01*
G54D10*
G36*
X80726Y-48972D02*
X80665Y-49276D01*
X80659Y-49285D01*
X80659Y-46756D01*
X80659Y-46606D01*
X80659Y-28646D01*
X80659Y-28496D01*
X80602Y-28358D01*
X80530Y-28285D01*
X80530Y-26696D01*
X80527Y-26286D01*
X80377Y-25924D01*
X80233Y-25838D01*
X80162Y-25909D01*
X80162Y-25767D01*
X80076Y-25623D01*
X79696Y-25470D01*
X79286Y-25473D01*
X78924Y-25623D01*
X78838Y-25767D01*
X79500Y-26429D01*
X80162Y-25767D01*
X80162Y-25909D01*
X79571Y-26500D01*
X80233Y-27162D01*
X80377Y-27076D01*
X80530Y-26696D01*
X80530Y-28285D01*
X80497Y-28252D01*
X80359Y-28194D01*
X80209Y-28194D01*
X80162Y-28213D01*
X80162Y-27233D01*
X79500Y-26571D01*
X79429Y-26642D01*
X79429Y-26500D01*
X78767Y-25838D01*
X78623Y-25924D01*
X78470Y-26304D01*
X78473Y-26714D01*
X78623Y-27076D01*
X78767Y-27162D01*
X79429Y-26500D01*
X79429Y-26642D01*
X78838Y-27233D01*
X78924Y-27377D01*
X79068Y-27435D01*
X79018Y-27435D01*
X78956Y-27497D01*
X78956Y-28225D01*
X79980Y-28225D01*
X80042Y-28163D01*
X80041Y-27636D01*
X80003Y-27544D01*
X79933Y-27474D01*
X79887Y-27455D01*
X80076Y-27377D01*
X80162Y-27233D01*
X80162Y-28213D01*
X80071Y-28251D01*
X79988Y-28333D01*
X79980Y-28325D01*
X78956Y-28325D01*
X78956Y-29053D01*
X79018Y-29115D01*
X79743Y-29114D01*
X79842Y-29114D01*
X79933Y-29076D01*
X80003Y-29006D01*
X80041Y-28914D01*
X80041Y-28859D01*
X80069Y-28888D01*
X80207Y-28946D01*
X80357Y-28946D01*
X80495Y-28889D01*
X80601Y-28784D01*
X80659Y-28646D01*
X80659Y-46606D01*
X80602Y-46468D01*
X80497Y-46362D01*
X80359Y-46304D01*
X80209Y-46304D01*
X80071Y-46361D01*
X80041Y-46390D01*
X80041Y-46336D01*
X80003Y-46244D01*
X79933Y-46174D01*
X79842Y-46136D01*
X79743Y-46136D01*
X79018Y-46135D01*
X78956Y-46197D01*
X78956Y-46925D01*
X79980Y-46925D01*
X79988Y-46916D01*
X80069Y-46998D01*
X80207Y-47056D01*
X80357Y-47056D01*
X80495Y-46999D01*
X80601Y-46894D01*
X80659Y-46756D01*
X80659Y-49285D01*
X80530Y-49478D01*
X80530Y-48946D01*
X80527Y-48536D01*
X80377Y-48174D01*
X80233Y-48088D01*
X80162Y-48159D01*
X80162Y-48017D01*
X80076Y-47873D01*
X79884Y-47796D01*
X79933Y-47776D01*
X80003Y-47706D01*
X80041Y-47614D01*
X80042Y-47087D01*
X79980Y-47025D01*
X78956Y-47025D01*
X78956Y-47753D01*
X79018Y-47815D01*
X79064Y-47814D01*
X78924Y-47873D01*
X78856Y-47986D01*
X78856Y-47753D01*
X78856Y-47025D01*
X78856Y-46925D01*
X78856Y-46197D01*
X78856Y-29053D01*
X78856Y-28325D01*
X78856Y-28225D01*
X78856Y-27497D01*
X78794Y-27435D01*
X78069Y-27436D01*
X77970Y-27436D01*
X77879Y-27474D01*
X77809Y-27544D01*
X77771Y-27636D01*
X77770Y-28163D01*
X77832Y-28225D01*
X78856Y-28225D01*
X78856Y-28325D01*
X77832Y-28325D01*
X77770Y-28387D01*
X77771Y-28914D01*
X77809Y-29006D01*
X77879Y-29076D01*
X77970Y-29114D01*
X78069Y-29114D01*
X78794Y-29115D01*
X78856Y-29053D01*
X78856Y-46197D01*
X78794Y-46135D01*
X78069Y-46136D01*
X77970Y-46136D01*
X77879Y-46174D01*
X77809Y-46244D01*
X77771Y-46336D01*
X77770Y-46863D01*
X77832Y-46925D01*
X78856Y-46925D01*
X78856Y-47025D01*
X77832Y-47025D01*
X77770Y-47087D01*
X77771Y-47614D01*
X77809Y-47706D01*
X77879Y-47776D01*
X77970Y-47814D01*
X78069Y-47814D01*
X78794Y-47815D01*
X78856Y-47753D01*
X78856Y-47986D01*
X78838Y-48017D01*
X79500Y-48679D01*
X80162Y-48017D01*
X80162Y-48159D01*
X79571Y-48750D01*
X80233Y-49412D01*
X80377Y-49326D01*
X80530Y-48946D01*
X80530Y-49478D01*
X80509Y-49510D01*
X80276Y-49665D01*
X79972Y-49726D01*
X79837Y-49726D01*
X80076Y-49627D01*
X80162Y-49483D01*
X79500Y-48821D01*
X79429Y-48892D01*
X79429Y-48750D01*
X78767Y-48088D01*
X78623Y-48174D01*
X78470Y-48554D01*
X78473Y-48964D01*
X78623Y-49326D01*
X78767Y-49412D01*
X79429Y-48750D01*
X79429Y-48892D01*
X78838Y-49483D01*
X78924Y-49627D01*
X79169Y-49726D01*
X73542Y-49726D01*
X73542Y-45360D01*
X73542Y-45144D01*
X73542Y-30108D01*
X73542Y-29892D01*
X73460Y-29693D01*
X73308Y-29540D01*
X73109Y-29457D01*
X72893Y-29457D01*
X72694Y-29539D01*
X72541Y-29691D01*
X72468Y-29865D01*
X72371Y-29631D01*
X72188Y-29447D01*
X71949Y-29348D01*
X71690Y-29348D01*
X71451Y-29447D01*
X71267Y-29630D01*
X71168Y-29869D01*
X71168Y-30128D01*
X71267Y-30367D01*
X71450Y-30551D01*
X71689Y-30650D01*
X71948Y-30650D01*
X72187Y-30551D01*
X72371Y-30368D01*
X72468Y-30132D01*
X72540Y-30305D01*
X72692Y-30458D01*
X72891Y-30541D01*
X73107Y-30541D01*
X73306Y-30459D01*
X73459Y-30307D01*
X73542Y-30108D01*
X73542Y-45144D01*
X73460Y-44945D01*
X73308Y-44792D01*
X73109Y-44709D01*
X72893Y-44709D01*
X72694Y-44791D01*
X72541Y-44943D01*
X72468Y-45117D01*
X72371Y-44883D01*
X72188Y-44699D01*
X71949Y-44600D01*
X71690Y-44600D01*
X71675Y-44606D01*
X71675Y-43849D01*
X71613Y-43787D01*
X70786Y-43787D01*
X70786Y-44013D01*
X70848Y-44075D01*
X71376Y-44074D01*
X71475Y-44074D01*
X71566Y-44036D01*
X71636Y-43966D01*
X71674Y-43874D01*
X71675Y-43849D01*
X71675Y-44606D01*
X71451Y-44699D01*
X71267Y-44882D01*
X71168Y-45121D01*
X71168Y-45380D01*
X71267Y-45619D01*
X71450Y-45803D01*
X71689Y-45902D01*
X71948Y-45902D01*
X72187Y-45803D01*
X72371Y-45620D01*
X72468Y-45384D01*
X72540Y-45557D01*
X72692Y-45710D01*
X72891Y-45793D01*
X73107Y-45793D01*
X73306Y-45711D01*
X73459Y-45559D01*
X73542Y-45360D01*
X73542Y-49726D01*
X72050Y-49726D01*
X72050Y-49325D01*
X70686Y-49325D01*
X70686Y-44013D01*
X70686Y-43787D01*
X69859Y-43787D01*
X69797Y-43849D01*
X69798Y-43874D01*
X69836Y-43966D01*
X69906Y-44036D01*
X69997Y-44074D01*
X70096Y-44074D01*
X70624Y-44075D01*
X70686Y-44013D01*
X70686Y-49325D01*
X70271Y-49325D01*
X70271Y-47000D01*
X70271Y-46500D01*
X70271Y-45750D01*
X70271Y-45000D01*
X70250Y-44897D01*
X70250Y-44896D01*
X70192Y-44808D01*
X70189Y-44806D01*
X69271Y-43887D01*
X69271Y-43611D01*
X69300Y-43624D01*
X69449Y-43624D01*
X69586Y-43567D01*
X69632Y-43521D01*
X69849Y-43521D01*
X69836Y-43534D01*
X69798Y-43626D01*
X69797Y-43651D01*
X69859Y-43713D01*
X69905Y-43713D01*
X69935Y-43743D01*
X70007Y-43773D01*
X70086Y-43773D01*
X71464Y-43773D01*
X71537Y-43743D01*
X71567Y-43713D01*
X71613Y-43713D01*
X71675Y-43651D01*
X71674Y-43626D01*
X71636Y-43534D01*
X71623Y-43521D01*
X71623Y-43386D01*
X71618Y-43375D01*
X71623Y-43365D01*
X71623Y-43286D01*
X71623Y-43136D01*
X71618Y-43125D01*
X71623Y-43115D01*
X71623Y-43036D01*
X71623Y-42886D01*
X71618Y-42875D01*
X71623Y-42865D01*
X71623Y-42786D01*
X71623Y-42636D01*
X71618Y-42625D01*
X71623Y-42615D01*
X71623Y-42536D01*
X71623Y-42386D01*
X71618Y-42375D01*
X71623Y-42365D01*
X71623Y-42286D01*
X71623Y-42136D01*
X71618Y-42125D01*
X71623Y-42115D01*
X71623Y-42036D01*
X71623Y-41886D01*
X71618Y-41875D01*
X71623Y-41865D01*
X71623Y-41786D01*
X71623Y-41636D01*
X71618Y-41625D01*
X71623Y-41615D01*
X71623Y-41536D01*
X71623Y-41386D01*
X71618Y-41375D01*
X71623Y-41365D01*
X71623Y-41286D01*
X71623Y-41136D01*
X71618Y-41125D01*
X71623Y-41115D01*
X71623Y-41036D01*
X71623Y-40886D01*
X71618Y-40875D01*
X71623Y-40865D01*
X71623Y-40786D01*
X71623Y-40636D01*
X71618Y-40625D01*
X71623Y-40615D01*
X71623Y-40536D01*
X71623Y-40479D01*
X71636Y-40466D01*
X71674Y-40374D01*
X71675Y-40349D01*
X71613Y-40287D01*
X71567Y-40287D01*
X71537Y-40257D01*
X71520Y-40249D01*
X71537Y-40243D01*
X71567Y-40213D01*
X71613Y-40213D01*
X71675Y-40151D01*
X71674Y-40126D01*
X71636Y-40034D01*
X71623Y-40021D01*
X71623Y-39979D01*
X71636Y-39966D01*
X71674Y-39874D01*
X71675Y-39849D01*
X71613Y-39787D01*
X71567Y-39787D01*
X71537Y-39757D01*
X71520Y-39749D01*
X71537Y-39743D01*
X71567Y-39713D01*
X71613Y-39713D01*
X71675Y-39651D01*
X71674Y-39626D01*
X71636Y-39534D01*
X71623Y-39521D01*
X71623Y-39479D01*
X71636Y-39466D01*
X71674Y-39374D01*
X71675Y-39349D01*
X71613Y-39287D01*
X71567Y-39287D01*
X71537Y-39257D01*
X71520Y-39249D01*
X71537Y-39243D01*
X71567Y-39213D01*
X71613Y-39213D01*
X71675Y-39151D01*
X71674Y-39126D01*
X71636Y-39034D01*
X71623Y-39021D01*
X71623Y-38979D01*
X71636Y-38966D01*
X71674Y-38874D01*
X71674Y-38850D01*
X71675Y-38850D01*
X71675Y-38849D01*
X71675Y-38771D01*
X71745Y-38771D01*
X71750Y-38772D01*
X71750Y-38771D01*
X71835Y-38753D01*
X71853Y-38750D01*
X71854Y-38750D01*
X71942Y-38692D01*
X72314Y-38318D01*
X72316Y-38317D01*
X72317Y-38317D01*
X72375Y-38229D01*
X72375Y-38228D01*
X72396Y-38125D01*
X72396Y-37753D01*
X72396Y-37750D01*
X72396Y-37500D01*
X72396Y-37498D01*
X72396Y-34875D01*
X72375Y-34772D01*
X72375Y-34771D01*
X72317Y-34683D01*
X72314Y-34681D01*
X71942Y-34308D01*
X71854Y-34250D01*
X71835Y-34246D01*
X71750Y-34228D01*
X71745Y-34229D01*
X71623Y-34229D01*
X71623Y-34136D01*
X71618Y-34125D01*
X71623Y-34115D01*
X71623Y-34036D01*
X71623Y-33886D01*
X71618Y-33875D01*
X71623Y-33865D01*
X71623Y-33786D01*
X71623Y-33636D01*
X71618Y-33625D01*
X71623Y-33615D01*
X71623Y-33536D01*
X71623Y-33386D01*
X71618Y-33375D01*
X71623Y-33365D01*
X71623Y-33286D01*
X71623Y-33136D01*
X71618Y-33125D01*
X71623Y-33115D01*
X71623Y-33036D01*
X71623Y-32886D01*
X71618Y-32875D01*
X71623Y-32865D01*
X71623Y-32786D01*
X71623Y-32636D01*
X71618Y-32625D01*
X71623Y-32615D01*
X71623Y-32536D01*
X71623Y-32386D01*
X71618Y-32375D01*
X71623Y-32365D01*
X71623Y-32286D01*
X71623Y-32136D01*
X71618Y-32125D01*
X71623Y-32115D01*
X71623Y-32036D01*
X71623Y-31886D01*
X71618Y-31875D01*
X71623Y-31865D01*
X71623Y-31786D01*
X71623Y-31729D01*
X71636Y-31716D01*
X71674Y-31624D01*
X71675Y-31599D01*
X71675Y-31401D01*
X71674Y-31376D01*
X71636Y-31284D01*
X71566Y-31214D01*
X71475Y-31176D01*
X71376Y-31176D01*
X70848Y-31175D01*
X70786Y-31237D01*
X70786Y-31463D01*
X71613Y-31463D01*
X71675Y-31401D01*
X71675Y-31599D01*
X71613Y-31537D01*
X71567Y-31537D01*
X71537Y-31507D01*
X71465Y-31477D01*
X71386Y-31477D01*
X70686Y-31477D01*
X70686Y-31463D01*
X70686Y-31237D01*
X70624Y-31175D01*
X70096Y-31176D01*
X69997Y-31176D01*
X69906Y-31214D01*
X69836Y-31284D01*
X69798Y-31376D01*
X69797Y-31401D01*
X69859Y-31463D01*
X70686Y-31463D01*
X70686Y-31477D01*
X70008Y-31477D01*
X69935Y-31507D01*
X69905Y-31537D01*
X69859Y-31537D01*
X69797Y-31599D01*
X69798Y-31624D01*
X69836Y-31716D01*
X69849Y-31729D01*
X69849Y-31864D01*
X69853Y-31874D01*
X69849Y-31885D01*
X69849Y-31964D01*
X69849Y-32114D01*
X69853Y-32124D01*
X69849Y-32135D01*
X69849Y-32214D01*
X69849Y-32364D01*
X69853Y-32374D01*
X69849Y-32385D01*
X69849Y-32464D01*
X69849Y-32479D01*
X69487Y-32479D01*
X69317Y-32308D01*
X69229Y-32250D01*
X69210Y-32246D01*
X69125Y-32228D01*
X69120Y-32229D01*
X69000Y-32229D01*
X68625Y-32229D01*
X66465Y-32229D01*
X66519Y-32074D01*
X66508Y-31870D01*
X66474Y-31786D01*
X66474Y-26095D01*
X66474Y-25906D01*
X66402Y-25732D01*
X66269Y-25598D01*
X66095Y-25526D01*
X65906Y-25526D01*
X65732Y-25598D01*
X65598Y-25731D01*
X65526Y-25905D01*
X65526Y-26094D01*
X65598Y-26268D01*
X65731Y-26402D01*
X65905Y-26474D01*
X66094Y-26474D01*
X66268Y-26402D01*
X66402Y-26269D01*
X66474Y-26095D01*
X66474Y-31786D01*
X66452Y-31733D01*
X66361Y-31710D01*
X66290Y-31781D01*
X66290Y-31639D01*
X66267Y-31548D01*
X66074Y-31481D01*
X65870Y-31492D01*
X65733Y-31548D01*
X65710Y-31639D01*
X66000Y-31929D01*
X66290Y-31639D01*
X66290Y-31781D01*
X66106Y-31965D01*
X66071Y-32000D01*
X66000Y-32071D01*
X65929Y-32000D01*
X65894Y-31965D01*
X65639Y-31710D01*
X65548Y-31733D01*
X65481Y-31926D01*
X65490Y-32106D01*
X65474Y-32090D01*
X65474Y-31906D01*
X65474Y-26095D01*
X65474Y-25906D01*
X65402Y-25732D01*
X65269Y-25598D01*
X65095Y-25526D01*
X64906Y-25526D01*
X64732Y-25598D01*
X64598Y-25731D01*
X64526Y-25905D01*
X64526Y-26094D01*
X64598Y-26268D01*
X64731Y-26402D01*
X64905Y-26474D01*
X65094Y-26474D01*
X65268Y-26402D01*
X65402Y-26269D01*
X65474Y-26095D01*
X65474Y-31906D01*
X65402Y-31732D01*
X65269Y-31598D01*
X65095Y-31526D01*
X64906Y-31526D01*
X64732Y-31598D01*
X64598Y-31731D01*
X64526Y-31905D01*
X64526Y-32094D01*
X64560Y-32176D01*
X64474Y-32090D01*
X64474Y-31906D01*
X64474Y-26095D01*
X64474Y-25906D01*
X64402Y-25732D01*
X64269Y-25598D01*
X64095Y-25526D01*
X63906Y-25526D01*
X63732Y-25598D01*
X63598Y-25731D01*
X63526Y-25905D01*
X63526Y-26094D01*
X63598Y-26268D01*
X63731Y-26402D01*
X63905Y-26474D01*
X64094Y-26474D01*
X64268Y-26402D01*
X64402Y-26269D01*
X64474Y-26095D01*
X64474Y-31906D01*
X64402Y-31732D01*
X64269Y-31598D01*
X64095Y-31526D01*
X63906Y-31526D01*
X63732Y-31598D01*
X63598Y-31731D01*
X63526Y-31905D01*
X63526Y-32094D01*
X63560Y-32176D01*
X63474Y-32090D01*
X63474Y-31906D01*
X63474Y-26095D01*
X63474Y-25906D01*
X63402Y-25732D01*
X63269Y-25598D01*
X63095Y-25526D01*
X62906Y-25526D01*
X62732Y-25598D01*
X62598Y-25731D01*
X62526Y-25905D01*
X62526Y-26094D01*
X62598Y-26268D01*
X62731Y-26402D01*
X62905Y-26474D01*
X63094Y-26474D01*
X63268Y-26402D01*
X63402Y-26269D01*
X63474Y-26095D01*
X63474Y-31906D01*
X63402Y-31732D01*
X63269Y-31598D01*
X63095Y-31526D01*
X62906Y-31526D01*
X62732Y-31598D01*
X62723Y-31606D01*
X62692Y-31558D01*
X62689Y-31556D01*
X62474Y-31340D01*
X62474Y-26095D01*
X62474Y-25906D01*
X62402Y-25732D01*
X62269Y-25598D01*
X62095Y-25526D01*
X61906Y-25526D01*
X61732Y-25598D01*
X61598Y-25731D01*
X61526Y-25905D01*
X61526Y-26094D01*
X61598Y-26268D01*
X61731Y-26402D01*
X61905Y-26474D01*
X62094Y-26474D01*
X62268Y-26402D01*
X62402Y-26269D01*
X62474Y-26095D01*
X62474Y-31340D01*
X61474Y-30340D01*
X61474Y-26095D01*
X61474Y-25906D01*
X61402Y-25732D01*
X61269Y-25598D01*
X61095Y-25526D01*
X60906Y-25526D01*
X60732Y-25598D01*
X60598Y-25731D01*
X60526Y-25905D01*
X60526Y-26094D01*
X60598Y-26268D01*
X60731Y-26402D01*
X60905Y-26474D01*
X61094Y-26474D01*
X61268Y-26402D01*
X61402Y-26269D01*
X61474Y-26095D01*
X61474Y-30340D01*
X60474Y-29340D01*
X60474Y-26095D01*
X60474Y-25906D01*
X60402Y-25732D01*
X60269Y-25598D01*
X60095Y-25526D01*
X59906Y-25526D01*
X59732Y-25598D01*
X59598Y-25731D01*
X59526Y-25905D01*
X59526Y-26094D01*
X59598Y-26268D01*
X59731Y-26402D01*
X59905Y-26474D01*
X60094Y-26474D01*
X60268Y-26402D01*
X60402Y-26269D01*
X60474Y-26095D01*
X60474Y-29340D01*
X60442Y-29308D01*
X60354Y-29250D01*
X60335Y-29246D01*
X60250Y-29228D01*
X60245Y-29229D01*
X59474Y-29229D01*
X59474Y-26095D01*
X59474Y-25906D01*
X59402Y-25732D01*
X59269Y-25598D01*
X59095Y-25526D01*
X58906Y-25526D01*
X58732Y-25598D01*
X58598Y-25731D01*
X58526Y-25905D01*
X58526Y-26094D01*
X58598Y-26268D01*
X58731Y-26402D01*
X58905Y-26474D01*
X59094Y-26474D01*
X59268Y-26402D01*
X59402Y-26269D01*
X59474Y-26095D01*
X59474Y-29229D01*
X58474Y-29229D01*
X58474Y-26095D01*
X58474Y-25906D01*
X58402Y-25732D01*
X58269Y-25598D01*
X58095Y-25526D01*
X57906Y-25526D01*
X57732Y-25598D01*
X57598Y-25731D01*
X57526Y-25905D01*
X57526Y-26094D01*
X57598Y-26268D01*
X57731Y-26402D01*
X57905Y-26474D01*
X58094Y-26474D01*
X58268Y-26402D01*
X58402Y-26269D01*
X58474Y-26095D01*
X58474Y-29229D01*
X57474Y-29229D01*
X57474Y-26095D01*
X57474Y-25906D01*
X57402Y-25732D01*
X57269Y-25598D01*
X57095Y-25526D01*
X56906Y-25526D01*
X56732Y-25598D01*
X56598Y-25731D01*
X56526Y-25905D01*
X56526Y-26094D01*
X56598Y-26268D01*
X56731Y-26402D01*
X56905Y-26474D01*
X57094Y-26474D01*
X57268Y-26402D01*
X57402Y-26269D01*
X57474Y-26095D01*
X57474Y-29229D01*
X56474Y-29229D01*
X56474Y-26095D01*
X56474Y-25906D01*
X56402Y-25732D01*
X56269Y-25598D01*
X56095Y-25526D01*
X55906Y-25526D01*
X55732Y-25598D01*
X55598Y-25731D01*
X55526Y-25905D01*
X55526Y-26094D01*
X55598Y-26268D01*
X55731Y-26402D01*
X55905Y-26474D01*
X56094Y-26474D01*
X56268Y-26402D01*
X56402Y-26269D01*
X56474Y-26095D01*
X56474Y-29229D01*
X55474Y-29229D01*
X55474Y-26095D01*
X55474Y-25906D01*
X55402Y-25732D01*
X55269Y-25598D01*
X55095Y-25526D01*
X54906Y-25526D01*
X54732Y-25598D01*
X54598Y-25731D01*
X54526Y-25905D01*
X54526Y-26094D01*
X54598Y-26268D01*
X54731Y-26402D01*
X54905Y-26474D01*
X55094Y-26474D01*
X55268Y-26402D01*
X55402Y-26269D01*
X55474Y-26095D01*
X55474Y-29229D01*
X54474Y-29229D01*
X54474Y-26095D01*
X54474Y-25906D01*
X54402Y-25732D01*
X54269Y-25598D01*
X54095Y-25526D01*
X53906Y-25526D01*
X53732Y-25598D01*
X53598Y-25731D01*
X53526Y-25905D01*
X53526Y-26094D01*
X53598Y-26268D01*
X53731Y-26402D01*
X53905Y-26474D01*
X54094Y-26474D01*
X54268Y-26402D01*
X54402Y-26269D01*
X54474Y-26095D01*
X54474Y-29229D01*
X53474Y-29229D01*
X53474Y-26095D01*
X53474Y-25906D01*
X53402Y-25732D01*
X53269Y-25598D01*
X53095Y-25526D01*
X52906Y-25526D01*
X52732Y-25598D01*
X52598Y-25731D01*
X52526Y-25905D01*
X52526Y-26094D01*
X52598Y-26268D01*
X52731Y-26402D01*
X52905Y-26474D01*
X53094Y-26474D01*
X53268Y-26402D01*
X53402Y-26269D01*
X53474Y-26095D01*
X53474Y-29229D01*
X51519Y-29229D01*
X51519Y-28574D01*
X51508Y-28370D01*
X51474Y-28286D01*
X51474Y-26595D01*
X51474Y-26406D01*
X51402Y-26232D01*
X51269Y-26098D01*
X51095Y-26026D01*
X50906Y-26026D01*
X50732Y-26098D01*
X50598Y-26231D01*
X50526Y-26405D01*
X50526Y-26594D01*
X50598Y-26768D01*
X50731Y-26902D01*
X50905Y-26974D01*
X51094Y-26974D01*
X51268Y-26902D01*
X51402Y-26769D01*
X51474Y-26595D01*
X51474Y-28286D01*
X51452Y-28233D01*
X51361Y-28210D01*
X51290Y-28281D01*
X51290Y-28139D01*
X51267Y-28048D01*
X51074Y-27981D01*
X50870Y-27992D01*
X50733Y-28048D01*
X50710Y-28139D01*
X51000Y-28429D01*
X51290Y-28139D01*
X51290Y-28281D01*
X51071Y-28500D01*
X51361Y-28790D01*
X51452Y-28767D01*
X51519Y-28574D01*
X51519Y-29229D01*
X51290Y-29229D01*
X51290Y-28861D01*
X51000Y-28571D01*
X50929Y-28642D01*
X50929Y-28500D01*
X50639Y-28210D01*
X50548Y-28233D01*
X50481Y-28426D01*
X50492Y-28630D01*
X50548Y-28767D01*
X50639Y-28790D01*
X50929Y-28500D01*
X50929Y-28642D01*
X50710Y-28861D01*
X50733Y-28952D01*
X50926Y-29019D01*
X51130Y-29008D01*
X51267Y-28952D01*
X51290Y-28861D01*
X51290Y-29229D01*
X50474Y-29229D01*
X50474Y-27595D01*
X50474Y-27406D01*
X50474Y-26595D01*
X50474Y-26406D01*
X50402Y-26232D01*
X50269Y-26098D01*
X50095Y-26026D01*
X49906Y-26026D01*
X49732Y-26098D01*
X49598Y-26231D01*
X49526Y-26405D01*
X49526Y-26594D01*
X49598Y-26768D01*
X49731Y-26902D01*
X49905Y-26974D01*
X50094Y-26974D01*
X50268Y-26902D01*
X50402Y-26769D01*
X50474Y-26595D01*
X50474Y-27406D01*
X50402Y-27232D01*
X50269Y-27098D01*
X50095Y-27026D01*
X49906Y-27026D01*
X49732Y-27098D01*
X49598Y-27231D01*
X49526Y-27405D01*
X49526Y-27594D01*
X49598Y-27768D01*
X49731Y-27902D01*
X49905Y-27974D01*
X50094Y-27974D01*
X50268Y-27902D01*
X50402Y-27769D01*
X50474Y-27595D01*
X50474Y-29229D01*
X49418Y-29229D01*
X49474Y-29095D01*
X49474Y-28906D01*
X49402Y-28732D01*
X49269Y-28598D01*
X49095Y-28526D01*
X48906Y-28526D01*
X48732Y-28598D01*
X48598Y-28731D01*
X48526Y-28905D01*
X48526Y-29094D01*
X48559Y-29175D01*
X48474Y-29090D01*
X48474Y-28906D01*
X48402Y-28732D01*
X48269Y-28598D01*
X48095Y-28526D01*
X47906Y-28526D01*
X47732Y-28598D01*
X47598Y-28731D01*
X47526Y-28905D01*
X47526Y-29094D01*
X47598Y-29268D01*
X47731Y-29402D01*
X47905Y-29474D01*
X48090Y-29474D01*
X48095Y-29479D01*
X47474Y-29479D01*
X47474Y-29095D01*
X47474Y-28906D01*
X47402Y-28732D01*
X47269Y-28598D01*
X47199Y-28569D01*
X47198Y-28568D01*
X47192Y-28558D01*
X47189Y-28556D01*
X46404Y-27771D01*
X46600Y-27771D01*
X46731Y-27902D01*
X46905Y-27974D01*
X47094Y-27974D01*
X47268Y-27902D01*
X47402Y-27769D01*
X47474Y-27595D01*
X47474Y-27406D01*
X47402Y-27232D01*
X47269Y-27098D01*
X47095Y-27026D01*
X46906Y-27026D01*
X46732Y-27098D01*
X46600Y-27229D01*
X46488Y-27229D01*
X46067Y-26808D01*
X46010Y-26771D01*
X46600Y-26771D01*
X46731Y-26902D01*
X46905Y-26974D01*
X47094Y-26974D01*
X47268Y-26902D01*
X47402Y-26769D01*
X47474Y-26595D01*
X47474Y-26406D01*
X47402Y-26232D01*
X47269Y-26098D01*
X47095Y-26026D01*
X46906Y-26026D01*
X46732Y-26098D01*
X46600Y-26229D01*
X45399Y-26229D01*
X45269Y-26098D01*
X45095Y-26026D01*
X44906Y-26026D01*
X44732Y-26098D01*
X44598Y-26231D01*
X44526Y-26405D01*
X44526Y-26594D01*
X44581Y-26729D01*
X44363Y-26729D01*
X43942Y-26308D01*
X43854Y-26250D01*
X43835Y-26246D01*
X43750Y-26228D01*
X43745Y-26229D01*
X43498Y-26229D01*
X43498Y-26161D01*
X43468Y-26088D01*
X43412Y-26032D01*
X43340Y-26002D01*
X43261Y-26002D01*
X42661Y-26002D01*
X42588Y-26032D01*
X42532Y-26088D01*
X42502Y-26160D01*
X42502Y-26239D01*
X42502Y-26839D01*
X42532Y-26912D01*
X42588Y-26968D01*
X42660Y-26998D01*
X42739Y-26998D01*
X43339Y-26998D01*
X43412Y-26968D01*
X43468Y-26912D01*
X43498Y-26840D01*
X43498Y-26771D01*
X43637Y-26771D01*
X44058Y-27192D01*
X44146Y-27250D01*
X44147Y-27250D01*
X44250Y-27271D01*
X44581Y-27271D01*
X44526Y-27405D01*
X44526Y-27594D01*
X44598Y-27768D01*
X44731Y-27902D01*
X44905Y-27974D01*
X45094Y-27974D01*
X45268Y-27902D01*
X45399Y-27771D01*
X45637Y-27771D01*
X46597Y-28731D01*
X46526Y-28905D01*
X46526Y-29094D01*
X46598Y-29268D01*
X46731Y-29402D01*
X46905Y-29474D01*
X47094Y-29474D01*
X47268Y-29402D01*
X47402Y-29269D01*
X47474Y-29095D01*
X47474Y-29479D01*
X46474Y-29479D01*
X46474Y-29095D01*
X46474Y-28906D01*
X46402Y-28732D01*
X46269Y-28598D01*
X46095Y-28526D01*
X45906Y-28526D01*
X45732Y-28598D01*
X45598Y-28731D01*
X45526Y-28905D01*
X45526Y-29094D01*
X45598Y-29268D01*
X45731Y-29402D01*
X45905Y-29474D01*
X46094Y-29474D01*
X46268Y-29402D01*
X46402Y-29269D01*
X46474Y-29095D01*
X46474Y-29479D01*
X45474Y-29479D01*
X45474Y-29095D01*
X45474Y-28906D01*
X45402Y-28732D01*
X45269Y-28598D01*
X45199Y-28569D01*
X45198Y-28568D01*
X45192Y-28558D01*
X45189Y-28556D01*
X43942Y-27308D01*
X43854Y-27250D01*
X43835Y-27246D01*
X43750Y-27228D01*
X43745Y-27229D01*
X43426Y-27229D01*
X43422Y-27218D01*
X43282Y-27078D01*
X43099Y-27002D01*
X42901Y-27002D01*
X42718Y-27078D01*
X42578Y-27218D01*
X42502Y-27401D01*
X42502Y-27599D01*
X42578Y-27782D01*
X42718Y-27922D01*
X42901Y-27998D01*
X43099Y-27998D01*
X43282Y-27922D01*
X43422Y-27782D01*
X43426Y-27771D01*
X43637Y-27771D01*
X44597Y-28731D01*
X44526Y-28905D01*
X44526Y-29094D01*
X44598Y-29268D01*
X44731Y-29402D01*
X44905Y-29474D01*
X45094Y-29474D01*
X45268Y-29402D01*
X45402Y-29269D01*
X45474Y-29095D01*
X45474Y-29479D01*
X44474Y-29479D01*
X44474Y-29095D01*
X44474Y-28906D01*
X44402Y-28732D01*
X44269Y-28598D01*
X44095Y-28526D01*
X43906Y-28526D01*
X43732Y-28598D01*
X43598Y-28731D01*
X43526Y-28905D01*
X43526Y-29094D01*
X43598Y-29268D01*
X43731Y-29402D01*
X43905Y-29474D01*
X44094Y-29474D01*
X44268Y-29402D01*
X44402Y-29269D01*
X44474Y-29095D01*
X44474Y-29479D01*
X43474Y-29479D01*
X43474Y-29095D01*
X43474Y-28906D01*
X43402Y-28732D01*
X43269Y-28598D01*
X43095Y-28526D01*
X42906Y-28526D01*
X42732Y-28598D01*
X42598Y-28731D01*
X42526Y-28905D01*
X42526Y-29094D01*
X42598Y-29268D01*
X42731Y-29402D01*
X42905Y-29474D01*
X43094Y-29474D01*
X43268Y-29402D01*
X43402Y-29269D01*
X43474Y-29095D01*
X43474Y-29479D01*
X42500Y-29479D01*
X42396Y-29500D01*
X42308Y-29558D01*
X42306Y-29560D01*
X41558Y-30308D01*
X41500Y-30396D01*
X41496Y-30414D01*
X41478Y-30500D01*
X41479Y-30504D01*
X41479Y-31299D01*
X41474Y-31286D01*
X41474Y-29595D01*
X41474Y-29406D01*
X41402Y-29232D01*
X41269Y-29098D01*
X41095Y-29026D01*
X40906Y-29026D01*
X40732Y-29098D01*
X40598Y-29231D01*
X40526Y-29405D01*
X40526Y-29594D01*
X40598Y-29768D01*
X40731Y-29902D01*
X40905Y-29974D01*
X41094Y-29974D01*
X41268Y-29902D01*
X41402Y-29769D01*
X41474Y-29595D01*
X41474Y-31286D01*
X41452Y-31233D01*
X41361Y-31210D01*
X41290Y-31281D01*
X41290Y-31139D01*
X41267Y-31048D01*
X41074Y-30981D01*
X40870Y-30992D01*
X40733Y-31048D01*
X40710Y-31139D01*
X41000Y-31429D01*
X41290Y-31139D01*
X41290Y-31281D01*
X41071Y-31500D01*
X41361Y-31790D01*
X41452Y-31767D01*
X41479Y-31689D01*
X41479Y-38049D01*
X41474Y-38036D01*
X41474Y-36345D01*
X41474Y-36156D01*
X41402Y-35982D01*
X41290Y-35869D01*
X41290Y-31861D01*
X41000Y-31571D01*
X40929Y-31642D01*
X40929Y-31500D01*
X40639Y-31210D01*
X40548Y-31233D01*
X40481Y-31426D01*
X40492Y-31630D01*
X40548Y-31767D01*
X40639Y-31790D01*
X40929Y-31500D01*
X40929Y-31642D01*
X40710Y-31861D01*
X40733Y-31952D01*
X40926Y-32019D01*
X41130Y-32008D01*
X41267Y-31952D01*
X41290Y-31861D01*
X41290Y-35869D01*
X41269Y-35848D01*
X41095Y-35776D01*
X40906Y-35776D01*
X40732Y-35848D01*
X40598Y-35981D01*
X40526Y-36155D01*
X40526Y-36344D01*
X40598Y-36518D01*
X40731Y-36652D01*
X40905Y-36724D01*
X41094Y-36724D01*
X41268Y-36652D01*
X41402Y-36519D01*
X41474Y-36345D01*
X41474Y-38036D01*
X41452Y-37983D01*
X41361Y-37960D01*
X41290Y-38031D01*
X41290Y-37889D01*
X41267Y-37798D01*
X41074Y-37731D01*
X40870Y-37742D01*
X40733Y-37798D01*
X40710Y-37889D01*
X41000Y-38179D01*
X41290Y-37889D01*
X41290Y-38031D01*
X41071Y-38250D01*
X41361Y-38540D01*
X41452Y-38517D01*
X41479Y-38439D01*
X41479Y-44799D01*
X41474Y-44786D01*
X41474Y-43095D01*
X41474Y-42906D01*
X41402Y-42732D01*
X41290Y-42619D01*
X41290Y-38611D01*
X41000Y-38321D01*
X40929Y-38392D01*
X40929Y-38250D01*
X40639Y-37960D01*
X40548Y-37983D01*
X40481Y-38176D01*
X40492Y-38380D01*
X40548Y-38517D01*
X40639Y-38540D01*
X40929Y-38250D01*
X40929Y-38392D01*
X40710Y-38611D01*
X40733Y-38702D01*
X40926Y-38769D01*
X41130Y-38758D01*
X41267Y-38702D01*
X41290Y-38611D01*
X41290Y-42619D01*
X41269Y-42598D01*
X41095Y-42526D01*
X40906Y-42526D01*
X40732Y-42598D01*
X40598Y-42731D01*
X40526Y-42905D01*
X40526Y-43094D01*
X40598Y-43268D01*
X40731Y-43402D01*
X40905Y-43474D01*
X41094Y-43474D01*
X41268Y-43402D01*
X41402Y-43269D01*
X41474Y-43095D01*
X41474Y-44786D01*
X41452Y-44733D01*
X41361Y-44710D01*
X41290Y-44781D01*
X41290Y-44639D01*
X41267Y-44548D01*
X41074Y-44481D01*
X40870Y-44492D01*
X40733Y-44548D01*
X40710Y-44639D01*
X41000Y-44929D01*
X41290Y-44639D01*
X41290Y-44781D01*
X41071Y-45000D01*
X41361Y-45290D01*
X41452Y-45267D01*
X41479Y-45189D01*
X41479Y-47299D01*
X41452Y-47233D01*
X41361Y-47210D01*
X41290Y-47281D01*
X41290Y-47139D01*
X41290Y-45361D01*
X41000Y-45071D01*
X40929Y-45142D01*
X40929Y-45000D01*
X40639Y-44710D01*
X40548Y-44733D01*
X40481Y-44926D01*
X40492Y-45130D01*
X40548Y-45267D01*
X40639Y-45290D01*
X40929Y-45000D01*
X40929Y-45142D01*
X40710Y-45361D01*
X40733Y-45452D01*
X40926Y-45519D01*
X41130Y-45508D01*
X41267Y-45452D01*
X41290Y-45361D01*
X41290Y-47139D01*
X41267Y-47048D01*
X41074Y-46981D01*
X40870Y-46992D01*
X40733Y-47048D01*
X40710Y-47139D01*
X41000Y-47429D01*
X41290Y-47139D01*
X41290Y-47281D01*
X41071Y-47500D01*
X41361Y-47790D01*
X41452Y-47767D01*
X41479Y-47689D01*
X41479Y-48137D01*
X41290Y-48326D01*
X41290Y-47861D01*
X41000Y-47571D01*
X40929Y-47642D01*
X40929Y-47500D01*
X40639Y-47210D01*
X40548Y-47233D01*
X40481Y-47426D01*
X40492Y-47630D01*
X40548Y-47767D01*
X40639Y-47790D01*
X40929Y-47500D01*
X40929Y-47642D01*
X40710Y-47861D01*
X40733Y-47952D01*
X40926Y-48019D01*
X41130Y-48008D01*
X41267Y-47952D01*
X41290Y-47861D01*
X41290Y-48326D01*
X40808Y-48808D01*
X40750Y-48896D01*
X40746Y-48914D01*
X40728Y-49000D01*
X40729Y-49004D01*
X40729Y-49250D01*
X40729Y-49325D01*
X40274Y-49325D01*
X40274Y-26027D01*
X40334Y-25723D01*
X40490Y-25490D01*
X40723Y-25334D01*
X41027Y-25274D01*
X79972Y-25274D01*
X80276Y-25334D01*
X80509Y-25490D01*
X80665Y-25723D01*
X80726Y-26027D01*
X80726Y-48972D01*
X80726Y-48972D01*
G37*
G54D25*
X80726Y-48972D02*
X80665Y-49276D01*
X80659Y-49285D01*
X80659Y-46756D01*
X80659Y-46606D01*
X80659Y-28646D01*
X80659Y-28496D01*
X80602Y-28358D01*
X80530Y-28285D01*
X80530Y-26696D01*
X80527Y-26286D01*
X80377Y-25924D01*
X80233Y-25838D01*
X80162Y-25909D01*
X80162Y-25767D01*
X80076Y-25623D01*
X79696Y-25470D01*
X79286Y-25473D01*
X78924Y-25623D01*
X78838Y-25767D01*
X79500Y-26429D01*
X80162Y-25767D01*
X80162Y-25909D01*
X79571Y-26500D01*
X80233Y-27162D01*
X80377Y-27076D01*
X80530Y-26696D01*
X80530Y-28285D01*
X80497Y-28252D01*
X80359Y-28194D01*
X80209Y-28194D01*
X80162Y-28213D01*
X80162Y-27233D01*
X79500Y-26571D01*
X79429Y-26642D01*
X79429Y-26500D01*
X78767Y-25838D01*
X78623Y-25924D01*
X78470Y-26304D01*
X78473Y-26714D01*
X78623Y-27076D01*
X78767Y-27162D01*
X79429Y-26500D01*
X79429Y-26642D01*
X78838Y-27233D01*
X78924Y-27377D01*
X79068Y-27435D01*
X79018Y-27435D01*
X78956Y-27497D01*
X78956Y-28225D01*
X79980Y-28225D01*
X80042Y-28163D01*
X80041Y-27636D01*
X80003Y-27544D01*
X79933Y-27474D01*
X79887Y-27455D01*
X80076Y-27377D01*
X80162Y-27233D01*
X80162Y-28213D01*
X80071Y-28251D01*
X79988Y-28333D01*
X79980Y-28325D01*
X78956Y-28325D01*
X78956Y-29053D01*
X79018Y-29115D01*
X79743Y-29114D01*
X79842Y-29114D01*
X79933Y-29076D01*
X80003Y-29006D01*
X80041Y-28914D01*
X80041Y-28859D01*
X80069Y-28888D01*
X80207Y-28946D01*
X80357Y-28946D01*
X80495Y-28889D01*
X80601Y-28784D01*
X80659Y-28646D01*
X80659Y-46606D01*
X80602Y-46468D01*
X80497Y-46362D01*
X80359Y-46304D01*
X80209Y-46304D01*
X80071Y-46361D01*
X80041Y-46390D01*
X80041Y-46336D01*
X80003Y-46244D01*
X79933Y-46174D01*
X79842Y-46136D01*
X79743Y-46136D01*
X79018Y-46135D01*
X78956Y-46197D01*
X78956Y-46925D01*
X79980Y-46925D01*
X79988Y-46916D01*
X80069Y-46998D01*
X80207Y-47056D01*
X80357Y-47056D01*
X80495Y-46999D01*
X80601Y-46894D01*
X80659Y-46756D01*
X80659Y-49285D01*
X80530Y-49478D01*
X80530Y-48946D01*
X80527Y-48536D01*
X80377Y-48174D01*
X80233Y-48088D01*
X80162Y-48159D01*
X80162Y-48017D01*
X80076Y-47873D01*
X79884Y-47796D01*
X79933Y-47776D01*
X80003Y-47706D01*
X80041Y-47614D01*
X80042Y-47087D01*
X79980Y-47025D01*
X78956Y-47025D01*
X78956Y-47753D01*
X79018Y-47815D01*
X79064Y-47814D01*
X78924Y-47873D01*
X78856Y-47986D01*
X78856Y-47753D01*
X78856Y-47025D01*
X78856Y-46925D01*
X78856Y-46197D01*
X78856Y-29053D01*
X78856Y-28325D01*
X78856Y-28225D01*
X78856Y-27497D01*
X78794Y-27435D01*
X78069Y-27436D01*
X77970Y-27436D01*
X77879Y-27474D01*
X77809Y-27544D01*
X77771Y-27636D01*
X77770Y-28163D01*
X77832Y-28225D01*
X78856Y-28225D01*
X78856Y-28325D01*
X77832Y-28325D01*
X77770Y-28387D01*
X77771Y-28914D01*
X77809Y-29006D01*
X77879Y-29076D01*
X77970Y-29114D01*
X78069Y-29114D01*
X78794Y-29115D01*
X78856Y-29053D01*
X78856Y-46197D01*
X78794Y-46135D01*
X78069Y-46136D01*
X77970Y-46136D01*
X77879Y-46174D01*
X77809Y-46244D01*
X77771Y-46336D01*
X77770Y-46863D01*
X77832Y-46925D01*
X78856Y-46925D01*
X78856Y-47025D01*
X77832Y-47025D01*
X77770Y-47087D01*
X77771Y-47614D01*
X77809Y-47706D01*
X77879Y-47776D01*
X77970Y-47814D01*
X78069Y-47814D01*
X78794Y-47815D01*
X78856Y-47753D01*
X78856Y-47986D01*
X78838Y-48017D01*
X79500Y-48679D01*
X80162Y-48017D01*
X80162Y-48159D01*
X79571Y-48750D01*
X80233Y-49412D01*
X80377Y-49326D01*
X80530Y-48946D01*
X80530Y-49478D01*
X80509Y-49510D01*
X80276Y-49665D01*
X79972Y-49726D01*
X79837Y-49726D01*
X80076Y-49627D01*
X80162Y-49483D01*
X79500Y-48821D01*
X79429Y-48892D01*
X79429Y-48750D01*
X78767Y-48088D01*
X78623Y-48174D01*
X78470Y-48554D01*
X78473Y-48964D01*
X78623Y-49326D01*
X78767Y-49412D01*
X79429Y-48750D01*
X79429Y-48892D01*
X78838Y-49483D01*
X78924Y-49627D01*
X79169Y-49726D01*
X73542Y-49726D01*
X73542Y-45360D01*
X73542Y-45144D01*
X73542Y-30108D01*
X73542Y-29892D01*
X73460Y-29693D01*
X73308Y-29540D01*
X73109Y-29457D01*
X72893Y-29457D01*
X72694Y-29539D01*
X72541Y-29691D01*
X72468Y-29865D01*
X72371Y-29631D01*
X72188Y-29447D01*
X71949Y-29348D01*
X71690Y-29348D01*
X71451Y-29447D01*
X71267Y-29630D01*
X71168Y-29869D01*
X71168Y-30128D01*
X71267Y-30367D01*
X71450Y-30551D01*
X71689Y-30650D01*
X71948Y-30650D01*
X72187Y-30551D01*
X72371Y-30368D01*
X72468Y-30132D01*
X72540Y-30305D01*
X72692Y-30458D01*
X72891Y-30541D01*
X73107Y-30541D01*
X73306Y-30459D01*
X73459Y-30307D01*
X73542Y-30108D01*
X73542Y-45144D01*
X73460Y-44945D01*
X73308Y-44792D01*
X73109Y-44709D01*
X72893Y-44709D01*
X72694Y-44791D01*
X72541Y-44943D01*
X72468Y-45117D01*
X72371Y-44883D01*
X72188Y-44699D01*
X71949Y-44600D01*
X71690Y-44600D01*
X71675Y-44606D01*
X71675Y-43849D01*
X71613Y-43787D01*
X70786Y-43787D01*
X70786Y-44013D01*
X70848Y-44075D01*
X71376Y-44074D01*
X71475Y-44074D01*
X71566Y-44036D01*
X71636Y-43966D01*
X71674Y-43874D01*
X71675Y-43849D01*
X71675Y-44606D01*
X71451Y-44699D01*
X71267Y-44882D01*
X71168Y-45121D01*
X71168Y-45380D01*
X71267Y-45619D01*
X71450Y-45803D01*
X71689Y-45902D01*
X71948Y-45902D01*
X72187Y-45803D01*
X72371Y-45620D01*
X72468Y-45384D01*
X72540Y-45557D01*
X72692Y-45710D01*
X72891Y-45793D01*
X73107Y-45793D01*
X73306Y-45711D01*
X73459Y-45559D01*
X73542Y-45360D01*
X73542Y-49726D01*
X72050Y-49726D01*
X72050Y-49325D01*
X70686Y-49325D01*
X70686Y-44013D01*
X70686Y-43787D01*
X69859Y-43787D01*
X69797Y-43849D01*
X69798Y-43874D01*
X69836Y-43966D01*
X69906Y-44036D01*
X69997Y-44074D01*
X70096Y-44074D01*
X70624Y-44075D01*
X70686Y-44013D01*
X70686Y-49325D01*
X70271Y-49325D01*
X70271Y-47000D01*
X70271Y-46500D01*
X70271Y-45750D01*
X70271Y-45000D01*
X70250Y-44897D01*
X70250Y-44896D01*
X70192Y-44808D01*
X70189Y-44806D01*
X69271Y-43887D01*
X69271Y-43611D01*
X69300Y-43624D01*
X69449Y-43624D01*
X69586Y-43567D01*
X69632Y-43521D01*
X69849Y-43521D01*
X69836Y-43534D01*
X69798Y-43626D01*
X69797Y-43651D01*
X69859Y-43713D01*
X69905Y-43713D01*
X69935Y-43743D01*
X70007Y-43773D01*
X70086Y-43773D01*
X71464Y-43773D01*
X71537Y-43743D01*
X71567Y-43713D01*
X71613Y-43713D01*
X71675Y-43651D01*
X71674Y-43626D01*
X71636Y-43534D01*
X71623Y-43521D01*
X71623Y-43386D01*
X71618Y-43375D01*
X71623Y-43365D01*
X71623Y-43286D01*
X71623Y-43136D01*
X71618Y-43125D01*
X71623Y-43115D01*
X71623Y-43036D01*
X71623Y-42886D01*
X71618Y-42875D01*
X71623Y-42865D01*
X71623Y-42786D01*
X71623Y-42636D01*
X71618Y-42625D01*
X71623Y-42615D01*
X71623Y-42536D01*
X71623Y-42386D01*
X71618Y-42375D01*
X71623Y-42365D01*
X71623Y-42286D01*
X71623Y-42136D01*
X71618Y-42125D01*
X71623Y-42115D01*
X71623Y-42036D01*
X71623Y-41886D01*
X71618Y-41875D01*
X71623Y-41865D01*
X71623Y-41786D01*
X71623Y-41636D01*
X71618Y-41625D01*
X71623Y-41615D01*
X71623Y-41536D01*
X71623Y-41386D01*
X71618Y-41375D01*
X71623Y-41365D01*
X71623Y-41286D01*
X71623Y-41136D01*
X71618Y-41125D01*
X71623Y-41115D01*
X71623Y-41036D01*
X71623Y-40886D01*
X71618Y-40875D01*
X71623Y-40865D01*
X71623Y-40786D01*
X71623Y-40636D01*
X71618Y-40625D01*
X71623Y-40615D01*
X71623Y-40536D01*
X71623Y-40479D01*
X71636Y-40466D01*
X71674Y-40374D01*
X71675Y-40349D01*
X71613Y-40287D01*
X71567Y-40287D01*
X71537Y-40257D01*
X71520Y-40249D01*
X71537Y-40243D01*
X71567Y-40213D01*
X71613Y-40213D01*
X71675Y-40151D01*
X71674Y-40126D01*
X71636Y-40034D01*
X71623Y-40021D01*
X71623Y-39979D01*
X71636Y-39966D01*
X71674Y-39874D01*
X71675Y-39849D01*
X71613Y-39787D01*
X71567Y-39787D01*
X71537Y-39757D01*
X71520Y-39749D01*
X71537Y-39743D01*
X71567Y-39713D01*
X71613Y-39713D01*
X71675Y-39651D01*
X71674Y-39626D01*
X71636Y-39534D01*
X71623Y-39521D01*
X71623Y-39479D01*
X71636Y-39466D01*
X71674Y-39374D01*
X71675Y-39349D01*
X71613Y-39287D01*
X71567Y-39287D01*
X71537Y-39257D01*
X71520Y-39249D01*
X71537Y-39243D01*
X71567Y-39213D01*
X71613Y-39213D01*
X71675Y-39151D01*
X71674Y-39126D01*
X71636Y-39034D01*
X71623Y-39021D01*
X71623Y-38979D01*
X71636Y-38966D01*
X71674Y-38874D01*
X71674Y-38850D01*
X71675Y-38850D01*
X71675Y-38849D01*
X71675Y-38771D01*
X71745Y-38771D01*
X71750Y-38772D01*
X71750Y-38771D01*
X71835Y-38753D01*
X71853Y-38750D01*
X71854Y-38750D01*
X71942Y-38692D01*
X72314Y-38318D01*
X72316Y-38317D01*
X72317Y-38317D01*
X72375Y-38229D01*
X72375Y-38228D01*
X72396Y-38125D01*
X72396Y-37753D01*
X72396Y-37750D01*
X72396Y-37500D01*
X72396Y-37498D01*
X72396Y-34875D01*
X72375Y-34772D01*
X72375Y-34771D01*
X72317Y-34683D01*
X72314Y-34681D01*
X71942Y-34308D01*
X71854Y-34250D01*
X71835Y-34246D01*
X71750Y-34228D01*
X71745Y-34229D01*
X71623Y-34229D01*
X71623Y-34136D01*
X71618Y-34125D01*
X71623Y-34115D01*
X71623Y-34036D01*
X71623Y-33886D01*
X71618Y-33875D01*
X71623Y-33865D01*
X71623Y-33786D01*
X71623Y-33636D01*
X71618Y-33625D01*
X71623Y-33615D01*
X71623Y-33536D01*
X71623Y-33386D01*
X71618Y-33375D01*
X71623Y-33365D01*
X71623Y-33286D01*
X71623Y-33136D01*
X71618Y-33125D01*
X71623Y-33115D01*
X71623Y-33036D01*
X71623Y-32886D01*
X71618Y-32875D01*
X71623Y-32865D01*
X71623Y-32786D01*
X71623Y-32636D01*
X71618Y-32625D01*
X71623Y-32615D01*
X71623Y-32536D01*
X71623Y-32386D01*
X71618Y-32375D01*
X71623Y-32365D01*
X71623Y-32286D01*
X71623Y-32136D01*
X71618Y-32125D01*
X71623Y-32115D01*
X71623Y-32036D01*
X71623Y-31886D01*
X71618Y-31875D01*
X71623Y-31865D01*
X71623Y-31786D01*
X71623Y-31729D01*
X71636Y-31716D01*
X71674Y-31624D01*
X71675Y-31599D01*
X71675Y-31401D01*
X71674Y-31376D01*
X71636Y-31284D01*
X71566Y-31214D01*
X71475Y-31176D01*
X71376Y-31176D01*
X70848Y-31175D01*
X70786Y-31237D01*
X70786Y-31463D01*
X71613Y-31463D01*
X71675Y-31401D01*
X71675Y-31599D01*
X71613Y-31537D01*
X71567Y-31537D01*
X71537Y-31507D01*
X71465Y-31477D01*
X71386Y-31477D01*
X70686Y-31477D01*
X70686Y-31463D01*
X70686Y-31237D01*
X70624Y-31175D01*
X70096Y-31176D01*
X69997Y-31176D01*
X69906Y-31214D01*
X69836Y-31284D01*
X69798Y-31376D01*
X69797Y-31401D01*
X69859Y-31463D01*
X70686Y-31463D01*
X70686Y-31477D01*
X70008Y-31477D01*
X69935Y-31507D01*
X69905Y-31537D01*
X69859Y-31537D01*
X69797Y-31599D01*
X69798Y-31624D01*
X69836Y-31716D01*
X69849Y-31729D01*
X69849Y-31864D01*
X69853Y-31874D01*
X69849Y-31885D01*
X69849Y-31964D01*
X69849Y-32114D01*
X69853Y-32124D01*
X69849Y-32135D01*
X69849Y-32214D01*
X69849Y-32364D01*
X69853Y-32374D01*
X69849Y-32385D01*
X69849Y-32464D01*
X69849Y-32479D01*
X69487Y-32479D01*
X69317Y-32308D01*
X69229Y-32250D01*
X69210Y-32246D01*
X69125Y-32228D01*
X69120Y-32229D01*
X69000Y-32229D01*
X68625Y-32229D01*
X66465Y-32229D01*
X66519Y-32074D01*
X66508Y-31870D01*
X66474Y-31786D01*
X66474Y-26095D01*
X66474Y-25906D01*
X66402Y-25732D01*
X66269Y-25598D01*
X66095Y-25526D01*
X65906Y-25526D01*
X65732Y-25598D01*
X65598Y-25731D01*
X65526Y-25905D01*
X65526Y-26094D01*
X65598Y-26268D01*
X65731Y-26402D01*
X65905Y-26474D01*
X66094Y-26474D01*
X66268Y-26402D01*
X66402Y-26269D01*
X66474Y-26095D01*
X66474Y-31786D01*
X66452Y-31733D01*
X66361Y-31710D01*
X66290Y-31781D01*
X66290Y-31639D01*
X66267Y-31548D01*
X66074Y-31481D01*
X65870Y-31492D01*
X65733Y-31548D01*
X65710Y-31639D01*
X66000Y-31929D01*
X66290Y-31639D01*
X66290Y-31781D01*
X66106Y-31965D01*
X66071Y-32000D01*
X66000Y-32071D01*
X65929Y-32000D01*
X65894Y-31965D01*
X65639Y-31710D01*
X65548Y-31733D01*
X65481Y-31926D01*
X65490Y-32106D01*
X65474Y-32090D01*
X65474Y-31906D01*
X65474Y-26095D01*
X65474Y-25906D01*
X65402Y-25732D01*
X65269Y-25598D01*
X65095Y-25526D01*
X64906Y-25526D01*
X64732Y-25598D01*
X64598Y-25731D01*
X64526Y-25905D01*
X64526Y-26094D01*
X64598Y-26268D01*
X64731Y-26402D01*
X64905Y-26474D01*
X65094Y-26474D01*
X65268Y-26402D01*
X65402Y-26269D01*
X65474Y-26095D01*
X65474Y-31906D01*
X65402Y-31732D01*
X65269Y-31598D01*
X65095Y-31526D01*
X64906Y-31526D01*
X64732Y-31598D01*
X64598Y-31731D01*
X64526Y-31905D01*
X64526Y-32094D01*
X64560Y-32176D01*
X64474Y-32090D01*
X64474Y-31906D01*
X64474Y-26095D01*
X64474Y-25906D01*
X64402Y-25732D01*
X64269Y-25598D01*
X64095Y-25526D01*
X63906Y-25526D01*
X63732Y-25598D01*
X63598Y-25731D01*
X63526Y-25905D01*
X63526Y-26094D01*
X63598Y-26268D01*
X63731Y-26402D01*
X63905Y-26474D01*
X64094Y-26474D01*
X64268Y-26402D01*
X64402Y-26269D01*
X64474Y-26095D01*
X64474Y-31906D01*
X64402Y-31732D01*
X64269Y-31598D01*
X64095Y-31526D01*
X63906Y-31526D01*
X63732Y-31598D01*
X63598Y-31731D01*
X63526Y-31905D01*
X63526Y-32094D01*
X63560Y-32176D01*
X63474Y-32090D01*
X63474Y-31906D01*
X63474Y-26095D01*
X63474Y-25906D01*
X63402Y-25732D01*
X63269Y-25598D01*
X63095Y-25526D01*
X62906Y-25526D01*
X62732Y-25598D01*
X62598Y-25731D01*
X62526Y-25905D01*
X62526Y-26094D01*
X62598Y-26268D01*
X62731Y-26402D01*
X62905Y-26474D01*
X63094Y-26474D01*
X63268Y-26402D01*
X63402Y-26269D01*
X63474Y-26095D01*
X63474Y-31906D01*
X63402Y-31732D01*
X63269Y-31598D01*
X63095Y-31526D01*
X62906Y-31526D01*
X62732Y-31598D01*
X62723Y-31606D01*
X62692Y-31558D01*
X62689Y-31556D01*
X62474Y-31340D01*
X62474Y-26095D01*
X62474Y-25906D01*
X62402Y-25732D01*
X62269Y-25598D01*
X62095Y-25526D01*
X61906Y-25526D01*
X61732Y-25598D01*
X61598Y-25731D01*
X61526Y-25905D01*
X61526Y-26094D01*
X61598Y-26268D01*
X61731Y-26402D01*
X61905Y-26474D01*
X62094Y-26474D01*
X62268Y-26402D01*
X62402Y-26269D01*
X62474Y-26095D01*
X62474Y-31340D01*
X61474Y-30340D01*
X61474Y-26095D01*
X61474Y-25906D01*
X61402Y-25732D01*
X61269Y-25598D01*
X61095Y-25526D01*
X60906Y-25526D01*
X60732Y-25598D01*
X60598Y-25731D01*
X60526Y-25905D01*
X60526Y-26094D01*
X60598Y-26268D01*
X60731Y-26402D01*
X60905Y-26474D01*
X61094Y-26474D01*
X61268Y-26402D01*
X61402Y-26269D01*
X61474Y-26095D01*
X61474Y-30340D01*
X60474Y-29340D01*
X60474Y-26095D01*
X60474Y-25906D01*
X60402Y-25732D01*
X60269Y-25598D01*
X60095Y-25526D01*
X59906Y-25526D01*
X59732Y-25598D01*
X59598Y-25731D01*
X59526Y-25905D01*
X59526Y-26094D01*
X59598Y-26268D01*
X59731Y-26402D01*
X59905Y-26474D01*
X60094Y-26474D01*
X60268Y-26402D01*
X60402Y-26269D01*
X60474Y-26095D01*
X60474Y-29340D01*
X60442Y-29308D01*
X60354Y-29250D01*
X60335Y-29246D01*
X60250Y-29228D01*
X60245Y-29229D01*
X59474Y-29229D01*
X59474Y-26095D01*
X59474Y-25906D01*
X59402Y-25732D01*
X59269Y-25598D01*
X59095Y-25526D01*
X58906Y-25526D01*
X58732Y-25598D01*
X58598Y-25731D01*
X58526Y-25905D01*
X58526Y-26094D01*
X58598Y-26268D01*
X58731Y-26402D01*
X58905Y-26474D01*
X59094Y-26474D01*
X59268Y-26402D01*
X59402Y-26269D01*
X59474Y-26095D01*
X59474Y-29229D01*
X58474Y-29229D01*
X58474Y-26095D01*
X58474Y-25906D01*
X58402Y-25732D01*
X58269Y-25598D01*
X58095Y-25526D01*
X57906Y-25526D01*
X57732Y-25598D01*
X57598Y-25731D01*
X57526Y-25905D01*
X57526Y-26094D01*
X57598Y-26268D01*
X57731Y-26402D01*
X57905Y-26474D01*
X58094Y-26474D01*
X58268Y-26402D01*
X58402Y-26269D01*
X58474Y-26095D01*
X58474Y-29229D01*
X57474Y-29229D01*
X57474Y-26095D01*
X57474Y-25906D01*
X57402Y-25732D01*
X57269Y-25598D01*
X57095Y-25526D01*
X56906Y-25526D01*
X56732Y-25598D01*
X56598Y-25731D01*
X56526Y-25905D01*
X56526Y-26094D01*
X56598Y-26268D01*
X56731Y-26402D01*
X56905Y-26474D01*
X57094Y-26474D01*
X57268Y-26402D01*
X57402Y-26269D01*
X57474Y-26095D01*
X57474Y-29229D01*
X56474Y-29229D01*
X56474Y-26095D01*
X56474Y-25906D01*
X56402Y-25732D01*
X56269Y-25598D01*
X56095Y-25526D01*
X55906Y-25526D01*
X55732Y-25598D01*
X55598Y-25731D01*
X55526Y-25905D01*
X55526Y-26094D01*
X55598Y-26268D01*
X55731Y-26402D01*
X55905Y-26474D01*
X56094Y-26474D01*
X56268Y-26402D01*
X56402Y-26269D01*
X56474Y-26095D01*
X56474Y-29229D01*
X55474Y-29229D01*
X55474Y-26095D01*
X55474Y-25906D01*
X55402Y-25732D01*
X55269Y-25598D01*
X55095Y-25526D01*
X54906Y-25526D01*
X54732Y-25598D01*
X54598Y-25731D01*
X54526Y-25905D01*
X54526Y-26094D01*
X54598Y-26268D01*
X54731Y-26402D01*
X54905Y-26474D01*
X55094Y-26474D01*
X55268Y-26402D01*
X55402Y-26269D01*
X55474Y-26095D01*
X55474Y-29229D01*
X54474Y-29229D01*
X54474Y-26095D01*
X54474Y-25906D01*
X54402Y-25732D01*
X54269Y-25598D01*
X54095Y-25526D01*
X53906Y-25526D01*
X53732Y-25598D01*
X53598Y-25731D01*
X53526Y-25905D01*
X53526Y-26094D01*
X53598Y-26268D01*
X53731Y-26402D01*
X53905Y-26474D01*
X54094Y-26474D01*
X54268Y-26402D01*
X54402Y-26269D01*
X54474Y-26095D01*
X54474Y-29229D01*
X53474Y-29229D01*
X53474Y-26095D01*
X53474Y-25906D01*
X53402Y-25732D01*
X53269Y-25598D01*
X53095Y-25526D01*
X52906Y-25526D01*
X52732Y-25598D01*
X52598Y-25731D01*
X52526Y-25905D01*
X52526Y-26094D01*
X52598Y-26268D01*
X52731Y-26402D01*
X52905Y-26474D01*
X53094Y-26474D01*
X53268Y-26402D01*
X53402Y-26269D01*
X53474Y-26095D01*
X53474Y-29229D01*
X51519Y-29229D01*
X51519Y-28574D01*
X51508Y-28370D01*
X51474Y-28286D01*
X51474Y-26595D01*
X51474Y-26406D01*
X51402Y-26232D01*
X51269Y-26098D01*
X51095Y-26026D01*
X50906Y-26026D01*
X50732Y-26098D01*
X50598Y-26231D01*
X50526Y-26405D01*
X50526Y-26594D01*
X50598Y-26768D01*
X50731Y-26902D01*
X50905Y-26974D01*
X51094Y-26974D01*
X51268Y-26902D01*
X51402Y-26769D01*
X51474Y-26595D01*
X51474Y-28286D01*
X51452Y-28233D01*
X51361Y-28210D01*
X51290Y-28281D01*
X51290Y-28139D01*
X51267Y-28048D01*
X51074Y-27981D01*
X50870Y-27992D01*
X50733Y-28048D01*
X50710Y-28139D01*
X51000Y-28429D01*
X51290Y-28139D01*
X51290Y-28281D01*
X51071Y-28500D01*
X51361Y-28790D01*
X51452Y-28767D01*
X51519Y-28574D01*
X51519Y-29229D01*
X51290Y-29229D01*
X51290Y-28861D01*
X51000Y-28571D01*
X50929Y-28642D01*
X50929Y-28500D01*
X50639Y-28210D01*
X50548Y-28233D01*
X50481Y-28426D01*
X50492Y-28630D01*
X50548Y-28767D01*
X50639Y-28790D01*
X50929Y-28500D01*
X50929Y-28642D01*
X50710Y-28861D01*
X50733Y-28952D01*
X50926Y-29019D01*
X51130Y-29008D01*
X51267Y-28952D01*
X51290Y-28861D01*
X51290Y-29229D01*
X50474Y-29229D01*
X50474Y-27595D01*
X50474Y-27406D01*
X50474Y-26595D01*
X50474Y-26406D01*
X50402Y-26232D01*
X50269Y-26098D01*
X50095Y-26026D01*
X49906Y-26026D01*
X49732Y-26098D01*
X49598Y-26231D01*
X49526Y-26405D01*
X49526Y-26594D01*
X49598Y-26768D01*
X49731Y-26902D01*
X49905Y-26974D01*
X50094Y-26974D01*
X50268Y-26902D01*
X50402Y-26769D01*
X50474Y-26595D01*
X50474Y-27406D01*
X50402Y-27232D01*
X50269Y-27098D01*
X50095Y-27026D01*
X49906Y-27026D01*
X49732Y-27098D01*
X49598Y-27231D01*
X49526Y-27405D01*
X49526Y-27594D01*
X49598Y-27768D01*
X49731Y-27902D01*
X49905Y-27974D01*
X50094Y-27974D01*
X50268Y-27902D01*
X50402Y-27769D01*
X50474Y-27595D01*
X50474Y-29229D01*
X49418Y-29229D01*
X49474Y-29095D01*
X49474Y-28906D01*
X49402Y-28732D01*
X49269Y-28598D01*
X49095Y-28526D01*
X48906Y-28526D01*
X48732Y-28598D01*
X48598Y-28731D01*
X48526Y-28905D01*
X48526Y-29094D01*
X48559Y-29175D01*
X48474Y-29090D01*
X48474Y-28906D01*
X48402Y-28732D01*
X48269Y-28598D01*
X48095Y-28526D01*
X47906Y-28526D01*
X47732Y-28598D01*
X47598Y-28731D01*
X47526Y-28905D01*
X47526Y-29094D01*
X47598Y-29268D01*
X47731Y-29402D01*
X47905Y-29474D01*
X48090Y-29474D01*
X48095Y-29479D01*
X47474Y-29479D01*
X47474Y-29095D01*
X47474Y-28906D01*
X47402Y-28732D01*
X47269Y-28598D01*
X47199Y-28569D01*
X47198Y-28568D01*
X47192Y-28558D01*
X47189Y-28556D01*
X46404Y-27771D01*
X46600Y-27771D01*
X46731Y-27902D01*
X46905Y-27974D01*
X47094Y-27974D01*
X47268Y-27902D01*
X47402Y-27769D01*
X47474Y-27595D01*
X47474Y-27406D01*
X47402Y-27232D01*
X47269Y-27098D01*
X47095Y-27026D01*
X46906Y-27026D01*
X46732Y-27098D01*
X46600Y-27229D01*
X46488Y-27229D01*
X46067Y-26808D01*
X46010Y-26771D01*
X46600Y-26771D01*
X46731Y-26902D01*
X46905Y-26974D01*
X47094Y-26974D01*
X47268Y-26902D01*
X47402Y-26769D01*
X47474Y-26595D01*
X47474Y-26406D01*
X47402Y-26232D01*
X47269Y-26098D01*
X47095Y-26026D01*
X46906Y-26026D01*
X46732Y-26098D01*
X46600Y-26229D01*
X45399Y-26229D01*
X45269Y-26098D01*
X45095Y-26026D01*
X44906Y-26026D01*
X44732Y-26098D01*
X44598Y-26231D01*
X44526Y-26405D01*
X44526Y-26594D01*
X44581Y-26729D01*
X44363Y-26729D01*
X43942Y-26308D01*
X43854Y-26250D01*
X43835Y-26246D01*
X43750Y-26228D01*
X43745Y-26229D01*
X43498Y-26229D01*
X43498Y-26161D01*
X43468Y-26088D01*
X43412Y-26032D01*
X43340Y-26002D01*
X43261Y-26002D01*
X42661Y-26002D01*
X42588Y-26032D01*
X42532Y-26088D01*
X42502Y-26160D01*
X42502Y-26239D01*
X42502Y-26839D01*
X42532Y-26912D01*
X42588Y-26968D01*
X42660Y-26998D01*
X42739Y-26998D01*
X43339Y-26998D01*
X43412Y-26968D01*
X43468Y-26912D01*
X43498Y-26840D01*
X43498Y-26771D01*
X43637Y-26771D01*
X44058Y-27192D01*
X44146Y-27250D01*
X44147Y-27250D01*
X44250Y-27271D01*
X44581Y-27271D01*
X44526Y-27405D01*
X44526Y-27594D01*
X44598Y-27768D01*
X44731Y-27902D01*
X44905Y-27974D01*
X45094Y-27974D01*
X45268Y-27902D01*
X45399Y-27771D01*
X45637Y-27771D01*
X46597Y-28731D01*
X46526Y-28905D01*
X46526Y-29094D01*
X46598Y-29268D01*
X46731Y-29402D01*
X46905Y-29474D01*
X47094Y-29474D01*
X47268Y-29402D01*
X47402Y-29269D01*
X47474Y-29095D01*
X47474Y-29479D01*
X46474Y-29479D01*
X46474Y-29095D01*
X46474Y-28906D01*
X46402Y-28732D01*
X46269Y-28598D01*
X46095Y-28526D01*
X45906Y-28526D01*
X45732Y-28598D01*
X45598Y-28731D01*
X45526Y-28905D01*
X45526Y-29094D01*
X45598Y-29268D01*
X45731Y-29402D01*
X45905Y-29474D01*
X46094Y-29474D01*
X46268Y-29402D01*
X46402Y-29269D01*
X46474Y-29095D01*
X46474Y-29479D01*
X45474Y-29479D01*
X45474Y-29095D01*
X45474Y-28906D01*
X45402Y-28732D01*
X45269Y-28598D01*
X45199Y-28569D01*
X45198Y-28568D01*
X45192Y-28558D01*
X45189Y-28556D01*
X43942Y-27308D01*
X43854Y-27250D01*
X43835Y-27246D01*
X43750Y-27228D01*
X43745Y-27229D01*
X43426Y-27229D01*
X43422Y-27218D01*
X43282Y-27078D01*
X43099Y-27002D01*
X42901Y-27002D01*
X42718Y-27078D01*
X42578Y-27218D01*
X42502Y-27401D01*
X42502Y-27599D01*
X42578Y-27782D01*
X42718Y-27922D01*
X42901Y-27998D01*
X43099Y-27998D01*
X43282Y-27922D01*
X43422Y-27782D01*
X43426Y-27771D01*
X43637Y-27771D01*
X44597Y-28731D01*
X44526Y-28905D01*
X44526Y-29094D01*
X44598Y-29268D01*
X44731Y-29402D01*
X44905Y-29474D01*
X45094Y-29474D01*
X45268Y-29402D01*
X45402Y-29269D01*
X45474Y-29095D01*
X45474Y-29479D01*
X44474Y-29479D01*
X44474Y-29095D01*
X44474Y-28906D01*
X44402Y-28732D01*
X44269Y-28598D01*
X44095Y-28526D01*
X43906Y-28526D01*
X43732Y-28598D01*
X43598Y-28731D01*
X43526Y-28905D01*
X43526Y-29094D01*
X43598Y-29268D01*
X43731Y-29402D01*
X43905Y-29474D01*
X44094Y-29474D01*
X44268Y-29402D01*
X44402Y-29269D01*
X44474Y-29095D01*
X44474Y-29479D01*
X43474Y-29479D01*
X43474Y-29095D01*
X43474Y-28906D01*
X43402Y-28732D01*
X43269Y-28598D01*
X43095Y-28526D01*
X42906Y-28526D01*
X42732Y-28598D01*
X42598Y-28731D01*
X42526Y-28905D01*
X42526Y-29094D01*
X42598Y-29268D01*
X42731Y-29402D01*
X42905Y-29474D01*
X43094Y-29474D01*
X43268Y-29402D01*
X43402Y-29269D01*
X43474Y-29095D01*
X43474Y-29479D01*
X42500Y-29479D01*
X42396Y-29500D01*
X42308Y-29558D01*
X42306Y-29560D01*
X41558Y-30308D01*
X41500Y-30396D01*
X41496Y-30414D01*
X41478Y-30500D01*
X41479Y-30504D01*
X41479Y-31299D01*
X41474Y-31286D01*
X41474Y-29595D01*
X41474Y-29406D01*
X41402Y-29232D01*
X41269Y-29098D01*
X41095Y-29026D01*
X40906Y-29026D01*
X40732Y-29098D01*
X40598Y-29231D01*
X40526Y-29405D01*
X40526Y-29594D01*
X40598Y-29768D01*
X40731Y-29902D01*
X40905Y-29974D01*
X41094Y-29974D01*
X41268Y-29902D01*
X41402Y-29769D01*
X41474Y-29595D01*
X41474Y-31286D01*
X41452Y-31233D01*
X41361Y-31210D01*
X41290Y-31281D01*
X41290Y-31139D01*
X41267Y-31048D01*
X41074Y-30981D01*
X40870Y-30992D01*
X40733Y-31048D01*
X40710Y-31139D01*
X41000Y-31429D01*
X41290Y-31139D01*
X41290Y-31281D01*
X41071Y-31500D01*
X41361Y-31790D01*
X41452Y-31767D01*
X41479Y-31689D01*
X41479Y-38049D01*
X41474Y-38036D01*
X41474Y-36345D01*
X41474Y-36156D01*
X41402Y-35982D01*
X41290Y-35869D01*
X41290Y-31861D01*
X41000Y-31571D01*
X40929Y-31642D01*
X40929Y-31500D01*
X40639Y-31210D01*
X40548Y-31233D01*
X40481Y-31426D01*
X40492Y-31630D01*
X40548Y-31767D01*
X40639Y-31790D01*
X40929Y-31500D01*
X40929Y-31642D01*
X40710Y-31861D01*
X40733Y-31952D01*
X40926Y-32019D01*
X41130Y-32008D01*
X41267Y-31952D01*
X41290Y-31861D01*
X41290Y-35869D01*
X41269Y-35848D01*
X41095Y-35776D01*
X40906Y-35776D01*
X40732Y-35848D01*
X40598Y-35981D01*
X40526Y-36155D01*
X40526Y-36344D01*
X40598Y-36518D01*
X40731Y-36652D01*
X40905Y-36724D01*
X41094Y-36724D01*
X41268Y-36652D01*
X41402Y-36519D01*
X41474Y-36345D01*
X41474Y-38036D01*
X41452Y-37983D01*
X41361Y-37960D01*
X41290Y-38031D01*
X41290Y-37889D01*
X41267Y-37798D01*
X41074Y-37731D01*
X40870Y-37742D01*
X40733Y-37798D01*
X40710Y-37889D01*
X41000Y-38179D01*
X41290Y-37889D01*
X41290Y-38031D01*
X41071Y-38250D01*
X41361Y-38540D01*
X41452Y-38517D01*
X41479Y-38439D01*
X41479Y-44799D01*
X41474Y-44786D01*
X41474Y-43095D01*
X41474Y-42906D01*
X41402Y-42732D01*
X41290Y-42619D01*
X41290Y-38611D01*
X41000Y-38321D01*
X40929Y-38392D01*
X40929Y-38250D01*
X40639Y-37960D01*
X40548Y-37983D01*
X40481Y-38176D01*
X40492Y-38380D01*
X40548Y-38517D01*
X40639Y-38540D01*
X40929Y-38250D01*
X40929Y-38392D01*
X40710Y-38611D01*
X40733Y-38702D01*
X40926Y-38769D01*
X41130Y-38758D01*
X41267Y-38702D01*
X41290Y-38611D01*
X41290Y-42619D01*
X41269Y-42598D01*
X41095Y-42526D01*
X40906Y-42526D01*
X40732Y-42598D01*
X40598Y-42731D01*
X40526Y-42905D01*
X40526Y-43094D01*
X40598Y-43268D01*
X40731Y-43402D01*
X40905Y-43474D01*
X41094Y-43474D01*
X41268Y-43402D01*
X41402Y-43269D01*
X41474Y-43095D01*
X41474Y-44786D01*
X41452Y-44733D01*
X41361Y-44710D01*
X41290Y-44781D01*
X41290Y-44639D01*
X41267Y-44548D01*
X41074Y-44481D01*
X40870Y-44492D01*
X40733Y-44548D01*
X40710Y-44639D01*
X41000Y-44929D01*
X41290Y-44639D01*
X41290Y-44781D01*
X41071Y-45000D01*
X41361Y-45290D01*
X41452Y-45267D01*
X41479Y-45189D01*
X41479Y-47299D01*
X41452Y-47233D01*
X41361Y-47210D01*
X41290Y-47281D01*
X41290Y-47139D01*
X41290Y-45361D01*
X41000Y-45071D01*
X40929Y-45142D01*
X40929Y-45000D01*
X40639Y-44710D01*
X40548Y-44733D01*
X40481Y-44926D01*
X40492Y-45130D01*
X40548Y-45267D01*
X40639Y-45290D01*
X40929Y-45000D01*
X40929Y-45142D01*
X40710Y-45361D01*
X40733Y-45452D01*
X40926Y-45519D01*
X41130Y-45508D01*
X41267Y-45452D01*
X41290Y-45361D01*
X41290Y-47139D01*
X41267Y-47048D01*
X41074Y-46981D01*
X40870Y-46992D01*
X40733Y-47048D01*
X40710Y-47139D01*
X41000Y-47429D01*
X41290Y-47139D01*
X41290Y-47281D01*
X41071Y-47500D01*
X41361Y-47790D01*
X41452Y-47767D01*
X41479Y-47689D01*
X41479Y-48137D01*
X41290Y-48326D01*
X41290Y-47861D01*
X41000Y-47571D01*
X40929Y-47642D01*
X40929Y-47500D01*
X40639Y-47210D01*
X40548Y-47233D01*
X40481Y-47426D01*
X40492Y-47630D01*
X40548Y-47767D01*
X40639Y-47790D01*
X40929Y-47500D01*
X40929Y-47642D01*
X40710Y-47861D01*
X40733Y-47952D01*
X40926Y-48019D01*
X41130Y-48008D01*
X41267Y-47952D01*
X41290Y-47861D01*
X41290Y-48326D01*
X40808Y-48808D01*
X40750Y-48896D01*
X40746Y-48914D01*
X40728Y-49000D01*
X40729Y-49004D01*
X40729Y-49250D01*
X40729Y-49325D01*
X40274Y-49325D01*
X40274Y-26027D01*
X40334Y-25723D01*
X40490Y-25490D01*
X40723Y-25334D01*
X41027Y-25274D01*
X79972Y-25274D01*
X80276Y-25334D01*
X80509Y-25490D01*
X80665Y-25723D01*
X80726Y-26027D01*
X80726Y-48972D01*
M02*
