M48
INCH,TZ
T1C0.025
T2C0.032
T3C0.035
T4C0.040
T5C0.069
T6C0.091
T7C0.120
%
G90
G05
T1
X040500Y-048250
X041000Y-026000
X041000Y-027000
X041000Y-028000
X041000Y-048250
X042000Y-026000
X042000Y-027000
X042000Y-028000
X046500Y-034500
X048500Y-044750
X048750Y-047500
X052000Y-041000
X054000Y-047500
X054500Y-042000
X055000Y-041500
X055000Y-042500
X055500Y-033750
X056250Y-040000
X056500Y-035750
X056500Y-040500
X056750Y-039000
X057750Y-038000
X058000Y-037250
X058000Y-044625
X058000Y-046500
X058500Y-039625
X059500Y-039375
X060500Y-036750
X061500Y-036750
X062000Y-047000
X062000Y-048000
X062000Y-049000
X062500Y-046500
X063000Y-035000
X063000Y-047000
X066000Y-041125
X066375Y-040875
X066625Y-045125
X066750Y-040625
X066875Y-044375
X067375Y-040750
X068250Y-043375
X068500Y-039125
X068625Y-042500
X069375Y-041750
X069375Y-042250
X069375Y-042750
X069375Y-043250
X071000Y-048875
X071750Y-035750
X072000Y-026000
X072000Y-027000
X072000Y-028000
X072500Y-048000
X073000Y-026000
X073000Y-027000
X073000Y-028000
X073000Y-035750
X073000Y-036750
X073000Y-037750
X073000Y-038750
X073000Y-039750
X073500Y-048000
X074000Y-026000
X074000Y-027000
X074000Y-028000
X080000Y-035750
X080000Y-036750
X080000Y-037750
X080000Y-038750
X080000Y-039750
T2
X041000Y-029500
X041000Y-031500
X041000Y-036250
X041000Y-038250
X041000Y-043000
X041000Y-045000
X041000Y-047500
X043000Y-029000
X043000Y-032000
X043000Y-035750
X043000Y-038750
X043000Y-042500
X043000Y-045500
X043000Y-047500
X044000Y-029000
X044000Y-032000
X044000Y-035750
X044000Y-038750
X044000Y-042500
X044000Y-045500
X045000Y-026500
X045000Y-027500
X045000Y-029000
X045000Y-032000
X045000Y-035750
X045000Y-038750
X045000Y-042500
X045000Y-045500
X046000Y-029000
X046000Y-032000
X046000Y-035750
X046000Y-038750
X046000Y-041500
X046000Y-042500
X046000Y-045500
X047000Y-026500
X047000Y-027500
X047000Y-029000
X047000Y-032000
X047000Y-035750
X047000Y-038750
X047000Y-041500
X047000Y-042500
X047000Y-045500
X048000Y-029000
X048000Y-032000
X048000Y-035750
X048000Y-038750
X048000Y-041500
X048000Y-042500
X048000Y-045500
X049000Y-029000
X049000Y-032000
X049000Y-035750
X049000Y-038750
X049000Y-041500
X049000Y-042500
X049000Y-045500
X050000Y-026500
X050000Y-027500
X050000Y-041500
X050000Y-042500
X050000Y-045500
X051000Y-026500
X051000Y-028500
X051000Y-041500
X051000Y-042500
X051000Y-045500
X052000Y-035750
X052000Y-038750
X052000Y-042500
X052000Y-045500
X053000Y-026000
X053000Y-032000
X053000Y-035750
X053000Y-038750
X054000Y-026000
X054000Y-032000
X054000Y-035750
X054000Y-038750
X054000Y-043000
X054000Y-045000
X055000Y-026000
X055000Y-032000
X055000Y-035750
X055000Y-038750
X056000Y-026000
X056000Y-032000
X056000Y-041500
X056000Y-042500
X056000Y-045500
X057000Y-026000
X057000Y-032000
X057000Y-041500
X057000Y-042500
X057000Y-045500
X058000Y-026000
X058000Y-032000
X058000Y-035750
X058000Y-038750
X058000Y-041500
X058000Y-042500
X058000Y-045500
X059000Y-026000
X059000Y-032000
X059000Y-035750
X059000Y-038750
X059000Y-041500
X059000Y-042500
X059000Y-045500
X060000Y-026000
X060000Y-032000
X060000Y-035750
X060000Y-038750
X060000Y-041500
X060000Y-042500
X060000Y-045500
X061000Y-026000
X061000Y-032000
X061000Y-035750
X061000Y-038750
X061000Y-041500
X061000Y-042500
X061000Y-045500
X062000Y-026000
X062000Y-032000
X062000Y-035750
X062000Y-038750
X062000Y-041500
X062000Y-042500
X062000Y-045500
X063000Y-026000
X063000Y-032000
X063000Y-035750
X063000Y-038750
X063000Y-041500
X063000Y-042500
X063000Y-045500
X064000Y-026000
X064000Y-032000
X064000Y-035750
X064000Y-038750
X064000Y-041500
X064000Y-042500
X064000Y-045500
X065000Y-026000
X065000Y-032000
X065000Y-035750
X065000Y-038750
X065000Y-041500
X065000Y-042500
X065000Y-045500
X066000Y-026000
X066000Y-032000
X066000Y-047375
X067000Y-034500
X067000Y-037500
X068000Y-034500
X068000Y-037500
X068000Y-038750
X068000Y-040750
X068000Y-042000
X068000Y-045000
X068000Y-047375
T3
X080283Y-028570
X080283Y-046680
T4
X043000Y-026500
X043000Y-027500
T5
X073000Y-029999
X073000Y-045251
T6
X071819Y-029999
X071819Y-045251
T7
X079500Y-026500
X079500Y-048750
T0
M30
