G04 (created by PCBNEW-RS274X (2012-01-19 BZR 3256)-stable) date 4/5/2013 11:43:26 PM*
G01*
G70*
G90*
%MOIN*%
G04 Gerber Fmt 3.4, Leading zero omitted, Abs format*
%FSLAX34Y34*%
G04 APERTURE LIST*
%ADD10C,0.006000*%
%ADD11C,0.160000*%
%ADD12R,0.055000X0.055000*%
%ADD13C,0.055000*%
%ADD14R,0.060000X0.060000*%
%ADD15C,0.060000*%
%ADD16R,0.070000X0.300000*%
%ADD17C,0.035400*%
%ADD18C,0.068900*%
%ADD19C,0.090600*%
%ADD20C,0.035000*%
%ADD21C,0.014500*%
%ADD22C,0.030000*%
%ADD23C,0.060000*%
%ADD24C,0.040000*%
%ADD25C,0.010000*%
G04 APERTURE END LIST*
G54D10*
G54D11*
X79500Y-26500D03*
X79500Y-48750D03*
G54D12*
X43000Y-45500D03*
G54D13*
X44000Y-45500D03*
X45000Y-45500D03*
X46000Y-45500D03*
X47000Y-45500D03*
X48000Y-45500D03*
X49000Y-45500D03*
X50000Y-45500D03*
X51000Y-45500D03*
X52000Y-45500D03*
X52000Y-42500D03*
X51000Y-42500D03*
X50000Y-42500D03*
X49000Y-42500D03*
X48000Y-42500D03*
X47000Y-42500D03*
X46000Y-42500D03*
X45000Y-42500D03*
X44000Y-42500D03*
X43000Y-42500D03*
G54D12*
X58000Y-38750D03*
G54D13*
X59000Y-38750D03*
X60000Y-38750D03*
X61000Y-38750D03*
X62000Y-38750D03*
X63000Y-38750D03*
X64000Y-38750D03*
X65000Y-38750D03*
X65000Y-35750D03*
X64000Y-35750D03*
X63000Y-35750D03*
X62000Y-35750D03*
X61000Y-35750D03*
X60000Y-35750D03*
X59000Y-35750D03*
X58000Y-35750D03*
X51000Y-26500D03*
X51000Y-28500D03*
X68000Y-38750D03*
X68000Y-40750D03*
X41000Y-29500D03*
X41000Y-31500D03*
X41000Y-36250D03*
X41000Y-38250D03*
X41000Y-43000D03*
X41000Y-45000D03*
X54000Y-43000D03*
X54000Y-45000D03*
X47000Y-27500D03*
X50000Y-27500D03*
X47000Y-26500D03*
X50000Y-26500D03*
X67000Y-34500D03*
X67000Y-37500D03*
X68000Y-34500D03*
X68000Y-37500D03*
X68000Y-42000D03*
X68000Y-45000D03*
G54D12*
X43000Y-47500D03*
G54D13*
X41000Y-47500D03*
G54D12*
X68000Y-47375D03*
G54D13*
X66000Y-47375D03*
G54D14*
X43000Y-26500D03*
G54D15*
X43000Y-27500D03*
G54D12*
X46000Y-41500D03*
G54D13*
X47000Y-41500D03*
X48000Y-41500D03*
X49000Y-41500D03*
X50000Y-41500D03*
X51000Y-41500D03*
G54D12*
X56000Y-41500D03*
G54D13*
X57000Y-41500D03*
X58000Y-41500D03*
X59000Y-41500D03*
X60000Y-41500D03*
X61000Y-41500D03*
X62000Y-41500D03*
X63000Y-41500D03*
X64000Y-41500D03*
X65000Y-41500D03*
G54D12*
X52000Y-38750D03*
G54D13*
X53000Y-38750D03*
X54000Y-38750D03*
X55000Y-38750D03*
X55000Y-35750D03*
X54000Y-35750D03*
X53000Y-35750D03*
X52000Y-35750D03*
G54D12*
X53000Y-32000D03*
G54D13*
X54000Y-32000D03*
X55000Y-32000D03*
X56000Y-32000D03*
X57000Y-32000D03*
X58000Y-32000D03*
X59000Y-32000D03*
X60000Y-32000D03*
X61000Y-32000D03*
X62000Y-32000D03*
X63000Y-32000D03*
X64000Y-32000D03*
X65000Y-32000D03*
X66000Y-32000D03*
X66000Y-26000D03*
X65000Y-26000D03*
X64000Y-26000D03*
X63000Y-26000D03*
X62000Y-26000D03*
X61000Y-26000D03*
X60000Y-26000D03*
X59000Y-26000D03*
X58000Y-26000D03*
X57000Y-26000D03*
X56000Y-26000D03*
X55000Y-26000D03*
X54000Y-26000D03*
X53000Y-26000D03*
G54D12*
X56000Y-45500D03*
G54D13*
X57000Y-45500D03*
X58000Y-45500D03*
X59000Y-45500D03*
X60000Y-45500D03*
X61000Y-45500D03*
X62000Y-45500D03*
X63000Y-45500D03*
X64000Y-45500D03*
X65000Y-45500D03*
X65000Y-42500D03*
X64000Y-42500D03*
X63000Y-42500D03*
X62000Y-42500D03*
X61000Y-42500D03*
X60000Y-42500D03*
X59000Y-42500D03*
X58000Y-42500D03*
X57000Y-42500D03*
X56000Y-42500D03*
G54D12*
X43000Y-38750D03*
G54D13*
X44000Y-38750D03*
X45000Y-38750D03*
X46000Y-38750D03*
X47000Y-38750D03*
X48000Y-38750D03*
X49000Y-38750D03*
X49000Y-35750D03*
X48000Y-35750D03*
X47000Y-35750D03*
X46000Y-35750D03*
X45000Y-35750D03*
X44000Y-35750D03*
X43000Y-35750D03*
G54D12*
X43000Y-32000D03*
G54D13*
X44000Y-32000D03*
X45000Y-32000D03*
X46000Y-32000D03*
X47000Y-32000D03*
X48000Y-32000D03*
X49000Y-32000D03*
X49000Y-29000D03*
X48000Y-29000D03*
X47000Y-29000D03*
X46000Y-29000D03*
X45000Y-29000D03*
X44000Y-29000D03*
X43000Y-29000D03*
G54D16*
X71000Y-51375D03*
X70000Y-51375D03*
X69000Y-51375D03*
X62000Y-51375D03*
X61000Y-51375D03*
X60000Y-51375D03*
X59000Y-51375D03*
X58000Y-51375D03*
X43000Y-51375D03*
X41000Y-51375D03*
G54D13*
X45000Y-26500D03*
X45000Y-27500D03*
G54D17*
X80283Y-46680D03*
X80283Y-28570D03*
G54D18*
X73000Y-45251D03*
X73000Y-29999D03*
G54D19*
X71819Y-45251D03*
X71819Y-29999D03*
G54D20*
X60500Y-36750D03*
X58000Y-37250D03*
X56750Y-39000D03*
X55500Y-33750D03*
X56500Y-35750D03*
X58000Y-46500D03*
X66000Y-41125D03*
X66375Y-40875D03*
X66750Y-40625D03*
X66625Y-45125D03*
X69375Y-43250D03*
X66875Y-44375D03*
X69375Y-42750D03*
X68250Y-43375D03*
X69375Y-42250D03*
X68625Y-42500D03*
X69375Y-41750D03*
X63000Y-35000D03*
X56500Y-40500D03*
X56250Y-40000D03*
X58500Y-39625D03*
X59500Y-39375D03*
X57750Y-38000D03*
X61500Y-36750D03*
X73500Y-48000D03*
X62000Y-49000D03*
X55000Y-41500D03*
X54500Y-42000D03*
X42000Y-28000D03*
X55000Y-42500D03*
X72000Y-28000D03*
X42000Y-27000D03*
X73000Y-28000D03*
X74000Y-28000D03*
X74000Y-26000D03*
X62000Y-48000D03*
X73000Y-38750D03*
X68500Y-39125D03*
X40500Y-48250D03*
X80000Y-37750D03*
X80000Y-39750D03*
X42000Y-26000D03*
X73000Y-37750D03*
X72000Y-27000D03*
X41000Y-28000D03*
X80000Y-35750D03*
X73000Y-35750D03*
X72000Y-26000D03*
X73000Y-39750D03*
X62000Y-47000D03*
X71000Y-48875D03*
X72500Y-48000D03*
X41000Y-27000D03*
X73000Y-27000D03*
X48750Y-47500D03*
X41000Y-26000D03*
X41000Y-48250D03*
X48500Y-44750D03*
X74000Y-27000D03*
X80000Y-36750D03*
X73000Y-26000D03*
X71750Y-35750D03*
X63000Y-47000D03*
X54000Y-47500D03*
X73000Y-36750D03*
X80000Y-38750D03*
X46500Y-34500D03*
X58000Y-44625D03*
X52000Y-41000D03*
X67375Y-40750D03*
X62500Y-46500D03*
G54D21*
X60000Y-28750D02*
X60500Y-29250D01*
X60000Y-26000D02*
X60000Y-28750D01*
X60500Y-36750D02*
X60500Y-29250D01*
X58000Y-28750D02*
X57500Y-29250D01*
X58000Y-37250D02*
X57500Y-36750D01*
X57500Y-36750D02*
X57500Y-29250D01*
X58000Y-26000D02*
X58000Y-28750D01*
X55500Y-34750D02*
X54000Y-33250D01*
X56750Y-39000D02*
X55500Y-37750D01*
X54000Y-33250D02*
X54000Y-32000D01*
X55500Y-37750D02*
X55500Y-34750D01*
X55500Y-33750D02*
X55500Y-29250D01*
X56000Y-28750D02*
X56000Y-26000D01*
X56000Y-28750D02*
X55500Y-29250D01*
X57000Y-26000D02*
X57000Y-28750D01*
X56500Y-29250D02*
X56500Y-35750D01*
X57000Y-28750D02*
X56500Y-29250D01*
X58000Y-46500D02*
X44000Y-46500D01*
X44000Y-46500D02*
X43000Y-45500D01*
X65500Y-40625D02*
X65500Y-35000D01*
X63000Y-32250D02*
X63000Y-32000D01*
X65500Y-35000D02*
X65500Y-34750D01*
X65500Y-34750D02*
X63000Y-32250D01*
X66000Y-41125D02*
X65500Y-40625D01*
X65875Y-34125D02*
X64000Y-32250D01*
X64000Y-32250D02*
X64000Y-32000D01*
X66375Y-40875D02*
X65875Y-40375D01*
X65875Y-34250D02*
X65875Y-34125D01*
X65875Y-40375D02*
X65875Y-37375D01*
X65875Y-37375D02*
X65875Y-34250D01*
X66750Y-40625D02*
X66250Y-40125D01*
X66250Y-33750D02*
X66250Y-33500D01*
X66250Y-33750D02*
X66250Y-40125D01*
X65000Y-32250D02*
X65000Y-32000D01*
X66250Y-33500D02*
X65000Y-32250D01*
X66625Y-45125D02*
X67250Y-44500D01*
X70500Y-30750D02*
X70500Y-42125D01*
X68125Y-44500D02*
X67250Y-44500D01*
X66000Y-26000D02*
X66000Y-26250D01*
X70500Y-30750D02*
X66000Y-26250D01*
X68125Y-44500D02*
X69375Y-43250D01*
X70500Y-42125D02*
X69375Y-43250D01*
X70125Y-42000D02*
X69375Y-42750D01*
X68000Y-44125D02*
X69375Y-42750D01*
X67125Y-44125D02*
X68000Y-44125D01*
X66875Y-44375D02*
X67125Y-44125D01*
X70125Y-31375D02*
X65000Y-26250D01*
X65000Y-26000D02*
X65000Y-26250D01*
X70125Y-31375D02*
X70125Y-42000D01*
X69750Y-32000D02*
X64000Y-26250D01*
X68250Y-43375D02*
X69375Y-42250D01*
X64000Y-26000D02*
X64000Y-26250D01*
X69750Y-32000D02*
X69750Y-41875D01*
X69750Y-41875D02*
X69375Y-42250D01*
X69375Y-41750D02*
X68625Y-42500D01*
X69375Y-32750D02*
X69375Y-32625D01*
X63000Y-26250D02*
X63000Y-26000D01*
X69375Y-41750D02*
X69375Y-32750D01*
X69375Y-32625D02*
X63000Y-26250D01*
X62000Y-26000D02*
X62000Y-26250D01*
X69000Y-33250D02*
X69000Y-41000D01*
X62000Y-26250D02*
X69000Y-33250D01*
X69000Y-41000D02*
X68000Y-42000D01*
X54500Y-37500D02*
X54500Y-35750D01*
X57000Y-40000D02*
X57000Y-41500D01*
X54500Y-35750D02*
X54500Y-34750D01*
X55500Y-38500D02*
X54500Y-37500D01*
X55502Y-38500D02*
X55500Y-38500D01*
X55502Y-38502D02*
X57000Y-40000D01*
X54500Y-34750D02*
X53000Y-33250D01*
X53000Y-33250D02*
X53000Y-32000D01*
X55502Y-38500D02*
X55502Y-38502D01*
X70000Y-51375D02*
X70000Y-48500D01*
X67500Y-46000D02*
X64750Y-46000D01*
X64500Y-45750D02*
X64500Y-37750D01*
X64750Y-46000D02*
X64500Y-45750D01*
X63500Y-36750D02*
X64500Y-37750D01*
X63500Y-35500D02*
X63000Y-35000D01*
X70000Y-48500D02*
X67500Y-46000D01*
X63500Y-35500D02*
X63500Y-36750D01*
X46750Y-40500D02*
X45000Y-38750D01*
X56500Y-40500D02*
X46750Y-40500D01*
X49250Y-40000D02*
X56000Y-40000D01*
X49250Y-40000D02*
X48000Y-38750D01*
X56000Y-40000D02*
X56250Y-40000D01*
X58500Y-46250D02*
X58500Y-48000D01*
X58500Y-39625D02*
X58500Y-40000D01*
X58500Y-40000D02*
X58500Y-46250D01*
X58000Y-49000D02*
X58000Y-51375D01*
X58000Y-49000D02*
X58000Y-48500D01*
X58000Y-48500D02*
X58500Y-48000D01*
X59500Y-39500D02*
X59500Y-46250D01*
X59500Y-46250D02*
X59500Y-48000D01*
X59000Y-48750D02*
X59000Y-48500D01*
X59000Y-49000D02*
X59000Y-48750D01*
X59500Y-39375D02*
X59500Y-39500D01*
X59000Y-48500D02*
X59500Y-48000D01*
X59000Y-49000D02*
X59000Y-51375D01*
X60500Y-38250D02*
X58500Y-36250D01*
X58500Y-36250D02*
X58500Y-29250D01*
X60000Y-48500D02*
X60500Y-48000D01*
X58500Y-29250D02*
X59000Y-28750D01*
X60000Y-51375D02*
X60000Y-49000D01*
X60000Y-48750D02*
X60000Y-48500D01*
X60500Y-48000D02*
X60500Y-38750D01*
X60000Y-49000D02*
X60000Y-48750D01*
X60500Y-38750D02*
X60500Y-38250D01*
X59000Y-28750D02*
X59000Y-26000D01*
X61000Y-48500D02*
X61500Y-48000D01*
X61000Y-48625D02*
X61000Y-48500D01*
X61500Y-48000D02*
X61500Y-38500D01*
X61500Y-38500D02*
X61500Y-38250D01*
X61500Y-38250D02*
X59000Y-35750D01*
X61000Y-51375D02*
X61000Y-49000D01*
X61000Y-49000D02*
X61000Y-48625D01*
X59000Y-38750D02*
X59000Y-41500D01*
X56000Y-35750D02*
X59000Y-38750D01*
X54500Y-33125D02*
X54500Y-33250D01*
X54000Y-28750D02*
X54500Y-29250D01*
X54500Y-29250D02*
X54500Y-33125D01*
X56000Y-34750D02*
X56000Y-35750D01*
X54000Y-26000D02*
X54000Y-28750D01*
X54500Y-33250D02*
X56000Y-34750D01*
X57500Y-41750D02*
X57500Y-38250D01*
X61500Y-29250D02*
X61500Y-36750D01*
X61000Y-28750D02*
X61500Y-29250D01*
X61000Y-26000D02*
X61000Y-28750D01*
X57000Y-42500D02*
X57000Y-42250D01*
X57500Y-38250D02*
X57750Y-38000D01*
X57000Y-42250D02*
X57500Y-41750D01*
X48000Y-31000D02*
X48250Y-31250D01*
X47500Y-36250D02*
X48000Y-35750D01*
X45750Y-31250D02*
X46000Y-31000D01*
X45000Y-35750D02*
X45500Y-36250D01*
X48500Y-36250D02*
X51500Y-36250D01*
X66000Y-32000D02*
X65125Y-31125D01*
X53000Y-44500D02*
X53500Y-44500D01*
X42000Y-37250D02*
X41000Y-38250D01*
X52750Y-44750D02*
X53000Y-44500D01*
X53000Y-35750D02*
X53500Y-36250D01*
X41000Y-26000D02*
X42000Y-26000D01*
X47500Y-37250D02*
X42500Y-37250D01*
X46000Y-31000D02*
X48000Y-31000D01*
X67250Y-42500D02*
X65500Y-44250D01*
X49500Y-42000D02*
X50000Y-42500D01*
X62500Y-31750D02*
X62500Y-35250D01*
X71000Y-48875D02*
X71000Y-48000D01*
X42000Y-27000D02*
X41000Y-27000D01*
X41000Y-48875D02*
X41000Y-48250D01*
X52750Y-44750D02*
X52500Y-44750D01*
X48000Y-31000D02*
X48500Y-31000D01*
X67250Y-41500D02*
X67250Y-42500D01*
X49250Y-30250D02*
X49375Y-30125D01*
X48500Y-31000D02*
X49250Y-30250D01*
X68000Y-45000D02*
X67500Y-45500D01*
X44000Y-35750D02*
X42500Y-37250D01*
X44000Y-35750D02*
X44500Y-36250D01*
X48500Y-44750D02*
X52500Y-44750D01*
X65500Y-44250D02*
X65500Y-45000D01*
X47000Y-42500D02*
X46500Y-42000D01*
X68000Y-45000D02*
X71000Y-48000D01*
X48500Y-42000D02*
X48000Y-42500D01*
X67500Y-45500D02*
X66000Y-45500D01*
X44500Y-36250D02*
X45000Y-35750D01*
X53500Y-36250D02*
X54000Y-35750D01*
G54D22*
X65000Y-45500D02*
X65500Y-45000D01*
G54D21*
X46000Y-42500D02*
X45500Y-42000D01*
X49000Y-38750D02*
X47500Y-37250D01*
X45500Y-36250D02*
X46500Y-36250D01*
X48000Y-42500D02*
X47500Y-42000D01*
X65125Y-31125D02*
X63125Y-31125D01*
X45000Y-32000D02*
X45750Y-31250D01*
X73500Y-48000D02*
X78750Y-48000D01*
X51500Y-36250D02*
X52000Y-35750D01*
X52500Y-36250D02*
X53000Y-35750D01*
X68000Y-40750D02*
X67250Y-41500D01*
X73000Y-39750D02*
X73000Y-38750D01*
X68500Y-39125D02*
X68500Y-38000D01*
X41000Y-31500D02*
X41500Y-31000D01*
X63125Y-31125D02*
X62500Y-31750D01*
X53750Y-44750D02*
X54000Y-45000D01*
X68000Y-40750D02*
X68500Y-40250D01*
X41500Y-31000D02*
X46000Y-31000D01*
X62500Y-35250D02*
X62000Y-35750D01*
X52000Y-35750D02*
X52500Y-36250D01*
X52000Y-45500D02*
X52750Y-44750D01*
X78750Y-48000D02*
X79500Y-48750D01*
X68500Y-38000D02*
X68000Y-37500D01*
X72000Y-28000D02*
X73000Y-28000D01*
X42500Y-37250D02*
X42000Y-37250D01*
X53500Y-44500D02*
X53750Y-44750D01*
X45500Y-42000D02*
X45000Y-42500D01*
X68500Y-40250D02*
X68500Y-39125D01*
X41000Y-28000D02*
X42000Y-28000D01*
X49375Y-30125D02*
X51000Y-28500D01*
X72000Y-26000D02*
X73000Y-26000D01*
X66000Y-47375D02*
X65375Y-48000D01*
X62000Y-47000D02*
X63000Y-47000D01*
X80000Y-37750D02*
X80000Y-36750D01*
X73000Y-36750D02*
X73000Y-37750D01*
G54D23*
X41000Y-51375D02*
X41000Y-48875D01*
G54D21*
X62000Y-49000D02*
X63000Y-48000D01*
X74000Y-26000D02*
X74000Y-27000D01*
X65375Y-48000D02*
X63000Y-48000D01*
X80000Y-39750D02*
X80000Y-38500D01*
X48000Y-35750D02*
X48500Y-36250D01*
X49000Y-42500D02*
X49500Y-42000D01*
G54D23*
X62000Y-51375D02*
X62000Y-49000D01*
G54D21*
X47000Y-35750D02*
X47500Y-36250D01*
X71000Y-48000D02*
X72500Y-48000D01*
X62000Y-49000D02*
X62000Y-48000D01*
X46500Y-42000D02*
X46000Y-42500D01*
X49000Y-42500D02*
X48500Y-42000D01*
X48250Y-31250D02*
X49000Y-32000D01*
X71750Y-35750D02*
X73000Y-35750D01*
X66000Y-45500D02*
X65500Y-45000D01*
X47500Y-42000D02*
X47000Y-42500D01*
X44500Y-44750D02*
X48500Y-44750D01*
G54D23*
X71000Y-51375D02*
X71000Y-48875D01*
G54D21*
X73000Y-27000D02*
X72000Y-27000D01*
X41000Y-45000D02*
X41250Y-44750D01*
X54500Y-42000D02*
X55000Y-41500D01*
X46500Y-36250D02*
X47000Y-35750D01*
X80000Y-38500D02*
X80000Y-38750D01*
X41250Y-44750D02*
X44500Y-44750D01*
X46500Y-34500D02*
X44000Y-32000D01*
X60000Y-41500D02*
X60000Y-38750D01*
X62000Y-38750D02*
X62000Y-41500D01*
X64000Y-38750D02*
X64000Y-41500D01*
X57500Y-42375D02*
X57500Y-42250D01*
X58000Y-43250D02*
X57500Y-42750D01*
X57500Y-42750D02*
X57500Y-42375D01*
X58000Y-41750D02*
X58000Y-41500D01*
X57500Y-42250D02*
X58000Y-41750D01*
X58000Y-38750D02*
X58000Y-41500D01*
X58000Y-44625D02*
X58000Y-43250D01*
X61000Y-38750D02*
X61000Y-41500D01*
X63000Y-41500D02*
X62000Y-42500D01*
X63000Y-38750D02*
X63000Y-41500D01*
X47500Y-41000D02*
X47000Y-41500D01*
X48750Y-41000D02*
X47500Y-41000D01*
X52000Y-41000D02*
X48750Y-41000D01*
X44000Y-29000D02*
X44500Y-29500D01*
X44500Y-29500D02*
X46000Y-29500D01*
X46000Y-29000D02*
X46000Y-29500D01*
X46000Y-29500D02*
X48500Y-29500D01*
X48500Y-29500D02*
X49000Y-29000D01*
X46500Y-38250D02*
X47000Y-38750D01*
X44000Y-38750D02*
X44500Y-38250D01*
X44500Y-38250D02*
X46500Y-38250D01*
G54D24*
X41000Y-36250D02*
X42500Y-36250D01*
X43000Y-42500D02*
X43000Y-43250D01*
X67375Y-39375D02*
X68000Y-38750D01*
X40375Y-36250D02*
X40375Y-30125D01*
X67125Y-46500D02*
X64500Y-46500D01*
X64500Y-46500D02*
X62500Y-46500D01*
X40375Y-30125D02*
X41000Y-29500D01*
G54D21*
X44500Y-42250D02*
X44500Y-43250D01*
G54D24*
X56000Y-42500D02*
X56000Y-41500D01*
X67375Y-40750D02*
X67375Y-39375D01*
X41500Y-46500D02*
X40375Y-45375D01*
X51000Y-43250D02*
X53750Y-43250D01*
X40375Y-36250D02*
X41000Y-36250D01*
X41250Y-43250D02*
X43000Y-43250D01*
X49250Y-28250D02*
X50000Y-27500D01*
G54D21*
X46000Y-41500D02*
X45250Y-41500D01*
G54D24*
X53750Y-43250D02*
X54000Y-43000D01*
X54000Y-43000D02*
X54250Y-43250D01*
X43000Y-43250D02*
X44500Y-43250D01*
X42000Y-46500D02*
X41500Y-46500D01*
X44500Y-43250D02*
X51000Y-43250D01*
X51000Y-42500D02*
X51000Y-43250D01*
X52500Y-26500D02*
X53000Y-26000D01*
X54250Y-43250D02*
X55750Y-43250D01*
X43750Y-28250D02*
X49250Y-28250D01*
X55750Y-43250D02*
X56000Y-43000D01*
G54D23*
X69000Y-48375D02*
X68000Y-47375D01*
G54D24*
X41000Y-29500D02*
X42500Y-29500D01*
X50000Y-27500D02*
X50000Y-26500D01*
X58000Y-45500D02*
X56250Y-43750D01*
G54D23*
X43000Y-51375D02*
X43000Y-47500D01*
G54D24*
X56250Y-43750D02*
X55750Y-43250D01*
X67125Y-46500D02*
X68000Y-47375D01*
G54D23*
X69000Y-51375D02*
X69000Y-48375D01*
G54D24*
X40375Y-45375D02*
X40375Y-43000D01*
X43000Y-47500D02*
X42000Y-46500D01*
X40375Y-36250D02*
X40375Y-43000D01*
X42500Y-29500D02*
X43000Y-29000D01*
X43000Y-29000D02*
X43750Y-28250D01*
G54D21*
X45250Y-41500D02*
X44500Y-42250D01*
G54D24*
X41000Y-43000D02*
X41250Y-43250D01*
X51000Y-26500D02*
X52500Y-26500D01*
X50000Y-26500D02*
X51000Y-26500D01*
X56000Y-43000D02*
X56000Y-42500D01*
X41000Y-43000D02*
X40375Y-43000D01*
X42500Y-36250D02*
X43000Y-35750D01*
G54D10*
G36*
X42501Y-49325D02*
X41519Y-49325D01*
X41519Y-47574D01*
X41508Y-47370D01*
X41452Y-47233D01*
X41361Y-47210D01*
X41290Y-47281D01*
X41290Y-47139D01*
X41267Y-47048D01*
X41074Y-46981D01*
X40870Y-46992D01*
X40733Y-47048D01*
X40710Y-47139D01*
X41000Y-47429D01*
X41290Y-47139D01*
X41290Y-47281D01*
X41071Y-47500D01*
X41361Y-47790D01*
X41452Y-47767D01*
X41519Y-47574D01*
X41519Y-49325D01*
X41290Y-49325D01*
X41290Y-47861D01*
X41000Y-47571D01*
X40929Y-47642D01*
X40929Y-47500D01*
X40639Y-47210D01*
X40548Y-47233D01*
X40481Y-47426D01*
X40492Y-47630D01*
X40548Y-47767D01*
X40639Y-47790D01*
X40929Y-47500D01*
X40929Y-47642D01*
X40710Y-47861D01*
X40733Y-47952D01*
X40926Y-48019D01*
X41130Y-48008D01*
X41267Y-47952D01*
X41290Y-47861D01*
X41290Y-49325D01*
X40274Y-49325D01*
X40274Y-45838D01*
X41217Y-46781D01*
X41218Y-46782D01*
X41347Y-46869D01*
X41499Y-46898D01*
X41500Y-46899D01*
X41835Y-46899D01*
X42501Y-47565D01*
X42501Y-49325D01*
X42501Y-49325D01*
G37*
G54D25*
X42501Y-49325D02*
X41519Y-49325D01*
X41519Y-47574D01*
X41508Y-47370D01*
X41452Y-47233D01*
X41361Y-47210D01*
X41290Y-47281D01*
X41290Y-47139D01*
X41267Y-47048D01*
X41074Y-46981D01*
X40870Y-46992D01*
X40733Y-47048D01*
X40710Y-47139D01*
X41000Y-47429D01*
X41290Y-47139D01*
X41290Y-47281D01*
X41071Y-47500D01*
X41361Y-47790D01*
X41452Y-47767D01*
X41519Y-47574D01*
X41519Y-49325D01*
X41290Y-49325D01*
X41290Y-47861D01*
X41000Y-47571D01*
X40929Y-47642D01*
X40929Y-47500D01*
X40639Y-47210D01*
X40548Y-47233D01*
X40481Y-47426D01*
X40492Y-47630D01*
X40548Y-47767D01*
X40639Y-47790D01*
X40929Y-47500D01*
X40929Y-47642D01*
X40710Y-47861D01*
X40733Y-47952D01*
X40926Y-48019D01*
X41130Y-48008D01*
X41267Y-47952D01*
X41290Y-47861D01*
X41290Y-49325D01*
X40274Y-49325D01*
X40274Y-45838D01*
X41217Y-46781D01*
X41218Y-46782D01*
X41347Y-46869D01*
X41499Y-46898D01*
X41500Y-46899D01*
X41835Y-46899D01*
X42501Y-47565D01*
X42501Y-49325D01*
G54D10*
G36*
X58071Y-35750D02*
X58000Y-35821D01*
X57929Y-35750D01*
X58000Y-35679D01*
X58071Y-35750D01*
X58071Y-35750D01*
G37*
G54D25*
X58071Y-35750D02*
X58000Y-35821D01*
X57929Y-35750D01*
X58000Y-35679D01*
X58071Y-35750D01*
G54D10*
G36*
X58071Y-42500D02*
X58000Y-42571D01*
X57929Y-42500D01*
X58000Y-42429D01*
X58071Y-42500D01*
X58071Y-42500D01*
G37*
G54D25*
X58071Y-42500D02*
X58000Y-42571D01*
X57929Y-42500D01*
X58000Y-42429D01*
X58071Y-42500D01*
G54D10*
G36*
X58229Y-47887D02*
X57808Y-48308D01*
X57750Y-48396D01*
X57746Y-48414D01*
X57728Y-48500D01*
X57729Y-48504D01*
X57729Y-49000D01*
X57729Y-49325D01*
X43499Y-49325D01*
X43499Y-47500D01*
X43473Y-47369D01*
X43473Y-47186D01*
X43443Y-47113D01*
X43387Y-47057D01*
X43315Y-47027D01*
X43236Y-47027D01*
X43130Y-47027D01*
X43081Y-47017D01*
X42282Y-46218D01*
X42153Y-46131D01*
X42000Y-46101D01*
X41665Y-46101D01*
X41519Y-45955D01*
X41519Y-45074D01*
X41508Y-44870D01*
X41452Y-44733D01*
X41361Y-44710D01*
X41071Y-45000D01*
X41361Y-45290D01*
X41452Y-45267D01*
X41519Y-45074D01*
X41519Y-45955D01*
X41074Y-45510D01*
X41130Y-45508D01*
X41267Y-45452D01*
X41290Y-45361D01*
X41035Y-45106D01*
X41000Y-45071D01*
X40929Y-45000D01*
X41000Y-44929D01*
X41035Y-44894D01*
X41290Y-44639D01*
X41267Y-44548D01*
X41074Y-44481D01*
X40870Y-44492D01*
X40774Y-44531D01*
X40774Y-43419D01*
X40905Y-43474D01*
X40909Y-43474D01*
X40967Y-43532D01*
X40968Y-43532D01*
X41097Y-43619D01*
X41250Y-43649D01*
X43000Y-43649D01*
X44500Y-43649D01*
X51000Y-43649D01*
X53750Y-43649D01*
X53903Y-43619D01*
X53999Y-43553D01*
X54097Y-43619D01*
X54250Y-43649D01*
X55585Y-43649D01*
X55968Y-44032D01*
X56961Y-45026D01*
X56906Y-45026D01*
X56732Y-45098D01*
X56598Y-45231D01*
X56526Y-45405D01*
X56526Y-45594D01*
X56598Y-45768D01*
X56731Y-45902D01*
X56905Y-45974D01*
X57094Y-45974D01*
X57268Y-45902D01*
X57402Y-45769D01*
X57474Y-45595D01*
X57474Y-45538D01*
X57526Y-45590D01*
X57526Y-45594D01*
X57598Y-45768D01*
X57731Y-45902D01*
X57905Y-45974D01*
X58094Y-45974D01*
X58229Y-45918D01*
X58229Y-46200D01*
X58212Y-46183D01*
X58075Y-46126D01*
X57926Y-46126D01*
X57789Y-46183D01*
X57742Y-46229D01*
X56473Y-46229D01*
X56473Y-45815D01*
X56473Y-45736D01*
X56473Y-45186D01*
X56443Y-45113D01*
X56387Y-45057D01*
X56315Y-45027D01*
X56236Y-45027D01*
X55686Y-45027D01*
X55613Y-45057D01*
X55557Y-45113D01*
X55527Y-45185D01*
X55527Y-45264D01*
X55527Y-45814D01*
X55557Y-45887D01*
X55613Y-45943D01*
X55685Y-45973D01*
X55764Y-45973D01*
X56314Y-45973D01*
X56387Y-45943D01*
X56443Y-45887D01*
X56473Y-45815D01*
X56473Y-46229D01*
X54519Y-46229D01*
X54519Y-45074D01*
X54508Y-44870D01*
X54452Y-44733D01*
X54361Y-44710D01*
X54290Y-44781D01*
X54290Y-44639D01*
X54267Y-44548D01*
X54074Y-44481D01*
X53870Y-44492D01*
X53733Y-44548D01*
X53710Y-44639D01*
X54000Y-44929D01*
X54290Y-44639D01*
X54290Y-44781D01*
X54071Y-45000D01*
X54361Y-45290D01*
X54452Y-45267D01*
X54519Y-45074D01*
X54519Y-46229D01*
X54290Y-46229D01*
X54290Y-45361D01*
X54000Y-45071D01*
X53929Y-45142D01*
X53929Y-45000D01*
X53639Y-44710D01*
X53548Y-44733D01*
X53481Y-44926D01*
X53492Y-45130D01*
X53548Y-45267D01*
X53639Y-45290D01*
X53929Y-45000D01*
X53929Y-45142D01*
X53710Y-45361D01*
X53733Y-45452D01*
X53926Y-45519D01*
X54130Y-45508D01*
X54267Y-45452D01*
X54290Y-45361D01*
X54290Y-46229D01*
X52519Y-46229D01*
X52519Y-45574D01*
X52508Y-45370D01*
X52452Y-45233D01*
X52361Y-45210D01*
X52290Y-45281D01*
X52290Y-45139D01*
X52267Y-45048D01*
X52074Y-44981D01*
X51870Y-44992D01*
X51733Y-45048D01*
X51710Y-45139D01*
X52000Y-45429D01*
X52290Y-45139D01*
X52290Y-45281D01*
X52071Y-45500D01*
X52361Y-45790D01*
X52452Y-45767D01*
X52519Y-45574D01*
X52519Y-46229D01*
X52290Y-46229D01*
X52290Y-45861D01*
X52000Y-45571D01*
X51929Y-45642D01*
X51929Y-45500D01*
X51639Y-45210D01*
X51548Y-45233D01*
X51481Y-45426D01*
X51492Y-45630D01*
X51548Y-45767D01*
X51639Y-45790D01*
X51929Y-45500D01*
X51929Y-45642D01*
X51710Y-45861D01*
X51733Y-45952D01*
X51926Y-46019D01*
X52130Y-46008D01*
X52267Y-45952D01*
X52290Y-45861D01*
X52290Y-46229D01*
X51474Y-46229D01*
X51474Y-45595D01*
X51474Y-45406D01*
X51402Y-45232D01*
X51269Y-45098D01*
X51095Y-45026D01*
X50906Y-45026D01*
X50732Y-45098D01*
X50598Y-45231D01*
X50526Y-45405D01*
X50526Y-45594D01*
X50598Y-45768D01*
X50731Y-45902D01*
X50905Y-45974D01*
X51094Y-45974D01*
X51268Y-45902D01*
X51402Y-45769D01*
X51474Y-45595D01*
X51474Y-46229D01*
X50474Y-46229D01*
X50474Y-45595D01*
X50474Y-45406D01*
X50402Y-45232D01*
X50269Y-45098D01*
X50095Y-45026D01*
X49906Y-45026D01*
X49732Y-45098D01*
X49598Y-45231D01*
X49526Y-45405D01*
X49526Y-45594D01*
X49598Y-45768D01*
X49731Y-45902D01*
X49905Y-45974D01*
X50094Y-45974D01*
X50268Y-45902D01*
X50402Y-45769D01*
X50474Y-45595D01*
X50474Y-46229D01*
X49474Y-46229D01*
X49474Y-45595D01*
X49474Y-45406D01*
X49402Y-45232D01*
X49269Y-45098D01*
X49095Y-45026D01*
X48906Y-45026D01*
X48732Y-45098D01*
X48598Y-45231D01*
X48526Y-45405D01*
X48526Y-45594D01*
X48598Y-45768D01*
X48731Y-45902D01*
X48905Y-45974D01*
X49094Y-45974D01*
X49268Y-45902D01*
X49402Y-45769D01*
X49474Y-45595D01*
X49474Y-46229D01*
X48474Y-46229D01*
X48474Y-45595D01*
X48474Y-45406D01*
X48402Y-45232D01*
X48269Y-45098D01*
X48095Y-45026D01*
X47906Y-45026D01*
X47732Y-45098D01*
X47598Y-45231D01*
X47526Y-45405D01*
X47526Y-45594D01*
X47598Y-45768D01*
X47731Y-45902D01*
X47905Y-45974D01*
X48094Y-45974D01*
X48268Y-45902D01*
X48402Y-45769D01*
X48474Y-45595D01*
X48474Y-46229D01*
X47474Y-46229D01*
X47474Y-45595D01*
X47474Y-45406D01*
X47402Y-45232D01*
X47269Y-45098D01*
X47095Y-45026D01*
X46906Y-45026D01*
X46732Y-45098D01*
X46598Y-45231D01*
X46526Y-45405D01*
X46526Y-45594D01*
X46598Y-45768D01*
X46731Y-45902D01*
X46905Y-45974D01*
X47094Y-45974D01*
X47268Y-45902D01*
X47402Y-45769D01*
X47474Y-45595D01*
X47474Y-46229D01*
X46474Y-46229D01*
X46474Y-45595D01*
X46474Y-45406D01*
X46402Y-45232D01*
X46269Y-45098D01*
X46095Y-45026D01*
X45906Y-45026D01*
X45732Y-45098D01*
X45598Y-45231D01*
X45526Y-45405D01*
X45526Y-45594D01*
X45598Y-45768D01*
X45731Y-45902D01*
X45905Y-45974D01*
X46094Y-45974D01*
X46268Y-45902D01*
X46402Y-45769D01*
X46474Y-45595D01*
X46474Y-46229D01*
X45474Y-46229D01*
X45474Y-45595D01*
X45474Y-45406D01*
X45402Y-45232D01*
X45269Y-45098D01*
X45095Y-45026D01*
X44906Y-45026D01*
X44732Y-45098D01*
X44598Y-45231D01*
X44526Y-45405D01*
X44526Y-45594D01*
X44598Y-45768D01*
X44731Y-45902D01*
X44905Y-45974D01*
X45094Y-45974D01*
X45268Y-45902D01*
X45402Y-45769D01*
X45474Y-45595D01*
X45474Y-46229D01*
X44112Y-46229D01*
X43823Y-45940D01*
X43905Y-45974D01*
X44094Y-45974D01*
X44268Y-45902D01*
X44402Y-45769D01*
X44474Y-45595D01*
X44474Y-45406D01*
X44402Y-45232D01*
X44269Y-45098D01*
X44095Y-45026D01*
X43906Y-45026D01*
X43732Y-45098D01*
X43598Y-45231D01*
X43526Y-45405D01*
X43526Y-45594D01*
X43560Y-45676D01*
X43473Y-45589D01*
X43473Y-45186D01*
X43443Y-45113D01*
X43387Y-45057D01*
X43315Y-45027D01*
X43236Y-45027D01*
X42686Y-45027D01*
X42613Y-45057D01*
X42557Y-45113D01*
X42527Y-45185D01*
X42527Y-45264D01*
X42527Y-45814D01*
X42557Y-45887D01*
X42613Y-45943D01*
X42685Y-45973D01*
X42764Y-45973D01*
X43089Y-45973D01*
X43806Y-46689D01*
X43808Y-46692D01*
X43896Y-46750D01*
X43897Y-46750D01*
X44000Y-46771D01*
X57742Y-46771D01*
X57788Y-46817D01*
X57925Y-46874D01*
X58074Y-46874D01*
X58211Y-46817D01*
X58229Y-46799D01*
X58229Y-47887D01*
X58229Y-47887D01*
G37*
G54D25*
X58229Y-47887D02*
X57808Y-48308D01*
X57750Y-48396D01*
X57746Y-48414D01*
X57728Y-48500D01*
X57729Y-48504D01*
X57729Y-49000D01*
X57729Y-49325D01*
X43499Y-49325D01*
X43499Y-47500D01*
X43473Y-47369D01*
X43473Y-47186D01*
X43443Y-47113D01*
X43387Y-47057D01*
X43315Y-47027D01*
X43236Y-47027D01*
X43130Y-47027D01*
X43081Y-47017D01*
X42282Y-46218D01*
X42153Y-46131D01*
X42000Y-46101D01*
X41665Y-46101D01*
X41519Y-45955D01*
X41519Y-45074D01*
X41508Y-44870D01*
X41452Y-44733D01*
X41361Y-44710D01*
X41071Y-45000D01*
X41361Y-45290D01*
X41452Y-45267D01*
X41519Y-45074D01*
X41519Y-45955D01*
X41074Y-45510D01*
X41130Y-45508D01*
X41267Y-45452D01*
X41290Y-45361D01*
X41035Y-45106D01*
X41000Y-45071D01*
X40929Y-45000D01*
X41000Y-44929D01*
X41035Y-44894D01*
X41290Y-44639D01*
X41267Y-44548D01*
X41074Y-44481D01*
X40870Y-44492D01*
X40774Y-44531D01*
X40774Y-43419D01*
X40905Y-43474D01*
X40909Y-43474D01*
X40967Y-43532D01*
X40968Y-43532D01*
X41097Y-43619D01*
X41250Y-43649D01*
X43000Y-43649D01*
X44500Y-43649D01*
X51000Y-43649D01*
X53750Y-43649D01*
X53903Y-43619D01*
X53999Y-43553D01*
X54097Y-43619D01*
X54250Y-43649D01*
X55585Y-43649D01*
X55968Y-44032D01*
X56961Y-45026D01*
X56906Y-45026D01*
X56732Y-45098D01*
X56598Y-45231D01*
X56526Y-45405D01*
X56526Y-45594D01*
X56598Y-45768D01*
X56731Y-45902D01*
X56905Y-45974D01*
X57094Y-45974D01*
X57268Y-45902D01*
X57402Y-45769D01*
X57474Y-45595D01*
X57474Y-45538D01*
X57526Y-45590D01*
X57526Y-45594D01*
X57598Y-45768D01*
X57731Y-45902D01*
X57905Y-45974D01*
X58094Y-45974D01*
X58229Y-45918D01*
X58229Y-46200D01*
X58212Y-46183D01*
X58075Y-46126D01*
X57926Y-46126D01*
X57789Y-46183D01*
X57742Y-46229D01*
X56473Y-46229D01*
X56473Y-45815D01*
X56473Y-45736D01*
X56473Y-45186D01*
X56443Y-45113D01*
X56387Y-45057D01*
X56315Y-45027D01*
X56236Y-45027D01*
X55686Y-45027D01*
X55613Y-45057D01*
X55557Y-45113D01*
X55527Y-45185D01*
X55527Y-45264D01*
X55527Y-45814D01*
X55557Y-45887D01*
X55613Y-45943D01*
X55685Y-45973D01*
X55764Y-45973D01*
X56314Y-45973D01*
X56387Y-45943D01*
X56443Y-45887D01*
X56473Y-45815D01*
X56473Y-46229D01*
X54519Y-46229D01*
X54519Y-45074D01*
X54508Y-44870D01*
X54452Y-44733D01*
X54361Y-44710D01*
X54290Y-44781D01*
X54290Y-44639D01*
X54267Y-44548D01*
X54074Y-44481D01*
X53870Y-44492D01*
X53733Y-44548D01*
X53710Y-44639D01*
X54000Y-44929D01*
X54290Y-44639D01*
X54290Y-44781D01*
X54071Y-45000D01*
X54361Y-45290D01*
X54452Y-45267D01*
X54519Y-45074D01*
X54519Y-46229D01*
X54290Y-46229D01*
X54290Y-45361D01*
X54000Y-45071D01*
X53929Y-45142D01*
X53929Y-45000D01*
X53639Y-44710D01*
X53548Y-44733D01*
X53481Y-44926D01*
X53492Y-45130D01*
X53548Y-45267D01*
X53639Y-45290D01*
X53929Y-45000D01*
X53929Y-45142D01*
X53710Y-45361D01*
X53733Y-45452D01*
X53926Y-45519D01*
X54130Y-45508D01*
X54267Y-45452D01*
X54290Y-45361D01*
X54290Y-46229D01*
X52519Y-46229D01*
X52519Y-45574D01*
X52508Y-45370D01*
X52452Y-45233D01*
X52361Y-45210D01*
X52290Y-45281D01*
X52290Y-45139D01*
X52267Y-45048D01*
X52074Y-44981D01*
X51870Y-44992D01*
X51733Y-45048D01*
X51710Y-45139D01*
X52000Y-45429D01*
X52290Y-45139D01*
X52290Y-45281D01*
X52071Y-45500D01*
X52361Y-45790D01*
X52452Y-45767D01*
X52519Y-45574D01*
X52519Y-46229D01*
X52290Y-46229D01*
X52290Y-45861D01*
X52000Y-45571D01*
X51929Y-45642D01*
X51929Y-45500D01*
X51639Y-45210D01*
X51548Y-45233D01*
X51481Y-45426D01*
X51492Y-45630D01*
X51548Y-45767D01*
X51639Y-45790D01*
X51929Y-45500D01*
X51929Y-45642D01*
X51710Y-45861D01*
X51733Y-45952D01*
X51926Y-46019D01*
X52130Y-46008D01*
X52267Y-45952D01*
X52290Y-45861D01*
X52290Y-46229D01*
X51474Y-46229D01*
X51474Y-45595D01*
X51474Y-45406D01*
X51402Y-45232D01*
X51269Y-45098D01*
X51095Y-45026D01*
X50906Y-45026D01*
X50732Y-45098D01*
X50598Y-45231D01*
X50526Y-45405D01*
X50526Y-45594D01*
X50598Y-45768D01*
X50731Y-45902D01*
X50905Y-45974D01*
X51094Y-45974D01*
X51268Y-45902D01*
X51402Y-45769D01*
X51474Y-45595D01*
X51474Y-46229D01*
X50474Y-46229D01*
X50474Y-45595D01*
X50474Y-45406D01*
X50402Y-45232D01*
X50269Y-45098D01*
X50095Y-45026D01*
X49906Y-45026D01*
X49732Y-45098D01*
X49598Y-45231D01*
X49526Y-45405D01*
X49526Y-45594D01*
X49598Y-45768D01*
X49731Y-45902D01*
X49905Y-45974D01*
X50094Y-45974D01*
X50268Y-45902D01*
X50402Y-45769D01*
X50474Y-45595D01*
X50474Y-46229D01*
X49474Y-46229D01*
X49474Y-45595D01*
X49474Y-45406D01*
X49402Y-45232D01*
X49269Y-45098D01*
X49095Y-45026D01*
X48906Y-45026D01*
X48732Y-45098D01*
X48598Y-45231D01*
X48526Y-45405D01*
X48526Y-45594D01*
X48598Y-45768D01*
X48731Y-45902D01*
X48905Y-45974D01*
X49094Y-45974D01*
X49268Y-45902D01*
X49402Y-45769D01*
X49474Y-45595D01*
X49474Y-46229D01*
X48474Y-46229D01*
X48474Y-45595D01*
X48474Y-45406D01*
X48402Y-45232D01*
X48269Y-45098D01*
X48095Y-45026D01*
X47906Y-45026D01*
X47732Y-45098D01*
X47598Y-45231D01*
X47526Y-45405D01*
X47526Y-45594D01*
X47598Y-45768D01*
X47731Y-45902D01*
X47905Y-45974D01*
X48094Y-45974D01*
X48268Y-45902D01*
X48402Y-45769D01*
X48474Y-45595D01*
X48474Y-46229D01*
X47474Y-46229D01*
X47474Y-45595D01*
X47474Y-45406D01*
X47402Y-45232D01*
X47269Y-45098D01*
X47095Y-45026D01*
X46906Y-45026D01*
X46732Y-45098D01*
X46598Y-45231D01*
X46526Y-45405D01*
X46526Y-45594D01*
X46598Y-45768D01*
X46731Y-45902D01*
X46905Y-45974D01*
X47094Y-45974D01*
X47268Y-45902D01*
X47402Y-45769D01*
X47474Y-45595D01*
X47474Y-46229D01*
X46474Y-46229D01*
X46474Y-45595D01*
X46474Y-45406D01*
X46402Y-45232D01*
X46269Y-45098D01*
X46095Y-45026D01*
X45906Y-45026D01*
X45732Y-45098D01*
X45598Y-45231D01*
X45526Y-45405D01*
X45526Y-45594D01*
X45598Y-45768D01*
X45731Y-45902D01*
X45905Y-45974D01*
X46094Y-45974D01*
X46268Y-45902D01*
X46402Y-45769D01*
X46474Y-45595D01*
X46474Y-46229D01*
X45474Y-46229D01*
X45474Y-45595D01*
X45474Y-45406D01*
X45402Y-45232D01*
X45269Y-45098D01*
X45095Y-45026D01*
X44906Y-45026D01*
X44732Y-45098D01*
X44598Y-45231D01*
X44526Y-45405D01*
X44526Y-45594D01*
X44598Y-45768D01*
X44731Y-45902D01*
X44905Y-45974D01*
X45094Y-45974D01*
X45268Y-45902D01*
X45402Y-45769D01*
X45474Y-45595D01*
X45474Y-46229D01*
X44112Y-46229D01*
X43823Y-45940D01*
X43905Y-45974D01*
X44094Y-45974D01*
X44268Y-45902D01*
X44402Y-45769D01*
X44474Y-45595D01*
X44474Y-45406D01*
X44402Y-45232D01*
X44269Y-45098D01*
X44095Y-45026D01*
X43906Y-45026D01*
X43732Y-45098D01*
X43598Y-45231D01*
X43526Y-45405D01*
X43526Y-45594D01*
X43560Y-45676D01*
X43473Y-45589D01*
X43473Y-45186D01*
X43443Y-45113D01*
X43387Y-45057D01*
X43315Y-45027D01*
X43236Y-45027D01*
X42686Y-45027D01*
X42613Y-45057D01*
X42557Y-45113D01*
X42527Y-45185D01*
X42527Y-45264D01*
X42527Y-45814D01*
X42557Y-45887D01*
X42613Y-45943D01*
X42685Y-45973D01*
X42764Y-45973D01*
X43089Y-45973D01*
X43806Y-46689D01*
X43808Y-46692D01*
X43896Y-46750D01*
X43897Y-46750D01*
X44000Y-46771D01*
X57742Y-46771D01*
X57788Y-46817D01*
X57925Y-46874D01*
X58074Y-46874D01*
X58211Y-46817D01*
X58229Y-46799D01*
X58229Y-47887D01*
G54D10*
G36*
X59071Y-42500D02*
X59000Y-42571D01*
X58929Y-42500D01*
X59000Y-42429D01*
X59071Y-42500D01*
X59071Y-42500D01*
G37*
G54D25*
X59071Y-42500D02*
X59000Y-42571D01*
X58929Y-42500D01*
X59000Y-42429D01*
X59071Y-42500D01*
G54D10*
G36*
X61071Y-35750D02*
X61000Y-35821D01*
X60929Y-35750D01*
X61000Y-35679D01*
X61071Y-35750D01*
X61071Y-35750D01*
G37*
G54D25*
X61071Y-35750D02*
X61000Y-35821D01*
X60929Y-35750D01*
X61000Y-35679D01*
X61071Y-35750D01*
G54D10*
G36*
X80726Y-48972D02*
X80665Y-49276D01*
X80659Y-49285D01*
X80659Y-46756D01*
X80659Y-46606D01*
X80659Y-28646D01*
X80659Y-28496D01*
X80602Y-28358D01*
X80530Y-28285D01*
X80530Y-26696D01*
X80527Y-26286D01*
X80377Y-25924D01*
X80233Y-25838D01*
X80162Y-25909D01*
X80162Y-25767D01*
X80076Y-25623D01*
X79696Y-25470D01*
X79286Y-25473D01*
X78924Y-25623D01*
X78838Y-25767D01*
X79500Y-26429D01*
X80162Y-25767D01*
X80162Y-25909D01*
X79571Y-26500D01*
X80233Y-27162D01*
X80377Y-27076D01*
X80530Y-26696D01*
X80530Y-28285D01*
X80497Y-28252D01*
X80359Y-28194D01*
X80209Y-28194D01*
X80162Y-28213D01*
X80162Y-27233D01*
X79500Y-26571D01*
X79429Y-26642D01*
X79429Y-26500D01*
X78767Y-25838D01*
X78623Y-25924D01*
X78470Y-26304D01*
X78473Y-26714D01*
X78623Y-27076D01*
X78767Y-27162D01*
X79429Y-26500D01*
X79429Y-26642D01*
X78838Y-27233D01*
X78924Y-27377D01*
X79304Y-27530D01*
X79714Y-27527D01*
X80076Y-27377D01*
X80162Y-27233D01*
X80162Y-28213D01*
X80071Y-28251D01*
X79965Y-28356D01*
X79907Y-28494D01*
X79907Y-28644D01*
X79964Y-28782D01*
X80069Y-28888D01*
X80207Y-28946D01*
X80357Y-28946D01*
X80495Y-28889D01*
X80601Y-28784D01*
X80659Y-28646D01*
X80659Y-46606D01*
X80602Y-46468D01*
X80497Y-46362D01*
X80359Y-46304D01*
X80209Y-46304D01*
X80071Y-46361D01*
X79965Y-46466D01*
X79907Y-46604D01*
X79907Y-46754D01*
X79964Y-46892D01*
X80069Y-46998D01*
X80207Y-47056D01*
X80357Y-47056D01*
X80495Y-46999D01*
X80601Y-46894D01*
X80659Y-46756D01*
X80659Y-49285D01*
X80530Y-49478D01*
X80530Y-48946D01*
X80527Y-48536D01*
X80377Y-48174D01*
X80233Y-48088D01*
X80162Y-48159D01*
X80162Y-48017D01*
X80076Y-47873D01*
X79696Y-47720D01*
X79286Y-47723D01*
X78924Y-47873D01*
X78838Y-48017D01*
X79500Y-48679D01*
X80162Y-48017D01*
X80162Y-48159D01*
X79571Y-48750D01*
X80233Y-49412D01*
X80377Y-49326D01*
X80530Y-48946D01*
X80530Y-49478D01*
X80509Y-49510D01*
X80276Y-49665D01*
X79972Y-49726D01*
X79837Y-49726D01*
X80076Y-49627D01*
X80162Y-49483D01*
X79500Y-48821D01*
X79429Y-48892D01*
X79429Y-48750D01*
X78767Y-48088D01*
X78623Y-48174D01*
X78470Y-48554D01*
X78473Y-48964D01*
X78623Y-49326D01*
X78767Y-49412D01*
X79429Y-48750D01*
X79429Y-48892D01*
X78838Y-49483D01*
X78924Y-49627D01*
X79169Y-49726D01*
X73542Y-49726D01*
X73542Y-45360D01*
X73542Y-45144D01*
X73542Y-30108D01*
X73542Y-29892D01*
X73460Y-29693D01*
X73308Y-29540D01*
X73109Y-29457D01*
X72893Y-29457D01*
X72694Y-29539D01*
X72541Y-29691D01*
X72468Y-29865D01*
X72371Y-29631D01*
X72188Y-29447D01*
X71949Y-29348D01*
X71690Y-29348D01*
X71451Y-29447D01*
X71267Y-29630D01*
X71168Y-29869D01*
X71168Y-30128D01*
X71267Y-30367D01*
X71450Y-30551D01*
X71689Y-30650D01*
X71948Y-30650D01*
X72187Y-30551D01*
X72371Y-30368D01*
X72468Y-30132D01*
X72540Y-30305D01*
X72692Y-30458D01*
X72891Y-30541D01*
X73107Y-30541D01*
X73306Y-30459D01*
X73459Y-30307D01*
X73542Y-30108D01*
X73542Y-45144D01*
X73460Y-44945D01*
X73308Y-44792D01*
X73109Y-44709D01*
X72893Y-44709D01*
X72694Y-44791D01*
X72541Y-44943D01*
X72468Y-45117D01*
X72371Y-44883D01*
X72188Y-44699D01*
X71949Y-44600D01*
X71690Y-44600D01*
X71451Y-44699D01*
X71267Y-44882D01*
X71168Y-45121D01*
X71168Y-45380D01*
X71267Y-45619D01*
X71450Y-45803D01*
X71689Y-45902D01*
X71948Y-45902D01*
X72187Y-45803D01*
X72371Y-45620D01*
X72468Y-45384D01*
X72540Y-45557D01*
X72692Y-45710D01*
X72891Y-45793D01*
X73107Y-45793D01*
X73306Y-45711D01*
X73459Y-45559D01*
X73542Y-45360D01*
X73542Y-49726D01*
X72050Y-49726D01*
X72050Y-49325D01*
X70771Y-49325D01*
X70771Y-42126D01*
X70770Y-42125D01*
X70771Y-42125D01*
X70771Y-30750D01*
X70770Y-30749D01*
X70771Y-30749D01*
X70750Y-30646D01*
X70692Y-30558D01*
X70689Y-30556D01*
X66402Y-26269D01*
X66402Y-26268D01*
X66474Y-26095D01*
X66474Y-25906D01*
X66402Y-25732D01*
X66269Y-25598D01*
X66095Y-25526D01*
X65906Y-25526D01*
X65732Y-25598D01*
X65598Y-25731D01*
X65526Y-25905D01*
X65526Y-26094D01*
X65598Y-26268D01*
X65731Y-26402D01*
X65800Y-26430D01*
X65808Y-26442D01*
X70229Y-30862D01*
X70229Y-31095D01*
X65402Y-26269D01*
X65402Y-26268D01*
X65474Y-26095D01*
X65474Y-25906D01*
X65402Y-25732D01*
X65269Y-25598D01*
X65095Y-25526D01*
X64906Y-25526D01*
X64732Y-25598D01*
X64598Y-25731D01*
X64526Y-25905D01*
X64526Y-26094D01*
X64598Y-26268D01*
X64731Y-26402D01*
X64800Y-26430D01*
X64808Y-26442D01*
X69854Y-31487D01*
X69854Y-31720D01*
X64402Y-26269D01*
X64402Y-26268D01*
X64474Y-26095D01*
X64474Y-25906D01*
X64402Y-25732D01*
X64269Y-25598D01*
X64095Y-25526D01*
X63906Y-25526D01*
X63732Y-25598D01*
X63598Y-25731D01*
X63526Y-25905D01*
X63526Y-26094D01*
X63598Y-26268D01*
X63731Y-26402D01*
X63800Y-26430D01*
X63808Y-26442D01*
X69479Y-32112D01*
X69479Y-32345D01*
X63402Y-26269D01*
X63402Y-26268D01*
X63474Y-26095D01*
X63474Y-25906D01*
X63402Y-25732D01*
X63269Y-25598D01*
X63095Y-25526D01*
X62906Y-25526D01*
X62732Y-25598D01*
X62598Y-25731D01*
X62526Y-25905D01*
X62526Y-26094D01*
X62598Y-26268D01*
X62731Y-26402D01*
X62800Y-26430D01*
X62808Y-26442D01*
X69104Y-32737D01*
X69104Y-32750D01*
X69104Y-32970D01*
X62402Y-26269D01*
X62402Y-26268D01*
X62474Y-26095D01*
X62474Y-25906D01*
X62402Y-25732D01*
X62269Y-25598D01*
X62095Y-25526D01*
X61906Y-25526D01*
X61732Y-25598D01*
X61598Y-25731D01*
X61526Y-25905D01*
X61526Y-26094D01*
X61598Y-26268D01*
X61731Y-26402D01*
X61800Y-26430D01*
X61808Y-26442D01*
X68729Y-33362D01*
X68729Y-40887D01*
X68519Y-41097D01*
X68519Y-40824D01*
X68519Y-37574D01*
X68508Y-37370D01*
X68474Y-37286D01*
X68474Y-34595D01*
X68474Y-34406D01*
X68402Y-34232D01*
X68269Y-34098D01*
X68095Y-34026D01*
X67906Y-34026D01*
X67732Y-34098D01*
X67598Y-34231D01*
X67526Y-34405D01*
X67526Y-34594D01*
X67598Y-34768D01*
X67731Y-34902D01*
X67905Y-34974D01*
X68094Y-34974D01*
X68268Y-34902D01*
X68402Y-34769D01*
X68474Y-34595D01*
X68474Y-37286D01*
X68452Y-37233D01*
X68361Y-37210D01*
X68290Y-37281D01*
X68290Y-37139D01*
X68267Y-37048D01*
X68074Y-36981D01*
X67870Y-36992D01*
X67733Y-37048D01*
X67710Y-37139D01*
X68000Y-37429D01*
X68290Y-37139D01*
X68290Y-37281D01*
X68071Y-37500D01*
X68361Y-37790D01*
X68452Y-37767D01*
X68519Y-37574D01*
X68519Y-40824D01*
X68508Y-40620D01*
X68452Y-40483D01*
X68361Y-40460D01*
X68071Y-40750D01*
X68361Y-41040D01*
X68452Y-41017D01*
X68519Y-40824D01*
X68519Y-41097D01*
X68290Y-41326D01*
X68290Y-41111D01*
X68000Y-40821D01*
X67710Y-41111D01*
X67733Y-41202D01*
X67926Y-41269D01*
X68130Y-41258D01*
X68267Y-41202D01*
X68290Y-41111D01*
X68290Y-41326D01*
X68090Y-41526D01*
X67906Y-41526D01*
X67732Y-41598D01*
X67598Y-41731D01*
X67526Y-41905D01*
X67526Y-42094D01*
X67598Y-42268D01*
X67731Y-42402D01*
X67905Y-42474D01*
X68094Y-42474D01*
X68259Y-42405D01*
X68251Y-42425D01*
X68251Y-42574D01*
X68308Y-42711D01*
X68413Y-42817D01*
X68420Y-42820D01*
X68240Y-43001D01*
X68176Y-43001D01*
X68039Y-43058D01*
X67933Y-43163D01*
X67876Y-43300D01*
X67876Y-43449D01*
X67933Y-43586D01*
X68038Y-43692D01*
X68045Y-43695D01*
X67887Y-43854D01*
X67125Y-43854D01*
X67021Y-43875D01*
X66933Y-43933D01*
X66931Y-43935D01*
X66865Y-44001D01*
X66801Y-44001D01*
X66664Y-44058D01*
X66558Y-44163D01*
X66501Y-44300D01*
X66501Y-44449D01*
X66558Y-44586D01*
X66663Y-44692D01*
X66671Y-44695D01*
X66615Y-44751D01*
X66551Y-44751D01*
X66414Y-44808D01*
X66308Y-44913D01*
X66251Y-45050D01*
X66251Y-45199D01*
X66308Y-45336D01*
X66413Y-45442D01*
X66550Y-45499D01*
X66699Y-45499D01*
X66836Y-45442D01*
X66942Y-45337D01*
X66999Y-45200D01*
X66999Y-45134D01*
X67362Y-44771D01*
X67534Y-44771D01*
X67481Y-44926D01*
X67492Y-45130D01*
X67548Y-45267D01*
X67639Y-45290D01*
X67894Y-45035D01*
X67929Y-45000D01*
X68000Y-44929D01*
X68071Y-45000D01*
X68106Y-45035D01*
X68361Y-45290D01*
X68452Y-45267D01*
X68519Y-45074D01*
X68508Y-44870D01*
X68452Y-44733D01*
X68416Y-44724D01*
X68448Y-44693D01*
X68381Y-44626D01*
X69384Y-43624D01*
X69449Y-43624D01*
X69586Y-43567D01*
X69692Y-43462D01*
X69749Y-43325D01*
X69749Y-43259D01*
X70689Y-42318D01*
X70691Y-42317D01*
X70692Y-42317D01*
X70750Y-42229D01*
X70771Y-42126D01*
X70771Y-49325D01*
X70271Y-49325D01*
X70271Y-48500D01*
X70250Y-48396D01*
X70192Y-48308D01*
X70189Y-48306D01*
X68519Y-46635D01*
X68290Y-46406D01*
X68290Y-45361D01*
X68000Y-45071D01*
X67710Y-45361D01*
X67733Y-45452D01*
X67926Y-45519D01*
X68130Y-45508D01*
X68267Y-45452D01*
X68290Y-45361D01*
X68290Y-46406D01*
X67692Y-45808D01*
X67604Y-45750D01*
X67585Y-45746D01*
X67500Y-45728D01*
X67495Y-45729D01*
X65465Y-45729D01*
X65519Y-45574D01*
X65508Y-45370D01*
X65452Y-45233D01*
X65361Y-45210D01*
X65106Y-45465D01*
X65071Y-45500D01*
X65000Y-45571D01*
X64929Y-45500D01*
X65000Y-45429D01*
X65035Y-45394D01*
X65290Y-45139D01*
X65267Y-45048D01*
X65074Y-44981D01*
X64870Y-44992D01*
X64771Y-45032D01*
X64771Y-42918D01*
X64905Y-42974D01*
X65094Y-42974D01*
X65268Y-42902D01*
X65402Y-42769D01*
X65474Y-42595D01*
X65474Y-42406D01*
X65402Y-42232D01*
X65269Y-42098D01*
X65095Y-42026D01*
X64906Y-42026D01*
X64771Y-42081D01*
X64771Y-41918D01*
X64905Y-41974D01*
X65094Y-41974D01*
X65268Y-41902D01*
X65402Y-41769D01*
X65474Y-41595D01*
X65474Y-41406D01*
X65402Y-41232D01*
X65269Y-41098D01*
X65095Y-41026D01*
X64906Y-41026D01*
X64771Y-41081D01*
X64771Y-39168D01*
X64905Y-39224D01*
X65094Y-39224D01*
X65229Y-39168D01*
X65229Y-40620D01*
X65228Y-40625D01*
X65246Y-40710D01*
X65250Y-40729D01*
X65308Y-40817D01*
X65626Y-41135D01*
X65626Y-41199D01*
X65683Y-41336D01*
X65788Y-41442D01*
X65925Y-41499D01*
X66074Y-41499D01*
X66211Y-41442D01*
X66317Y-41337D01*
X66353Y-41249D01*
X66449Y-41249D01*
X66586Y-41192D01*
X66692Y-41087D01*
X66728Y-40999D01*
X66824Y-40999D01*
X66961Y-40942D01*
X67005Y-40898D01*
X67006Y-40903D01*
X67093Y-41032D01*
X67222Y-41119D01*
X67375Y-41149D01*
X67528Y-41119D01*
X67657Y-41032D01*
X67677Y-41001D01*
X67893Y-40784D01*
X67894Y-40785D01*
X67929Y-40750D01*
X68000Y-40679D01*
X68035Y-40644D01*
X68290Y-40389D01*
X68267Y-40298D01*
X68074Y-40231D01*
X67870Y-40242D01*
X67774Y-40281D01*
X67774Y-39540D01*
X68090Y-39224D01*
X68094Y-39224D01*
X68268Y-39152D01*
X68402Y-39019D01*
X68474Y-38845D01*
X68474Y-38656D01*
X68402Y-38482D01*
X68290Y-38369D01*
X68290Y-37861D01*
X68000Y-37571D01*
X67929Y-37642D01*
X67929Y-37500D01*
X67639Y-37210D01*
X67548Y-37233D01*
X67481Y-37426D01*
X67492Y-37630D01*
X67548Y-37767D01*
X67639Y-37790D01*
X67929Y-37500D01*
X67929Y-37642D01*
X67710Y-37861D01*
X67733Y-37952D01*
X67926Y-38019D01*
X68130Y-38008D01*
X68267Y-37952D01*
X68290Y-37861D01*
X68290Y-38369D01*
X68269Y-38348D01*
X68095Y-38276D01*
X67906Y-38276D01*
X67732Y-38348D01*
X67598Y-38481D01*
X67526Y-38655D01*
X67526Y-38659D01*
X67474Y-38711D01*
X67474Y-37595D01*
X67474Y-37406D01*
X67474Y-34595D01*
X67474Y-34406D01*
X67402Y-34232D01*
X67269Y-34098D01*
X67095Y-34026D01*
X66906Y-34026D01*
X66732Y-34098D01*
X66598Y-34231D01*
X66526Y-34405D01*
X66526Y-34594D01*
X66598Y-34768D01*
X66731Y-34902D01*
X66905Y-34974D01*
X67094Y-34974D01*
X67268Y-34902D01*
X67402Y-34769D01*
X67474Y-34595D01*
X67474Y-37406D01*
X67402Y-37232D01*
X67269Y-37098D01*
X67095Y-37026D01*
X66906Y-37026D01*
X66732Y-37098D01*
X66598Y-37231D01*
X66526Y-37405D01*
X66526Y-37594D01*
X66598Y-37768D01*
X66731Y-37902D01*
X66905Y-37974D01*
X67094Y-37974D01*
X67268Y-37902D01*
X67402Y-37769D01*
X67474Y-37595D01*
X67474Y-38711D01*
X67093Y-39093D01*
X67006Y-39222D01*
X66976Y-39375D01*
X66976Y-40322D01*
X66962Y-40308D01*
X66825Y-40251D01*
X66760Y-40251D01*
X66521Y-40012D01*
X66521Y-33750D01*
X66521Y-33500D01*
X66520Y-33499D01*
X66521Y-33499D01*
X66519Y-33489D01*
X66519Y-32074D01*
X66508Y-31870D01*
X66452Y-31733D01*
X66361Y-31710D01*
X66290Y-31781D01*
X66290Y-31639D01*
X66267Y-31548D01*
X66074Y-31481D01*
X65870Y-31492D01*
X65733Y-31548D01*
X65710Y-31639D01*
X66000Y-31929D01*
X66290Y-31639D01*
X66290Y-31781D01*
X66071Y-32000D01*
X66361Y-32290D01*
X66452Y-32267D01*
X66519Y-32074D01*
X66519Y-33489D01*
X66500Y-33396D01*
X66442Y-33308D01*
X66439Y-33306D01*
X66290Y-33157D01*
X66290Y-32361D01*
X66000Y-32071D01*
X65929Y-32142D01*
X65929Y-32000D01*
X65639Y-31710D01*
X65548Y-31733D01*
X65481Y-31926D01*
X65492Y-32130D01*
X65548Y-32267D01*
X65639Y-32290D01*
X65929Y-32000D01*
X65929Y-32142D01*
X65710Y-32361D01*
X65733Y-32452D01*
X65926Y-32519D01*
X66130Y-32508D01*
X66267Y-32452D01*
X66290Y-32361D01*
X66290Y-33157D01*
X65402Y-32269D01*
X65402Y-32268D01*
X65474Y-32095D01*
X65474Y-31906D01*
X65402Y-31732D01*
X65269Y-31598D01*
X65095Y-31526D01*
X64906Y-31526D01*
X64732Y-31598D01*
X64598Y-31731D01*
X64526Y-31905D01*
X64526Y-32094D01*
X64598Y-32268D01*
X64731Y-32402D01*
X64800Y-32430D01*
X64808Y-32442D01*
X65979Y-33612D01*
X65979Y-33750D01*
X65979Y-33845D01*
X64402Y-32269D01*
X64402Y-32268D01*
X64474Y-32095D01*
X64474Y-31906D01*
X64402Y-31732D01*
X64269Y-31598D01*
X64095Y-31526D01*
X63906Y-31526D01*
X63732Y-31598D01*
X63598Y-31731D01*
X63526Y-31905D01*
X63526Y-32094D01*
X63598Y-32268D01*
X63731Y-32402D01*
X63800Y-32430D01*
X63808Y-32442D01*
X65604Y-34237D01*
X65604Y-34250D01*
X65604Y-34470D01*
X63402Y-32269D01*
X63402Y-32268D01*
X63474Y-32095D01*
X63474Y-31906D01*
X63402Y-31732D01*
X63269Y-31598D01*
X63095Y-31526D01*
X62906Y-31526D01*
X62732Y-31598D01*
X62598Y-31731D01*
X62526Y-31905D01*
X62526Y-32094D01*
X62598Y-32268D01*
X62731Y-32402D01*
X62800Y-32430D01*
X62808Y-32442D01*
X65229Y-34862D01*
X65229Y-35000D01*
X65229Y-35331D01*
X65095Y-35276D01*
X64906Y-35276D01*
X64732Y-35348D01*
X64598Y-35481D01*
X64526Y-35655D01*
X64526Y-35844D01*
X64598Y-36018D01*
X64731Y-36152D01*
X64905Y-36224D01*
X65094Y-36224D01*
X65229Y-36168D01*
X65229Y-38331D01*
X65095Y-38276D01*
X64906Y-38276D01*
X64771Y-38331D01*
X64771Y-37750D01*
X64750Y-37647D01*
X64750Y-37646D01*
X64692Y-37558D01*
X64689Y-37556D01*
X64519Y-37385D01*
X64519Y-35824D01*
X64508Y-35620D01*
X64452Y-35483D01*
X64361Y-35460D01*
X64071Y-35750D01*
X64361Y-36040D01*
X64452Y-36017D01*
X64519Y-35824D01*
X64519Y-37385D01*
X63771Y-36637D01*
X63771Y-36215D01*
X63926Y-36269D01*
X64130Y-36258D01*
X64267Y-36202D01*
X64290Y-36111D01*
X64035Y-35856D01*
X64000Y-35821D01*
X63929Y-35750D01*
X64000Y-35679D01*
X64035Y-35644D01*
X64290Y-35389D01*
X64267Y-35298D01*
X64074Y-35231D01*
X63870Y-35242D01*
X63733Y-35298D01*
X63723Y-35332D01*
X63693Y-35302D01*
X63689Y-35305D01*
X63374Y-34990D01*
X63374Y-34926D01*
X63317Y-34789D01*
X63212Y-34683D01*
X63075Y-34626D01*
X62926Y-34626D01*
X62789Y-34683D01*
X62683Y-34788D01*
X62626Y-34925D01*
X62626Y-35074D01*
X62683Y-35211D01*
X62758Y-35287D01*
X62733Y-35298D01*
X62710Y-35389D01*
X62965Y-35644D01*
X63000Y-35679D01*
X63071Y-35750D01*
X63000Y-35821D01*
X62965Y-35856D01*
X62929Y-35892D01*
X62929Y-35750D01*
X62639Y-35460D01*
X62548Y-35483D01*
X62503Y-35609D01*
X62452Y-35483D01*
X62361Y-35460D01*
X62071Y-35750D01*
X62361Y-36040D01*
X62452Y-36017D01*
X62496Y-35890D01*
X62548Y-36017D01*
X62639Y-36040D01*
X62929Y-35750D01*
X62929Y-35892D01*
X62710Y-36111D01*
X62733Y-36202D01*
X62926Y-36269D01*
X63130Y-36258D01*
X63229Y-36217D01*
X63229Y-36745D01*
X63228Y-36750D01*
X63246Y-36835D01*
X63250Y-36854D01*
X63308Y-36942D01*
X64229Y-37862D01*
X64229Y-38331D01*
X64095Y-38276D01*
X63906Y-38276D01*
X63732Y-38348D01*
X63598Y-38481D01*
X63526Y-38655D01*
X63526Y-38844D01*
X63598Y-39018D01*
X63729Y-39149D01*
X63729Y-41100D01*
X63598Y-41231D01*
X63526Y-41405D01*
X63526Y-41594D01*
X63598Y-41768D01*
X63731Y-41902D01*
X63905Y-41974D01*
X64094Y-41974D01*
X64229Y-41918D01*
X64229Y-42081D01*
X64095Y-42026D01*
X63906Y-42026D01*
X63732Y-42098D01*
X63598Y-42231D01*
X63526Y-42405D01*
X63526Y-42594D01*
X63598Y-42768D01*
X63731Y-42902D01*
X63905Y-42974D01*
X64094Y-42974D01*
X64229Y-42918D01*
X64229Y-45081D01*
X64095Y-45026D01*
X63906Y-45026D01*
X63732Y-45098D01*
X63598Y-45231D01*
X63526Y-45405D01*
X63526Y-45594D01*
X63598Y-45768D01*
X63731Y-45902D01*
X63905Y-45974D01*
X64094Y-45974D01*
X64268Y-45902D01*
X64276Y-45893D01*
X64308Y-45942D01*
X64467Y-46101D01*
X63474Y-46101D01*
X63474Y-45595D01*
X63474Y-45406D01*
X63402Y-45232D01*
X63269Y-45098D01*
X63095Y-45026D01*
X62906Y-45026D01*
X62732Y-45098D01*
X62598Y-45231D01*
X62526Y-45405D01*
X62526Y-45594D01*
X62598Y-45768D01*
X62731Y-45902D01*
X62905Y-45974D01*
X63094Y-45974D01*
X63268Y-45902D01*
X63402Y-45769D01*
X63474Y-45595D01*
X63474Y-46101D01*
X62500Y-46101D01*
X62347Y-46131D01*
X62218Y-46218D01*
X62131Y-46347D01*
X62101Y-46500D01*
X62131Y-46653D01*
X62218Y-46782D01*
X62347Y-46869D01*
X62500Y-46899D01*
X64500Y-46899D01*
X65791Y-46899D01*
X65733Y-46923D01*
X65710Y-47014D01*
X66000Y-47304D01*
X66290Y-47014D01*
X66267Y-46923D01*
X66197Y-46899D01*
X66960Y-46899D01*
X67517Y-47456D01*
X67527Y-47505D01*
X67527Y-47689D01*
X67557Y-47762D01*
X67613Y-47818D01*
X67685Y-47848D01*
X67764Y-47848D01*
X67767Y-47848D01*
X68501Y-48582D01*
X68501Y-49325D01*
X66519Y-49325D01*
X66519Y-47449D01*
X66508Y-47245D01*
X66452Y-47108D01*
X66361Y-47085D01*
X66071Y-47375D01*
X66361Y-47665D01*
X66452Y-47642D01*
X66519Y-47449D01*
X66519Y-49325D01*
X66290Y-49325D01*
X66290Y-47736D01*
X66000Y-47446D01*
X65929Y-47517D01*
X65929Y-47375D01*
X65639Y-47085D01*
X65548Y-47108D01*
X65481Y-47301D01*
X65492Y-47505D01*
X65548Y-47642D01*
X65639Y-47665D01*
X65929Y-47375D01*
X65929Y-47517D01*
X65710Y-47736D01*
X65733Y-47827D01*
X65926Y-47894D01*
X66130Y-47883D01*
X66267Y-47827D01*
X66290Y-47736D01*
X66290Y-49325D01*
X61271Y-49325D01*
X61271Y-49000D01*
X61271Y-48625D01*
X61271Y-48613D01*
X61692Y-48192D01*
X61750Y-48104D01*
X61750Y-48103D01*
X61771Y-48000D01*
X61771Y-45918D01*
X61905Y-45974D01*
X62094Y-45974D01*
X62268Y-45902D01*
X62402Y-45769D01*
X62474Y-45595D01*
X62474Y-45406D01*
X62402Y-45232D01*
X62269Y-45098D01*
X62095Y-45026D01*
X61906Y-45026D01*
X61771Y-45081D01*
X61771Y-42918D01*
X61905Y-42974D01*
X62094Y-42974D01*
X62268Y-42902D01*
X62402Y-42769D01*
X62474Y-42595D01*
X62474Y-42409D01*
X62559Y-42324D01*
X62526Y-42405D01*
X62526Y-42594D01*
X62598Y-42768D01*
X62731Y-42902D01*
X62905Y-42974D01*
X63094Y-42974D01*
X63268Y-42902D01*
X63402Y-42769D01*
X63474Y-42595D01*
X63474Y-42406D01*
X63402Y-42232D01*
X63269Y-42098D01*
X63095Y-42026D01*
X62906Y-42026D01*
X62823Y-42060D01*
X62909Y-41974D01*
X63094Y-41974D01*
X63268Y-41902D01*
X63402Y-41769D01*
X63474Y-41595D01*
X63474Y-41406D01*
X63402Y-41232D01*
X63271Y-41100D01*
X63271Y-39149D01*
X63402Y-39019D01*
X63474Y-38845D01*
X63474Y-38656D01*
X63402Y-38482D01*
X63269Y-38348D01*
X63095Y-38276D01*
X62906Y-38276D01*
X62732Y-38348D01*
X62598Y-38481D01*
X62526Y-38655D01*
X62526Y-38844D01*
X62598Y-39018D01*
X62729Y-39149D01*
X62729Y-41100D01*
X62598Y-41231D01*
X62526Y-41405D01*
X62526Y-41590D01*
X62440Y-41676D01*
X62474Y-41595D01*
X62474Y-41406D01*
X62402Y-41232D01*
X62271Y-41100D01*
X62271Y-39149D01*
X62402Y-39019D01*
X62474Y-38845D01*
X62474Y-38656D01*
X62402Y-38482D01*
X62269Y-38348D01*
X62095Y-38276D01*
X61906Y-38276D01*
X61771Y-38331D01*
X61771Y-38250D01*
X61750Y-38146D01*
X61692Y-38058D01*
X61689Y-38056D01*
X60703Y-37070D01*
X60711Y-37067D01*
X60817Y-36962D01*
X60874Y-36825D01*
X60874Y-36676D01*
X60817Y-36539D01*
X60771Y-36492D01*
X60771Y-36215D01*
X60926Y-36269D01*
X61130Y-36258D01*
X61229Y-36217D01*
X61229Y-36492D01*
X61183Y-36538D01*
X61126Y-36675D01*
X61126Y-36824D01*
X61183Y-36961D01*
X61288Y-37067D01*
X61425Y-37124D01*
X61574Y-37124D01*
X61711Y-37067D01*
X61817Y-36962D01*
X61874Y-36825D01*
X61874Y-36676D01*
X61817Y-36539D01*
X61771Y-36492D01*
X61771Y-36215D01*
X61926Y-36269D01*
X62130Y-36258D01*
X62267Y-36202D01*
X62290Y-36111D01*
X62035Y-35856D01*
X62000Y-35821D01*
X61929Y-35750D01*
X62000Y-35679D01*
X62035Y-35644D01*
X62290Y-35389D01*
X62267Y-35298D01*
X62074Y-35231D01*
X61870Y-35242D01*
X61771Y-35282D01*
X61771Y-32418D01*
X61905Y-32474D01*
X62094Y-32474D01*
X62268Y-32402D01*
X62402Y-32269D01*
X62474Y-32095D01*
X62474Y-31906D01*
X62402Y-31732D01*
X62269Y-31598D01*
X62095Y-31526D01*
X61906Y-31526D01*
X61771Y-31581D01*
X61771Y-29250D01*
X61750Y-29147D01*
X61750Y-29146D01*
X61692Y-29058D01*
X61271Y-28637D01*
X61271Y-26399D01*
X61402Y-26269D01*
X61474Y-26095D01*
X61474Y-25906D01*
X61402Y-25732D01*
X61269Y-25598D01*
X61095Y-25526D01*
X60906Y-25526D01*
X60732Y-25598D01*
X60598Y-25731D01*
X60526Y-25905D01*
X60526Y-26094D01*
X60598Y-26268D01*
X60729Y-26399D01*
X60729Y-28745D01*
X60728Y-28750D01*
X60746Y-28835D01*
X60750Y-28854D01*
X60808Y-28942D01*
X61229Y-29363D01*
X61229Y-31581D01*
X61095Y-31526D01*
X60906Y-31526D01*
X60771Y-31581D01*
X60771Y-29250D01*
X60750Y-29147D01*
X60750Y-29146D01*
X60692Y-29058D01*
X60271Y-28637D01*
X60271Y-26399D01*
X60402Y-26269D01*
X60474Y-26095D01*
X60474Y-25906D01*
X60402Y-25732D01*
X60269Y-25598D01*
X60095Y-25526D01*
X59906Y-25526D01*
X59732Y-25598D01*
X59598Y-25731D01*
X59526Y-25905D01*
X59526Y-26094D01*
X59598Y-26268D01*
X59729Y-26399D01*
X59729Y-28745D01*
X59728Y-28750D01*
X59746Y-28835D01*
X59750Y-28854D01*
X59808Y-28942D01*
X60229Y-29363D01*
X60229Y-31581D01*
X60095Y-31526D01*
X59906Y-31526D01*
X59732Y-31598D01*
X59598Y-31731D01*
X59526Y-31905D01*
X59526Y-32094D01*
X59598Y-32268D01*
X59731Y-32402D01*
X59905Y-32474D01*
X60094Y-32474D01*
X60229Y-32418D01*
X60229Y-35284D01*
X60074Y-35231D01*
X59870Y-35242D01*
X59733Y-35298D01*
X59710Y-35389D01*
X59965Y-35644D01*
X60000Y-35679D01*
X60071Y-35750D01*
X60000Y-35821D01*
X59929Y-35750D01*
X59894Y-35715D01*
X59639Y-35460D01*
X59548Y-35483D01*
X59481Y-35676D01*
X59490Y-35856D01*
X59474Y-35840D01*
X59474Y-35656D01*
X59402Y-35482D01*
X59269Y-35348D01*
X59095Y-35276D01*
X58906Y-35276D01*
X58771Y-35331D01*
X58771Y-32418D01*
X58905Y-32474D01*
X59094Y-32474D01*
X59268Y-32402D01*
X59402Y-32269D01*
X59474Y-32095D01*
X59474Y-31906D01*
X59402Y-31732D01*
X59269Y-31598D01*
X59095Y-31526D01*
X58906Y-31526D01*
X58771Y-31581D01*
X58771Y-29363D01*
X59192Y-28942D01*
X59250Y-28854D01*
X59250Y-28853D01*
X59271Y-28750D01*
X59271Y-26399D01*
X59402Y-26269D01*
X59474Y-26095D01*
X59474Y-25906D01*
X59402Y-25732D01*
X59269Y-25598D01*
X59095Y-25526D01*
X58906Y-25526D01*
X58732Y-25598D01*
X58598Y-25731D01*
X58526Y-25905D01*
X58526Y-26094D01*
X58598Y-26268D01*
X58729Y-26399D01*
X58729Y-28637D01*
X58308Y-29058D01*
X58250Y-29146D01*
X58246Y-29164D01*
X58228Y-29250D01*
X58229Y-29254D01*
X58229Y-31581D01*
X58095Y-31526D01*
X57906Y-31526D01*
X57771Y-31581D01*
X57771Y-29363D01*
X58192Y-28942D01*
X58250Y-28854D01*
X58250Y-28853D01*
X58271Y-28750D01*
X58271Y-26399D01*
X58402Y-26269D01*
X58474Y-26095D01*
X58474Y-25906D01*
X58402Y-25732D01*
X58269Y-25598D01*
X58095Y-25526D01*
X57906Y-25526D01*
X57732Y-25598D01*
X57598Y-25731D01*
X57526Y-25905D01*
X57526Y-26094D01*
X57598Y-26268D01*
X57729Y-26399D01*
X57729Y-28637D01*
X57308Y-29058D01*
X57250Y-29146D01*
X57246Y-29164D01*
X57228Y-29250D01*
X57229Y-29254D01*
X57229Y-31581D01*
X57095Y-31526D01*
X56906Y-31526D01*
X56771Y-31581D01*
X56771Y-29363D01*
X57192Y-28942D01*
X57250Y-28854D01*
X57250Y-28853D01*
X57271Y-28750D01*
X57271Y-26399D01*
X57402Y-26269D01*
X57474Y-26095D01*
X57474Y-25906D01*
X57402Y-25732D01*
X57269Y-25598D01*
X57095Y-25526D01*
X56906Y-25526D01*
X56732Y-25598D01*
X56598Y-25731D01*
X56526Y-25905D01*
X56526Y-26094D01*
X56598Y-26268D01*
X56729Y-26399D01*
X56729Y-28637D01*
X56308Y-29058D01*
X56250Y-29146D01*
X56246Y-29164D01*
X56228Y-29250D01*
X56229Y-29254D01*
X56229Y-31581D01*
X56095Y-31526D01*
X55906Y-31526D01*
X55771Y-31581D01*
X55771Y-29363D01*
X56192Y-28942D01*
X56250Y-28854D01*
X56250Y-28853D01*
X56271Y-28750D01*
X56271Y-26399D01*
X56402Y-26269D01*
X56474Y-26095D01*
X56474Y-25906D01*
X56402Y-25732D01*
X56269Y-25598D01*
X56095Y-25526D01*
X55906Y-25526D01*
X55732Y-25598D01*
X55598Y-25731D01*
X55526Y-25905D01*
X55526Y-26094D01*
X55598Y-26268D01*
X55729Y-26399D01*
X55729Y-28637D01*
X55474Y-28892D01*
X55474Y-26095D01*
X55474Y-25906D01*
X55402Y-25732D01*
X55269Y-25598D01*
X55095Y-25526D01*
X54906Y-25526D01*
X54732Y-25598D01*
X54598Y-25731D01*
X54526Y-25905D01*
X54526Y-26094D01*
X54598Y-26268D01*
X54731Y-26402D01*
X54905Y-26474D01*
X55094Y-26474D01*
X55268Y-26402D01*
X55402Y-26269D01*
X55474Y-26095D01*
X55474Y-28892D01*
X55308Y-29058D01*
X55250Y-29146D01*
X55246Y-29164D01*
X55228Y-29250D01*
X55229Y-29254D01*
X55229Y-31581D01*
X55095Y-31526D01*
X54906Y-31526D01*
X54771Y-31581D01*
X54771Y-29250D01*
X54750Y-29147D01*
X54750Y-29146D01*
X54692Y-29058D01*
X54271Y-28637D01*
X54271Y-26399D01*
X54402Y-26269D01*
X54474Y-26095D01*
X54474Y-25906D01*
X54402Y-25732D01*
X54269Y-25598D01*
X54095Y-25526D01*
X53906Y-25526D01*
X53732Y-25598D01*
X53598Y-25731D01*
X53526Y-25905D01*
X53526Y-26094D01*
X53598Y-26268D01*
X53729Y-26399D01*
X53729Y-28745D01*
X53728Y-28750D01*
X53746Y-28835D01*
X53750Y-28854D01*
X53808Y-28942D01*
X54229Y-29363D01*
X54229Y-31581D01*
X54095Y-31526D01*
X53906Y-31526D01*
X53732Y-31598D01*
X53598Y-31731D01*
X53526Y-31905D01*
X53526Y-32094D01*
X53598Y-32268D01*
X53729Y-32399D01*
X53729Y-33245D01*
X53728Y-33250D01*
X53746Y-33335D01*
X53750Y-33354D01*
X53808Y-33442D01*
X55229Y-34862D01*
X55229Y-35331D01*
X55095Y-35276D01*
X54906Y-35276D01*
X54771Y-35331D01*
X54771Y-34750D01*
X54750Y-34647D01*
X54750Y-34646D01*
X54692Y-34558D01*
X54689Y-34556D01*
X53271Y-33137D01*
X53271Y-32473D01*
X53314Y-32473D01*
X53387Y-32443D01*
X53443Y-32387D01*
X53473Y-32315D01*
X53473Y-32236D01*
X53473Y-31686D01*
X53443Y-31613D01*
X53387Y-31557D01*
X53315Y-31527D01*
X53236Y-31527D01*
X52686Y-31527D01*
X52613Y-31557D01*
X52557Y-31613D01*
X52527Y-31685D01*
X52527Y-31764D01*
X52527Y-32314D01*
X52557Y-32387D01*
X52613Y-32443D01*
X52685Y-32473D01*
X52729Y-32473D01*
X52729Y-33245D01*
X52728Y-33250D01*
X52746Y-33335D01*
X52750Y-33354D01*
X52808Y-33442D01*
X54229Y-34862D01*
X54229Y-35284D01*
X54074Y-35231D01*
X53870Y-35242D01*
X53733Y-35298D01*
X53710Y-35389D01*
X53965Y-35644D01*
X54000Y-35679D01*
X54071Y-35750D01*
X54000Y-35821D01*
X53965Y-35856D01*
X53929Y-35892D01*
X53929Y-35750D01*
X53639Y-35460D01*
X53548Y-35483D01*
X53503Y-35609D01*
X53452Y-35483D01*
X53361Y-35460D01*
X53290Y-35531D01*
X53290Y-35389D01*
X53267Y-35298D01*
X53074Y-35231D01*
X52870Y-35242D01*
X52733Y-35298D01*
X52710Y-35389D01*
X53000Y-35679D01*
X53290Y-35389D01*
X53290Y-35531D01*
X53071Y-35750D01*
X53361Y-36040D01*
X53452Y-36017D01*
X53496Y-35890D01*
X53548Y-36017D01*
X53639Y-36040D01*
X53929Y-35750D01*
X53929Y-35892D01*
X53710Y-36111D01*
X53733Y-36202D01*
X53926Y-36269D01*
X54130Y-36258D01*
X54229Y-36217D01*
X54229Y-37495D01*
X54228Y-37500D01*
X54246Y-37585D01*
X54250Y-37604D01*
X54308Y-37692D01*
X54896Y-38279D01*
X54732Y-38348D01*
X54598Y-38481D01*
X54526Y-38655D01*
X54526Y-38844D01*
X54598Y-39018D01*
X54731Y-39152D01*
X54905Y-39224D01*
X55094Y-39224D01*
X55268Y-39152D01*
X55402Y-39019D01*
X55470Y-38854D01*
X56242Y-39626D01*
X56176Y-39626D01*
X56039Y-39683D01*
X55992Y-39729D01*
X54474Y-39729D01*
X54474Y-38845D01*
X54474Y-38656D01*
X54402Y-38482D01*
X54269Y-38348D01*
X54095Y-38276D01*
X53906Y-38276D01*
X53732Y-38348D01*
X53598Y-38481D01*
X53526Y-38655D01*
X53526Y-38844D01*
X53598Y-39018D01*
X53731Y-39152D01*
X53905Y-39224D01*
X54094Y-39224D01*
X54268Y-39152D01*
X54402Y-39019D01*
X54474Y-38845D01*
X54474Y-39729D01*
X53474Y-39729D01*
X53474Y-38845D01*
X53474Y-38656D01*
X53402Y-38482D01*
X53290Y-38369D01*
X53290Y-36111D01*
X53000Y-35821D01*
X52929Y-35892D01*
X52929Y-35750D01*
X52639Y-35460D01*
X52548Y-35483D01*
X52503Y-35609D01*
X52452Y-35483D01*
X52361Y-35460D01*
X52290Y-35531D01*
X52290Y-35389D01*
X52267Y-35298D01*
X52074Y-35231D01*
X51870Y-35242D01*
X51733Y-35298D01*
X51710Y-35389D01*
X52000Y-35679D01*
X52290Y-35389D01*
X52290Y-35531D01*
X52071Y-35750D01*
X52361Y-36040D01*
X52452Y-36017D01*
X52496Y-35890D01*
X52548Y-36017D01*
X52639Y-36040D01*
X52929Y-35750D01*
X52929Y-35892D01*
X52710Y-36111D01*
X52733Y-36202D01*
X52926Y-36269D01*
X53130Y-36258D01*
X53267Y-36202D01*
X53290Y-36111D01*
X53290Y-38369D01*
X53269Y-38348D01*
X53095Y-38276D01*
X52906Y-38276D01*
X52732Y-38348D01*
X52598Y-38481D01*
X52526Y-38655D01*
X52526Y-38844D01*
X52598Y-39018D01*
X52731Y-39152D01*
X52905Y-39224D01*
X53094Y-39224D01*
X53268Y-39152D01*
X53402Y-39019D01*
X53474Y-38845D01*
X53474Y-39729D01*
X52473Y-39729D01*
X52473Y-39065D01*
X52473Y-38986D01*
X52473Y-38436D01*
X52443Y-38363D01*
X52387Y-38307D01*
X52315Y-38277D01*
X52290Y-38277D01*
X52290Y-36111D01*
X52000Y-35821D01*
X51929Y-35892D01*
X51929Y-35750D01*
X51639Y-35460D01*
X51548Y-35483D01*
X51519Y-35566D01*
X51519Y-28574D01*
X51508Y-28370D01*
X51452Y-28233D01*
X51361Y-28210D01*
X51290Y-28281D01*
X51290Y-28139D01*
X51267Y-28048D01*
X51074Y-27981D01*
X50870Y-27992D01*
X50733Y-28048D01*
X50710Y-28139D01*
X51000Y-28429D01*
X51290Y-28139D01*
X51290Y-28281D01*
X51071Y-28500D01*
X51361Y-28790D01*
X51452Y-28767D01*
X51519Y-28574D01*
X51519Y-35566D01*
X51481Y-35676D01*
X51492Y-35880D01*
X51548Y-36017D01*
X51639Y-36040D01*
X51929Y-35750D01*
X51929Y-35892D01*
X51710Y-36111D01*
X51733Y-36202D01*
X51926Y-36269D01*
X52130Y-36258D01*
X52267Y-36202D01*
X52290Y-36111D01*
X52290Y-38277D01*
X52236Y-38277D01*
X51686Y-38277D01*
X51613Y-38307D01*
X51557Y-38363D01*
X51527Y-38435D01*
X51527Y-38514D01*
X51527Y-39064D01*
X51557Y-39137D01*
X51613Y-39193D01*
X51685Y-39223D01*
X51764Y-39223D01*
X52314Y-39223D01*
X52387Y-39193D01*
X52443Y-39137D01*
X52473Y-39065D01*
X52473Y-39729D01*
X51290Y-39729D01*
X51290Y-28861D01*
X51000Y-28571D01*
X50929Y-28642D01*
X50929Y-28500D01*
X50639Y-28210D01*
X50548Y-28233D01*
X50481Y-28426D01*
X50492Y-28630D01*
X50548Y-28767D01*
X50639Y-28790D01*
X50929Y-28500D01*
X50929Y-28642D01*
X50710Y-28861D01*
X50733Y-28952D01*
X50926Y-29019D01*
X51130Y-29008D01*
X51267Y-28952D01*
X51290Y-28861D01*
X51290Y-39729D01*
X49519Y-39729D01*
X49519Y-38824D01*
X49519Y-32074D01*
X49508Y-31870D01*
X49452Y-31733D01*
X49361Y-31710D01*
X49290Y-31781D01*
X49290Y-31639D01*
X49267Y-31548D01*
X49074Y-31481D01*
X48870Y-31492D01*
X48733Y-31548D01*
X48710Y-31639D01*
X49000Y-31929D01*
X49290Y-31639D01*
X49290Y-31781D01*
X49071Y-32000D01*
X49361Y-32290D01*
X49452Y-32267D01*
X49519Y-32074D01*
X49519Y-38824D01*
X49508Y-38620D01*
X49474Y-38536D01*
X49474Y-35845D01*
X49474Y-35656D01*
X49402Y-35482D01*
X49290Y-35369D01*
X49290Y-32361D01*
X49000Y-32071D01*
X48929Y-32142D01*
X48929Y-32000D01*
X48639Y-31710D01*
X48548Y-31733D01*
X48481Y-31926D01*
X48492Y-32130D01*
X48548Y-32267D01*
X48639Y-32290D01*
X48929Y-32000D01*
X48929Y-32142D01*
X48710Y-32361D01*
X48733Y-32452D01*
X48926Y-32519D01*
X49130Y-32508D01*
X49267Y-32452D01*
X49290Y-32361D01*
X49290Y-35369D01*
X49269Y-35348D01*
X49095Y-35276D01*
X48906Y-35276D01*
X48732Y-35348D01*
X48598Y-35481D01*
X48526Y-35655D01*
X48526Y-35844D01*
X48598Y-36018D01*
X48731Y-36152D01*
X48905Y-36224D01*
X49094Y-36224D01*
X49268Y-36152D01*
X49402Y-36019D01*
X49474Y-35845D01*
X49474Y-38536D01*
X49452Y-38483D01*
X49361Y-38460D01*
X49290Y-38531D01*
X49290Y-38389D01*
X49267Y-38298D01*
X49074Y-38231D01*
X48870Y-38242D01*
X48733Y-38298D01*
X48710Y-38389D01*
X49000Y-38679D01*
X49290Y-38389D01*
X49290Y-38531D01*
X49071Y-38750D01*
X49361Y-39040D01*
X49452Y-39017D01*
X49519Y-38824D01*
X49519Y-39729D01*
X49362Y-39729D01*
X48889Y-39256D01*
X48926Y-39269D01*
X49130Y-39258D01*
X49267Y-39202D01*
X49290Y-39111D01*
X49035Y-38856D01*
X49000Y-38821D01*
X48929Y-38750D01*
X48894Y-38715D01*
X48639Y-38460D01*
X48548Y-38483D01*
X48519Y-38566D01*
X48519Y-35824D01*
X48508Y-35620D01*
X48474Y-35536D01*
X48474Y-32095D01*
X48474Y-31906D01*
X48402Y-31732D01*
X48269Y-31598D01*
X48095Y-31526D01*
X47906Y-31526D01*
X47732Y-31598D01*
X47598Y-31731D01*
X47526Y-31905D01*
X47526Y-32094D01*
X47598Y-32268D01*
X47731Y-32402D01*
X47905Y-32474D01*
X48094Y-32474D01*
X48268Y-32402D01*
X48402Y-32269D01*
X48474Y-32095D01*
X48474Y-35536D01*
X48452Y-35483D01*
X48361Y-35460D01*
X48290Y-35531D01*
X48290Y-35389D01*
X48267Y-35298D01*
X48074Y-35231D01*
X47870Y-35242D01*
X47733Y-35298D01*
X47710Y-35389D01*
X48000Y-35679D01*
X48290Y-35389D01*
X48290Y-35531D01*
X48071Y-35750D01*
X48361Y-36040D01*
X48452Y-36017D01*
X48519Y-35824D01*
X48519Y-38566D01*
X48481Y-38676D01*
X48490Y-38856D01*
X48474Y-38840D01*
X48474Y-38656D01*
X48402Y-38482D01*
X48290Y-38369D01*
X48290Y-36111D01*
X48000Y-35821D01*
X47929Y-35892D01*
X47929Y-35750D01*
X47639Y-35460D01*
X47548Y-35483D01*
X47503Y-35609D01*
X47474Y-35537D01*
X47474Y-32095D01*
X47474Y-31906D01*
X47402Y-31732D01*
X47269Y-31598D01*
X47095Y-31526D01*
X46906Y-31526D01*
X46732Y-31598D01*
X46598Y-31731D01*
X46526Y-31905D01*
X46526Y-32094D01*
X46598Y-32268D01*
X46731Y-32402D01*
X46905Y-32474D01*
X47094Y-32474D01*
X47268Y-32402D01*
X47402Y-32269D01*
X47474Y-32095D01*
X47474Y-35537D01*
X47452Y-35483D01*
X47361Y-35460D01*
X47290Y-35531D01*
X47290Y-35389D01*
X47267Y-35298D01*
X47074Y-35231D01*
X46874Y-35241D01*
X46874Y-34575D01*
X46874Y-34426D01*
X46817Y-34289D01*
X46712Y-34183D01*
X46575Y-34126D01*
X46509Y-34126D01*
X46474Y-34090D01*
X46474Y-32095D01*
X46474Y-31906D01*
X46402Y-31732D01*
X46269Y-31598D01*
X46095Y-31526D01*
X45906Y-31526D01*
X45732Y-31598D01*
X45598Y-31731D01*
X45526Y-31905D01*
X45526Y-32094D01*
X45598Y-32268D01*
X45731Y-32402D01*
X45905Y-32474D01*
X46094Y-32474D01*
X46268Y-32402D01*
X46402Y-32269D01*
X46474Y-32095D01*
X46474Y-34090D01*
X45519Y-33135D01*
X45519Y-32074D01*
X45508Y-31870D01*
X45452Y-31733D01*
X45361Y-31710D01*
X45290Y-31781D01*
X45290Y-31639D01*
X45267Y-31548D01*
X45074Y-31481D01*
X44870Y-31492D01*
X44733Y-31548D01*
X44710Y-31639D01*
X45000Y-31929D01*
X45290Y-31639D01*
X45290Y-31781D01*
X45071Y-32000D01*
X45361Y-32290D01*
X45452Y-32267D01*
X45519Y-32074D01*
X45519Y-33135D01*
X44890Y-32506D01*
X44926Y-32519D01*
X45130Y-32508D01*
X45267Y-32452D01*
X45290Y-32361D01*
X45035Y-32106D01*
X45000Y-32071D01*
X44929Y-32000D01*
X44894Y-31965D01*
X44639Y-31710D01*
X44548Y-31733D01*
X44481Y-31926D01*
X44490Y-32106D01*
X44474Y-32090D01*
X44474Y-31906D01*
X44402Y-31732D01*
X44269Y-31598D01*
X44095Y-31526D01*
X43906Y-31526D01*
X43732Y-31598D01*
X43598Y-31731D01*
X43526Y-31905D01*
X43526Y-32094D01*
X43598Y-32268D01*
X43731Y-32402D01*
X43905Y-32474D01*
X44090Y-32474D01*
X46126Y-34509D01*
X46126Y-34574D01*
X46183Y-34711D01*
X46288Y-34817D01*
X46425Y-34874D01*
X46574Y-34874D01*
X46711Y-34817D01*
X46817Y-34712D01*
X46874Y-34575D01*
X46874Y-35241D01*
X46870Y-35242D01*
X46733Y-35298D01*
X46710Y-35389D01*
X47000Y-35679D01*
X47290Y-35389D01*
X47290Y-35531D01*
X47071Y-35750D01*
X47361Y-36040D01*
X47452Y-36017D01*
X47496Y-35890D01*
X47548Y-36017D01*
X47639Y-36040D01*
X47929Y-35750D01*
X47929Y-35892D01*
X47710Y-36111D01*
X47733Y-36202D01*
X47926Y-36269D01*
X48130Y-36258D01*
X48267Y-36202D01*
X48290Y-36111D01*
X48290Y-38369D01*
X48269Y-38348D01*
X48095Y-38276D01*
X47906Y-38276D01*
X47732Y-38348D01*
X47598Y-38481D01*
X47526Y-38655D01*
X47526Y-38844D01*
X47598Y-39018D01*
X47731Y-39152D01*
X47905Y-39224D01*
X48090Y-39224D01*
X49056Y-40189D01*
X49058Y-40192D01*
X49114Y-40229D01*
X46862Y-40229D01*
X45824Y-39190D01*
X45905Y-39224D01*
X46094Y-39224D01*
X46268Y-39152D01*
X46402Y-39019D01*
X46474Y-38845D01*
X46474Y-38656D01*
X46440Y-38574D01*
X46526Y-38660D01*
X46526Y-38844D01*
X46598Y-39018D01*
X46731Y-39152D01*
X46905Y-39224D01*
X47094Y-39224D01*
X47268Y-39152D01*
X47402Y-39019D01*
X47474Y-38845D01*
X47474Y-38656D01*
X47402Y-38482D01*
X47290Y-38369D01*
X47290Y-36111D01*
X47000Y-35821D01*
X46929Y-35892D01*
X46929Y-35750D01*
X46639Y-35460D01*
X46548Y-35483D01*
X46481Y-35676D01*
X46492Y-35880D01*
X46548Y-36017D01*
X46639Y-36040D01*
X46929Y-35750D01*
X46929Y-35892D01*
X46710Y-36111D01*
X46733Y-36202D01*
X46926Y-36269D01*
X47130Y-36258D01*
X47267Y-36202D01*
X47290Y-36111D01*
X47290Y-38369D01*
X47269Y-38348D01*
X47095Y-38276D01*
X46910Y-38276D01*
X46692Y-38058D01*
X46604Y-38000D01*
X46585Y-37996D01*
X46500Y-37978D01*
X46495Y-37979D01*
X46474Y-37979D01*
X46474Y-35845D01*
X46474Y-35656D01*
X46402Y-35482D01*
X46269Y-35348D01*
X46095Y-35276D01*
X45906Y-35276D01*
X45732Y-35348D01*
X45598Y-35481D01*
X45526Y-35655D01*
X45526Y-35844D01*
X45598Y-36018D01*
X45731Y-36152D01*
X45905Y-36224D01*
X46094Y-36224D01*
X46268Y-36152D01*
X46402Y-36019D01*
X46474Y-35845D01*
X46474Y-37979D01*
X45519Y-37979D01*
X45519Y-35824D01*
X45508Y-35620D01*
X45452Y-35483D01*
X45361Y-35460D01*
X45290Y-35531D01*
X45290Y-35389D01*
X45267Y-35298D01*
X45074Y-35231D01*
X44870Y-35242D01*
X44733Y-35298D01*
X44710Y-35389D01*
X45000Y-35679D01*
X45290Y-35389D01*
X45290Y-35531D01*
X45071Y-35750D01*
X45361Y-36040D01*
X45452Y-36017D01*
X45519Y-35824D01*
X45519Y-37979D01*
X45290Y-37979D01*
X45290Y-36111D01*
X45000Y-35821D01*
X44929Y-35892D01*
X44929Y-35750D01*
X44639Y-35460D01*
X44548Y-35483D01*
X44503Y-35609D01*
X44452Y-35483D01*
X44361Y-35460D01*
X44290Y-35531D01*
X44290Y-35389D01*
X44267Y-35298D01*
X44074Y-35231D01*
X43870Y-35242D01*
X43733Y-35298D01*
X43710Y-35389D01*
X44000Y-35679D01*
X44290Y-35389D01*
X44290Y-35531D01*
X44071Y-35750D01*
X44361Y-36040D01*
X44452Y-36017D01*
X44496Y-35890D01*
X44548Y-36017D01*
X44639Y-36040D01*
X44929Y-35750D01*
X44929Y-35892D01*
X44710Y-36111D01*
X44733Y-36202D01*
X44926Y-36269D01*
X45130Y-36258D01*
X45267Y-36202D01*
X45290Y-36111D01*
X45290Y-37979D01*
X44500Y-37979D01*
X44396Y-38000D01*
X44308Y-38058D01*
X44290Y-38076D01*
X44290Y-36111D01*
X44000Y-35821D01*
X43929Y-35892D01*
X43929Y-35750D01*
X43639Y-35460D01*
X43548Y-35483D01*
X43481Y-35676D01*
X43492Y-35880D01*
X43548Y-36017D01*
X43639Y-36040D01*
X43929Y-35750D01*
X43929Y-35892D01*
X43710Y-36111D01*
X43733Y-36202D01*
X43926Y-36269D01*
X44130Y-36258D01*
X44267Y-36202D01*
X44290Y-36111D01*
X44290Y-38076D01*
X44090Y-38276D01*
X43906Y-38276D01*
X43732Y-38348D01*
X43598Y-38481D01*
X43526Y-38655D01*
X43526Y-38844D01*
X43598Y-39018D01*
X43731Y-39152D01*
X43905Y-39224D01*
X44094Y-39224D01*
X44268Y-39152D01*
X44402Y-39019D01*
X44474Y-38845D01*
X44474Y-38660D01*
X44559Y-38574D01*
X44526Y-38655D01*
X44526Y-38844D01*
X44598Y-39018D01*
X44731Y-39152D01*
X44905Y-39224D01*
X45090Y-39224D01*
X46556Y-40689D01*
X46558Y-40692D01*
X46646Y-40750D01*
X46749Y-40771D01*
X46749Y-40770D01*
X46750Y-40771D01*
X47364Y-40771D01*
X47308Y-40808D01*
X47090Y-41026D01*
X46906Y-41026D01*
X46732Y-41098D01*
X46598Y-41231D01*
X46526Y-41405D01*
X46526Y-41594D01*
X46598Y-41768D01*
X46731Y-41902D01*
X46905Y-41974D01*
X47094Y-41974D01*
X47268Y-41902D01*
X47402Y-41769D01*
X47474Y-41595D01*
X47474Y-41410D01*
X47559Y-41324D01*
X47526Y-41405D01*
X47526Y-41594D01*
X47598Y-41768D01*
X47731Y-41902D01*
X47905Y-41974D01*
X48094Y-41974D01*
X48268Y-41902D01*
X48402Y-41769D01*
X48474Y-41595D01*
X48474Y-41406D01*
X48418Y-41271D01*
X48581Y-41271D01*
X48526Y-41405D01*
X48526Y-41594D01*
X48598Y-41768D01*
X48731Y-41902D01*
X48905Y-41974D01*
X49094Y-41974D01*
X49268Y-41902D01*
X49402Y-41769D01*
X49474Y-41595D01*
X49474Y-41406D01*
X49418Y-41271D01*
X49581Y-41271D01*
X49526Y-41405D01*
X49526Y-41594D01*
X49598Y-41768D01*
X49731Y-41902D01*
X49905Y-41974D01*
X50094Y-41974D01*
X50268Y-41902D01*
X50402Y-41769D01*
X50474Y-41595D01*
X50474Y-41406D01*
X50418Y-41271D01*
X50581Y-41271D01*
X50526Y-41405D01*
X50526Y-41594D01*
X50598Y-41768D01*
X50731Y-41902D01*
X50905Y-41974D01*
X51094Y-41974D01*
X51268Y-41902D01*
X51402Y-41769D01*
X51474Y-41595D01*
X51474Y-41406D01*
X51418Y-41271D01*
X51742Y-41271D01*
X51788Y-41317D01*
X51925Y-41374D01*
X52074Y-41374D01*
X52211Y-41317D01*
X52317Y-41212D01*
X52374Y-41075D01*
X52374Y-40926D01*
X52317Y-40789D01*
X52299Y-40771D01*
X56242Y-40771D01*
X56288Y-40817D01*
X56425Y-40874D01*
X56574Y-40874D01*
X56711Y-40817D01*
X56729Y-40799D01*
X56729Y-41100D01*
X56598Y-41231D01*
X56526Y-41405D01*
X56526Y-41594D01*
X56598Y-41768D01*
X56731Y-41902D01*
X56895Y-41970D01*
X56808Y-42058D01*
X56800Y-42069D01*
X56732Y-42098D01*
X56598Y-42231D01*
X56526Y-42405D01*
X56526Y-42594D01*
X56598Y-42768D01*
X56731Y-42902D01*
X56905Y-42974D01*
X57094Y-42974D01*
X57268Y-42902D01*
X57276Y-42893D01*
X57308Y-42942D01*
X57729Y-43363D01*
X57729Y-44367D01*
X57683Y-44413D01*
X57626Y-44550D01*
X57626Y-44561D01*
X56532Y-43468D01*
X56308Y-43244D01*
X56369Y-43153D01*
X56398Y-43000D01*
X56399Y-43000D01*
X56399Y-42771D01*
X56402Y-42769D01*
X56474Y-42595D01*
X56474Y-42406D01*
X56402Y-42232D01*
X56399Y-42228D01*
X56399Y-41931D01*
X56443Y-41887D01*
X56473Y-41815D01*
X56473Y-41736D01*
X56473Y-41186D01*
X56443Y-41113D01*
X56387Y-41057D01*
X56315Y-41027D01*
X56236Y-41027D01*
X55686Y-41027D01*
X55613Y-41057D01*
X55557Y-41113D01*
X55527Y-41185D01*
X55527Y-41264D01*
X55527Y-41814D01*
X55557Y-41887D01*
X55601Y-41931D01*
X55601Y-42228D01*
X55598Y-42231D01*
X55526Y-42405D01*
X55526Y-42594D01*
X55598Y-42768D01*
X55601Y-42771D01*
X55601Y-42834D01*
X55584Y-42851D01*
X54451Y-42851D01*
X54402Y-42732D01*
X54269Y-42598D01*
X54095Y-42526D01*
X53906Y-42526D01*
X53732Y-42598D01*
X53598Y-42731D01*
X53548Y-42851D01*
X52319Y-42851D01*
X52402Y-42769D01*
X52474Y-42595D01*
X52474Y-42406D01*
X52402Y-42232D01*
X52269Y-42098D01*
X52095Y-42026D01*
X51906Y-42026D01*
X51732Y-42098D01*
X51598Y-42231D01*
X51526Y-42405D01*
X51526Y-42594D01*
X51598Y-42768D01*
X51680Y-42851D01*
X51399Y-42851D01*
X51399Y-42771D01*
X51402Y-42769D01*
X51474Y-42595D01*
X51474Y-42406D01*
X51402Y-42232D01*
X51269Y-42098D01*
X51095Y-42026D01*
X50906Y-42026D01*
X50732Y-42098D01*
X50598Y-42231D01*
X50526Y-42405D01*
X50526Y-42594D01*
X50598Y-42768D01*
X50601Y-42771D01*
X50601Y-42851D01*
X50519Y-42851D01*
X50404Y-42851D01*
X50448Y-42807D01*
X50416Y-42775D01*
X50452Y-42767D01*
X50519Y-42574D01*
X50508Y-42370D01*
X50452Y-42233D01*
X50361Y-42210D01*
X50290Y-42281D01*
X50290Y-42139D01*
X50267Y-42048D01*
X50074Y-41981D01*
X49870Y-41992D01*
X49733Y-42048D01*
X49710Y-42139D01*
X50000Y-42429D01*
X50290Y-42139D01*
X50290Y-42281D01*
X50106Y-42465D01*
X50071Y-42500D01*
X50000Y-42571D01*
X49929Y-42500D01*
X49894Y-42465D01*
X49639Y-42210D01*
X49548Y-42233D01*
X49503Y-42359D01*
X49452Y-42233D01*
X49361Y-42210D01*
X49290Y-42281D01*
X49290Y-42139D01*
X49267Y-42048D01*
X49074Y-41981D01*
X48870Y-41992D01*
X48733Y-42048D01*
X48710Y-42139D01*
X49000Y-42429D01*
X49290Y-42139D01*
X49290Y-42281D01*
X49106Y-42465D01*
X49071Y-42500D01*
X49000Y-42571D01*
X48929Y-42500D01*
X48894Y-42465D01*
X48639Y-42210D01*
X48548Y-42233D01*
X48503Y-42359D01*
X48452Y-42233D01*
X48361Y-42210D01*
X48290Y-42281D01*
X48290Y-42139D01*
X48267Y-42048D01*
X48074Y-41981D01*
X47870Y-41992D01*
X47733Y-42048D01*
X47710Y-42139D01*
X48000Y-42429D01*
X48290Y-42139D01*
X48290Y-42281D01*
X48106Y-42465D01*
X48071Y-42500D01*
X48000Y-42571D01*
X47929Y-42500D01*
X47894Y-42465D01*
X47639Y-42210D01*
X47548Y-42233D01*
X47503Y-42359D01*
X47452Y-42233D01*
X47361Y-42210D01*
X47290Y-42281D01*
X47290Y-42139D01*
X47267Y-42048D01*
X47074Y-41981D01*
X46870Y-41992D01*
X46733Y-42048D01*
X46710Y-42139D01*
X47000Y-42429D01*
X47290Y-42139D01*
X47290Y-42281D01*
X47106Y-42465D01*
X47071Y-42500D01*
X47000Y-42571D01*
X46929Y-42500D01*
X46894Y-42465D01*
X46639Y-42210D01*
X46548Y-42233D01*
X46503Y-42359D01*
X46452Y-42233D01*
X46361Y-42210D01*
X46290Y-42281D01*
X46290Y-42139D01*
X46267Y-42048D01*
X46074Y-41981D01*
X45870Y-41992D01*
X45733Y-42048D01*
X45710Y-42139D01*
X46000Y-42429D01*
X46290Y-42139D01*
X46290Y-42281D01*
X46106Y-42465D01*
X46071Y-42500D01*
X46000Y-42571D01*
X45929Y-42500D01*
X45894Y-42465D01*
X45639Y-42210D01*
X45548Y-42233D01*
X45503Y-42359D01*
X45452Y-42233D01*
X45361Y-42210D01*
X45106Y-42465D01*
X45071Y-42500D01*
X45000Y-42571D01*
X44929Y-42500D01*
X45000Y-42429D01*
X45035Y-42394D01*
X45290Y-42139D01*
X45267Y-42048D01*
X45132Y-42001D01*
X45362Y-41771D01*
X45527Y-41771D01*
X45527Y-41814D01*
X45557Y-41887D01*
X45613Y-41943D01*
X45685Y-41973D01*
X45764Y-41973D01*
X46314Y-41973D01*
X46387Y-41943D01*
X46443Y-41887D01*
X46473Y-41815D01*
X46473Y-41736D01*
X46473Y-41186D01*
X46443Y-41113D01*
X46387Y-41057D01*
X46315Y-41027D01*
X46236Y-41027D01*
X45686Y-41027D01*
X45613Y-41057D01*
X45557Y-41113D01*
X45527Y-41185D01*
X45527Y-41229D01*
X45250Y-41229D01*
X45146Y-41250D01*
X45058Y-41308D01*
X45056Y-41310D01*
X44308Y-42058D01*
X44276Y-42105D01*
X44269Y-42098D01*
X44095Y-42026D01*
X43906Y-42026D01*
X43732Y-42098D01*
X43598Y-42231D01*
X43526Y-42405D01*
X43526Y-42594D01*
X43598Y-42768D01*
X43680Y-42851D01*
X43399Y-42851D01*
X43399Y-42771D01*
X43402Y-42769D01*
X43474Y-42595D01*
X43474Y-42406D01*
X43473Y-42403D01*
X43473Y-39065D01*
X43473Y-38986D01*
X43473Y-38436D01*
X43443Y-38363D01*
X43387Y-38307D01*
X43315Y-38277D01*
X43236Y-38277D01*
X42686Y-38277D01*
X42613Y-38307D01*
X42557Y-38363D01*
X42527Y-38435D01*
X42527Y-38514D01*
X42527Y-39064D01*
X42557Y-39137D01*
X42613Y-39193D01*
X42685Y-39223D01*
X42764Y-39223D01*
X43314Y-39223D01*
X43387Y-39193D01*
X43443Y-39137D01*
X43473Y-39065D01*
X43473Y-42403D01*
X43402Y-42232D01*
X43269Y-42098D01*
X43095Y-42026D01*
X42906Y-42026D01*
X42732Y-42098D01*
X42598Y-42231D01*
X42526Y-42405D01*
X42526Y-42594D01*
X42598Y-42768D01*
X42601Y-42771D01*
X42601Y-42851D01*
X41519Y-42851D01*
X41519Y-38324D01*
X41508Y-38120D01*
X41452Y-37983D01*
X41361Y-37960D01*
X41071Y-38250D01*
X41361Y-38540D01*
X41452Y-38517D01*
X41519Y-38324D01*
X41519Y-42851D01*
X41451Y-42851D01*
X41402Y-42732D01*
X41269Y-42598D01*
X41095Y-42526D01*
X40906Y-42526D01*
X40774Y-42580D01*
X40774Y-38716D01*
X40926Y-38769D01*
X41130Y-38758D01*
X41267Y-38702D01*
X41290Y-38611D01*
X41035Y-38356D01*
X41000Y-38321D01*
X40929Y-38250D01*
X41000Y-38179D01*
X41035Y-38144D01*
X41290Y-37889D01*
X41267Y-37798D01*
X41074Y-37731D01*
X40870Y-37742D01*
X40774Y-37781D01*
X40774Y-36669D01*
X40905Y-36724D01*
X41094Y-36724D01*
X41268Y-36652D01*
X41271Y-36649D01*
X42500Y-36649D01*
X42653Y-36619D01*
X42782Y-36532D01*
X43090Y-36224D01*
X43094Y-36224D01*
X43268Y-36152D01*
X43402Y-36019D01*
X43474Y-35845D01*
X43474Y-35656D01*
X43473Y-35653D01*
X43473Y-32315D01*
X43473Y-32236D01*
X43473Y-31686D01*
X43443Y-31613D01*
X43387Y-31557D01*
X43315Y-31527D01*
X43236Y-31527D01*
X42686Y-31527D01*
X42613Y-31557D01*
X42557Y-31613D01*
X42527Y-31685D01*
X42527Y-31764D01*
X42527Y-32314D01*
X42557Y-32387D01*
X42613Y-32443D01*
X42685Y-32473D01*
X42764Y-32473D01*
X43314Y-32473D01*
X43387Y-32443D01*
X43443Y-32387D01*
X43473Y-32315D01*
X43473Y-35653D01*
X43402Y-35482D01*
X43269Y-35348D01*
X43095Y-35276D01*
X42906Y-35276D01*
X42732Y-35348D01*
X42598Y-35481D01*
X42526Y-35655D01*
X42526Y-35660D01*
X42335Y-35851D01*
X41519Y-35851D01*
X41519Y-31574D01*
X41508Y-31370D01*
X41452Y-31233D01*
X41361Y-31210D01*
X41071Y-31500D01*
X41361Y-31790D01*
X41452Y-31767D01*
X41519Y-31574D01*
X41519Y-35851D01*
X41271Y-35851D01*
X41269Y-35848D01*
X41095Y-35776D01*
X40906Y-35776D01*
X40774Y-35830D01*
X40774Y-31966D01*
X40926Y-32019D01*
X41130Y-32008D01*
X41267Y-31952D01*
X41290Y-31861D01*
X41035Y-31606D01*
X41000Y-31571D01*
X40929Y-31500D01*
X41000Y-31429D01*
X41035Y-31394D01*
X41290Y-31139D01*
X41267Y-31048D01*
X41074Y-30981D01*
X40870Y-30992D01*
X40774Y-31031D01*
X40774Y-30290D01*
X41090Y-29974D01*
X41094Y-29974D01*
X41268Y-29902D01*
X41271Y-29899D01*
X42500Y-29899D01*
X42653Y-29869D01*
X42782Y-29782D01*
X43090Y-29474D01*
X43094Y-29474D01*
X43268Y-29402D01*
X43402Y-29269D01*
X43474Y-29095D01*
X43474Y-29090D01*
X43526Y-29038D01*
X43526Y-29094D01*
X43598Y-29268D01*
X43731Y-29402D01*
X43905Y-29474D01*
X44090Y-29474D01*
X44308Y-29692D01*
X44396Y-29750D01*
X44397Y-29750D01*
X44500Y-29771D01*
X46000Y-29771D01*
X48495Y-29771D01*
X48500Y-29772D01*
X48500Y-29771D01*
X48585Y-29753D01*
X48603Y-29750D01*
X48604Y-29750D01*
X48692Y-29692D01*
X48910Y-29474D01*
X49094Y-29474D01*
X49268Y-29402D01*
X49402Y-29269D01*
X49474Y-29095D01*
X49474Y-28906D01*
X49402Y-28732D01*
X49308Y-28637D01*
X49403Y-28619D01*
X49532Y-28532D01*
X50090Y-27974D01*
X50094Y-27974D01*
X50268Y-27902D01*
X50402Y-27769D01*
X50474Y-27595D01*
X50474Y-27406D01*
X50402Y-27232D01*
X50399Y-27228D01*
X50399Y-26899D01*
X50728Y-26899D01*
X50731Y-26902D01*
X50905Y-26974D01*
X51094Y-26974D01*
X51268Y-26902D01*
X51271Y-26899D01*
X52500Y-26899D01*
X52653Y-26869D01*
X52782Y-26782D01*
X53090Y-26474D01*
X53094Y-26474D01*
X53268Y-26402D01*
X53402Y-26269D01*
X53474Y-26095D01*
X53474Y-25906D01*
X53402Y-25732D01*
X53269Y-25598D01*
X53095Y-25526D01*
X52906Y-25526D01*
X52732Y-25598D01*
X52598Y-25731D01*
X52526Y-25905D01*
X52526Y-25910D01*
X52335Y-26101D01*
X51271Y-26101D01*
X51269Y-26098D01*
X51095Y-26026D01*
X50906Y-26026D01*
X50732Y-26098D01*
X50728Y-26101D01*
X50271Y-26101D01*
X50269Y-26098D01*
X50095Y-26026D01*
X49906Y-26026D01*
X49732Y-26098D01*
X49598Y-26231D01*
X49526Y-26405D01*
X49526Y-26594D01*
X49598Y-26768D01*
X49601Y-26771D01*
X49601Y-27228D01*
X49598Y-27231D01*
X49526Y-27405D01*
X49526Y-27409D01*
X49084Y-27851D01*
X47319Y-27851D01*
X47402Y-27769D01*
X47474Y-27595D01*
X47474Y-27406D01*
X47474Y-26595D01*
X47474Y-26406D01*
X47402Y-26232D01*
X47269Y-26098D01*
X47095Y-26026D01*
X46906Y-26026D01*
X46732Y-26098D01*
X46598Y-26231D01*
X46526Y-26405D01*
X46526Y-26594D01*
X46598Y-26768D01*
X46731Y-26902D01*
X46905Y-26974D01*
X47094Y-26974D01*
X47268Y-26902D01*
X47402Y-26769D01*
X47474Y-26595D01*
X47474Y-27406D01*
X47402Y-27232D01*
X47269Y-27098D01*
X47095Y-27026D01*
X46906Y-27026D01*
X46732Y-27098D01*
X46598Y-27231D01*
X46526Y-27405D01*
X46526Y-27594D01*
X46598Y-27768D01*
X46680Y-27851D01*
X45319Y-27851D01*
X45402Y-27769D01*
X45474Y-27595D01*
X45474Y-27406D01*
X45474Y-26595D01*
X45474Y-26406D01*
X45402Y-26232D01*
X45269Y-26098D01*
X45095Y-26026D01*
X44906Y-26026D01*
X44732Y-26098D01*
X44598Y-26231D01*
X44526Y-26405D01*
X44526Y-26594D01*
X44598Y-26768D01*
X44731Y-26902D01*
X44905Y-26974D01*
X45094Y-26974D01*
X45268Y-26902D01*
X45402Y-26769D01*
X45474Y-26595D01*
X45474Y-27406D01*
X45402Y-27232D01*
X45269Y-27098D01*
X45095Y-27026D01*
X44906Y-27026D01*
X44732Y-27098D01*
X44598Y-27231D01*
X44526Y-27405D01*
X44526Y-27594D01*
X44598Y-27768D01*
X44680Y-27851D01*
X43750Y-27851D01*
X43597Y-27881D01*
X43498Y-27947D01*
X43498Y-27599D01*
X43498Y-27401D01*
X43498Y-26840D01*
X43498Y-26761D01*
X43498Y-26161D01*
X43468Y-26088D01*
X43412Y-26032D01*
X43340Y-26002D01*
X43261Y-26002D01*
X42661Y-26002D01*
X42588Y-26032D01*
X42532Y-26088D01*
X42502Y-26160D01*
X42502Y-26239D01*
X42502Y-26839D01*
X42532Y-26912D01*
X42588Y-26968D01*
X42660Y-26998D01*
X42739Y-26998D01*
X43339Y-26998D01*
X43412Y-26968D01*
X43468Y-26912D01*
X43498Y-26840D01*
X43498Y-27401D01*
X43422Y-27218D01*
X43282Y-27078D01*
X43099Y-27002D01*
X42901Y-27002D01*
X42718Y-27078D01*
X42578Y-27218D01*
X42502Y-27401D01*
X42502Y-27599D01*
X42578Y-27782D01*
X42718Y-27922D01*
X42901Y-27998D01*
X43099Y-27998D01*
X43282Y-27922D01*
X43422Y-27782D01*
X43498Y-27599D01*
X43498Y-27947D01*
X43467Y-27968D01*
X42909Y-28526D01*
X42906Y-28526D01*
X42732Y-28598D01*
X42598Y-28731D01*
X42526Y-28905D01*
X42526Y-28910D01*
X42335Y-29101D01*
X41271Y-29101D01*
X41269Y-29098D01*
X41095Y-29026D01*
X40906Y-29026D01*
X40732Y-29098D01*
X40598Y-29231D01*
X40526Y-29405D01*
X40526Y-29409D01*
X40274Y-29661D01*
X40274Y-26027D01*
X40334Y-25723D01*
X40490Y-25490D01*
X40723Y-25334D01*
X41027Y-25274D01*
X79972Y-25274D01*
X80276Y-25334D01*
X80509Y-25490D01*
X80665Y-25723D01*
X80726Y-26027D01*
X80726Y-48972D01*
X80726Y-48972D01*
G37*
G54D25*
X80726Y-48972D02*
X80665Y-49276D01*
X80659Y-49285D01*
X80659Y-46756D01*
X80659Y-46606D01*
X80659Y-28646D01*
X80659Y-28496D01*
X80602Y-28358D01*
X80530Y-28285D01*
X80530Y-26696D01*
X80527Y-26286D01*
X80377Y-25924D01*
X80233Y-25838D01*
X80162Y-25909D01*
X80162Y-25767D01*
X80076Y-25623D01*
X79696Y-25470D01*
X79286Y-25473D01*
X78924Y-25623D01*
X78838Y-25767D01*
X79500Y-26429D01*
X80162Y-25767D01*
X80162Y-25909D01*
X79571Y-26500D01*
X80233Y-27162D01*
X80377Y-27076D01*
X80530Y-26696D01*
X80530Y-28285D01*
X80497Y-28252D01*
X80359Y-28194D01*
X80209Y-28194D01*
X80162Y-28213D01*
X80162Y-27233D01*
X79500Y-26571D01*
X79429Y-26642D01*
X79429Y-26500D01*
X78767Y-25838D01*
X78623Y-25924D01*
X78470Y-26304D01*
X78473Y-26714D01*
X78623Y-27076D01*
X78767Y-27162D01*
X79429Y-26500D01*
X79429Y-26642D01*
X78838Y-27233D01*
X78924Y-27377D01*
X79304Y-27530D01*
X79714Y-27527D01*
X80076Y-27377D01*
X80162Y-27233D01*
X80162Y-28213D01*
X80071Y-28251D01*
X79965Y-28356D01*
X79907Y-28494D01*
X79907Y-28644D01*
X79964Y-28782D01*
X80069Y-28888D01*
X80207Y-28946D01*
X80357Y-28946D01*
X80495Y-28889D01*
X80601Y-28784D01*
X80659Y-28646D01*
X80659Y-46606D01*
X80602Y-46468D01*
X80497Y-46362D01*
X80359Y-46304D01*
X80209Y-46304D01*
X80071Y-46361D01*
X79965Y-46466D01*
X79907Y-46604D01*
X79907Y-46754D01*
X79964Y-46892D01*
X80069Y-46998D01*
X80207Y-47056D01*
X80357Y-47056D01*
X80495Y-46999D01*
X80601Y-46894D01*
X80659Y-46756D01*
X80659Y-49285D01*
X80530Y-49478D01*
X80530Y-48946D01*
X80527Y-48536D01*
X80377Y-48174D01*
X80233Y-48088D01*
X80162Y-48159D01*
X80162Y-48017D01*
X80076Y-47873D01*
X79696Y-47720D01*
X79286Y-47723D01*
X78924Y-47873D01*
X78838Y-48017D01*
X79500Y-48679D01*
X80162Y-48017D01*
X80162Y-48159D01*
X79571Y-48750D01*
X80233Y-49412D01*
X80377Y-49326D01*
X80530Y-48946D01*
X80530Y-49478D01*
X80509Y-49510D01*
X80276Y-49665D01*
X79972Y-49726D01*
X79837Y-49726D01*
X80076Y-49627D01*
X80162Y-49483D01*
X79500Y-48821D01*
X79429Y-48892D01*
X79429Y-48750D01*
X78767Y-48088D01*
X78623Y-48174D01*
X78470Y-48554D01*
X78473Y-48964D01*
X78623Y-49326D01*
X78767Y-49412D01*
X79429Y-48750D01*
X79429Y-48892D01*
X78838Y-49483D01*
X78924Y-49627D01*
X79169Y-49726D01*
X73542Y-49726D01*
X73542Y-45360D01*
X73542Y-45144D01*
X73542Y-30108D01*
X73542Y-29892D01*
X73460Y-29693D01*
X73308Y-29540D01*
X73109Y-29457D01*
X72893Y-29457D01*
X72694Y-29539D01*
X72541Y-29691D01*
X72468Y-29865D01*
X72371Y-29631D01*
X72188Y-29447D01*
X71949Y-29348D01*
X71690Y-29348D01*
X71451Y-29447D01*
X71267Y-29630D01*
X71168Y-29869D01*
X71168Y-30128D01*
X71267Y-30367D01*
X71450Y-30551D01*
X71689Y-30650D01*
X71948Y-30650D01*
X72187Y-30551D01*
X72371Y-30368D01*
X72468Y-30132D01*
X72540Y-30305D01*
X72692Y-30458D01*
X72891Y-30541D01*
X73107Y-30541D01*
X73306Y-30459D01*
X73459Y-30307D01*
X73542Y-30108D01*
X73542Y-45144D01*
X73460Y-44945D01*
X73308Y-44792D01*
X73109Y-44709D01*
X72893Y-44709D01*
X72694Y-44791D01*
X72541Y-44943D01*
X72468Y-45117D01*
X72371Y-44883D01*
X72188Y-44699D01*
X71949Y-44600D01*
X71690Y-44600D01*
X71451Y-44699D01*
X71267Y-44882D01*
X71168Y-45121D01*
X71168Y-45380D01*
X71267Y-45619D01*
X71450Y-45803D01*
X71689Y-45902D01*
X71948Y-45902D01*
X72187Y-45803D01*
X72371Y-45620D01*
X72468Y-45384D01*
X72540Y-45557D01*
X72692Y-45710D01*
X72891Y-45793D01*
X73107Y-45793D01*
X73306Y-45711D01*
X73459Y-45559D01*
X73542Y-45360D01*
X73542Y-49726D01*
X72050Y-49726D01*
X72050Y-49325D01*
X70771Y-49325D01*
X70771Y-42126D01*
X70770Y-42125D01*
X70771Y-42125D01*
X70771Y-30750D01*
X70770Y-30749D01*
X70771Y-30749D01*
X70750Y-30646D01*
X70692Y-30558D01*
X70689Y-30556D01*
X66402Y-26269D01*
X66402Y-26268D01*
X66474Y-26095D01*
X66474Y-25906D01*
X66402Y-25732D01*
X66269Y-25598D01*
X66095Y-25526D01*
X65906Y-25526D01*
X65732Y-25598D01*
X65598Y-25731D01*
X65526Y-25905D01*
X65526Y-26094D01*
X65598Y-26268D01*
X65731Y-26402D01*
X65800Y-26430D01*
X65808Y-26442D01*
X70229Y-30862D01*
X70229Y-31095D01*
X65402Y-26269D01*
X65402Y-26268D01*
X65474Y-26095D01*
X65474Y-25906D01*
X65402Y-25732D01*
X65269Y-25598D01*
X65095Y-25526D01*
X64906Y-25526D01*
X64732Y-25598D01*
X64598Y-25731D01*
X64526Y-25905D01*
X64526Y-26094D01*
X64598Y-26268D01*
X64731Y-26402D01*
X64800Y-26430D01*
X64808Y-26442D01*
X69854Y-31487D01*
X69854Y-31720D01*
X64402Y-26269D01*
X64402Y-26268D01*
X64474Y-26095D01*
X64474Y-25906D01*
X64402Y-25732D01*
X64269Y-25598D01*
X64095Y-25526D01*
X63906Y-25526D01*
X63732Y-25598D01*
X63598Y-25731D01*
X63526Y-25905D01*
X63526Y-26094D01*
X63598Y-26268D01*
X63731Y-26402D01*
X63800Y-26430D01*
X63808Y-26442D01*
X69479Y-32112D01*
X69479Y-32345D01*
X63402Y-26269D01*
X63402Y-26268D01*
X63474Y-26095D01*
X63474Y-25906D01*
X63402Y-25732D01*
X63269Y-25598D01*
X63095Y-25526D01*
X62906Y-25526D01*
X62732Y-25598D01*
X62598Y-25731D01*
X62526Y-25905D01*
X62526Y-26094D01*
X62598Y-26268D01*
X62731Y-26402D01*
X62800Y-26430D01*
X62808Y-26442D01*
X69104Y-32737D01*
X69104Y-32750D01*
X69104Y-32970D01*
X62402Y-26269D01*
X62402Y-26268D01*
X62474Y-26095D01*
X62474Y-25906D01*
X62402Y-25732D01*
X62269Y-25598D01*
X62095Y-25526D01*
X61906Y-25526D01*
X61732Y-25598D01*
X61598Y-25731D01*
X61526Y-25905D01*
X61526Y-26094D01*
X61598Y-26268D01*
X61731Y-26402D01*
X61800Y-26430D01*
X61808Y-26442D01*
X68729Y-33362D01*
X68729Y-40887D01*
X68519Y-41097D01*
X68519Y-40824D01*
X68519Y-37574D01*
X68508Y-37370D01*
X68474Y-37286D01*
X68474Y-34595D01*
X68474Y-34406D01*
X68402Y-34232D01*
X68269Y-34098D01*
X68095Y-34026D01*
X67906Y-34026D01*
X67732Y-34098D01*
X67598Y-34231D01*
X67526Y-34405D01*
X67526Y-34594D01*
X67598Y-34768D01*
X67731Y-34902D01*
X67905Y-34974D01*
X68094Y-34974D01*
X68268Y-34902D01*
X68402Y-34769D01*
X68474Y-34595D01*
X68474Y-37286D01*
X68452Y-37233D01*
X68361Y-37210D01*
X68290Y-37281D01*
X68290Y-37139D01*
X68267Y-37048D01*
X68074Y-36981D01*
X67870Y-36992D01*
X67733Y-37048D01*
X67710Y-37139D01*
X68000Y-37429D01*
X68290Y-37139D01*
X68290Y-37281D01*
X68071Y-37500D01*
X68361Y-37790D01*
X68452Y-37767D01*
X68519Y-37574D01*
X68519Y-40824D01*
X68508Y-40620D01*
X68452Y-40483D01*
X68361Y-40460D01*
X68071Y-40750D01*
X68361Y-41040D01*
X68452Y-41017D01*
X68519Y-40824D01*
X68519Y-41097D01*
X68290Y-41326D01*
X68290Y-41111D01*
X68000Y-40821D01*
X67710Y-41111D01*
X67733Y-41202D01*
X67926Y-41269D01*
X68130Y-41258D01*
X68267Y-41202D01*
X68290Y-41111D01*
X68290Y-41326D01*
X68090Y-41526D01*
X67906Y-41526D01*
X67732Y-41598D01*
X67598Y-41731D01*
X67526Y-41905D01*
X67526Y-42094D01*
X67598Y-42268D01*
X67731Y-42402D01*
X67905Y-42474D01*
X68094Y-42474D01*
X68259Y-42405D01*
X68251Y-42425D01*
X68251Y-42574D01*
X68308Y-42711D01*
X68413Y-42817D01*
X68420Y-42820D01*
X68240Y-43001D01*
X68176Y-43001D01*
X68039Y-43058D01*
X67933Y-43163D01*
X67876Y-43300D01*
X67876Y-43449D01*
X67933Y-43586D01*
X68038Y-43692D01*
X68045Y-43695D01*
X67887Y-43854D01*
X67125Y-43854D01*
X67021Y-43875D01*
X66933Y-43933D01*
X66931Y-43935D01*
X66865Y-44001D01*
X66801Y-44001D01*
X66664Y-44058D01*
X66558Y-44163D01*
X66501Y-44300D01*
X66501Y-44449D01*
X66558Y-44586D01*
X66663Y-44692D01*
X66671Y-44695D01*
X66615Y-44751D01*
X66551Y-44751D01*
X66414Y-44808D01*
X66308Y-44913D01*
X66251Y-45050D01*
X66251Y-45199D01*
X66308Y-45336D01*
X66413Y-45442D01*
X66550Y-45499D01*
X66699Y-45499D01*
X66836Y-45442D01*
X66942Y-45337D01*
X66999Y-45200D01*
X66999Y-45134D01*
X67362Y-44771D01*
X67534Y-44771D01*
X67481Y-44926D01*
X67492Y-45130D01*
X67548Y-45267D01*
X67639Y-45290D01*
X67894Y-45035D01*
X67929Y-45000D01*
X68000Y-44929D01*
X68071Y-45000D01*
X68106Y-45035D01*
X68361Y-45290D01*
X68452Y-45267D01*
X68519Y-45074D01*
X68508Y-44870D01*
X68452Y-44733D01*
X68416Y-44724D01*
X68448Y-44693D01*
X68381Y-44626D01*
X69384Y-43624D01*
X69449Y-43624D01*
X69586Y-43567D01*
X69692Y-43462D01*
X69749Y-43325D01*
X69749Y-43259D01*
X70689Y-42318D01*
X70691Y-42317D01*
X70692Y-42317D01*
X70750Y-42229D01*
X70771Y-42126D01*
X70771Y-49325D01*
X70271Y-49325D01*
X70271Y-48500D01*
X70250Y-48396D01*
X70192Y-48308D01*
X70189Y-48306D01*
X68519Y-46635D01*
X68290Y-46406D01*
X68290Y-45361D01*
X68000Y-45071D01*
X67710Y-45361D01*
X67733Y-45452D01*
X67926Y-45519D01*
X68130Y-45508D01*
X68267Y-45452D01*
X68290Y-45361D01*
X68290Y-46406D01*
X67692Y-45808D01*
X67604Y-45750D01*
X67585Y-45746D01*
X67500Y-45728D01*
X67495Y-45729D01*
X65465Y-45729D01*
X65519Y-45574D01*
X65508Y-45370D01*
X65452Y-45233D01*
X65361Y-45210D01*
X65106Y-45465D01*
X65071Y-45500D01*
X65000Y-45571D01*
X64929Y-45500D01*
X65000Y-45429D01*
X65035Y-45394D01*
X65290Y-45139D01*
X65267Y-45048D01*
X65074Y-44981D01*
X64870Y-44992D01*
X64771Y-45032D01*
X64771Y-42918D01*
X64905Y-42974D01*
X65094Y-42974D01*
X65268Y-42902D01*
X65402Y-42769D01*
X65474Y-42595D01*
X65474Y-42406D01*
X65402Y-42232D01*
X65269Y-42098D01*
X65095Y-42026D01*
X64906Y-42026D01*
X64771Y-42081D01*
X64771Y-41918D01*
X64905Y-41974D01*
X65094Y-41974D01*
X65268Y-41902D01*
X65402Y-41769D01*
X65474Y-41595D01*
X65474Y-41406D01*
X65402Y-41232D01*
X65269Y-41098D01*
X65095Y-41026D01*
X64906Y-41026D01*
X64771Y-41081D01*
X64771Y-39168D01*
X64905Y-39224D01*
X65094Y-39224D01*
X65229Y-39168D01*
X65229Y-40620D01*
X65228Y-40625D01*
X65246Y-40710D01*
X65250Y-40729D01*
X65308Y-40817D01*
X65626Y-41135D01*
X65626Y-41199D01*
X65683Y-41336D01*
X65788Y-41442D01*
X65925Y-41499D01*
X66074Y-41499D01*
X66211Y-41442D01*
X66317Y-41337D01*
X66353Y-41249D01*
X66449Y-41249D01*
X66586Y-41192D01*
X66692Y-41087D01*
X66728Y-40999D01*
X66824Y-40999D01*
X66961Y-40942D01*
X67005Y-40898D01*
X67006Y-40903D01*
X67093Y-41032D01*
X67222Y-41119D01*
X67375Y-41149D01*
X67528Y-41119D01*
X67657Y-41032D01*
X67677Y-41001D01*
X67893Y-40784D01*
X67894Y-40785D01*
X67929Y-40750D01*
X68000Y-40679D01*
X68035Y-40644D01*
X68290Y-40389D01*
X68267Y-40298D01*
X68074Y-40231D01*
X67870Y-40242D01*
X67774Y-40281D01*
X67774Y-39540D01*
X68090Y-39224D01*
X68094Y-39224D01*
X68268Y-39152D01*
X68402Y-39019D01*
X68474Y-38845D01*
X68474Y-38656D01*
X68402Y-38482D01*
X68290Y-38369D01*
X68290Y-37861D01*
X68000Y-37571D01*
X67929Y-37642D01*
X67929Y-37500D01*
X67639Y-37210D01*
X67548Y-37233D01*
X67481Y-37426D01*
X67492Y-37630D01*
X67548Y-37767D01*
X67639Y-37790D01*
X67929Y-37500D01*
X67929Y-37642D01*
X67710Y-37861D01*
X67733Y-37952D01*
X67926Y-38019D01*
X68130Y-38008D01*
X68267Y-37952D01*
X68290Y-37861D01*
X68290Y-38369D01*
X68269Y-38348D01*
X68095Y-38276D01*
X67906Y-38276D01*
X67732Y-38348D01*
X67598Y-38481D01*
X67526Y-38655D01*
X67526Y-38659D01*
X67474Y-38711D01*
X67474Y-37595D01*
X67474Y-37406D01*
X67474Y-34595D01*
X67474Y-34406D01*
X67402Y-34232D01*
X67269Y-34098D01*
X67095Y-34026D01*
X66906Y-34026D01*
X66732Y-34098D01*
X66598Y-34231D01*
X66526Y-34405D01*
X66526Y-34594D01*
X66598Y-34768D01*
X66731Y-34902D01*
X66905Y-34974D01*
X67094Y-34974D01*
X67268Y-34902D01*
X67402Y-34769D01*
X67474Y-34595D01*
X67474Y-37406D01*
X67402Y-37232D01*
X67269Y-37098D01*
X67095Y-37026D01*
X66906Y-37026D01*
X66732Y-37098D01*
X66598Y-37231D01*
X66526Y-37405D01*
X66526Y-37594D01*
X66598Y-37768D01*
X66731Y-37902D01*
X66905Y-37974D01*
X67094Y-37974D01*
X67268Y-37902D01*
X67402Y-37769D01*
X67474Y-37595D01*
X67474Y-38711D01*
X67093Y-39093D01*
X67006Y-39222D01*
X66976Y-39375D01*
X66976Y-40322D01*
X66962Y-40308D01*
X66825Y-40251D01*
X66760Y-40251D01*
X66521Y-40012D01*
X66521Y-33750D01*
X66521Y-33500D01*
X66520Y-33499D01*
X66521Y-33499D01*
X66519Y-33489D01*
X66519Y-32074D01*
X66508Y-31870D01*
X66452Y-31733D01*
X66361Y-31710D01*
X66290Y-31781D01*
X66290Y-31639D01*
X66267Y-31548D01*
X66074Y-31481D01*
X65870Y-31492D01*
X65733Y-31548D01*
X65710Y-31639D01*
X66000Y-31929D01*
X66290Y-31639D01*
X66290Y-31781D01*
X66071Y-32000D01*
X66361Y-32290D01*
X66452Y-32267D01*
X66519Y-32074D01*
X66519Y-33489D01*
X66500Y-33396D01*
X66442Y-33308D01*
X66439Y-33306D01*
X66290Y-33157D01*
X66290Y-32361D01*
X66000Y-32071D01*
X65929Y-32142D01*
X65929Y-32000D01*
X65639Y-31710D01*
X65548Y-31733D01*
X65481Y-31926D01*
X65492Y-32130D01*
X65548Y-32267D01*
X65639Y-32290D01*
X65929Y-32000D01*
X65929Y-32142D01*
X65710Y-32361D01*
X65733Y-32452D01*
X65926Y-32519D01*
X66130Y-32508D01*
X66267Y-32452D01*
X66290Y-32361D01*
X66290Y-33157D01*
X65402Y-32269D01*
X65402Y-32268D01*
X65474Y-32095D01*
X65474Y-31906D01*
X65402Y-31732D01*
X65269Y-31598D01*
X65095Y-31526D01*
X64906Y-31526D01*
X64732Y-31598D01*
X64598Y-31731D01*
X64526Y-31905D01*
X64526Y-32094D01*
X64598Y-32268D01*
X64731Y-32402D01*
X64800Y-32430D01*
X64808Y-32442D01*
X65979Y-33612D01*
X65979Y-33750D01*
X65979Y-33845D01*
X64402Y-32269D01*
X64402Y-32268D01*
X64474Y-32095D01*
X64474Y-31906D01*
X64402Y-31732D01*
X64269Y-31598D01*
X64095Y-31526D01*
X63906Y-31526D01*
X63732Y-31598D01*
X63598Y-31731D01*
X63526Y-31905D01*
X63526Y-32094D01*
X63598Y-32268D01*
X63731Y-32402D01*
X63800Y-32430D01*
X63808Y-32442D01*
X65604Y-34237D01*
X65604Y-34250D01*
X65604Y-34470D01*
X63402Y-32269D01*
X63402Y-32268D01*
X63474Y-32095D01*
X63474Y-31906D01*
X63402Y-31732D01*
X63269Y-31598D01*
X63095Y-31526D01*
X62906Y-31526D01*
X62732Y-31598D01*
X62598Y-31731D01*
X62526Y-31905D01*
X62526Y-32094D01*
X62598Y-32268D01*
X62731Y-32402D01*
X62800Y-32430D01*
X62808Y-32442D01*
X65229Y-34862D01*
X65229Y-35000D01*
X65229Y-35331D01*
X65095Y-35276D01*
X64906Y-35276D01*
X64732Y-35348D01*
X64598Y-35481D01*
X64526Y-35655D01*
X64526Y-35844D01*
X64598Y-36018D01*
X64731Y-36152D01*
X64905Y-36224D01*
X65094Y-36224D01*
X65229Y-36168D01*
X65229Y-38331D01*
X65095Y-38276D01*
X64906Y-38276D01*
X64771Y-38331D01*
X64771Y-37750D01*
X64750Y-37647D01*
X64750Y-37646D01*
X64692Y-37558D01*
X64689Y-37556D01*
X64519Y-37385D01*
X64519Y-35824D01*
X64508Y-35620D01*
X64452Y-35483D01*
X64361Y-35460D01*
X64071Y-35750D01*
X64361Y-36040D01*
X64452Y-36017D01*
X64519Y-35824D01*
X64519Y-37385D01*
X63771Y-36637D01*
X63771Y-36215D01*
X63926Y-36269D01*
X64130Y-36258D01*
X64267Y-36202D01*
X64290Y-36111D01*
X64035Y-35856D01*
X64000Y-35821D01*
X63929Y-35750D01*
X64000Y-35679D01*
X64035Y-35644D01*
X64290Y-35389D01*
X64267Y-35298D01*
X64074Y-35231D01*
X63870Y-35242D01*
X63733Y-35298D01*
X63723Y-35332D01*
X63693Y-35302D01*
X63689Y-35305D01*
X63374Y-34990D01*
X63374Y-34926D01*
X63317Y-34789D01*
X63212Y-34683D01*
X63075Y-34626D01*
X62926Y-34626D01*
X62789Y-34683D01*
X62683Y-34788D01*
X62626Y-34925D01*
X62626Y-35074D01*
X62683Y-35211D01*
X62758Y-35287D01*
X62733Y-35298D01*
X62710Y-35389D01*
X62965Y-35644D01*
X63000Y-35679D01*
X63071Y-35750D01*
X63000Y-35821D01*
X62965Y-35856D01*
X62929Y-35892D01*
X62929Y-35750D01*
X62639Y-35460D01*
X62548Y-35483D01*
X62503Y-35609D01*
X62452Y-35483D01*
X62361Y-35460D01*
X62071Y-35750D01*
X62361Y-36040D01*
X62452Y-36017D01*
X62496Y-35890D01*
X62548Y-36017D01*
X62639Y-36040D01*
X62929Y-35750D01*
X62929Y-35892D01*
X62710Y-36111D01*
X62733Y-36202D01*
X62926Y-36269D01*
X63130Y-36258D01*
X63229Y-36217D01*
X63229Y-36745D01*
X63228Y-36750D01*
X63246Y-36835D01*
X63250Y-36854D01*
X63308Y-36942D01*
X64229Y-37862D01*
X64229Y-38331D01*
X64095Y-38276D01*
X63906Y-38276D01*
X63732Y-38348D01*
X63598Y-38481D01*
X63526Y-38655D01*
X63526Y-38844D01*
X63598Y-39018D01*
X63729Y-39149D01*
X63729Y-41100D01*
X63598Y-41231D01*
X63526Y-41405D01*
X63526Y-41594D01*
X63598Y-41768D01*
X63731Y-41902D01*
X63905Y-41974D01*
X64094Y-41974D01*
X64229Y-41918D01*
X64229Y-42081D01*
X64095Y-42026D01*
X63906Y-42026D01*
X63732Y-42098D01*
X63598Y-42231D01*
X63526Y-42405D01*
X63526Y-42594D01*
X63598Y-42768D01*
X63731Y-42902D01*
X63905Y-42974D01*
X64094Y-42974D01*
X64229Y-42918D01*
X64229Y-45081D01*
X64095Y-45026D01*
X63906Y-45026D01*
X63732Y-45098D01*
X63598Y-45231D01*
X63526Y-45405D01*
X63526Y-45594D01*
X63598Y-45768D01*
X63731Y-45902D01*
X63905Y-45974D01*
X64094Y-45974D01*
X64268Y-45902D01*
X64276Y-45893D01*
X64308Y-45942D01*
X64467Y-46101D01*
X63474Y-46101D01*
X63474Y-45595D01*
X63474Y-45406D01*
X63402Y-45232D01*
X63269Y-45098D01*
X63095Y-45026D01*
X62906Y-45026D01*
X62732Y-45098D01*
X62598Y-45231D01*
X62526Y-45405D01*
X62526Y-45594D01*
X62598Y-45768D01*
X62731Y-45902D01*
X62905Y-45974D01*
X63094Y-45974D01*
X63268Y-45902D01*
X63402Y-45769D01*
X63474Y-45595D01*
X63474Y-46101D01*
X62500Y-46101D01*
X62347Y-46131D01*
X62218Y-46218D01*
X62131Y-46347D01*
X62101Y-46500D01*
X62131Y-46653D01*
X62218Y-46782D01*
X62347Y-46869D01*
X62500Y-46899D01*
X64500Y-46899D01*
X65791Y-46899D01*
X65733Y-46923D01*
X65710Y-47014D01*
X66000Y-47304D01*
X66290Y-47014D01*
X66267Y-46923D01*
X66197Y-46899D01*
X66960Y-46899D01*
X67517Y-47456D01*
X67527Y-47505D01*
X67527Y-47689D01*
X67557Y-47762D01*
X67613Y-47818D01*
X67685Y-47848D01*
X67764Y-47848D01*
X67767Y-47848D01*
X68501Y-48582D01*
X68501Y-49325D01*
X66519Y-49325D01*
X66519Y-47449D01*
X66508Y-47245D01*
X66452Y-47108D01*
X66361Y-47085D01*
X66071Y-47375D01*
X66361Y-47665D01*
X66452Y-47642D01*
X66519Y-47449D01*
X66519Y-49325D01*
X66290Y-49325D01*
X66290Y-47736D01*
X66000Y-47446D01*
X65929Y-47517D01*
X65929Y-47375D01*
X65639Y-47085D01*
X65548Y-47108D01*
X65481Y-47301D01*
X65492Y-47505D01*
X65548Y-47642D01*
X65639Y-47665D01*
X65929Y-47375D01*
X65929Y-47517D01*
X65710Y-47736D01*
X65733Y-47827D01*
X65926Y-47894D01*
X66130Y-47883D01*
X66267Y-47827D01*
X66290Y-47736D01*
X66290Y-49325D01*
X61271Y-49325D01*
X61271Y-49000D01*
X61271Y-48625D01*
X61271Y-48613D01*
X61692Y-48192D01*
X61750Y-48104D01*
X61750Y-48103D01*
X61771Y-48000D01*
X61771Y-45918D01*
X61905Y-45974D01*
X62094Y-45974D01*
X62268Y-45902D01*
X62402Y-45769D01*
X62474Y-45595D01*
X62474Y-45406D01*
X62402Y-45232D01*
X62269Y-45098D01*
X62095Y-45026D01*
X61906Y-45026D01*
X61771Y-45081D01*
X61771Y-42918D01*
X61905Y-42974D01*
X62094Y-42974D01*
X62268Y-42902D01*
X62402Y-42769D01*
X62474Y-42595D01*
X62474Y-42409D01*
X62559Y-42324D01*
X62526Y-42405D01*
X62526Y-42594D01*
X62598Y-42768D01*
X62731Y-42902D01*
X62905Y-42974D01*
X63094Y-42974D01*
X63268Y-42902D01*
X63402Y-42769D01*
X63474Y-42595D01*
X63474Y-42406D01*
X63402Y-42232D01*
X63269Y-42098D01*
X63095Y-42026D01*
X62906Y-42026D01*
X62823Y-42060D01*
X62909Y-41974D01*
X63094Y-41974D01*
X63268Y-41902D01*
X63402Y-41769D01*
X63474Y-41595D01*
X63474Y-41406D01*
X63402Y-41232D01*
X63271Y-41100D01*
X63271Y-39149D01*
X63402Y-39019D01*
X63474Y-38845D01*
X63474Y-38656D01*
X63402Y-38482D01*
X63269Y-38348D01*
X63095Y-38276D01*
X62906Y-38276D01*
X62732Y-38348D01*
X62598Y-38481D01*
X62526Y-38655D01*
X62526Y-38844D01*
X62598Y-39018D01*
X62729Y-39149D01*
X62729Y-41100D01*
X62598Y-41231D01*
X62526Y-41405D01*
X62526Y-41590D01*
X62440Y-41676D01*
X62474Y-41595D01*
X62474Y-41406D01*
X62402Y-41232D01*
X62271Y-41100D01*
X62271Y-39149D01*
X62402Y-39019D01*
X62474Y-38845D01*
X62474Y-38656D01*
X62402Y-38482D01*
X62269Y-38348D01*
X62095Y-38276D01*
X61906Y-38276D01*
X61771Y-38331D01*
X61771Y-38250D01*
X61750Y-38146D01*
X61692Y-38058D01*
X61689Y-38056D01*
X60703Y-37070D01*
X60711Y-37067D01*
X60817Y-36962D01*
X60874Y-36825D01*
X60874Y-36676D01*
X60817Y-36539D01*
X60771Y-36492D01*
X60771Y-36215D01*
X60926Y-36269D01*
X61130Y-36258D01*
X61229Y-36217D01*
X61229Y-36492D01*
X61183Y-36538D01*
X61126Y-36675D01*
X61126Y-36824D01*
X61183Y-36961D01*
X61288Y-37067D01*
X61425Y-37124D01*
X61574Y-37124D01*
X61711Y-37067D01*
X61817Y-36962D01*
X61874Y-36825D01*
X61874Y-36676D01*
X61817Y-36539D01*
X61771Y-36492D01*
X61771Y-36215D01*
X61926Y-36269D01*
X62130Y-36258D01*
X62267Y-36202D01*
X62290Y-36111D01*
X62035Y-35856D01*
X62000Y-35821D01*
X61929Y-35750D01*
X62000Y-35679D01*
X62035Y-35644D01*
X62290Y-35389D01*
X62267Y-35298D01*
X62074Y-35231D01*
X61870Y-35242D01*
X61771Y-35282D01*
X61771Y-32418D01*
X61905Y-32474D01*
X62094Y-32474D01*
X62268Y-32402D01*
X62402Y-32269D01*
X62474Y-32095D01*
X62474Y-31906D01*
X62402Y-31732D01*
X62269Y-31598D01*
X62095Y-31526D01*
X61906Y-31526D01*
X61771Y-31581D01*
X61771Y-29250D01*
X61750Y-29147D01*
X61750Y-29146D01*
X61692Y-29058D01*
X61271Y-28637D01*
X61271Y-26399D01*
X61402Y-26269D01*
X61474Y-26095D01*
X61474Y-25906D01*
X61402Y-25732D01*
X61269Y-25598D01*
X61095Y-25526D01*
X60906Y-25526D01*
X60732Y-25598D01*
X60598Y-25731D01*
X60526Y-25905D01*
X60526Y-26094D01*
X60598Y-26268D01*
X60729Y-26399D01*
X60729Y-28745D01*
X60728Y-28750D01*
X60746Y-28835D01*
X60750Y-28854D01*
X60808Y-28942D01*
X61229Y-29363D01*
X61229Y-31581D01*
X61095Y-31526D01*
X60906Y-31526D01*
X60771Y-31581D01*
X60771Y-29250D01*
X60750Y-29147D01*
X60750Y-29146D01*
X60692Y-29058D01*
X60271Y-28637D01*
X60271Y-26399D01*
X60402Y-26269D01*
X60474Y-26095D01*
X60474Y-25906D01*
X60402Y-25732D01*
X60269Y-25598D01*
X60095Y-25526D01*
X59906Y-25526D01*
X59732Y-25598D01*
X59598Y-25731D01*
X59526Y-25905D01*
X59526Y-26094D01*
X59598Y-26268D01*
X59729Y-26399D01*
X59729Y-28745D01*
X59728Y-28750D01*
X59746Y-28835D01*
X59750Y-28854D01*
X59808Y-28942D01*
X60229Y-29363D01*
X60229Y-31581D01*
X60095Y-31526D01*
X59906Y-31526D01*
X59732Y-31598D01*
X59598Y-31731D01*
X59526Y-31905D01*
X59526Y-32094D01*
X59598Y-32268D01*
X59731Y-32402D01*
X59905Y-32474D01*
X60094Y-32474D01*
X60229Y-32418D01*
X60229Y-35284D01*
X60074Y-35231D01*
X59870Y-35242D01*
X59733Y-35298D01*
X59710Y-35389D01*
X59965Y-35644D01*
X60000Y-35679D01*
X60071Y-35750D01*
X60000Y-35821D01*
X59929Y-35750D01*
X59894Y-35715D01*
X59639Y-35460D01*
X59548Y-35483D01*
X59481Y-35676D01*
X59490Y-35856D01*
X59474Y-35840D01*
X59474Y-35656D01*
X59402Y-35482D01*
X59269Y-35348D01*
X59095Y-35276D01*
X58906Y-35276D01*
X58771Y-35331D01*
X58771Y-32418D01*
X58905Y-32474D01*
X59094Y-32474D01*
X59268Y-32402D01*
X59402Y-32269D01*
X59474Y-32095D01*
X59474Y-31906D01*
X59402Y-31732D01*
X59269Y-31598D01*
X59095Y-31526D01*
X58906Y-31526D01*
X58771Y-31581D01*
X58771Y-29363D01*
X59192Y-28942D01*
X59250Y-28854D01*
X59250Y-28853D01*
X59271Y-28750D01*
X59271Y-26399D01*
X59402Y-26269D01*
X59474Y-26095D01*
X59474Y-25906D01*
X59402Y-25732D01*
X59269Y-25598D01*
X59095Y-25526D01*
X58906Y-25526D01*
X58732Y-25598D01*
X58598Y-25731D01*
X58526Y-25905D01*
X58526Y-26094D01*
X58598Y-26268D01*
X58729Y-26399D01*
X58729Y-28637D01*
X58308Y-29058D01*
X58250Y-29146D01*
X58246Y-29164D01*
X58228Y-29250D01*
X58229Y-29254D01*
X58229Y-31581D01*
X58095Y-31526D01*
X57906Y-31526D01*
X57771Y-31581D01*
X57771Y-29363D01*
X58192Y-28942D01*
X58250Y-28854D01*
X58250Y-28853D01*
X58271Y-28750D01*
X58271Y-26399D01*
X58402Y-26269D01*
X58474Y-26095D01*
X58474Y-25906D01*
X58402Y-25732D01*
X58269Y-25598D01*
X58095Y-25526D01*
X57906Y-25526D01*
X57732Y-25598D01*
X57598Y-25731D01*
X57526Y-25905D01*
X57526Y-26094D01*
X57598Y-26268D01*
X57729Y-26399D01*
X57729Y-28637D01*
X57308Y-29058D01*
X57250Y-29146D01*
X57246Y-29164D01*
X57228Y-29250D01*
X57229Y-29254D01*
X57229Y-31581D01*
X57095Y-31526D01*
X56906Y-31526D01*
X56771Y-31581D01*
X56771Y-29363D01*
X57192Y-28942D01*
X57250Y-28854D01*
X57250Y-28853D01*
X57271Y-28750D01*
X57271Y-26399D01*
X57402Y-26269D01*
X57474Y-26095D01*
X57474Y-25906D01*
X57402Y-25732D01*
X57269Y-25598D01*
X57095Y-25526D01*
X56906Y-25526D01*
X56732Y-25598D01*
X56598Y-25731D01*
X56526Y-25905D01*
X56526Y-26094D01*
X56598Y-26268D01*
X56729Y-26399D01*
X56729Y-28637D01*
X56308Y-29058D01*
X56250Y-29146D01*
X56246Y-29164D01*
X56228Y-29250D01*
X56229Y-29254D01*
X56229Y-31581D01*
X56095Y-31526D01*
X55906Y-31526D01*
X55771Y-31581D01*
X55771Y-29363D01*
X56192Y-28942D01*
X56250Y-28854D01*
X56250Y-28853D01*
X56271Y-28750D01*
X56271Y-26399D01*
X56402Y-26269D01*
X56474Y-26095D01*
X56474Y-25906D01*
X56402Y-25732D01*
X56269Y-25598D01*
X56095Y-25526D01*
X55906Y-25526D01*
X55732Y-25598D01*
X55598Y-25731D01*
X55526Y-25905D01*
X55526Y-26094D01*
X55598Y-26268D01*
X55729Y-26399D01*
X55729Y-28637D01*
X55474Y-28892D01*
X55474Y-26095D01*
X55474Y-25906D01*
X55402Y-25732D01*
X55269Y-25598D01*
X55095Y-25526D01*
X54906Y-25526D01*
X54732Y-25598D01*
X54598Y-25731D01*
X54526Y-25905D01*
X54526Y-26094D01*
X54598Y-26268D01*
X54731Y-26402D01*
X54905Y-26474D01*
X55094Y-26474D01*
X55268Y-26402D01*
X55402Y-26269D01*
X55474Y-26095D01*
X55474Y-28892D01*
X55308Y-29058D01*
X55250Y-29146D01*
X55246Y-29164D01*
X55228Y-29250D01*
X55229Y-29254D01*
X55229Y-31581D01*
X55095Y-31526D01*
X54906Y-31526D01*
X54771Y-31581D01*
X54771Y-29250D01*
X54750Y-29147D01*
X54750Y-29146D01*
X54692Y-29058D01*
X54271Y-28637D01*
X54271Y-26399D01*
X54402Y-26269D01*
X54474Y-26095D01*
X54474Y-25906D01*
X54402Y-25732D01*
X54269Y-25598D01*
X54095Y-25526D01*
X53906Y-25526D01*
X53732Y-25598D01*
X53598Y-25731D01*
X53526Y-25905D01*
X53526Y-26094D01*
X53598Y-26268D01*
X53729Y-26399D01*
X53729Y-28745D01*
X53728Y-28750D01*
X53746Y-28835D01*
X53750Y-28854D01*
X53808Y-28942D01*
X54229Y-29363D01*
X54229Y-31581D01*
X54095Y-31526D01*
X53906Y-31526D01*
X53732Y-31598D01*
X53598Y-31731D01*
X53526Y-31905D01*
X53526Y-32094D01*
X53598Y-32268D01*
X53729Y-32399D01*
X53729Y-33245D01*
X53728Y-33250D01*
X53746Y-33335D01*
X53750Y-33354D01*
X53808Y-33442D01*
X55229Y-34862D01*
X55229Y-35331D01*
X55095Y-35276D01*
X54906Y-35276D01*
X54771Y-35331D01*
X54771Y-34750D01*
X54750Y-34647D01*
X54750Y-34646D01*
X54692Y-34558D01*
X54689Y-34556D01*
X53271Y-33137D01*
X53271Y-32473D01*
X53314Y-32473D01*
X53387Y-32443D01*
X53443Y-32387D01*
X53473Y-32315D01*
X53473Y-32236D01*
X53473Y-31686D01*
X53443Y-31613D01*
X53387Y-31557D01*
X53315Y-31527D01*
X53236Y-31527D01*
X52686Y-31527D01*
X52613Y-31557D01*
X52557Y-31613D01*
X52527Y-31685D01*
X52527Y-31764D01*
X52527Y-32314D01*
X52557Y-32387D01*
X52613Y-32443D01*
X52685Y-32473D01*
X52729Y-32473D01*
X52729Y-33245D01*
X52728Y-33250D01*
X52746Y-33335D01*
X52750Y-33354D01*
X52808Y-33442D01*
X54229Y-34862D01*
X54229Y-35284D01*
X54074Y-35231D01*
X53870Y-35242D01*
X53733Y-35298D01*
X53710Y-35389D01*
X53965Y-35644D01*
X54000Y-35679D01*
X54071Y-35750D01*
X54000Y-35821D01*
X53965Y-35856D01*
X53929Y-35892D01*
X53929Y-35750D01*
X53639Y-35460D01*
X53548Y-35483D01*
X53503Y-35609D01*
X53452Y-35483D01*
X53361Y-35460D01*
X53290Y-35531D01*
X53290Y-35389D01*
X53267Y-35298D01*
X53074Y-35231D01*
X52870Y-35242D01*
X52733Y-35298D01*
X52710Y-35389D01*
X53000Y-35679D01*
X53290Y-35389D01*
X53290Y-35531D01*
X53071Y-35750D01*
X53361Y-36040D01*
X53452Y-36017D01*
X53496Y-35890D01*
X53548Y-36017D01*
X53639Y-36040D01*
X53929Y-35750D01*
X53929Y-35892D01*
X53710Y-36111D01*
X53733Y-36202D01*
X53926Y-36269D01*
X54130Y-36258D01*
X54229Y-36217D01*
X54229Y-37495D01*
X54228Y-37500D01*
X54246Y-37585D01*
X54250Y-37604D01*
X54308Y-37692D01*
X54896Y-38279D01*
X54732Y-38348D01*
X54598Y-38481D01*
X54526Y-38655D01*
X54526Y-38844D01*
X54598Y-39018D01*
X54731Y-39152D01*
X54905Y-39224D01*
X55094Y-39224D01*
X55268Y-39152D01*
X55402Y-39019D01*
X55470Y-38854D01*
X56242Y-39626D01*
X56176Y-39626D01*
X56039Y-39683D01*
X55992Y-39729D01*
X54474Y-39729D01*
X54474Y-38845D01*
X54474Y-38656D01*
X54402Y-38482D01*
X54269Y-38348D01*
X54095Y-38276D01*
X53906Y-38276D01*
X53732Y-38348D01*
X53598Y-38481D01*
X53526Y-38655D01*
X53526Y-38844D01*
X53598Y-39018D01*
X53731Y-39152D01*
X53905Y-39224D01*
X54094Y-39224D01*
X54268Y-39152D01*
X54402Y-39019D01*
X54474Y-38845D01*
X54474Y-39729D01*
X53474Y-39729D01*
X53474Y-38845D01*
X53474Y-38656D01*
X53402Y-38482D01*
X53290Y-38369D01*
X53290Y-36111D01*
X53000Y-35821D01*
X52929Y-35892D01*
X52929Y-35750D01*
X52639Y-35460D01*
X52548Y-35483D01*
X52503Y-35609D01*
X52452Y-35483D01*
X52361Y-35460D01*
X52290Y-35531D01*
X52290Y-35389D01*
X52267Y-35298D01*
X52074Y-35231D01*
X51870Y-35242D01*
X51733Y-35298D01*
X51710Y-35389D01*
X52000Y-35679D01*
X52290Y-35389D01*
X52290Y-35531D01*
X52071Y-35750D01*
X52361Y-36040D01*
X52452Y-36017D01*
X52496Y-35890D01*
X52548Y-36017D01*
X52639Y-36040D01*
X52929Y-35750D01*
X52929Y-35892D01*
X52710Y-36111D01*
X52733Y-36202D01*
X52926Y-36269D01*
X53130Y-36258D01*
X53267Y-36202D01*
X53290Y-36111D01*
X53290Y-38369D01*
X53269Y-38348D01*
X53095Y-38276D01*
X52906Y-38276D01*
X52732Y-38348D01*
X52598Y-38481D01*
X52526Y-38655D01*
X52526Y-38844D01*
X52598Y-39018D01*
X52731Y-39152D01*
X52905Y-39224D01*
X53094Y-39224D01*
X53268Y-39152D01*
X53402Y-39019D01*
X53474Y-38845D01*
X53474Y-39729D01*
X52473Y-39729D01*
X52473Y-39065D01*
X52473Y-38986D01*
X52473Y-38436D01*
X52443Y-38363D01*
X52387Y-38307D01*
X52315Y-38277D01*
X52290Y-38277D01*
X52290Y-36111D01*
X52000Y-35821D01*
X51929Y-35892D01*
X51929Y-35750D01*
X51639Y-35460D01*
X51548Y-35483D01*
X51519Y-35566D01*
X51519Y-28574D01*
X51508Y-28370D01*
X51452Y-28233D01*
X51361Y-28210D01*
X51290Y-28281D01*
X51290Y-28139D01*
X51267Y-28048D01*
X51074Y-27981D01*
X50870Y-27992D01*
X50733Y-28048D01*
X50710Y-28139D01*
X51000Y-28429D01*
X51290Y-28139D01*
X51290Y-28281D01*
X51071Y-28500D01*
X51361Y-28790D01*
X51452Y-28767D01*
X51519Y-28574D01*
X51519Y-35566D01*
X51481Y-35676D01*
X51492Y-35880D01*
X51548Y-36017D01*
X51639Y-36040D01*
X51929Y-35750D01*
X51929Y-35892D01*
X51710Y-36111D01*
X51733Y-36202D01*
X51926Y-36269D01*
X52130Y-36258D01*
X52267Y-36202D01*
X52290Y-36111D01*
X52290Y-38277D01*
X52236Y-38277D01*
X51686Y-38277D01*
X51613Y-38307D01*
X51557Y-38363D01*
X51527Y-38435D01*
X51527Y-38514D01*
X51527Y-39064D01*
X51557Y-39137D01*
X51613Y-39193D01*
X51685Y-39223D01*
X51764Y-39223D01*
X52314Y-39223D01*
X52387Y-39193D01*
X52443Y-39137D01*
X52473Y-39065D01*
X52473Y-39729D01*
X51290Y-39729D01*
X51290Y-28861D01*
X51000Y-28571D01*
X50929Y-28642D01*
X50929Y-28500D01*
X50639Y-28210D01*
X50548Y-28233D01*
X50481Y-28426D01*
X50492Y-28630D01*
X50548Y-28767D01*
X50639Y-28790D01*
X50929Y-28500D01*
X50929Y-28642D01*
X50710Y-28861D01*
X50733Y-28952D01*
X50926Y-29019D01*
X51130Y-29008D01*
X51267Y-28952D01*
X51290Y-28861D01*
X51290Y-39729D01*
X49519Y-39729D01*
X49519Y-38824D01*
X49519Y-32074D01*
X49508Y-31870D01*
X49452Y-31733D01*
X49361Y-31710D01*
X49290Y-31781D01*
X49290Y-31639D01*
X49267Y-31548D01*
X49074Y-31481D01*
X48870Y-31492D01*
X48733Y-31548D01*
X48710Y-31639D01*
X49000Y-31929D01*
X49290Y-31639D01*
X49290Y-31781D01*
X49071Y-32000D01*
X49361Y-32290D01*
X49452Y-32267D01*
X49519Y-32074D01*
X49519Y-38824D01*
X49508Y-38620D01*
X49474Y-38536D01*
X49474Y-35845D01*
X49474Y-35656D01*
X49402Y-35482D01*
X49290Y-35369D01*
X49290Y-32361D01*
X49000Y-32071D01*
X48929Y-32142D01*
X48929Y-32000D01*
X48639Y-31710D01*
X48548Y-31733D01*
X48481Y-31926D01*
X48492Y-32130D01*
X48548Y-32267D01*
X48639Y-32290D01*
X48929Y-32000D01*
X48929Y-32142D01*
X48710Y-32361D01*
X48733Y-32452D01*
X48926Y-32519D01*
X49130Y-32508D01*
X49267Y-32452D01*
X49290Y-32361D01*
X49290Y-35369D01*
X49269Y-35348D01*
X49095Y-35276D01*
X48906Y-35276D01*
X48732Y-35348D01*
X48598Y-35481D01*
X48526Y-35655D01*
X48526Y-35844D01*
X48598Y-36018D01*
X48731Y-36152D01*
X48905Y-36224D01*
X49094Y-36224D01*
X49268Y-36152D01*
X49402Y-36019D01*
X49474Y-35845D01*
X49474Y-38536D01*
X49452Y-38483D01*
X49361Y-38460D01*
X49290Y-38531D01*
X49290Y-38389D01*
X49267Y-38298D01*
X49074Y-38231D01*
X48870Y-38242D01*
X48733Y-38298D01*
X48710Y-38389D01*
X49000Y-38679D01*
X49290Y-38389D01*
X49290Y-38531D01*
X49071Y-38750D01*
X49361Y-39040D01*
X49452Y-39017D01*
X49519Y-38824D01*
X49519Y-39729D01*
X49362Y-39729D01*
X48889Y-39256D01*
X48926Y-39269D01*
X49130Y-39258D01*
X49267Y-39202D01*
X49290Y-39111D01*
X49035Y-38856D01*
X49000Y-38821D01*
X48929Y-38750D01*
X48894Y-38715D01*
X48639Y-38460D01*
X48548Y-38483D01*
X48519Y-38566D01*
X48519Y-35824D01*
X48508Y-35620D01*
X48474Y-35536D01*
X48474Y-32095D01*
X48474Y-31906D01*
X48402Y-31732D01*
X48269Y-31598D01*
X48095Y-31526D01*
X47906Y-31526D01*
X47732Y-31598D01*
X47598Y-31731D01*
X47526Y-31905D01*
X47526Y-32094D01*
X47598Y-32268D01*
X47731Y-32402D01*
X47905Y-32474D01*
X48094Y-32474D01*
X48268Y-32402D01*
X48402Y-32269D01*
X48474Y-32095D01*
X48474Y-35536D01*
X48452Y-35483D01*
X48361Y-35460D01*
X48290Y-35531D01*
X48290Y-35389D01*
X48267Y-35298D01*
X48074Y-35231D01*
X47870Y-35242D01*
X47733Y-35298D01*
X47710Y-35389D01*
X48000Y-35679D01*
X48290Y-35389D01*
X48290Y-35531D01*
X48071Y-35750D01*
X48361Y-36040D01*
X48452Y-36017D01*
X48519Y-35824D01*
X48519Y-38566D01*
X48481Y-38676D01*
X48490Y-38856D01*
X48474Y-38840D01*
X48474Y-38656D01*
X48402Y-38482D01*
X48290Y-38369D01*
X48290Y-36111D01*
X48000Y-35821D01*
X47929Y-35892D01*
X47929Y-35750D01*
X47639Y-35460D01*
X47548Y-35483D01*
X47503Y-35609D01*
X47474Y-35537D01*
X47474Y-32095D01*
X47474Y-31906D01*
X47402Y-31732D01*
X47269Y-31598D01*
X47095Y-31526D01*
X46906Y-31526D01*
X46732Y-31598D01*
X46598Y-31731D01*
X46526Y-31905D01*
X46526Y-32094D01*
X46598Y-32268D01*
X46731Y-32402D01*
X46905Y-32474D01*
X47094Y-32474D01*
X47268Y-32402D01*
X47402Y-32269D01*
X47474Y-32095D01*
X47474Y-35537D01*
X47452Y-35483D01*
X47361Y-35460D01*
X47290Y-35531D01*
X47290Y-35389D01*
X47267Y-35298D01*
X47074Y-35231D01*
X46874Y-35241D01*
X46874Y-34575D01*
X46874Y-34426D01*
X46817Y-34289D01*
X46712Y-34183D01*
X46575Y-34126D01*
X46509Y-34126D01*
X46474Y-34090D01*
X46474Y-32095D01*
X46474Y-31906D01*
X46402Y-31732D01*
X46269Y-31598D01*
X46095Y-31526D01*
X45906Y-31526D01*
X45732Y-31598D01*
X45598Y-31731D01*
X45526Y-31905D01*
X45526Y-32094D01*
X45598Y-32268D01*
X45731Y-32402D01*
X45905Y-32474D01*
X46094Y-32474D01*
X46268Y-32402D01*
X46402Y-32269D01*
X46474Y-32095D01*
X46474Y-34090D01*
X45519Y-33135D01*
X45519Y-32074D01*
X45508Y-31870D01*
X45452Y-31733D01*
X45361Y-31710D01*
X45290Y-31781D01*
X45290Y-31639D01*
X45267Y-31548D01*
X45074Y-31481D01*
X44870Y-31492D01*
X44733Y-31548D01*
X44710Y-31639D01*
X45000Y-31929D01*
X45290Y-31639D01*
X45290Y-31781D01*
X45071Y-32000D01*
X45361Y-32290D01*
X45452Y-32267D01*
X45519Y-32074D01*
X45519Y-33135D01*
X44890Y-32506D01*
X44926Y-32519D01*
X45130Y-32508D01*
X45267Y-32452D01*
X45290Y-32361D01*
X45035Y-32106D01*
X45000Y-32071D01*
X44929Y-32000D01*
X44894Y-31965D01*
X44639Y-31710D01*
X44548Y-31733D01*
X44481Y-31926D01*
X44490Y-32106D01*
X44474Y-32090D01*
X44474Y-31906D01*
X44402Y-31732D01*
X44269Y-31598D01*
X44095Y-31526D01*
X43906Y-31526D01*
X43732Y-31598D01*
X43598Y-31731D01*
X43526Y-31905D01*
X43526Y-32094D01*
X43598Y-32268D01*
X43731Y-32402D01*
X43905Y-32474D01*
X44090Y-32474D01*
X46126Y-34509D01*
X46126Y-34574D01*
X46183Y-34711D01*
X46288Y-34817D01*
X46425Y-34874D01*
X46574Y-34874D01*
X46711Y-34817D01*
X46817Y-34712D01*
X46874Y-34575D01*
X46874Y-35241D01*
X46870Y-35242D01*
X46733Y-35298D01*
X46710Y-35389D01*
X47000Y-35679D01*
X47290Y-35389D01*
X47290Y-35531D01*
X47071Y-35750D01*
X47361Y-36040D01*
X47452Y-36017D01*
X47496Y-35890D01*
X47548Y-36017D01*
X47639Y-36040D01*
X47929Y-35750D01*
X47929Y-35892D01*
X47710Y-36111D01*
X47733Y-36202D01*
X47926Y-36269D01*
X48130Y-36258D01*
X48267Y-36202D01*
X48290Y-36111D01*
X48290Y-38369D01*
X48269Y-38348D01*
X48095Y-38276D01*
X47906Y-38276D01*
X47732Y-38348D01*
X47598Y-38481D01*
X47526Y-38655D01*
X47526Y-38844D01*
X47598Y-39018D01*
X47731Y-39152D01*
X47905Y-39224D01*
X48090Y-39224D01*
X49056Y-40189D01*
X49058Y-40192D01*
X49114Y-40229D01*
X46862Y-40229D01*
X45824Y-39190D01*
X45905Y-39224D01*
X46094Y-39224D01*
X46268Y-39152D01*
X46402Y-39019D01*
X46474Y-38845D01*
X46474Y-38656D01*
X46440Y-38574D01*
X46526Y-38660D01*
X46526Y-38844D01*
X46598Y-39018D01*
X46731Y-39152D01*
X46905Y-39224D01*
X47094Y-39224D01*
X47268Y-39152D01*
X47402Y-39019D01*
X47474Y-38845D01*
X47474Y-38656D01*
X47402Y-38482D01*
X47290Y-38369D01*
X47290Y-36111D01*
X47000Y-35821D01*
X46929Y-35892D01*
X46929Y-35750D01*
X46639Y-35460D01*
X46548Y-35483D01*
X46481Y-35676D01*
X46492Y-35880D01*
X46548Y-36017D01*
X46639Y-36040D01*
X46929Y-35750D01*
X46929Y-35892D01*
X46710Y-36111D01*
X46733Y-36202D01*
X46926Y-36269D01*
X47130Y-36258D01*
X47267Y-36202D01*
X47290Y-36111D01*
X47290Y-38369D01*
X47269Y-38348D01*
X47095Y-38276D01*
X46910Y-38276D01*
X46692Y-38058D01*
X46604Y-38000D01*
X46585Y-37996D01*
X46500Y-37978D01*
X46495Y-37979D01*
X46474Y-37979D01*
X46474Y-35845D01*
X46474Y-35656D01*
X46402Y-35482D01*
X46269Y-35348D01*
X46095Y-35276D01*
X45906Y-35276D01*
X45732Y-35348D01*
X45598Y-35481D01*
X45526Y-35655D01*
X45526Y-35844D01*
X45598Y-36018D01*
X45731Y-36152D01*
X45905Y-36224D01*
X46094Y-36224D01*
X46268Y-36152D01*
X46402Y-36019D01*
X46474Y-35845D01*
X46474Y-37979D01*
X45519Y-37979D01*
X45519Y-35824D01*
X45508Y-35620D01*
X45452Y-35483D01*
X45361Y-35460D01*
X45290Y-35531D01*
X45290Y-35389D01*
X45267Y-35298D01*
X45074Y-35231D01*
X44870Y-35242D01*
X44733Y-35298D01*
X44710Y-35389D01*
X45000Y-35679D01*
X45290Y-35389D01*
X45290Y-35531D01*
X45071Y-35750D01*
X45361Y-36040D01*
X45452Y-36017D01*
X45519Y-35824D01*
X45519Y-37979D01*
X45290Y-37979D01*
X45290Y-36111D01*
X45000Y-35821D01*
X44929Y-35892D01*
X44929Y-35750D01*
X44639Y-35460D01*
X44548Y-35483D01*
X44503Y-35609D01*
X44452Y-35483D01*
X44361Y-35460D01*
X44290Y-35531D01*
X44290Y-35389D01*
X44267Y-35298D01*
X44074Y-35231D01*
X43870Y-35242D01*
X43733Y-35298D01*
X43710Y-35389D01*
X44000Y-35679D01*
X44290Y-35389D01*
X44290Y-35531D01*
X44071Y-35750D01*
X44361Y-36040D01*
X44452Y-36017D01*
X44496Y-35890D01*
X44548Y-36017D01*
X44639Y-36040D01*
X44929Y-35750D01*
X44929Y-35892D01*
X44710Y-36111D01*
X44733Y-36202D01*
X44926Y-36269D01*
X45130Y-36258D01*
X45267Y-36202D01*
X45290Y-36111D01*
X45290Y-37979D01*
X44500Y-37979D01*
X44396Y-38000D01*
X44308Y-38058D01*
X44290Y-38076D01*
X44290Y-36111D01*
X44000Y-35821D01*
X43929Y-35892D01*
X43929Y-35750D01*
X43639Y-35460D01*
X43548Y-35483D01*
X43481Y-35676D01*
X43492Y-35880D01*
X43548Y-36017D01*
X43639Y-36040D01*
X43929Y-35750D01*
X43929Y-35892D01*
X43710Y-36111D01*
X43733Y-36202D01*
X43926Y-36269D01*
X44130Y-36258D01*
X44267Y-36202D01*
X44290Y-36111D01*
X44290Y-38076D01*
X44090Y-38276D01*
X43906Y-38276D01*
X43732Y-38348D01*
X43598Y-38481D01*
X43526Y-38655D01*
X43526Y-38844D01*
X43598Y-39018D01*
X43731Y-39152D01*
X43905Y-39224D01*
X44094Y-39224D01*
X44268Y-39152D01*
X44402Y-39019D01*
X44474Y-38845D01*
X44474Y-38660D01*
X44559Y-38574D01*
X44526Y-38655D01*
X44526Y-38844D01*
X44598Y-39018D01*
X44731Y-39152D01*
X44905Y-39224D01*
X45090Y-39224D01*
X46556Y-40689D01*
X46558Y-40692D01*
X46646Y-40750D01*
X46749Y-40771D01*
X46749Y-40770D01*
X46750Y-40771D01*
X47364Y-40771D01*
X47308Y-40808D01*
X47090Y-41026D01*
X46906Y-41026D01*
X46732Y-41098D01*
X46598Y-41231D01*
X46526Y-41405D01*
X46526Y-41594D01*
X46598Y-41768D01*
X46731Y-41902D01*
X46905Y-41974D01*
X47094Y-41974D01*
X47268Y-41902D01*
X47402Y-41769D01*
X47474Y-41595D01*
X47474Y-41410D01*
X47559Y-41324D01*
X47526Y-41405D01*
X47526Y-41594D01*
X47598Y-41768D01*
X47731Y-41902D01*
X47905Y-41974D01*
X48094Y-41974D01*
X48268Y-41902D01*
X48402Y-41769D01*
X48474Y-41595D01*
X48474Y-41406D01*
X48418Y-41271D01*
X48581Y-41271D01*
X48526Y-41405D01*
X48526Y-41594D01*
X48598Y-41768D01*
X48731Y-41902D01*
X48905Y-41974D01*
X49094Y-41974D01*
X49268Y-41902D01*
X49402Y-41769D01*
X49474Y-41595D01*
X49474Y-41406D01*
X49418Y-41271D01*
X49581Y-41271D01*
X49526Y-41405D01*
X49526Y-41594D01*
X49598Y-41768D01*
X49731Y-41902D01*
X49905Y-41974D01*
X50094Y-41974D01*
X50268Y-41902D01*
X50402Y-41769D01*
X50474Y-41595D01*
X50474Y-41406D01*
X50418Y-41271D01*
X50581Y-41271D01*
X50526Y-41405D01*
X50526Y-41594D01*
X50598Y-41768D01*
X50731Y-41902D01*
X50905Y-41974D01*
X51094Y-41974D01*
X51268Y-41902D01*
X51402Y-41769D01*
X51474Y-41595D01*
X51474Y-41406D01*
X51418Y-41271D01*
X51742Y-41271D01*
X51788Y-41317D01*
X51925Y-41374D01*
X52074Y-41374D01*
X52211Y-41317D01*
X52317Y-41212D01*
X52374Y-41075D01*
X52374Y-40926D01*
X52317Y-40789D01*
X52299Y-40771D01*
X56242Y-40771D01*
X56288Y-40817D01*
X56425Y-40874D01*
X56574Y-40874D01*
X56711Y-40817D01*
X56729Y-40799D01*
X56729Y-41100D01*
X56598Y-41231D01*
X56526Y-41405D01*
X56526Y-41594D01*
X56598Y-41768D01*
X56731Y-41902D01*
X56895Y-41970D01*
X56808Y-42058D01*
X56800Y-42069D01*
X56732Y-42098D01*
X56598Y-42231D01*
X56526Y-42405D01*
X56526Y-42594D01*
X56598Y-42768D01*
X56731Y-42902D01*
X56905Y-42974D01*
X57094Y-42974D01*
X57268Y-42902D01*
X57276Y-42893D01*
X57308Y-42942D01*
X57729Y-43363D01*
X57729Y-44367D01*
X57683Y-44413D01*
X57626Y-44550D01*
X57626Y-44561D01*
X56532Y-43468D01*
X56308Y-43244D01*
X56369Y-43153D01*
X56398Y-43000D01*
X56399Y-43000D01*
X56399Y-42771D01*
X56402Y-42769D01*
X56474Y-42595D01*
X56474Y-42406D01*
X56402Y-42232D01*
X56399Y-42228D01*
X56399Y-41931D01*
X56443Y-41887D01*
X56473Y-41815D01*
X56473Y-41736D01*
X56473Y-41186D01*
X56443Y-41113D01*
X56387Y-41057D01*
X56315Y-41027D01*
X56236Y-41027D01*
X55686Y-41027D01*
X55613Y-41057D01*
X55557Y-41113D01*
X55527Y-41185D01*
X55527Y-41264D01*
X55527Y-41814D01*
X55557Y-41887D01*
X55601Y-41931D01*
X55601Y-42228D01*
X55598Y-42231D01*
X55526Y-42405D01*
X55526Y-42594D01*
X55598Y-42768D01*
X55601Y-42771D01*
X55601Y-42834D01*
X55584Y-42851D01*
X54451Y-42851D01*
X54402Y-42732D01*
X54269Y-42598D01*
X54095Y-42526D01*
X53906Y-42526D01*
X53732Y-42598D01*
X53598Y-42731D01*
X53548Y-42851D01*
X52319Y-42851D01*
X52402Y-42769D01*
X52474Y-42595D01*
X52474Y-42406D01*
X52402Y-42232D01*
X52269Y-42098D01*
X52095Y-42026D01*
X51906Y-42026D01*
X51732Y-42098D01*
X51598Y-42231D01*
X51526Y-42405D01*
X51526Y-42594D01*
X51598Y-42768D01*
X51680Y-42851D01*
X51399Y-42851D01*
X51399Y-42771D01*
X51402Y-42769D01*
X51474Y-42595D01*
X51474Y-42406D01*
X51402Y-42232D01*
X51269Y-42098D01*
X51095Y-42026D01*
X50906Y-42026D01*
X50732Y-42098D01*
X50598Y-42231D01*
X50526Y-42405D01*
X50526Y-42594D01*
X50598Y-42768D01*
X50601Y-42771D01*
X50601Y-42851D01*
X50519Y-42851D01*
X50404Y-42851D01*
X50448Y-42807D01*
X50416Y-42775D01*
X50452Y-42767D01*
X50519Y-42574D01*
X50508Y-42370D01*
X50452Y-42233D01*
X50361Y-42210D01*
X50290Y-42281D01*
X50290Y-42139D01*
X50267Y-42048D01*
X50074Y-41981D01*
X49870Y-41992D01*
X49733Y-42048D01*
X49710Y-42139D01*
X50000Y-42429D01*
X50290Y-42139D01*
X50290Y-42281D01*
X50106Y-42465D01*
X50071Y-42500D01*
X50000Y-42571D01*
X49929Y-42500D01*
X49894Y-42465D01*
X49639Y-42210D01*
X49548Y-42233D01*
X49503Y-42359D01*
X49452Y-42233D01*
X49361Y-42210D01*
X49290Y-42281D01*
X49290Y-42139D01*
X49267Y-42048D01*
X49074Y-41981D01*
X48870Y-41992D01*
X48733Y-42048D01*
X48710Y-42139D01*
X49000Y-42429D01*
X49290Y-42139D01*
X49290Y-42281D01*
X49106Y-42465D01*
X49071Y-42500D01*
X49000Y-42571D01*
X48929Y-42500D01*
X48894Y-42465D01*
X48639Y-42210D01*
X48548Y-42233D01*
X48503Y-42359D01*
X48452Y-42233D01*
X48361Y-42210D01*
X48290Y-42281D01*
X48290Y-42139D01*
X48267Y-42048D01*
X48074Y-41981D01*
X47870Y-41992D01*
X47733Y-42048D01*
X47710Y-42139D01*
X48000Y-42429D01*
X48290Y-42139D01*
X48290Y-42281D01*
X48106Y-42465D01*
X48071Y-42500D01*
X48000Y-42571D01*
X47929Y-42500D01*
X47894Y-42465D01*
X47639Y-42210D01*
X47548Y-42233D01*
X47503Y-42359D01*
X47452Y-42233D01*
X47361Y-42210D01*
X47290Y-42281D01*
X47290Y-42139D01*
X47267Y-42048D01*
X47074Y-41981D01*
X46870Y-41992D01*
X46733Y-42048D01*
X46710Y-42139D01*
X47000Y-42429D01*
X47290Y-42139D01*
X47290Y-42281D01*
X47106Y-42465D01*
X47071Y-42500D01*
X47000Y-42571D01*
X46929Y-42500D01*
X46894Y-42465D01*
X46639Y-42210D01*
X46548Y-42233D01*
X46503Y-42359D01*
X46452Y-42233D01*
X46361Y-42210D01*
X46290Y-42281D01*
X46290Y-42139D01*
X46267Y-42048D01*
X46074Y-41981D01*
X45870Y-41992D01*
X45733Y-42048D01*
X45710Y-42139D01*
X46000Y-42429D01*
X46290Y-42139D01*
X46290Y-42281D01*
X46106Y-42465D01*
X46071Y-42500D01*
X46000Y-42571D01*
X45929Y-42500D01*
X45894Y-42465D01*
X45639Y-42210D01*
X45548Y-42233D01*
X45503Y-42359D01*
X45452Y-42233D01*
X45361Y-42210D01*
X45106Y-42465D01*
X45071Y-42500D01*
X45000Y-42571D01*
X44929Y-42500D01*
X45000Y-42429D01*
X45035Y-42394D01*
X45290Y-42139D01*
X45267Y-42048D01*
X45132Y-42001D01*
X45362Y-41771D01*
X45527Y-41771D01*
X45527Y-41814D01*
X45557Y-41887D01*
X45613Y-41943D01*
X45685Y-41973D01*
X45764Y-41973D01*
X46314Y-41973D01*
X46387Y-41943D01*
X46443Y-41887D01*
X46473Y-41815D01*
X46473Y-41736D01*
X46473Y-41186D01*
X46443Y-41113D01*
X46387Y-41057D01*
X46315Y-41027D01*
X46236Y-41027D01*
X45686Y-41027D01*
X45613Y-41057D01*
X45557Y-41113D01*
X45527Y-41185D01*
X45527Y-41229D01*
X45250Y-41229D01*
X45146Y-41250D01*
X45058Y-41308D01*
X45056Y-41310D01*
X44308Y-42058D01*
X44276Y-42105D01*
X44269Y-42098D01*
X44095Y-42026D01*
X43906Y-42026D01*
X43732Y-42098D01*
X43598Y-42231D01*
X43526Y-42405D01*
X43526Y-42594D01*
X43598Y-42768D01*
X43680Y-42851D01*
X43399Y-42851D01*
X43399Y-42771D01*
X43402Y-42769D01*
X43474Y-42595D01*
X43474Y-42406D01*
X43473Y-42403D01*
X43473Y-39065D01*
X43473Y-38986D01*
X43473Y-38436D01*
X43443Y-38363D01*
X43387Y-38307D01*
X43315Y-38277D01*
X43236Y-38277D01*
X42686Y-38277D01*
X42613Y-38307D01*
X42557Y-38363D01*
X42527Y-38435D01*
X42527Y-38514D01*
X42527Y-39064D01*
X42557Y-39137D01*
X42613Y-39193D01*
X42685Y-39223D01*
X42764Y-39223D01*
X43314Y-39223D01*
X43387Y-39193D01*
X43443Y-39137D01*
X43473Y-39065D01*
X43473Y-42403D01*
X43402Y-42232D01*
X43269Y-42098D01*
X43095Y-42026D01*
X42906Y-42026D01*
X42732Y-42098D01*
X42598Y-42231D01*
X42526Y-42405D01*
X42526Y-42594D01*
X42598Y-42768D01*
X42601Y-42771D01*
X42601Y-42851D01*
X41519Y-42851D01*
X41519Y-38324D01*
X41508Y-38120D01*
X41452Y-37983D01*
X41361Y-37960D01*
X41071Y-38250D01*
X41361Y-38540D01*
X41452Y-38517D01*
X41519Y-38324D01*
X41519Y-42851D01*
X41451Y-42851D01*
X41402Y-42732D01*
X41269Y-42598D01*
X41095Y-42526D01*
X40906Y-42526D01*
X40774Y-42580D01*
X40774Y-38716D01*
X40926Y-38769D01*
X41130Y-38758D01*
X41267Y-38702D01*
X41290Y-38611D01*
X41035Y-38356D01*
X41000Y-38321D01*
X40929Y-38250D01*
X41000Y-38179D01*
X41035Y-38144D01*
X41290Y-37889D01*
X41267Y-37798D01*
X41074Y-37731D01*
X40870Y-37742D01*
X40774Y-37781D01*
X40774Y-36669D01*
X40905Y-36724D01*
X41094Y-36724D01*
X41268Y-36652D01*
X41271Y-36649D01*
X42500Y-36649D01*
X42653Y-36619D01*
X42782Y-36532D01*
X43090Y-36224D01*
X43094Y-36224D01*
X43268Y-36152D01*
X43402Y-36019D01*
X43474Y-35845D01*
X43474Y-35656D01*
X43473Y-35653D01*
X43473Y-32315D01*
X43473Y-32236D01*
X43473Y-31686D01*
X43443Y-31613D01*
X43387Y-31557D01*
X43315Y-31527D01*
X43236Y-31527D01*
X42686Y-31527D01*
X42613Y-31557D01*
X42557Y-31613D01*
X42527Y-31685D01*
X42527Y-31764D01*
X42527Y-32314D01*
X42557Y-32387D01*
X42613Y-32443D01*
X42685Y-32473D01*
X42764Y-32473D01*
X43314Y-32473D01*
X43387Y-32443D01*
X43443Y-32387D01*
X43473Y-32315D01*
X43473Y-35653D01*
X43402Y-35482D01*
X43269Y-35348D01*
X43095Y-35276D01*
X42906Y-35276D01*
X42732Y-35348D01*
X42598Y-35481D01*
X42526Y-35655D01*
X42526Y-35660D01*
X42335Y-35851D01*
X41519Y-35851D01*
X41519Y-31574D01*
X41508Y-31370D01*
X41452Y-31233D01*
X41361Y-31210D01*
X41071Y-31500D01*
X41361Y-31790D01*
X41452Y-31767D01*
X41519Y-31574D01*
X41519Y-35851D01*
X41271Y-35851D01*
X41269Y-35848D01*
X41095Y-35776D01*
X40906Y-35776D01*
X40774Y-35830D01*
X40774Y-31966D01*
X40926Y-32019D01*
X41130Y-32008D01*
X41267Y-31952D01*
X41290Y-31861D01*
X41035Y-31606D01*
X41000Y-31571D01*
X40929Y-31500D01*
X41000Y-31429D01*
X41035Y-31394D01*
X41290Y-31139D01*
X41267Y-31048D01*
X41074Y-30981D01*
X40870Y-30992D01*
X40774Y-31031D01*
X40774Y-30290D01*
X41090Y-29974D01*
X41094Y-29974D01*
X41268Y-29902D01*
X41271Y-29899D01*
X42500Y-29899D01*
X42653Y-29869D01*
X42782Y-29782D01*
X43090Y-29474D01*
X43094Y-29474D01*
X43268Y-29402D01*
X43402Y-29269D01*
X43474Y-29095D01*
X43474Y-29090D01*
X43526Y-29038D01*
X43526Y-29094D01*
X43598Y-29268D01*
X43731Y-29402D01*
X43905Y-29474D01*
X44090Y-29474D01*
X44308Y-29692D01*
X44396Y-29750D01*
X44397Y-29750D01*
X44500Y-29771D01*
X46000Y-29771D01*
X48495Y-29771D01*
X48500Y-29772D01*
X48500Y-29771D01*
X48585Y-29753D01*
X48603Y-29750D01*
X48604Y-29750D01*
X48692Y-29692D01*
X48910Y-29474D01*
X49094Y-29474D01*
X49268Y-29402D01*
X49402Y-29269D01*
X49474Y-29095D01*
X49474Y-28906D01*
X49402Y-28732D01*
X49308Y-28637D01*
X49403Y-28619D01*
X49532Y-28532D01*
X50090Y-27974D01*
X50094Y-27974D01*
X50268Y-27902D01*
X50402Y-27769D01*
X50474Y-27595D01*
X50474Y-27406D01*
X50402Y-27232D01*
X50399Y-27228D01*
X50399Y-26899D01*
X50728Y-26899D01*
X50731Y-26902D01*
X50905Y-26974D01*
X51094Y-26974D01*
X51268Y-26902D01*
X51271Y-26899D01*
X52500Y-26899D01*
X52653Y-26869D01*
X52782Y-26782D01*
X53090Y-26474D01*
X53094Y-26474D01*
X53268Y-26402D01*
X53402Y-26269D01*
X53474Y-26095D01*
X53474Y-25906D01*
X53402Y-25732D01*
X53269Y-25598D01*
X53095Y-25526D01*
X52906Y-25526D01*
X52732Y-25598D01*
X52598Y-25731D01*
X52526Y-25905D01*
X52526Y-25910D01*
X52335Y-26101D01*
X51271Y-26101D01*
X51269Y-26098D01*
X51095Y-26026D01*
X50906Y-26026D01*
X50732Y-26098D01*
X50728Y-26101D01*
X50271Y-26101D01*
X50269Y-26098D01*
X50095Y-26026D01*
X49906Y-26026D01*
X49732Y-26098D01*
X49598Y-26231D01*
X49526Y-26405D01*
X49526Y-26594D01*
X49598Y-26768D01*
X49601Y-26771D01*
X49601Y-27228D01*
X49598Y-27231D01*
X49526Y-27405D01*
X49526Y-27409D01*
X49084Y-27851D01*
X47319Y-27851D01*
X47402Y-27769D01*
X47474Y-27595D01*
X47474Y-27406D01*
X47474Y-26595D01*
X47474Y-26406D01*
X47402Y-26232D01*
X47269Y-26098D01*
X47095Y-26026D01*
X46906Y-26026D01*
X46732Y-26098D01*
X46598Y-26231D01*
X46526Y-26405D01*
X46526Y-26594D01*
X46598Y-26768D01*
X46731Y-26902D01*
X46905Y-26974D01*
X47094Y-26974D01*
X47268Y-26902D01*
X47402Y-26769D01*
X47474Y-26595D01*
X47474Y-27406D01*
X47402Y-27232D01*
X47269Y-27098D01*
X47095Y-27026D01*
X46906Y-27026D01*
X46732Y-27098D01*
X46598Y-27231D01*
X46526Y-27405D01*
X46526Y-27594D01*
X46598Y-27768D01*
X46680Y-27851D01*
X45319Y-27851D01*
X45402Y-27769D01*
X45474Y-27595D01*
X45474Y-27406D01*
X45474Y-26595D01*
X45474Y-26406D01*
X45402Y-26232D01*
X45269Y-26098D01*
X45095Y-26026D01*
X44906Y-26026D01*
X44732Y-26098D01*
X44598Y-26231D01*
X44526Y-26405D01*
X44526Y-26594D01*
X44598Y-26768D01*
X44731Y-26902D01*
X44905Y-26974D01*
X45094Y-26974D01*
X45268Y-26902D01*
X45402Y-26769D01*
X45474Y-26595D01*
X45474Y-27406D01*
X45402Y-27232D01*
X45269Y-27098D01*
X45095Y-27026D01*
X44906Y-27026D01*
X44732Y-27098D01*
X44598Y-27231D01*
X44526Y-27405D01*
X44526Y-27594D01*
X44598Y-27768D01*
X44680Y-27851D01*
X43750Y-27851D01*
X43597Y-27881D01*
X43498Y-27947D01*
X43498Y-27599D01*
X43498Y-27401D01*
X43498Y-26840D01*
X43498Y-26761D01*
X43498Y-26161D01*
X43468Y-26088D01*
X43412Y-26032D01*
X43340Y-26002D01*
X43261Y-26002D01*
X42661Y-26002D01*
X42588Y-26032D01*
X42532Y-26088D01*
X42502Y-26160D01*
X42502Y-26239D01*
X42502Y-26839D01*
X42532Y-26912D01*
X42588Y-26968D01*
X42660Y-26998D01*
X42739Y-26998D01*
X43339Y-26998D01*
X43412Y-26968D01*
X43468Y-26912D01*
X43498Y-26840D01*
X43498Y-27401D01*
X43422Y-27218D01*
X43282Y-27078D01*
X43099Y-27002D01*
X42901Y-27002D01*
X42718Y-27078D01*
X42578Y-27218D01*
X42502Y-27401D01*
X42502Y-27599D01*
X42578Y-27782D01*
X42718Y-27922D01*
X42901Y-27998D01*
X43099Y-27998D01*
X43282Y-27922D01*
X43422Y-27782D01*
X43498Y-27599D01*
X43498Y-27947D01*
X43467Y-27968D01*
X42909Y-28526D01*
X42906Y-28526D01*
X42732Y-28598D01*
X42598Y-28731D01*
X42526Y-28905D01*
X42526Y-28910D01*
X42335Y-29101D01*
X41271Y-29101D01*
X41269Y-29098D01*
X41095Y-29026D01*
X40906Y-29026D01*
X40732Y-29098D01*
X40598Y-29231D01*
X40526Y-29405D01*
X40526Y-29409D01*
X40274Y-29661D01*
X40274Y-26027D01*
X40334Y-25723D01*
X40490Y-25490D01*
X40723Y-25334D01*
X41027Y-25274D01*
X79972Y-25274D01*
X80276Y-25334D01*
X80509Y-25490D01*
X80665Y-25723D01*
X80726Y-26027D01*
X80726Y-48972D01*
M02*
