G04 (created by PCBNEW-RS274X (2012-01-19 BZR 3256)-stable) date 2/15/2013 12:00:00 AM*
G01*
G70*
G90*
%MOIN*%
G04 Gerber Fmt 3.4, Leading zero omitted, Abs format*
%FSLAX34Y34*%
G04 APERTURE LIST*
%ADD10C,0.006000*%
%ADD11C,0.008000*%
G04 APERTURE END LIST*
G54D10*
G54D11*
X65924Y-31143D02*
X65867Y-31162D01*
X65771Y-31162D01*
X65733Y-31143D01*
X65714Y-31124D01*
X65695Y-31086D01*
X65695Y-31048D01*
X65714Y-31010D01*
X65733Y-30990D01*
X65771Y-30971D01*
X65848Y-30952D01*
X65886Y-30933D01*
X65905Y-30914D01*
X65924Y-30876D01*
X65924Y-30838D01*
X65905Y-30800D01*
X65886Y-30781D01*
X65848Y-30762D01*
X65752Y-30762D01*
X65695Y-30781D01*
X65562Y-30762D02*
X65467Y-31162D01*
X65390Y-30876D01*
X65314Y-31162D01*
X65219Y-30762D01*
X64857Y-31162D02*
X65086Y-31162D01*
X64972Y-31162D02*
X64972Y-30762D01*
X65010Y-30819D01*
X65048Y-30857D01*
X65086Y-30876D01*
X64686Y-31124D02*
X64667Y-31143D01*
X64686Y-31162D01*
X64705Y-31143D01*
X64686Y-31124D01*
X64686Y-31162D01*
X64324Y-30895D02*
X64324Y-31162D01*
X64420Y-30743D02*
X64515Y-31029D01*
X64267Y-31029D01*
X63810Y-31010D02*
X63505Y-31010D01*
X63010Y-31162D02*
X63010Y-30762D01*
X62781Y-31162D01*
X62781Y-30762D01*
X62515Y-30762D02*
X62438Y-30762D01*
X62400Y-30781D01*
X62362Y-30819D01*
X62343Y-30895D01*
X62343Y-31029D01*
X62362Y-31105D01*
X62400Y-31143D01*
X62438Y-31162D01*
X62515Y-31162D01*
X62553Y-31143D01*
X62591Y-31105D01*
X62610Y-31029D01*
X62610Y-30895D01*
X62591Y-30819D01*
X62553Y-30781D01*
X62515Y-30762D01*
X62229Y-30762D02*
X62000Y-30762D01*
X62115Y-31162D02*
X62115Y-30762D01*
X61562Y-30762D02*
X61562Y-31086D01*
X61543Y-31124D01*
X61524Y-31143D01*
X61486Y-31162D01*
X61409Y-31162D01*
X61371Y-31143D01*
X61352Y-31124D01*
X61333Y-31086D01*
X61333Y-30762D01*
X61162Y-31143D02*
X61105Y-31162D01*
X61009Y-31162D01*
X60971Y-31143D01*
X60952Y-31124D01*
X60933Y-31086D01*
X60933Y-31048D01*
X60952Y-31010D01*
X60971Y-30990D01*
X61009Y-30971D01*
X61086Y-30952D01*
X61124Y-30933D01*
X61143Y-30914D01*
X61162Y-30876D01*
X61162Y-30838D01*
X61143Y-30800D01*
X61124Y-30781D01*
X61086Y-30762D01*
X60990Y-30762D01*
X60933Y-30781D01*
X60762Y-30952D02*
X60628Y-30952D01*
X60571Y-31162D02*
X60762Y-31162D01*
X60762Y-30762D01*
X60571Y-30762D01*
X60400Y-31162D02*
X60400Y-30762D01*
X60305Y-30762D01*
X60247Y-30781D01*
X60209Y-30819D01*
X60190Y-30857D01*
X60171Y-30933D01*
X60171Y-30990D01*
X60190Y-31067D01*
X60209Y-31105D01*
X60247Y-31143D01*
X60305Y-31162D01*
X60400Y-31162D01*
G54D10*
X65771Y-28621D02*
X65943Y-28621D01*
X65857Y-28621D02*
X65857Y-28321D01*
X65886Y-28364D01*
X65914Y-28393D01*
X65943Y-28407D01*
X65485Y-28621D02*
X65657Y-28621D01*
X65571Y-28621D02*
X65571Y-28321D01*
X65600Y-28364D01*
X65628Y-28393D01*
X65657Y-28407D01*
X65199Y-28621D02*
X65371Y-28621D01*
X65285Y-28621D02*
X65285Y-28321D01*
X65314Y-28364D01*
X65342Y-28393D01*
X65371Y-28407D01*
X64842Y-28507D02*
X64613Y-28507D01*
X64184Y-28321D02*
X64156Y-28321D01*
X64127Y-28336D01*
X64113Y-28350D01*
X64099Y-28379D01*
X64084Y-28436D01*
X64084Y-28507D01*
X64099Y-28564D01*
X64113Y-28593D01*
X64127Y-28607D01*
X64156Y-28621D01*
X64184Y-28621D01*
X64213Y-28607D01*
X64227Y-28593D01*
X64242Y-28564D01*
X64256Y-28507D01*
X64256Y-28436D01*
X64242Y-28379D01*
X64227Y-28350D01*
X64213Y-28336D01*
X64184Y-28321D01*
X63984Y-28621D02*
X63827Y-28421D01*
X63984Y-28421D02*
X63827Y-28621D01*
X63741Y-28321D02*
X63555Y-28321D01*
X63655Y-28436D01*
X63613Y-28436D01*
X63584Y-28450D01*
X63570Y-28464D01*
X63555Y-28493D01*
X63555Y-28564D01*
X63570Y-28593D01*
X63584Y-28607D01*
X63613Y-28621D01*
X63698Y-28621D01*
X63727Y-28607D01*
X63741Y-28593D01*
X63369Y-28321D02*
X63341Y-28321D01*
X63312Y-28336D01*
X63298Y-28350D01*
X63284Y-28379D01*
X63269Y-28436D01*
X63269Y-28507D01*
X63284Y-28564D01*
X63298Y-28593D01*
X63312Y-28607D01*
X63341Y-28621D01*
X63369Y-28621D01*
X63398Y-28607D01*
X63412Y-28593D01*
X63427Y-28564D01*
X63441Y-28507D01*
X63441Y-28436D01*
X63427Y-28379D01*
X63412Y-28350D01*
X63398Y-28336D01*
X63369Y-28321D01*
X63083Y-28321D02*
X63055Y-28321D01*
X63026Y-28336D01*
X63012Y-28350D01*
X62998Y-28379D01*
X62983Y-28436D01*
X62983Y-28507D01*
X62998Y-28564D01*
X63012Y-28593D01*
X63026Y-28607D01*
X63055Y-28621D01*
X63083Y-28621D01*
X63112Y-28607D01*
X63126Y-28593D01*
X63141Y-28564D01*
X63155Y-28507D01*
X63155Y-28436D01*
X63141Y-28379D01*
X63126Y-28350D01*
X63112Y-28336D01*
X63083Y-28321D01*
X65771Y-29101D02*
X65943Y-29101D01*
X65857Y-29101D02*
X65857Y-28801D01*
X65886Y-28844D01*
X65914Y-28873D01*
X65943Y-28887D01*
X65485Y-29101D02*
X65657Y-29101D01*
X65571Y-29101D02*
X65571Y-28801D01*
X65600Y-28844D01*
X65628Y-28873D01*
X65657Y-28887D01*
X65299Y-28801D02*
X65271Y-28801D01*
X65242Y-28816D01*
X65228Y-28830D01*
X65214Y-28859D01*
X65199Y-28916D01*
X65199Y-28987D01*
X65214Y-29044D01*
X65228Y-29073D01*
X65242Y-29087D01*
X65271Y-29101D01*
X65299Y-29101D01*
X65328Y-29087D01*
X65342Y-29073D01*
X65357Y-29044D01*
X65371Y-28987D01*
X65371Y-28916D01*
X65357Y-28859D01*
X65342Y-28830D01*
X65328Y-28816D01*
X65299Y-28801D01*
X64842Y-28987D02*
X64613Y-28987D01*
X64184Y-28801D02*
X64156Y-28801D01*
X64127Y-28816D01*
X64113Y-28830D01*
X64099Y-28859D01*
X64084Y-28916D01*
X64084Y-28987D01*
X64099Y-29044D01*
X64113Y-29073D01*
X64127Y-29087D01*
X64156Y-29101D01*
X64184Y-29101D01*
X64213Y-29087D01*
X64227Y-29073D01*
X64242Y-29044D01*
X64256Y-28987D01*
X64256Y-28916D01*
X64242Y-28859D01*
X64227Y-28830D01*
X64213Y-28816D01*
X64184Y-28801D01*
X63984Y-29101D02*
X63827Y-28901D01*
X63984Y-28901D02*
X63827Y-29101D01*
X63741Y-28801D02*
X63555Y-28801D01*
X63655Y-28916D01*
X63613Y-28916D01*
X63584Y-28930D01*
X63570Y-28944D01*
X63555Y-28973D01*
X63555Y-29044D01*
X63570Y-29073D01*
X63584Y-29087D01*
X63613Y-29101D01*
X63698Y-29101D01*
X63727Y-29087D01*
X63741Y-29073D01*
X63441Y-28830D02*
X63427Y-28816D01*
X63398Y-28801D01*
X63327Y-28801D01*
X63298Y-28816D01*
X63284Y-28830D01*
X63269Y-28859D01*
X63269Y-28887D01*
X63284Y-28930D01*
X63455Y-29101D01*
X63269Y-29101D01*
X63083Y-28801D02*
X63055Y-28801D01*
X63026Y-28816D01*
X63012Y-28830D01*
X62998Y-28859D01*
X62983Y-28916D01*
X62983Y-28987D01*
X62998Y-29044D01*
X63012Y-29073D01*
X63026Y-29087D01*
X63055Y-29101D01*
X63083Y-29101D01*
X63112Y-29087D01*
X63126Y-29073D01*
X63141Y-29044D01*
X63155Y-28987D01*
X63155Y-28916D01*
X63141Y-28859D01*
X63126Y-28830D01*
X63112Y-28816D01*
X63083Y-28801D01*
X65771Y-29581D02*
X65943Y-29581D01*
X65857Y-29581D02*
X65857Y-29281D01*
X65886Y-29324D01*
X65914Y-29353D01*
X65943Y-29367D01*
X65585Y-29281D02*
X65557Y-29281D01*
X65528Y-29296D01*
X65514Y-29310D01*
X65500Y-29339D01*
X65485Y-29396D01*
X65485Y-29467D01*
X65500Y-29524D01*
X65514Y-29553D01*
X65528Y-29567D01*
X65557Y-29581D01*
X65585Y-29581D01*
X65614Y-29567D01*
X65628Y-29553D01*
X65643Y-29524D01*
X65657Y-29467D01*
X65657Y-29396D01*
X65643Y-29339D01*
X65628Y-29310D01*
X65614Y-29296D01*
X65585Y-29281D01*
X65199Y-29581D02*
X65371Y-29581D01*
X65285Y-29581D02*
X65285Y-29281D01*
X65314Y-29324D01*
X65342Y-29353D01*
X65371Y-29367D01*
X64842Y-29467D02*
X64613Y-29467D01*
X64184Y-29281D02*
X64156Y-29281D01*
X64127Y-29296D01*
X64113Y-29310D01*
X64099Y-29339D01*
X64084Y-29396D01*
X64084Y-29467D01*
X64099Y-29524D01*
X64113Y-29553D01*
X64127Y-29567D01*
X64156Y-29581D01*
X64184Y-29581D01*
X64213Y-29567D01*
X64227Y-29553D01*
X64242Y-29524D01*
X64256Y-29467D01*
X64256Y-29396D01*
X64242Y-29339D01*
X64227Y-29310D01*
X64213Y-29296D01*
X64184Y-29281D01*
X63984Y-29581D02*
X63827Y-29381D01*
X63984Y-29381D02*
X63827Y-29581D01*
X63741Y-29281D02*
X63555Y-29281D01*
X63655Y-29396D01*
X63613Y-29396D01*
X63584Y-29410D01*
X63570Y-29424D01*
X63555Y-29453D01*
X63555Y-29524D01*
X63570Y-29553D01*
X63584Y-29567D01*
X63613Y-29581D01*
X63698Y-29581D01*
X63727Y-29567D01*
X63741Y-29553D01*
X63298Y-29381D02*
X63298Y-29581D01*
X63369Y-29267D02*
X63441Y-29481D01*
X63255Y-29481D01*
X63083Y-29281D02*
X63055Y-29281D01*
X63026Y-29296D01*
X63012Y-29310D01*
X62998Y-29339D01*
X62983Y-29396D01*
X62983Y-29467D01*
X62998Y-29524D01*
X63012Y-29553D01*
X63026Y-29567D01*
X63055Y-29581D01*
X63083Y-29581D01*
X63112Y-29567D01*
X63126Y-29553D01*
X63141Y-29524D01*
X63155Y-29467D01*
X63155Y-29396D01*
X63141Y-29339D01*
X63126Y-29310D01*
X63112Y-29296D01*
X63083Y-29281D01*
X65771Y-30061D02*
X65943Y-30061D01*
X65857Y-30061D02*
X65857Y-29761D01*
X65886Y-29804D01*
X65914Y-29833D01*
X65943Y-29847D01*
X65585Y-29761D02*
X65557Y-29761D01*
X65528Y-29776D01*
X65514Y-29790D01*
X65500Y-29819D01*
X65485Y-29876D01*
X65485Y-29947D01*
X65500Y-30004D01*
X65514Y-30033D01*
X65528Y-30047D01*
X65557Y-30061D01*
X65585Y-30061D01*
X65614Y-30047D01*
X65628Y-30033D01*
X65643Y-30004D01*
X65657Y-29947D01*
X65657Y-29876D01*
X65643Y-29819D01*
X65628Y-29790D01*
X65614Y-29776D01*
X65585Y-29761D01*
X65299Y-29761D02*
X65271Y-29761D01*
X65242Y-29776D01*
X65228Y-29790D01*
X65214Y-29819D01*
X65199Y-29876D01*
X65199Y-29947D01*
X65214Y-30004D01*
X65228Y-30033D01*
X65242Y-30047D01*
X65271Y-30061D01*
X65299Y-30061D01*
X65328Y-30047D01*
X65342Y-30033D01*
X65357Y-30004D01*
X65371Y-29947D01*
X65371Y-29876D01*
X65357Y-29819D01*
X65342Y-29790D01*
X65328Y-29776D01*
X65299Y-29761D01*
X64842Y-29947D02*
X64613Y-29947D01*
X64184Y-29761D02*
X64156Y-29761D01*
X64127Y-29776D01*
X64113Y-29790D01*
X64099Y-29819D01*
X64084Y-29876D01*
X64084Y-29947D01*
X64099Y-30004D01*
X64113Y-30033D01*
X64127Y-30047D01*
X64156Y-30061D01*
X64184Y-30061D01*
X64213Y-30047D01*
X64227Y-30033D01*
X64242Y-30004D01*
X64256Y-29947D01*
X64256Y-29876D01*
X64242Y-29819D01*
X64227Y-29790D01*
X64213Y-29776D01*
X64184Y-29761D01*
X63984Y-30061D02*
X63827Y-29861D01*
X63984Y-29861D02*
X63827Y-30061D01*
X63741Y-29761D02*
X63555Y-29761D01*
X63655Y-29876D01*
X63613Y-29876D01*
X63584Y-29890D01*
X63570Y-29904D01*
X63555Y-29933D01*
X63555Y-30004D01*
X63570Y-30033D01*
X63584Y-30047D01*
X63613Y-30061D01*
X63698Y-30061D01*
X63727Y-30047D01*
X63741Y-30033D01*
X63298Y-29761D02*
X63355Y-29761D01*
X63384Y-29776D01*
X63398Y-29790D01*
X63427Y-29833D01*
X63441Y-29890D01*
X63441Y-30004D01*
X63427Y-30033D01*
X63412Y-30047D01*
X63384Y-30061D01*
X63327Y-30061D01*
X63298Y-30047D01*
X63284Y-30033D01*
X63269Y-30004D01*
X63269Y-29933D01*
X63284Y-29904D01*
X63298Y-29890D01*
X63327Y-29876D01*
X63384Y-29876D01*
X63412Y-29890D01*
X63427Y-29904D01*
X63441Y-29933D01*
X63083Y-29761D02*
X63055Y-29761D01*
X63026Y-29776D01*
X63012Y-29790D01*
X62998Y-29819D01*
X62983Y-29876D01*
X62983Y-29947D01*
X62998Y-30004D01*
X63012Y-30033D01*
X63026Y-30047D01*
X63055Y-30061D01*
X63083Y-30061D01*
X63112Y-30047D01*
X63126Y-30033D01*
X63141Y-30004D01*
X63155Y-29947D01*
X63155Y-29876D01*
X63141Y-29819D01*
X63126Y-29790D01*
X63112Y-29776D01*
X63083Y-29761D01*
X61121Y-28321D02*
X61093Y-28321D01*
X61064Y-28336D01*
X61050Y-28350D01*
X61036Y-28379D01*
X61021Y-28436D01*
X61021Y-28507D01*
X61036Y-28564D01*
X61050Y-28593D01*
X61064Y-28607D01*
X61093Y-28621D01*
X61121Y-28621D01*
X61150Y-28607D01*
X61164Y-28593D01*
X61179Y-28564D01*
X61193Y-28507D01*
X61193Y-28436D01*
X61179Y-28379D01*
X61164Y-28350D01*
X61150Y-28336D01*
X61121Y-28321D01*
X60735Y-28621D02*
X60907Y-28621D01*
X60821Y-28621D02*
X60821Y-28321D01*
X60850Y-28364D01*
X60878Y-28393D01*
X60907Y-28407D01*
X60449Y-28621D02*
X60621Y-28621D01*
X60535Y-28621D02*
X60535Y-28321D01*
X60564Y-28364D01*
X60592Y-28393D01*
X60621Y-28407D01*
X60092Y-28507D02*
X59863Y-28507D01*
X59434Y-28321D02*
X59406Y-28321D01*
X59377Y-28336D01*
X59363Y-28350D01*
X59349Y-28379D01*
X59334Y-28436D01*
X59334Y-28507D01*
X59349Y-28564D01*
X59363Y-28593D01*
X59377Y-28607D01*
X59406Y-28621D01*
X59434Y-28621D01*
X59463Y-28607D01*
X59477Y-28593D01*
X59492Y-28564D01*
X59506Y-28507D01*
X59506Y-28436D01*
X59492Y-28379D01*
X59477Y-28350D01*
X59463Y-28336D01*
X59434Y-28321D01*
X59234Y-28621D02*
X59077Y-28421D01*
X59234Y-28421D02*
X59077Y-28621D01*
X58991Y-28321D02*
X58805Y-28321D01*
X58905Y-28436D01*
X58863Y-28436D01*
X58834Y-28450D01*
X58820Y-28464D01*
X58805Y-28493D01*
X58805Y-28564D01*
X58820Y-28593D01*
X58834Y-28607D01*
X58863Y-28621D01*
X58948Y-28621D01*
X58977Y-28607D01*
X58991Y-28593D01*
X58634Y-28450D02*
X58662Y-28436D01*
X58677Y-28421D01*
X58691Y-28393D01*
X58691Y-28379D01*
X58677Y-28350D01*
X58662Y-28336D01*
X58634Y-28321D01*
X58577Y-28321D01*
X58548Y-28336D01*
X58534Y-28350D01*
X58519Y-28379D01*
X58519Y-28393D01*
X58534Y-28421D01*
X58548Y-28436D01*
X58577Y-28450D01*
X58634Y-28450D01*
X58662Y-28464D01*
X58677Y-28479D01*
X58691Y-28507D01*
X58691Y-28564D01*
X58677Y-28593D01*
X58662Y-28607D01*
X58634Y-28621D01*
X58577Y-28621D01*
X58548Y-28607D01*
X58534Y-28593D01*
X58519Y-28564D01*
X58519Y-28507D01*
X58534Y-28479D01*
X58548Y-28464D01*
X58577Y-28450D01*
X58333Y-28321D02*
X58305Y-28321D01*
X58276Y-28336D01*
X58262Y-28350D01*
X58248Y-28379D01*
X58233Y-28436D01*
X58233Y-28507D01*
X58248Y-28564D01*
X58262Y-28593D01*
X58276Y-28607D01*
X58305Y-28621D01*
X58333Y-28621D01*
X58362Y-28607D01*
X58376Y-28593D01*
X58391Y-28564D01*
X58405Y-28507D01*
X58405Y-28436D01*
X58391Y-28379D01*
X58376Y-28350D01*
X58362Y-28336D01*
X58333Y-28321D01*
X61121Y-28801D02*
X61093Y-28801D01*
X61064Y-28816D01*
X61050Y-28830D01*
X61036Y-28859D01*
X61021Y-28916D01*
X61021Y-28987D01*
X61036Y-29044D01*
X61050Y-29073D01*
X61064Y-29087D01*
X61093Y-29101D01*
X61121Y-29101D01*
X61150Y-29087D01*
X61164Y-29073D01*
X61179Y-29044D01*
X61193Y-28987D01*
X61193Y-28916D01*
X61179Y-28859D01*
X61164Y-28830D01*
X61150Y-28816D01*
X61121Y-28801D01*
X60735Y-29101D02*
X60907Y-29101D01*
X60821Y-29101D02*
X60821Y-28801D01*
X60850Y-28844D01*
X60878Y-28873D01*
X60907Y-28887D01*
X60549Y-28801D02*
X60521Y-28801D01*
X60492Y-28816D01*
X60478Y-28830D01*
X60464Y-28859D01*
X60449Y-28916D01*
X60449Y-28987D01*
X60464Y-29044D01*
X60478Y-29073D01*
X60492Y-29087D01*
X60521Y-29101D01*
X60549Y-29101D01*
X60578Y-29087D01*
X60592Y-29073D01*
X60607Y-29044D01*
X60621Y-28987D01*
X60621Y-28916D01*
X60607Y-28859D01*
X60592Y-28830D01*
X60578Y-28816D01*
X60549Y-28801D01*
X60092Y-28987D02*
X59863Y-28987D01*
X59434Y-28801D02*
X59406Y-28801D01*
X59377Y-28816D01*
X59363Y-28830D01*
X59349Y-28859D01*
X59334Y-28916D01*
X59334Y-28987D01*
X59349Y-29044D01*
X59363Y-29073D01*
X59377Y-29087D01*
X59406Y-29101D01*
X59434Y-29101D01*
X59463Y-29087D01*
X59477Y-29073D01*
X59492Y-29044D01*
X59506Y-28987D01*
X59506Y-28916D01*
X59492Y-28859D01*
X59477Y-28830D01*
X59463Y-28816D01*
X59434Y-28801D01*
X59234Y-29101D02*
X59077Y-28901D01*
X59234Y-28901D02*
X59077Y-29101D01*
X58991Y-28801D02*
X58805Y-28801D01*
X58905Y-28916D01*
X58863Y-28916D01*
X58834Y-28930D01*
X58820Y-28944D01*
X58805Y-28973D01*
X58805Y-29044D01*
X58820Y-29073D01*
X58834Y-29087D01*
X58863Y-29101D01*
X58948Y-29101D01*
X58977Y-29087D01*
X58991Y-29073D01*
X58691Y-29016D02*
X58548Y-29016D01*
X58719Y-29101D02*
X58619Y-28801D01*
X58519Y-29101D01*
X58362Y-28801D02*
X58334Y-28801D01*
X58305Y-28816D01*
X58291Y-28830D01*
X58277Y-28859D01*
X58262Y-28916D01*
X58262Y-28987D01*
X58277Y-29044D01*
X58291Y-29073D01*
X58305Y-29087D01*
X58334Y-29101D01*
X58362Y-29101D01*
X58391Y-29087D01*
X58405Y-29073D01*
X58420Y-29044D01*
X58434Y-28987D01*
X58434Y-28916D01*
X58420Y-28859D01*
X58405Y-28830D01*
X58391Y-28816D01*
X58362Y-28801D01*
X61121Y-29281D02*
X61093Y-29281D01*
X61064Y-29296D01*
X61050Y-29310D01*
X61036Y-29339D01*
X61021Y-29396D01*
X61021Y-29467D01*
X61036Y-29524D01*
X61050Y-29553D01*
X61064Y-29567D01*
X61093Y-29581D01*
X61121Y-29581D01*
X61150Y-29567D01*
X61164Y-29553D01*
X61179Y-29524D01*
X61193Y-29467D01*
X61193Y-29396D01*
X61179Y-29339D01*
X61164Y-29310D01*
X61150Y-29296D01*
X61121Y-29281D01*
X60835Y-29281D02*
X60807Y-29281D01*
X60778Y-29296D01*
X60764Y-29310D01*
X60750Y-29339D01*
X60735Y-29396D01*
X60735Y-29467D01*
X60750Y-29524D01*
X60764Y-29553D01*
X60778Y-29567D01*
X60807Y-29581D01*
X60835Y-29581D01*
X60864Y-29567D01*
X60878Y-29553D01*
X60893Y-29524D01*
X60907Y-29467D01*
X60907Y-29396D01*
X60893Y-29339D01*
X60878Y-29310D01*
X60864Y-29296D01*
X60835Y-29281D01*
X60449Y-29581D02*
X60621Y-29581D01*
X60535Y-29581D02*
X60535Y-29281D01*
X60564Y-29324D01*
X60592Y-29353D01*
X60621Y-29367D01*
X60092Y-29467D02*
X59863Y-29467D01*
X59434Y-29281D02*
X59406Y-29281D01*
X59377Y-29296D01*
X59363Y-29310D01*
X59349Y-29339D01*
X59334Y-29396D01*
X59334Y-29467D01*
X59349Y-29524D01*
X59363Y-29553D01*
X59377Y-29567D01*
X59406Y-29581D01*
X59434Y-29581D01*
X59463Y-29567D01*
X59477Y-29553D01*
X59492Y-29524D01*
X59506Y-29467D01*
X59506Y-29396D01*
X59492Y-29339D01*
X59477Y-29310D01*
X59463Y-29296D01*
X59434Y-29281D01*
X59234Y-29581D02*
X59077Y-29381D01*
X59234Y-29381D02*
X59077Y-29581D01*
X58991Y-29281D02*
X58805Y-29281D01*
X58905Y-29396D01*
X58863Y-29396D01*
X58834Y-29410D01*
X58820Y-29424D01*
X58805Y-29453D01*
X58805Y-29524D01*
X58820Y-29553D01*
X58834Y-29567D01*
X58863Y-29581D01*
X58948Y-29581D01*
X58977Y-29567D01*
X58991Y-29553D01*
X58505Y-29553D02*
X58519Y-29567D01*
X58562Y-29581D01*
X58591Y-29581D01*
X58634Y-29567D01*
X58662Y-29539D01*
X58677Y-29510D01*
X58691Y-29453D01*
X58691Y-29410D01*
X58677Y-29353D01*
X58662Y-29324D01*
X58634Y-29296D01*
X58591Y-29281D01*
X58562Y-29281D01*
X58519Y-29296D01*
X58505Y-29310D01*
X58319Y-29281D02*
X58291Y-29281D01*
X58262Y-29296D01*
X58248Y-29310D01*
X58234Y-29339D01*
X58219Y-29396D01*
X58219Y-29467D01*
X58234Y-29524D01*
X58248Y-29553D01*
X58262Y-29567D01*
X58291Y-29581D01*
X58319Y-29581D01*
X58348Y-29567D01*
X58362Y-29553D01*
X58377Y-29524D01*
X58391Y-29467D01*
X58391Y-29396D01*
X58377Y-29339D01*
X58362Y-29310D01*
X58348Y-29296D01*
X58319Y-29281D01*
X61121Y-29761D02*
X61093Y-29761D01*
X61064Y-29776D01*
X61050Y-29790D01*
X61036Y-29819D01*
X61021Y-29876D01*
X61021Y-29947D01*
X61036Y-30004D01*
X61050Y-30033D01*
X61064Y-30047D01*
X61093Y-30061D01*
X61121Y-30061D01*
X61150Y-30047D01*
X61164Y-30033D01*
X61179Y-30004D01*
X61193Y-29947D01*
X61193Y-29876D01*
X61179Y-29819D01*
X61164Y-29790D01*
X61150Y-29776D01*
X61121Y-29761D01*
X60835Y-29761D02*
X60807Y-29761D01*
X60778Y-29776D01*
X60764Y-29790D01*
X60750Y-29819D01*
X60735Y-29876D01*
X60735Y-29947D01*
X60750Y-30004D01*
X60764Y-30033D01*
X60778Y-30047D01*
X60807Y-30061D01*
X60835Y-30061D01*
X60864Y-30047D01*
X60878Y-30033D01*
X60893Y-30004D01*
X60907Y-29947D01*
X60907Y-29876D01*
X60893Y-29819D01*
X60878Y-29790D01*
X60864Y-29776D01*
X60835Y-29761D01*
X60549Y-29761D02*
X60521Y-29761D01*
X60492Y-29776D01*
X60478Y-29790D01*
X60464Y-29819D01*
X60449Y-29876D01*
X60449Y-29947D01*
X60464Y-30004D01*
X60478Y-30033D01*
X60492Y-30047D01*
X60521Y-30061D01*
X60549Y-30061D01*
X60578Y-30047D01*
X60592Y-30033D01*
X60607Y-30004D01*
X60621Y-29947D01*
X60621Y-29876D01*
X60607Y-29819D01*
X60592Y-29790D01*
X60578Y-29776D01*
X60549Y-29761D01*
X60092Y-29947D02*
X59863Y-29947D01*
X59434Y-29761D02*
X59406Y-29761D01*
X59377Y-29776D01*
X59363Y-29790D01*
X59349Y-29819D01*
X59334Y-29876D01*
X59334Y-29947D01*
X59349Y-30004D01*
X59363Y-30033D01*
X59377Y-30047D01*
X59406Y-30061D01*
X59434Y-30061D01*
X59463Y-30047D01*
X59477Y-30033D01*
X59492Y-30004D01*
X59506Y-29947D01*
X59506Y-29876D01*
X59492Y-29819D01*
X59477Y-29790D01*
X59463Y-29776D01*
X59434Y-29761D01*
X59234Y-30061D02*
X59077Y-29861D01*
X59234Y-29861D02*
X59077Y-30061D01*
X58991Y-29761D02*
X58805Y-29761D01*
X58905Y-29876D01*
X58863Y-29876D01*
X58834Y-29890D01*
X58820Y-29904D01*
X58805Y-29933D01*
X58805Y-30004D01*
X58820Y-30033D01*
X58834Y-30047D01*
X58863Y-30061D01*
X58948Y-30061D01*
X58977Y-30047D01*
X58991Y-30033D01*
X58677Y-29904D02*
X58577Y-29904D01*
X58534Y-30061D02*
X58677Y-30061D01*
X58677Y-29761D01*
X58534Y-29761D01*
X58348Y-29761D02*
X58320Y-29761D01*
X58291Y-29776D01*
X58277Y-29790D01*
X58263Y-29819D01*
X58248Y-29876D01*
X58248Y-29947D01*
X58263Y-30004D01*
X58277Y-30033D01*
X58291Y-30047D01*
X58320Y-30061D01*
X58348Y-30061D01*
X58377Y-30047D01*
X58391Y-30033D01*
X58406Y-30004D01*
X58420Y-29947D01*
X58420Y-29876D01*
X58406Y-29819D01*
X58391Y-29790D01*
X58377Y-29776D01*
X58348Y-29761D01*
X65871Y-39321D02*
X65843Y-39321D01*
X65814Y-39336D01*
X65800Y-39350D01*
X65786Y-39379D01*
X65771Y-39436D01*
X65771Y-39507D01*
X65786Y-39564D01*
X65800Y-39593D01*
X65814Y-39607D01*
X65843Y-39621D01*
X65871Y-39621D01*
X65900Y-39607D01*
X65914Y-39593D01*
X65929Y-39564D01*
X65943Y-39507D01*
X65943Y-39436D01*
X65929Y-39379D01*
X65914Y-39350D01*
X65900Y-39336D01*
X65871Y-39321D01*
X65485Y-39621D02*
X65657Y-39621D01*
X65571Y-39621D02*
X65571Y-39321D01*
X65600Y-39364D01*
X65628Y-39393D01*
X65657Y-39407D01*
X65199Y-39621D02*
X65371Y-39621D01*
X65285Y-39621D02*
X65285Y-39321D01*
X65314Y-39364D01*
X65342Y-39393D01*
X65371Y-39407D01*
X64913Y-39621D02*
X65085Y-39621D01*
X64999Y-39621D02*
X64999Y-39321D01*
X65028Y-39364D01*
X65056Y-39393D01*
X65085Y-39407D01*
X64627Y-39621D02*
X64799Y-39621D01*
X64713Y-39621D02*
X64713Y-39321D01*
X64742Y-39364D01*
X64770Y-39393D01*
X64799Y-39407D01*
X64270Y-39507D02*
X64041Y-39507D01*
X63612Y-39321D02*
X63584Y-39321D01*
X63555Y-39336D01*
X63541Y-39350D01*
X63527Y-39379D01*
X63512Y-39436D01*
X63512Y-39507D01*
X63527Y-39564D01*
X63541Y-39593D01*
X63555Y-39607D01*
X63584Y-39621D01*
X63612Y-39621D01*
X63641Y-39607D01*
X63655Y-39593D01*
X63670Y-39564D01*
X63684Y-39507D01*
X63684Y-39436D01*
X63670Y-39379D01*
X63655Y-39350D01*
X63641Y-39336D01*
X63612Y-39321D01*
X63412Y-39621D02*
X63255Y-39421D01*
X63412Y-39421D02*
X63255Y-39621D01*
X63141Y-39464D02*
X63041Y-39464D01*
X62998Y-39621D02*
X63141Y-39621D01*
X63141Y-39321D01*
X62998Y-39321D01*
X62812Y-39321D02*
X62784Y-39321D01*
X62755Y-39336D01*
X62741Y-39350D01*
X62727Y-39379D01*
X62712Y-39436D01*
X62712Y-39507D01*
X62727Y-39564D01*
X62741Y-39593D01*
X62755Y-39607D01*
X62784Y-39621D01*
X62812Y-39621D01*
X62841Y-39607D01*
X62855Y-39593D01*
X62870Y-39564D01*
X62884Y-39507D01*
X62884Y-39436D01*
X62870Y-39379D01*
X62855Y-39350D01*
X62841Y-39336D01*
X62812Y-39321D01*
X62526Y-39321D02*
X62498Y-39321D01*
X62469Y-39336D01*
X62455Y-39350D01*
X62441Y-39379D01*
X62426Y-39436D01*
X62426Y-39507D01*
X62441Y-39564D01*
X62455Y-39593D01*
X62469Y-39607D01*
X62498Y-39621D01*
X62526Y-39621D01*
X62555Y-39607D01*
X62569Y-39593D01*
X62584Y-39564D01*
X62598Y-39507D01*
X62598Y-39436D01*
X62584Y-39379D01*
X62569Y-39350D01*
X62555Y-39336D01*
X62526Y-39321D01*
X62240Y-39321D02*
X62212Y-39321D01*
X62183Y-39336D01*
X62169Y-39350D01*
X62155Y-39379D01*
X62140Y-39436D01*
X62140Y-39507D01*
X62155Y-39564D01*
X62169Y-39593D01*
X62183Y-39607D01*
X62212Y-39621D01*
X62240Y-39621D01*
X62269Y-39607D01*
X62283Y-39593D01*
X62298Y-39564D01*
X62312Y-39507D01*
X62312Y-39436D01*
X62298Y-39379D01*
X62283Y-39350D01*
X62269Y-39336D01*
X62240Y-39321D01*
X61954Y-39321D02*
X61926Y-39321D01*
X61897Y-39336D01*
X61883Y-39350D01*
X61869Y-39379D01*
X61854Y-39436D01*
X61854Y-39507D01*
X61869Y-39564D01*
X61883Y-39593D01*
X61897Y-39607D01*
X61926Y-39621D01*
X61954Y-39621D01*
X61983Y-39607D01*
X61997Y-39593D01*
X62012Y-39564D01*
X62026Y-39507D01*
X62026Y-39436D01*
X62012Y-39379D01*
X61997Y-39350D01*
X61983Y-39336D01*
X61954Y-39321D01*
X65871Y-39801D02*
X65843Y-39801D01*
X65814Y-39816D01*
X65800Y-39830D01*
X65786Y-39859D01*
X65771Y-39916D01*
X65771Y-39987D01*
X65786Y-40044D01*
X65800Y-40073D01*
X65814Y-40087D01*
X65843Y-40101D01*
X65871Y-40101D01*
X65900Y-40087D01*
X65914Y-40073D01*
X65929Y-40044D01*
X65943Y-39987D01*
X65943Y-39916D01*
X65929Y-39859D01*
X65914Y-39830D01*
X65900Y-39816D01*
X65871Y-39801D01*
X65485Y-40101D02*
X65657Y-40101D01*
X65571Y-40101D02*
X65571Y-39801D01*
X65600Y-39844D01*
X65628Y-39873D01*
X65657Y-39887D01*
X65199Y-40101D02*
X65371Y-40101D01*
X65285Y-40101D02*
X65285Y-39801D01*
X65314Y-39844D01*
X65342Y-39873D01*
X65371Y-39887D01*
X64913Y-40101D02*
X65085Y-40101D01*
X64999Y-40101D02*
X64999Y-39801D01*
X65028Y-39844D01*
X65056Y-39873D01*
X65085Y-39887D01*
X64727Y-39801D02*
X64699Y-39801D01*
X64670Y-39816D01*
X64656Y-39830D01*
X64642Y-39859D01*
X64627Y-39916D01*
X64627Y-39987D01*
X64642Y-40044D01*
X64656Y-40073D01*
X64670Y-40087D01*
X64699Y-40101D01*
X64727Y-40101D01*
X64756Y-40087D01*
X64770Y-40073D01*
X64785Y-40044D01*
X64799Y-39987D01*
X64799Y-39916D01*
X64785Y-39859D01*
X64770Y-39830D01*
X64756Y-39816D01*
X64727Y-39801D01*
X64270Y-39987D02*
X64041Y-39987D01*
X63612Y-39801D02*
X63584Y-39801D01*
X63555Y-39816D01*
X63541Y-39830D01*
X63527Y-39859D01*
X63512Y-39916D01*
X63512Y-39987D01*
X63527Y-40044D01*
X63541Y-40073D01*
X63555Y-40087D01*
X63584Y-40101D01*
X63612Y-40101D01*
X63641Y-40087D01*
X63655Y-40073D01*
X63670Y-40044D01*
X63684Y-39987D01*
X63684Y-39916D01*
X63670Y-39859D01*
X63655Y-39830D01*
X63641Y-39816D01*
X63612Y-39801D01*
X63412Y-40101D02*
X63255Y-39901D01*
X63412Y-39901D02*
X63255Y-40101D01*
X63141Y-39944D02*
X63041Y-39944D01*
X62998Y-40101D02*
X63141Y-40101D01*
X63141Y-39801D01*
X62998Y-39801D01*
X62884Y-39830D02*
X62870Y-39816D01*
X62841Y-39801D01*
X62770Y-39801D01*
X62741Y-39816D01*
X62727Y-39830D01*
X62712Y-39859D01*
X62712Y-39887D01*
X62727Y-39930D01*
X62898Y-40101D01*
X62712Y-40101D01*
X62526Y-39801D02*
X62498Y-39801D01*
X62469Y-39816D01*
X62455Y-39830D01*
X62441Y-39859D01*
X62426Y-39916D01*
X62426Y-39987D01*
X62441Y-40044D01*
X62455Y-40073D01*
X62469Y-40087D01*
X62498Y-40101D01*
X62526Y-40101D01*
X62555Y-40087D01*
X62569Y-40073D01*
X62584Y-40044D01*
X62598Y-39987D01*
X62598Y-39916D01*
X62584Y-39859D01*
X62569Y-39830D01*
X62555Y-39816D01*
X62526Y-39801D01*
X62240Y-39801D02*
X62212Y-39801D01*
X62183Y-39816D01*
X62169Y-39830D01*
X62155Y-39859D01*
X62140Y-39916D01*
X62140Y-39987D01*
X62155Y-40044D01*
X62169Y-40073D01*
X62183Y-40087D01*
X62212Y-40101D01*
X62240Y-40101D01*
X62269Y-40087D01*
X62283Y-40073D01*
X62298Y-40044D01*
X62312Y-39987D01*
X62312Y-39916D01*
X62298Y-39859D01*
X62283Y-39830D01*
X62269Y-39816D01*
X62240Y-39801D01*
X61954Y-39801D02*
X61926Y-39801D01*
X61897Y-39816D01*
X61883Y-39830D01*
X61869Y-39859D01*
X61854Y-39916D01*
X61854Y-39987D01*
X61869Y-40044D01*
X61883Y-40073D01*
X61897Y-40087D01*
X61926Y-40101D01*
X61954Y-40101D01*
X61983Y-40087D01*
X61997Y-40073D01*
X62012Y-40044D01*
X62026Y-39987D01*
X62026Y-39916D01*
X62012Y-39859D01*
X61997Y-39830D01*
X61983Y-39816D01*
X61954Y-39801D01*
X65871Y-40281D02*
X65843Y-40281D01*
X65814Y-40296D01*
X65800Y-40310D01*
X65786Y-40339D01*
X65771Y-40396D01*
X65771Y-40467D01*
X65786Y-40524D01*
X65800Y-40553D01*
X65814Y-40567D01*
X65843Y-40581D01*
X65871Y-40581D01*
X65900Y-40567D01*
X65914Y-40553D01*
X65929Y-40524D01*
X65943Y-40467D01*
X65943Y-40396D01*
X65929Y-40339D01*
X65914Y-40310D01*
X65900Y-40296D01*
X65871Y-40281D01*
X65485Y-40581D02*
X65657Y-40581D01*
X65571Y-40581D02*
X65571Y-40281D01*
X65600Y-40324D01*
X65628Y-40353D01*
X65657Y-40367D01*
X65199Y-40581D02*
X65371Y-40581D01*
X65285Y-40581D02*
X65285Y-40281D01*
X65314Y-40324D01*
X65342Y-40353D01*
X65371Y-40367D01*
X65013Y-40281D02*
X64985Y-40281D01*
X64956Y-40296D01*
X64942Y-40310D01*
X64928Y-40339D01*
X64913Y-40396D01*
X64913Y-40467D01*
X64928Y-40524D01*
X64942Y-40553D01*
X64956Y-40567D01*
X64985Y-40581D01*
X65013Y-40581D01*
X65042Y-40567D01*
X65056Y-40553D01*
X65071Y-40524D01*
X65085Y-40467D01*
X65085Y-40396D01*
X65071Y-40339D01*
X65056Y-40310D01*
X65042Y-40296D01*
X65013Y-40281D01*
X64627Y-40581D02*
X64799Y-40581D01*
X64713Y-40581D02*
X64713Y-40281D01*
X64742Y-40324D01*
X64770Y-40353D01*
X64799Y-40367D01*
X64270Y-40467D02*
X64041Y-40467D01*
X63612Y-40281D02*
X63584Y-40281D01*
X63555Y-40296D01*
X63541Y-40310D01*
X63527Y-40339D01*
X63512Y-40396D01*
X63512Y-40467D01*
X63527Y-40524D01*
X63541Y-40553D01*
X63555Y-40567D01*
X63584Y-40581D01*
X63612Y-40581D01*
X63641Y-40567D01*
X63655Y-40553D01*
X63670Y-40524D01*
X63684Y-40467D01*
X63684Y-40396D01*
X63670Y-40339D01*
X63655Y-40310D01*
X63641Y-40296D01*
X63612Y-40281D01*
X63412Y-40581D02*
X63255Y-40381D01*
X63412Y-40381D02*
X63255Y-40581D01*
X63141Y-40424D02*
X63041Y-40424D01*
X62998Y-40581D02*
X63141Y-40581D01*
X63141Y-40281D01*
X62998Y-40281D01*
X62741Y-40381D02*
X62741Y-40581D01*
X62812Y-40267D02*
X62884Y-40481D01*
X62698Y-40481D01*
X62526Y-40281D02*
X62498Y-40281D01*
X62469Y-40296D01*
X62455Y-40310D01*
X62441Y-40339D01*
X62426Y-40396D01*
X62426Y-40467D01*
X62441Y-40524D01*
X62455Y-40553D01*
X62469Y-40567D01*
X62498Y-40581D01*
X62526Y-40581D01*
X62555Y-40567D01*
X62569Y-40553D01*
X62584Y-40524D01*
X62598Y-40467D01*
X62598Y-40396D01*
X62584Y-40339D01*
X62569Y-40310D01*
X62555Y-40296D01*
X62526Y-40281D01*
X62240Y-40281D02*
X62212Y-40281D01*
X62183Y-40296D01*
X62169Y-40310D01*
X62155Y-40339D01*
X62140Y-40396D01*
X62140Y-40467D01*
X62155Y-40524D01*
X62169Y-40553D01*
X62183Y-40567D01*
X62212Y-40581D01*
X62240Y-40581D01*
X62269Y-40567D01*
X62283Y-40553D01*
X62298Y-40524D01*
X62312Y-40467D01*
X62312Y-40396D01*
X62298Y-40339D01*
X62283Y-40310D01*
X62269Y-40296D01*
X62240Y-40281D01*
X61954Y-40281D02*
X61926Y-40281D01*
X61897Y-40296D01*
X61883Y-40310D01*
X61869Y-40339D01*
X61854Y-40396D01*
X61854Y-40467D01*
X61869Y-40524D01*
X61883Y-40553D01*
X61897Y-40567D01*
X61926Y-40581D01*
X61954Y-40581D01*
X61983Y-40567D01*
X61997Y-40553D01*
X62012Y-40524D01*
X62026Y-40467D01*
X62026Y-40396D01*
X62012Y-40339D01*
X61997Y-40310D01*
X61983Y-40296D01*
X61954Y-40281D01*
X65871Y-40761D02*
X65843Y-40761D01*
X65814Y-40776D01*
X65800Y-40790D01*
X65786Y-40819D01*
X65771Y-40876D01*
X65771Y-40947D01*
X65786Y-41004D01*
X65800Y-41033D01*
X65814Y-41047D01*
X65843Y-41061D01*
X65871Y-41061D01*
X65900Y-41047D01*
X65914Y-41033D01*
X65929Y-41004D01*
X65943Y-40947D01*
X65943Y-40876D01*
X65929Y-40819D01*
X65914Y-40790D01*
X65900Y-40776D01*
X65871Y-40761D01*
X65485Y-41061D02*
X65657Y-41061D01*
X65571Y-41061D02*
X65571Y-40761D01*
X65600Y-40804D01*
X65628Y-40833D01*
X65657Y-40847D01*
X65199Y-41061D02*
X65371Y-41061D01*
X65285Y-41061D02*
X65285Y-40761D01*
X65314Y-40804D01*
X65342Y-40833D01*
X65371Y-40847D01*
X65013Y-40761D02*
X64985Y-40761D01*
X64956Y-40776D01*
X64942Y-40790D01*
X64928Y-40819D01*
X64913Y-40876D01*
X64913Y-40947D01*
X64928Y-41004D01*
X64942Y-41033D01*
X64956Y-41047D01*
X64985Y-41061D01*
X65013Y-41061D01*
X65042Y-41047D01*
X65056Y-41033D01*
X65071Y-41004D01*
X65085Y-40947D01*
X65085Y-40876D01*
X65071Y-40819D01*
X65056Y-40790D01*
X65042Y-40776D01*
X65013Y-40761D01*
X64727Y-40761D02*
X64699Y-40761D01*
X64670Y-40776D01*
X64656Y-40790D01*
X64642Y-40819D01*
X64627Y-40876D01*
X64627Y-40947D01*
X64642Y-41004D01*
X64656Y-41033D01*
X64670Y-41047D01*
X64699Y-41061D01*
X64727Y-41061D01*
X64756Y-41047D01*
X64770Y-41033D01*
X64785Y-41004D01*
X64799Y-40947D01*
X64799Y-40876D01*
X64785Y-40819D01*
X64770Y-40790D01*
X64756Y-40776D01*
X64727Y-40761D01*
X64270Y-40947D02*
X64041Y-40947D01*
X63612Y-40761D02*
X63584Y-40761D01*
X63555Y-40776D01*
X63541Y-40790D01*
X63527Y-40819D01*
X63512Y-40876D01*
X63512Y-40947D01*
X63527Y-41004D01*
X63541Y-41033D01*
X63555Y-41047D01*
X63584Y-41061D01*
X63612Y-41061D01*
X63641Y-41047D01*
X63655Y-41033D01*
X63670Y-41004D01*
X63684Y-40947D01*
X63684Y-40876D01*
X63670Y-40819D01*
X63655Y-40790D01*
X63641Y-40776D01*
X63612Y-40761D01*
X63412Y-41061D02*
X63255Y-40861D01*
X63412Y-40861D02*
X63255Y-41061D01*
X63141Y-40904D02*
X63041Y-40904D01*
X62998Y-41061D02*
X63141Y-41061D01*
X63141Y-40761D01*
X62998Y-40761D01*
X62741Y-40761D02*
X62798Y-40761D01*
X62827Y-40776D01*
X62841Y-40790D01*
X62870Y-40833D01*
X62884Y-40890D01*
X62884Y-41004D01*
X62870Y-41033D01*
X62855Y-41047D01*
X62827Y-41061D01*
X62770Y-41061D01*
X62741Y-41047D01*
X62727Y-41033D01*
X62712Y-41004D01*
X62712Y-40933D01*
X62727Y-40904D01*
X62741Y-40890D01*
X62770Y-40876D01*
X62827Y-40876D01*
X62855Y-40890D01*
X62870Y-40904D01*
X62884Y-40933D01*
X62526Y-40761D02*
X62498Y-40761D01*
X62469Y-40776D01*
X62455Y-40790D01*
X62441Y-40819D01*
X62426Y-40876D01*
X62426Y-40947D01*
X62441Y-41004D01*
X62455Y-41033D01*
X62469Y-41047D01*
X62498Y-41061D01*
X62526Y-41061D01*
X62555Y-41047D01*
X62569Y-41033D01*
X62584Y-41004D01*
X62598Y-40947D01*
X62598Y-40876D01*
X62584Y-40819D01*
X62569Y-40790D01*
X62555Y-40776D01*
X62526Y-40761D01*
X62240Y-40761D02*
X62212Y-40761D01*
X62183Y-40776D01*
X62169Y-40790D01*
X62155Y-40819D01*
X62140Y-40876D01*
X62140Y-40947D01*
X62155Y-41004D01*
X62169Y-41033D01*
X62183Y-41047D01*
X62212Y-41061D01*
X62240Y-41061D01*
X62269Y-41047D01*
X62283Y-41033D01*
X62298Y-41004D01*
X62312Y-40947D01*
X62312Y-40876D01*
X62298Y-40819D01*
X62283Y-40790D01*
X62269Y-40776D01*
X62240Y-40761D01*
X61954Y-40761D02*
X61926Y-40761D01*
X61897Y-40776D01*
X61883Y-40790D01*
X61869Y-40819D01*
X61854Y-40876D01*
X61854Y-40947D01*
X61869Y-41004D01*
X61883Y-41033D01*
X61897Y-41047D01*
X61926Y-41061D01*
X61954Y-41061D01*
X61983Y-41047D01*
X61997Y-41033D01*
X62012Y-41004D01*
X62026Y-40947D01*
X62026Y-40876D01*
X62012Y-40819D01*
X61997Y-40790D01*
X61983Y-40776D01*
X61954Y-40761D01*
X61121Y-39321D02*
X61093Y-39321D01*
X61064Y-39336D01*
X61050Y-39350D01*
X61036Y-39379D01*
X61021Y-39436D01*
X61021Y-39507D01*
X61036Y-39564D01*
X61050Y-39593D01*
X61064Y-39607D01*
X61093Y-39621D01*
X61121Y-39621D01*
X61150Y-39607D01*
X61164Y-39593D01*
X61179Y-39564D01*
X61193Y-39507D01*
X61193Y-39436D01*
X61179Y-39379D01*
X61164Y-39350D01*
X61150Y-39336D01*
X61121Y-39321D01*
X60735Y-39621D02*
X60907Y-39621D01*
X60821Y-39621D02*
X60821Y-39321D01*
X60850Y-39364D01*
X60878Y-39393D01*
X60907Y-39407D01*
X60549Y-39321D02*
X60521Y-39321D01*
X60492Y-39336D01*
X60478Y-39350D01*
X60464Y-39379D01*
X60449Y-39436D01*
X60449Y-39507D01*
X60464Y-39564D01*
X60478Y-39593D01*
X60492Y-39607D01*
X60521Y-39621D01*
X60549Y-39621D01*
X60578Y-39607D01*
X60592Y-39593D01*
X60607Y-39564D01*
X60621Y-39507D01*
X60621Y-39436D01*
X60607Y-39379D01*
X60592Y-39350D01*
X60578Y-39336D01*
X60549Y-39321D01*
X60163Y-39621D02*
X60335Y-39621D01*
X60249Y-39621D02*
X60249Y-39321D01*
X60278Y-39364D01*
X60306Y-39393D01*
X60335Y-39407D01*
X59877Y-39621D02*
X60049Y-39621D01*
X59963Y-39621D02*
X59963Y-39321D01*
X59992Y-39364D01*
X60020Y-39393D01*
X60049Y-39407D01*
X59520Y-39507D02*
X59291Y-39507D01*
X58862Y-39321D02*
X58834Y-39321D01*
X58805Y-39336D01*
X58791Y-39350D01*
X58777Y-39379D01*
X58762Y-39436D01*
X58762Y-39507D01*
X58777Y-39564D01*
X58791Y-39593D01*
X58805Y-39607D01*
X58834Y-39621D01*
X58862Y-39621D01*
X58891Y-39607D01*
X58905Y-39593D01*
X58920Y-39564D01*
X58934Y-39507D01*
X58934Y-39436D01*
X58920Y-39379D01*
X58905Y-39350D01*
X58891Y-39336D01*
X58862Y-39321D01*
X58662Y-39621D02*
X58505Y-39421D01*
X58662Y-39421D02*
X58505Y-39621D01*
X58391Y-39464D02*
X58291Y-39464D01*
X58248Y-39621D02*
X58391Y-39621D01*
X58391Y-39321D01*
X58248Y-39321D01*
X58077Y-39450D02*
X58105Y-39436D01*
X58120Y-39421D01*
X58134Y-39393D01*
X58134Y-39379D01*
X58120Y-39350D01*
X58105Y-39336D01*
X58077Y-39321D01*
X58020Y-39321D01*
X57991Y-39336D01*
X57977Y-39350D01*
X57962Y-39379D01*
X57962Y-39393D01*
X57977Y-39421D01*
X57991Y-39436D01*
X58020Y-39450D01*
X58077Y-39450D01*
X58105Y-39464D01*
X58120Y-39479D01*
X58134Y-39507D01*
X58134Y-39564D01*
X58120Y-39593D01*
X58105Y-39607D01*
X58077Y-39621D01*
X58020Y-39621D01*
X57991Y-39607D01*
X57977Y-39593D01*
X57962Y-39564D01*
X57962Y-39507D01*
X57977Y-39479D01*
X57991Y-39464D01*
X58020Y-39450D01*
X57776Y-39321D02*
X57748Y-39321D01*
X57719Y-39336D01*
X57705Y-39350D01*
X57691Y-39379D01*
X57676Y-39436D01*
X57676Y-39507D01*
X57691Y-39564D01*
X57705Y-39593D01*
X57719Y-39607D01*
X57748Y-39621D01*
X57776Y-39621D01*
X57805Y-39607D01*
X57819Y-39593D01*
X57834Y-39564D01*
X57848Y-39507D01*
X57848Y-39436D01*
X57834Y-39379D01*
X57819Y-39350D01*
X57805Y-39336D01*
X57776Y-39321D01*
X57490Y-39321D02*
X57462Y-39321D01*
X57433Y-39336D01*
X57419Y-39350D01*
X57405Y-39379D01*
X57390Y-39436D01*
X57390Y-39507D01*
X57405Y-39564D01*
X57419Y-39593D01*
X57433Y-39607D01*
X57462Y-39621D01*
X57490Y-39621D01*
X57519Y-39607D01*
X57533Y-39593D01*
X57548Y-39564D01*
X57562Y-39507D01*
X57562Y-39436D01*
X57548Y-39379D01*
X57533Y-39350D01*
X57519Y-39336D01*
X57490Y-39321D01*
X57204Y-39321D02*
X57176Y-39321D01*
X57147Y-39336D01*
X57133Y-39350D01*
X57119Y-39379D01*
X57104Y-39436D01*
X57104Y-39507D01*
X57119Y-39564D01*
X57133Y-39593D01*
X57147Y-39607D01*
X57176Y-39621D01*
X57204Y-39621D01*
X57233Y-39607D01*
X57247Y-39593D01*
X57262Y-39564D01*
X57276Y-39507D01*
X57276Y-39436D01*
X57262Y-39379D01*
X57247Y-39350D01*
X57233Y-39336D01*
X57204Y-39321D01*
X61121Y-39801D02*
X61093Y-39801D01*
X61064Y-39816D01*
X61050Y-39830D01*
X61036Y-39859D01*
X61021Y-39916D01*
X61021Y-39987D01*
X61036Y-40044D01*
X61050Y-40073D01*
X61064Y-40087D01*
X61093Y-40101D01*
X61121Y-40101D01*
X61150Y-40087D01*
X61164Y-40073D01*
X61179Y-40044D01*
X61193Y-39987D01*
X61193Y-39916D01*
X61179Y-39859D01*
X61164Y-39830D01*
X61150Y-39816D01*
X61121Y-39801D01*
X60735Y-40101D02*
X60907Y-40101D01*
X60821Y-40101D02*
X60821Y-39801D01*
X60850Y-39844D01*
X60878Y-39873D01*
X60907Y-39887D01*
X60549Y-39801D02*
X60521Y-39801D01*
X60492Y-39816D01*
X60478Y-39830D01*
X60464Y-39859D01*
X60449Y-39916D01*
X60449Y-39987D01*
X60464Y-40044D01*
X60478Y-40073D01*
X60492Y-40087D01*
X60521Y-40101D01*
X60549Y-40101D01*
X60578Y-40087D01*
X60592Y-40073D01*
X60607Y-40044D01*
X60621Y-39987D01*
X60621Y-39916D01*
X60607Y-39859D01*
X60592Y-39830D01*
X60578Y-39816D01*
X60549Y-39801D01*
X60163Y-40101D02*
X60335Y-40101D01*
X60249Y-40101D02*
X60249Y-39801D01*
X60278Y-39844D01*
X60306Y-39873D01*
X60335Y-39887D01*
X59977Y-39801D02*
X59949Y-39801D01*
X59920Y-39816D01*
X59906Y-39830D01*
X59892Y-39859D01*
X59877Y-39916D01*
X59877Y-39987D01*
X59892Y-40044D01*
X59906Y-40073D01*
X59920Y-40087D01*
X59949Y-40101D01*
X59977Y-40101D01*
X60006Y-40087D01*
X60020Y-40073D01*
X60035Y-40044D01*
X60049Y-39987D01*
X60049Y-39916D01*
X60035Y-39859D01*
X60020Y-39830D01*
X60006Y-39816D01*
X59977Y-39801D01*
X59520Y-39987D02*
X59291Y-39987D01*
X58862Y-39801D02*
X58834Y-39801D01*
X58805Y-39816D01*
X58791Y-39830D01*
X58777Y-39859D01*
X58762Y-39916D01*
X58762Y-39987D01*
X58777Y-40044D01*
X58791Y-40073D01*
X58805Y-40087D01*
X58834Y-40101D01*
X58862Y-40101D01*
X58891Y-40087D01*
X58905Y-40073D01*
X58920Y-40044D01*
X58934Y-39987D01*
X58934Y-39916D01*
X58920Y-39859D01*
X58905Y-39830D01*
X58891Y-39816D01*
X58862Y-39801D01*
X58662Y-40101D02*
X58505Y-39901D01*
X58662Y-39901D02*
X58505Y-40101D01*
X58391Y-39944D02*
X58291Y-39944D01*
X58248Y-40101D02*
X58391Y-40101D01*
X58391Y-39801D01*
X58248Y-39801D01*
X58134Y-40016D02*
X57991Y-40016D01*
X58162Y-40101D02*
X58062Y-39801D01*
X57962Y-40101D01*
X57805Y-39801D02*
X57777Y-39801D01*
X57748Y-39816D01*
X57734Y-39830D01*
X57720Y-39859D01*
X57705Y-39916D01*
X57705Y-39987D01*
X57720Y-40044D01*
X57734Y-40073D01*
X57748Y-40087D01*
X57777Y-40101D01*
X57805Y-40101D01*
X57834Y-40087D01*
X57848Y-40073D01*
X57863Y-40044D01*
X57877Y-39987D01*
X57877Y-39916D01*
X57863Y-39859D01*
X57848Y-39830D01*
X57834Y-39816D01*
X57805Y-39801D01*
X57519Y-39801D02*
X57491Y-39801D01*
X57462Y-39816D01*
X57448Y-39830D01*
X57434Y-39859D01*
X57419Y-39916D01*
X57419Y-39987D01*
X57434Y-40044D01*
X57448Y-40073D01*
X57462Y-40087D01*
X57491Y-40101D01*
X57519Y-40101D01*
X57548Y-40087D01*
X57562Y-40073D01*
X57577Y-40044D01*
X57591Y-39987D01*
X57591Y-39916D01*
X57577Y-39859D01*
X57562Y-39830D01*
X57548Y-39816D01*
X57519Y-39801D01*
X57233Y-39801D02*
X57205Y-39801D01*
X57176Y-39816D01*
X57162Y-39830D01*
X57148Y-39859D01*
X57133Y-39916D01*
X57133Y-39987D01*
X57148Y-40044D01*
X57162Y-40073D01*
X57176Y-40087D01*
X57205Y-40101D01*
X57233Y-40101D01*
X57262Y-40087D01*
X57276Y-40073D01*
X57291Y-40044D01*
X57305Y-39987D01*
X57305Y-39916D01*
X57291Y-39859D01*
X57276Y-39830D01*
X57262Y-39816D01*
X57233Y-39801D01*
X61121Y-40281D02*
X61093Y-40281D01*
X61064Y-40296D01*
X61050Y-40310D01*
X61036Y-40339D01*
X61021Y-40396D01*
X61021Y-40467D01*
X61036Y-40524D01*
X61050Y-40553D01*
X61064Y-40567D01*
X61093Y-40581D01*
X61121Y-40581D01*
X61150Y-40567D01*
X61164Y-40553D01*
X61179Y-40524D01*
X61193Y-40467D01*
X61193Y-40396D01*
X61179Y-40339D01*
X61164Y-40310D01*
X61150Y-40296D01*
X61121Y-40281D01*
X60735Y-40581D02*
X60907Y-40581D01*
X60821Y-40581D02*
X60821Y-40281D01*
X60850Y-40324D01*
X60878Y-40353D01*
X60907Y-40367D01*
X60549Y-40281D02*
X60521Y-40281D01*
X60492Y-40296D01*
X60478Y-40310D01*
X60464Y-40339D01*
X60449Y-40396D01*
X60449Y-40467D01*
X60464Y-40524D01*
X60478Y-40553D01*
X60492Y-40567D01*
X60521Y-40581D01*
X60549Y-40581D01*
X60578Y-40567D01*
X60592Y-40553D01*
X60607Y-40524D01*
X60621Y-40467D01*
X60621Y-40396D01*
X60607Y-40339D01*
X60592Y-40310D01*
X60578Y-40296D01*
X60549Y-40281D01*
X60263Y-40281D02*
X60235Y-40281D01*
X60206Y-40296D01*
X60192Y-40310D01*
X60178Y-40339D01*
X60163Y-40396D01*
X60163Y-40467D01*
X60178Y-40524D01*
X60192Y-40553D01*
X60206Y-40567D01*
X60235Y-40581D01*
X60263Y-40581D01*
X60292Y-40567D01*
X60306Y-40553D01*
X60321Y-40524D01*
X60335Y-40467D01*
X60335Y-40396D01*
X60321Y-40339D01*
X60306Y-40310D01*
X60292Y-40296D01*
X60263Y-40281D01*
X59877Y-40581D02*
X60049Y-40581D01*
X59963Y-40581D02*
X59963Y-40281D01*
X59992Y-40324D01*
X60020Y-40353D01*
X60049Y-40367D01*
X59520Y-40467D02*
X59291Y-40467D01*
X58862Y-40281D02*
X58834Y-40281D01*
X58805Y-40296D01*
X58791Y-40310D01*
X58777Y-40339D01*
X58762Y-40396D01*
X58762Y-40467D01*
X58777Y-40524D01*
X58791Y-40553D01*
X58805Y-40567D01*
X58834Y-40581D01*
X58862Y-40581D01*
X58891Y-40567D01*
X58905Y-40553D01*
X58920Y-40524D01*
X58934Y-40467D01*
X58934Y-40396D01*
X58920Y-40339D01*
X58905Y-40310D01*
X58891Y-40296D01*
X58862Y-40281D01*
X58662Y-40581D02*
X58505Y-40381D01*
X58662Y-40381D02*
X58505Y-40581D01*
X58391Y-40424D02*
X58291Y-40424D01*
X58248Y-40581D02*
X58391Y-40581D01*
X58391Y-40281D01*
X58248Y-40281D01*
X57948Y-40553D02*
X57962Y-40567D01*
X58005Y-40581D01*
X58034Y-40581D01*
X58077Y-40567D01*
X58105Y-40539D01*
X58120Y-40510D01*
X58134Y-40453D01*
X58134Y-40410D01*
X58120Y-40353D01*
X58105Y-40324D01*
X58077Y-40296D01*
X58034Y-40281D01*
X58005Y-40281D01*
X57962Y-40296D01*
X57948Y-40310D01*
X57762Y-40281D02*
X57734Y-40281D01*
X57705Y-40296D01*
X57691Y-40310D01*
X57677Y-40339D01*
X57662Y-40396D01*
X57662Y-40467D01*
X57677Y-40524D01*
X57691Y-40553D01*
X57705Y-40567D01*
X57734Y-40581D01*
X57762Y-40581D01*
X57791Y-40567D01*
X57805Y-40553D01*
X57820Y-40524D01*
X57834Y-40467D01*
X57834Y-40396D01*
X57820Y-40339D01*
X57805Y-40310D01*
X57791Y-40296D01*
X57762Y-40281D01*
X57476Y-40281D02*
X57448Y-40281D01*
X57419Y-40296D01*
X57405Y-40310D01*
X57391Y-40339D01*
X57376Y-40396D01*
X57376Y-40467D01*
X57391Y-40524D01*
X57405Y-40553D01*
X57419Y-40567D01*
X57448Y-40581D01*
X57476Y-40581D01*
X57505Y-40567D01*
X57519Y-40553D01*
X57534Y-40524D01*
X57548Y-40467D01*
X57548Y-40396D01*
X57534Y-40339D01*
X57519Y-40310D01*
X57505Y-40296D01*
X57476Y-40281D01*
X57190Y-40281D02*
X57162Y-40281D01*
X57133Y-40296D01*
X57119Y-40310D01*
X57105Y-40339D01*
X57090Y-40396D01*
X57090Y-40467D01*
X57105Y-40524D01*
X57119Y-40553D01*
X57133Y-40567D01*
X57162Y-40581D01*
X57190Y-40581D01*
X57219Y-40567D01*
X57233Y-40553D01*
X57248Y-40524D01*
X57262Y-40467D01*
X57262Y-40396D01*
X57248Y-40339D01*
X57233Y-40310D01*
X57219Y-40296D01*
X57190Y-40281D01*
X61121Y-40761D02*
X61093Y-40761D01*
X61064Y-40776D01*
X61050Y-40790D01*
X61036Y-40819D01*
X61021Y-40876D01*
X61021Y-40947D01*
X61036Y-41004D01*
X61050Y-41033D01*
X61064Y-41047D01*
X61093Y-41061D01*
X61121Y-41061D01*
X61150Y-41047D01*
X61164Y-41033D01*
X61179Y-41004D01*
X61193Y-40947D01*
X61193Y-40876D01*
X61179Y-40819D01*
X61164Y-40790D01*
X61150Y-40776D01*
X61121Y-40761D01*
X60735Y-41061D02*
X60907Y-41061D01*
X60821Y-41061D02*
X60821Y-40761D01*
X60850Y-40804D01*
X60878Y-40833D01*
X60907Y-40847D01*
X60549Y-40761D02*
X60521Y-40761D01*
X60492Y-40776D01*
X60478Y-40790D01*
X60464Y-40819D01*
X60449Y-40876D01*
X60449Y-40947D01*
X60464Y-41004D01*
X60478Y-41033D01*
X60492Y-41047D01*
X60521Y-41061D01*
X60549Y-41061D01*
X60578Y-41047D01*
X60592Y-41033D01*
X60607Y-41004D01*
X60621Y-40947D01*
X60621Y-40876D01*
X60607Y-40819D01*
X60592Y-40790D01*
X60578Y-40776D01*
X60549Y-40761D01*
X60263Y-40761D02*
X60235Y-40761D01*
X60206Y-40776D01*
X60192Y-40790D01*
X60178Y-40819D01*
X60163Y-40876D01*
X60163Y-40947D01*
X60178Y-41004D01*
X60192Y-41033D01*
X60206Y-41047D01*
X60235Y-41061D01*
X60263Y-41061D01*
X60292Y-41047D01*
X60306Y-41033D01*
X60321Y-41004D01*
X60335Y-40947D01*
X60335Y-40876D01*
X60321Y-40819D01*
X60306Y-40790D01*
X60292Y-40776D01*
X60263Y-40761D01*
X59977Y-40761D02*
X59949Y-40761D01*
X59920Y-40776D01*
X59906Y-40790D01*
X59892Y-40819D01*
X59877Y-40876D01*
X59877Y-40947D01*
X59892Y-41004D01*
X59906Y-41033D01*
X59920Y-41047D01*
X59949Y-41061D01*
X59977Y-41061D01*
X60006Y-41047D01*
X60020Y-41033D01*
X60035Y-41004D01*
X60049Y-40947D01*
X60049Y-40876D01*
X60035Y-40819D01*
X60020Y-40790D01*
X60006Y-40776D01*
X59977Y-40761D01*
X59520Y-40947D02*
X59291Y-40947D01*
X58862Y-40761D02*
X58834Y-40761D01*
X58805Y-40776D01*
X58791Y-40790D01*
X58777Y-40819D01*
X58762Y-40876D01*
X58762Y-40947D01*
X58777Y-41004D01*
X58791Y-41033D01*
X58805Y-41047D01*
X58834Y-41061D01*
X58862Y-41061D01*
X58891Y-41047D01*
X58905Y-41033D01*
X58920Y-41004D01*
X58934Y-40947D01*
X58934Y-40876D01*
X58920Y-40819D01*
X58905Y-40790D01*
X58891Y-40776D01*
X58862Y-40761D01*
X58662Y-41061D02*
X58505Y-40861D01*
X58662Y-40861D02*
X58505Y-41061D01*
X58391Y-40904D02*
X58291Y-40904D01*
X58248Y-41061D02*
X58391Y-41061D01*
X58391Y-40761D01*
X58248Y-40761D01*
X58120Y-40904D02*
X58020Y-40904D01*
X57977Y-41061D02*
X58120Y-41061D01*
X58120Y-40761D01*
X57977Y-40761D01*
X57791Y-40761D02*
X57763Y-40761D01*
X57734Y-40776D01*
X57720Y-40790D01*
X57706Y-40819D01*
X57691Y-40876D01*
X57691Y-40947D01*
X57706Y-41004D01*
X57720Y-41033D01*
X57734Y-41047D01*
X57763Y-41061D01*
X57791Y-41061D01*
X57820Y-41047D01*
X57834Y-41033D01*
X57849Y-41004D01*
X57863Y-40947D01*
X57863Y-40876D01*
X57849Y-40819D01*
X57834Y-40790D01*
X57820Y-40776D01*
X57791Y-40761D01*
X57505Y-40761D02*
X57477Y-40761D01*
X57448Y-40776D01*
X57434Y-40790D01*
X57420Y-40819D01*
X57405Y-40876D01*
X57405Y-40947D01*
X57420Y-41004D01*
X57434Y-41033D01*
X57448Y-41047D01*
X57477Y-41061D01*
X57505Y-41061D01*
X57534Y-41047D01*
X57548Y-41033D01*
X57563Y-41004D01*
X57577Y-40947D01*
X57577Y-40876D01*
X57563Y-40819D01*
X57548Y-40790D01*
X57534Y-40776D01*
X57505Y-40761D01*
X57219Y-40761D02*
X57191Y-40761D01*
X57162Y-40776D01*
X57148Y-40790D01*
X57134Y-40819D01*
X57119Y-40876D01*
X57119Y-40947D01*
X57134Y-41004D01*
X57148Y-41033D01*
X57162Y-41047D01*
X57191Y-41061D01*
X57219Y-41061D01*
X57248Y-41047D01*
X57262Y-41033D01*
X57277Y-41004D01*
X57291Y-40947D01*
X57291Y-40876D01*
X57277Y-40819D01*
X57262Y-40790D01*
X57248Y-40776D01*
X57219Y-40761D01*
X55621Y-39321D02*
X55593Y-39321D01*
X55564Y-39336D01*
X55550Y-39350D01*
X55536Y-39379D01*
X55521Y-39436D01*
X55521Y-39507D01*
X55536Y-39564D01*
X55550Y-39593D01*
X55564Y-39607D01*
X55593Y-39621D01*
X55621Y-39621D01*
X55650Y-39607D01*
X55664Y-39593D01*
X55679Y-39564D01*
X55693Y-39507D01*
X55693Y-39436D01*
X55679Y-39379D01*
X55664Y-39350D01*
X55650Y-39336D01*
X55621Y-39321D01*
X55335Y-39321D02*
X55307Y-39321D01*
X55278Y-39336D01*
X55264Y-39350D01*
X55250Y-39379D01*
X55235Y-39436D01*
X55235Y-39507D01*
X55250Y-39564D01*
X55264Y-39593D01*
X55278Y-39607D01*
X55307Y-39621D01*
X55335Y-39621D01*
X55364Y-39607D01*
X55378Y-39593D01*
X55393Y-39564D01*
X55407Y-39507D01*
X55407Y-39436D01*
X55393Y-39379D01*
X55378Y-39350D01*
X55364Y-39336D01*
X55335Y-39321D01*
X54949Y-39621D02*
X55121Y-39621D01*
X55035Y-39621D02*
X55035Y-39321D01*
X55064Y-39364D01*
X55092Y-39393D01*
X55121Y-39407D01*
X54663Y-39621D02*
X54835Y-39621D01*
X54749Y-39621D02*
X54749Y-39321D01*
X54778Y-39364D01*
X54806Y-39393D01*
X54835Y-39407D01*
X54377Y-39621D02*
X54549Y-39621D01*
X54463Y-39621D02*
X54463Y-39321D01*
X54492Y-39364D01*
X54520Y-39393D01*
X54549Y-39407D01*
X54020Y-39507D02*
X53791Y-39507D01*
X53362Y-39321D02*
X53334Y-39321D01*
X53305Y-39336D01*
X53291Y-39350D01*
X53277Y-39379D01*
X53262Y-39436D01*
X53262Y-39507D01*
X53277Y-39564D01*
X53291Y-39593D01*
X53305Y-39607D01*
X53334Y-39621D01*
X53362Y-39621D01*
X53391Y-39607D01*
X53405Y-39593D01*
X53420Y-39564D01*
X53434Y-39507D01*
X53434Y-39436D01*
X53420Y-39379D01*
X53405Y-39350D01*
X53391Y-39336D01*
X53362Y-39321D01*
X53162Y-39621D02*
X53005Y-39421D01*
X53162Y-39421D02*
X53005Y-39621D01*
X52791Y-39464D02*
X52891Y-39464D01*
X52891Y-39621D02*
X52891Y-39321D01*
X52748Y-39321D01*
X52576Y-39321D02*
X52548Y-39321D01*
X52519Y-39336D01*
X52505Y-39350D01*
X52491Y-39379D01*
X52476Y-39436D01*
X52476Y-39507D01*
X52491Y-39564D01*
X52505Y-39593D01*
X52519Y-39607D01*
X52548Y-39621D01*
X52576Y-39621D01*
X52605Y-39607D01*
X52619Y-39593D01*
X52634Y-39564D01*
X52648Y-39507D01*
X52648Y-39436D01*
X52634Y-39379D01*
X52619Y-39350D01*
X52605Y-39336D01*
X52576Y-39321D01*
X52290Y-39321D02*
X52262Y-39321D01*
X52233Y-39336D01*
X52219Y-39350D01*
X52205Y-39379D01*
X52190Y-39436D01*
X52190Y-39507D01*
X52205Y-39564D01*
X52219Y-39593D01*
X52233Y-39607D01*
X52262Y-39621D01*
X52290Y-39621D01*
X52319Y-39607D01*
X52333Y-39593D01*
X52348Y-39564D01*
X52362Y-39507D01*
X52362Y-39436D01*
X52348Y-39379D01*
X52333Y-39350D01*
X52319Y-39336D01*
X52290Y-39321D01*
X52004Y-39321D02*
X51976Y-39321D01*
X51947Y-39336D01*
X51933Y-39350D01*
X51919Y-39379D01*
X51904Y-39436D01*
X51904Y-39507D01*
X51919Y-39564D01*
X51933Y-39593D01*
X51947Y-39607D01*
X51976Y-39621D01*
X52004Y-39621D01*
X52033Y-39607D01*
X52047Y-39593D01*
X52062Y-39564D01*
X52076Y-39507D01*
X52076Y-39436D01*
X52062Y-39379D01*
X52047Y-39350D01*
X52033Y-39336D01*
X52004Y-39321D01*
X51718Y-39321D02*
X51690Y-39321D01*
X51661Y-39336D01*
X51647Y-39350D01*
X51633Y-39379D01*
X51618Y-39436D01*
X51618Y-39507D01*
X51633Y-39564D01*
X51647Y-39593D01*
X51661Y-39607D01*
X51690Y-39621D01*
X51718Y-39621D01*
X51747Y-39607D01*
X51761Y-39593D01*
X51776Y-39564D01*
X51790Y-39507D01*
X51790Y-39436D01*
X51776Y-39379D01*
X51761Y-39350D01*
X51747Y-39336D01*
X51718Y-39321D01*
X55621Y-39801D02*
X55593Y-39801D01*
X55564Y-39816D01*
X55550Y-39830D01*
X55536Y-39859D01*
X55521Y-39916D01*
X55521Y-39987D01*
X55536Y-40044D01*
X55550Y-40073D01*
X55564Y-40087D01*
X55593Y-40101D01*
X55621Y-40101D01*
X55650Y-40087D01*
X55664Y-40073D01*
X55679Y-40044D01*
X55693Y-39987D01*
X55693Y-39916D01*
X55679Y-39859D01*
X55664Y-39830D01*
X55650Y-39816D01*
X55621Y-39801D01*
X55335Y-39801D02*
X55307Y-39801D01*
X55278Y-39816D01*
X55264Y-39830D01*
X55250Y-39859D01*
X55235Y-39916D01*
X55235Y-39987D01*
X55250Y-40044D01*
X55264Y-40073D01*
X55278Y-40087D01*
X55307Y-40101D01*
X55335Y-40101D01*
X55364Y-40087D01*
X55378Y-40073D01*
X55393Y-40044D01*
X55407Y-39987D01*
X55407Y-39916D01*
X55393Y-39859D01*
X55378Y-39830D01*
X55364Y-39816D01*
X55335Y-39801D01*
X54949Y-40101D02*
X55121Y-40101D01*
X55035Y-40101D02*
X55035Y-39801D01*
X55064Y-39844D01*
X55092Y-39873D01*
X55121Y-39887D01*
X54663Y-40101D02*
X54835Y-40101D01*
X54749Y-40101D02*
X54749Y-39801D01*
X54778Y-39844D01*
X54806Y-39873D01*
X54835Y-39887D01*
X54477Y-39801D02*
X54449Y-39801D01*
X54420Y-39816D01*
X54406Y-39830D01*
X54392Y-39859D01*
X54377Y-39916D01*
X54377Y-39987D01*
X54392Y-40044D01*
X54406Y-40073D01*
X54420Y-40087D01*
X54449Y-40101D01*
X54477Y-40101D01*
X54506Y-40087D01*
X54520Y-40073D01*
X54535Y-40044D01*
X54549Y-39987D01*
X54549Y-39916D01*
X54535Y-39859D01*
X54520Y-39830D01*
X54506Y-39816D01*
X54477Y-39801D01*
X54020Y-39987D02*
X53791Y-39987D01*
X53362Y-39801D02*
X53334Y-39801D01*
X53305Y-39816D01*
X53291Y-39830D01*
X53277Y-39859D01*
X53262Y-39916D01*
X53262Y-39987D01*
X53277Y-40044D01*
X53291Y-40073D01*
X53305Y-40087D01*
X53334Y-40101D01*
X53362Y-40101D01*
X53391Y-40087D01*
X53405Y-40073D01*
X53420Y-40044D01*
X53434Y-39987D01*
X53434Y-39916D01*
X53420Y-39859D01*
X53405Y-39830D01*
X53391Y-39816D01*
X53362Y-39801D01*
X53162Y-40101D02*
X53005Y-39901D01*
X53162Y-39901D02*
X53005Y-40101D01*
X52791Y-39944D02*
X52891Y-39944D01*
X52891Y-40101D02*
X52891Y-39801D01*
X52748Y-39801D01*
X52648Y-39830D02*
X52634Y-39816D01*
X52605Y-39801D01*
X52534Y-39801D01*
X52505Y-39816D01*
X52491Y-39830D01*
X52476Y-39859D01*
X52476Y-39887D01*
X52491Y-39930D01*
X52662Y-40101D01*
X52476Y-40101D01*
X52290Y-39801D02*
X52262Y-39801D01*
X52233Y-39816D01*
X52219Y-39830D01*
X52205Y-39859D01*
X52190Y-39916D01*
X52190Y-39987D01*
X52205Y-40044D01*
X52219Y-40073D01*
X52233Y-40087D01*
X52262Y-40101D01*
X52290Y-40101D01*
X52319Y-40087D01*
X52333Y-40073D01*
X52348Y-40044D01*
X52362Y-39987D01*
X52362Y-39916D01*
X52348Y-39859D01*
X52333Y-39830D01*
X52319Y-39816D01*
X52290Y-39801D01*
X52004Y-39801D02*
X51976Y-39801D01*
X51947Y-39816D01*
X51933Y-39830D01*
X51919Y-39859D01*
X51904Y-39916D01*
X51904Y-39987D01*
X51919Y-40044D01*
X51933Y-40073D01*
X51947Y-40087D01*
X51976Y-40101D01*
X52004Y-40101D01*
X52033Y-40087D01*
X52047Y-40073D01*
X52062Y-40044D01*
X52076Y-39987D01*
X52076Y-39916D01*
X52062Y-39859D01*
X52047Y-39830D01*
X52033Y-39816D01*
X52004Y-39801D01*
X51718Y-39801D02*
X51690Y-39801D01*
X51661Y-39816D01*
X51647Y-39830D01*
X51633Y-39859D01*
X51618Y-39916D01*
X51618Y-39987D01*
X51633Y-40044D01*
X51647Y-40073D01*
X51661Y-40087D01*
X51690Y-40101D01*
X51718Y-40101D01*
X51747Y-40087D01*
X51761Y-40073D01*
X51776Y-40044D01*
X51790Y-39987D01*
X51790Y-39916D01*
X51776Y-39859D01*
X51761Y-39830D01*
X51747Y-39816D01*
X51718Y-39801D01*
X55621Y-40281D02*
X55593Y-40281D01*
X55564Y-40296D01*
X55550Y-40310D01*
X55536Y-40339D01*
X55521Y-40396D01*
X55521Y-40467D01*
X55536Y-40524D01*
X55550Y-40553D01*
X55564Y-40567D01*
X55593Y-40581D01*
X55621Y-40581D01*
X55650Y-40567D01*
X55664Y-40553D01*
X55679Y-40524D01*
X55693Y-40467D01*
X55693Y-40396D01*
X55679Y-40339D01*
X55664Y-40310D01*
X55650Y-40296D01*
X55621Y-40281D01*
X55335Y-40281D02*
X55307Y-40281D01*
X55278Y-40296D01*
X55264Y-40310D01*
X55250Y-40339D01*
X55235Y-40396D01*
X55235Y-40467D01*
X55250Y-40524D01*
X55264Y-40553D01*
X55278Y-40567D01*
X55307Y-40581D01*
X55335Y-40581D01*
X55364Y-40567D01*
X55378Y-40553D01*
X55393Y-40524D01*
X55407Y-40467D01*
X55407Y-40396D01*
X55393Y-40339D01*
X55378Y-40310D01*
X55364Y-40296D01*
X55335Y-40281D01*
X54949Y-40581D02*
X55121Y-40581D01*
X55035Y-40581D02*
X55035Y-40281D01*
X55064Y-40324D01*
X55092Y-40353D01*
X55121Y-40367D01*
X54763Y-40281D02*
X54735Y-40281D01*
X54706Y-40296D01*
X54692Y-40310D01*
X54678Y-40339D01*
X54663Y-40396D01*
X54663Y-40467D01*
X54678Y-40524D01*
X54692Y-40553D01*
X54706Y-40567D01*
X54735Y-40581D01*
X54763Y-40581D01*
X54792Y-40567D01*
X54806Y-40553D01*
X54821Y-40524D01*
X54835Y-40467D01*
X54835Y-40396D01*
X54821Y-40339D01*
X54806Y-40310D01*
X54792Y-40296D01*
X54763Y-40281D01*
X54377Y-40581D02*
X54549Y-40581D01*
X54463Y-40581D02*
X54463Y-40281D01*
X54492Y-40324D01*
X54520Y-40353D01*
X54549Y-40367D01*
X54020Y-40467D02*
X53791Y-40467D01*
X53362Y-40281D02*
X53334Y-40281D01*
X53305Y-40296D01*
X53291Y-40310D01*
X53277Y-40339D01*
X53262Y-40396D01*
X53262Y-40467D01*
X53277Y-40524D01*
X53291Y-40553D01*
X53305Y-40567D01*
X53334Y-40581D01*
X53362Y-40581D01*
X53391Y-40567D01*
X53405Y-40553D01*
X53420Y-40524D01*
X53434Y-40467D01*
X53434Y-40396D01*
X53420Y-40339D01*
X53405Y-40310D01*
X53391Y-40296D01*
X53362Y-40281D01*
X53162Y-40581D02*
X53005Y-40381D01*
X53162Y-40381D02*
X53005Y-40581D01*
X52791Y-40424D02*
X52891Y-40424D01*
X52891Y-40581D02*
X52891Y-40281D01*
X52748Y-40281D01*
X52505Y-40381D02*
X52505Y-40581D01*
X52576Y-40267D02*
X52648Y-40481D01*
X52462Y-40481D01*
X52290Y-40281D02*
X52262Y-40281D01*
X52233Y-40296D01*
X52219Y-40310D01*
X52205Y-40339D01*
X52190Y-40396D01*
X52190Y-40467D01*
X52205Y-40524D01*
X52219Y-40553D01*
X52233Y-40567D01*
X52262Y-40581D01*
X52290Y-40581D01*
X52319Y-40567D01*
X52333Y-40553D01*
X52348Y-40524D01*
X52362Y-40467D01*
X52362Y-40396D01*
X52348Y-40339D01*
X52333Y-40310D01*
X52319Y-40296D01*
X52290Y-40281D01*
X52004Y-40281D02*
X51976Y-40281D01*
X51947Y-40296D01*
X51933Y-40310D01*
X51919Y-40339D01*
X51904Y-40396D01*
X51904Y-40467D01*
X51919Y-40524D01*
X51933Y-40553D01*
X51947Y-40567D01*
X51976Y-40581D01*
X52004Y-40581D01*
X52033Y-40567D01*
X52047Y-40553D01*
X52062Y-40524D01*
X52076Y-40467D01*
X52076Y-40396D01*
X52062Y-40339D01*
X52047Y-40310D01*
X52033Y-40296D01*
X52004Y-40281D01*
X51718Y-40281D02*
X51690Y-40281D01*
X51661Y-40296D01*
X51647Y-40310D01*
X51633Y-40339D01*
X51618Y-40396D01*
X51618Y-40467D01*
X51633Y-40524D01*
X51647Y-40553D01*
X51661Y-40567D01*
X51690Y-40581D01*
X51718Y-40581D01*
X51747Y-40567D01*
X51761Y-40553D01*
X51776Y-40524D01*
X51790Y-40467D01*
X51790Y-40396D01*
X51776Y-40339D01*
X51761Y-40310D01*
X51747Y-40296D01*
X51718Y-40281D01*
X55521Y-36621D02*
X55693Y-36621D01*
X55607Y-36621D02*
X55607Y-36321D01*
X55636Y-36364D01*
X55664Y-36393D01*
X55693Y-36407D01*
X55335Y-36321D02*
X55307Y-36321D01*
X55278Y-36336D01*
X55264Y-36350D01*
X55250Y-36379D01*
X55235Y-36436D01*
X55235Y-36507D01*
X55250Y-36564D01*
X55264Y-36593D01*
X55278Y-36607D01*
X55307Y-36621D01*
X55335Y-36621D01*
X55364Y-36607D01*
X55378Y-36593D01*
X55393Y-36564D01*
X55407Y-36507D01*
X55407Y-36436D01*
X55393Y-36379D01*
X55378Y-36350D01*
X55364Y-36336D01*
X55335Y-36321D01*
X54949Y-36621D02*
X55121Y-36621D01*
X55035Y-36621D02*
X55035Y-36321D01*
X55064Y-36364D01*
X55092Y-36393D01*
X55121Y-36407D01*
X54663Y-36621D02*
X54835Y-36621D01*
X54749Y-36621D02*
X54749Y-36321D01*
X54778Y-36364D01*
X54806Y-36393D01*
X54835Y-36407D01*
X54377Y-36621D02*
X54549Y-36621D01*
X54463Y-36621D02*
X54463Y-36321D01*
X54492Y-36364D01*
X54520Y-36393D01*
X54549Y-36407D01*
X54020Y-36507D02*
X53791Y-36507D01*
X53362Y-36321D02*
X53334Y-36321D01*
X53305Y-36336D01*
X53291Y-36350D01*
X53277Y-36379D01*
X53262Y-36436D01*
X53262Y-36507D01*
X53277Y-36564D01*
X53291Y-36593D01*
X53305Y-36607D01*
X53334Y-36621D01*
X53362Y-36621D01*
X53391Y-36607D01*
X53405Y-36593D01*
X53420Y-36564D01*
X53434Y-36507D01*
X53434Y-36436D01*
X53420Y-36379D01*
X53405Y-36350D01*
X53391Y-36336D01*
X53362Y-36321D01*
X53162Y-36621D02*
X53005Y-36421D01*
X53162Y-36421D02*
X53005Y-36621D01*
X52891Y-36621D02*
X52891Y-36321D01*
X52819Y-36321D01*
X52776Y-36336D01*
X52748Y-36364D01*
X52733Y-36393D01*
X52719Y-36450D01*
X52719Y-36493D01*
X52733Y-36550D01*
X52748Y-36579D01*
X52776Y-36607D01*
X52819Y-36621D01*
X52891Y-36621D01*
X52533Y-36321D02*
X52505Y-36321D01*
X52476Y-36336D01*
X52462Y-36350D01*
X52448Y-36379D01*
X52433Y-36436D01*
X52433Y-36507D01*
X52448Y-36564D01*
X52462Y-36593D01*
X52476Y-36607D01*
X52505Y-36621D01*
X52533Y-36621D01*
X52562Y-36607D01*
X52576Y-36593D01*
X52591Y-36564D01*
X52605Y-36507D01*
X52605Y-36436D01*
X52591Y-36379D01*
X52576Y-36350D01*
X52562Y-36336D01*
X52533Y-36321D01*
X52247Y-36321D02*
X52219Y-36321D01*
X52190Y-36336D01*
X52176Y-36350D01*
X52162Y-36379D01*
X52147Y-36436D01*
X52147Y-36507D01*
X52162Y-36564D01*
X52176Y-36593D01*
X52190Y-36607D01*
X52219Y-36621D01*
X52247Y-36621D01*
X52276Y-36607D01*
X52290Y-36593D01*
X52305Y-36564D01*
X52319Y-36507D01*
X52319Y-36436D01*
X52305Y-36379D01*
X52290Y-36350D01*
X52276Y-36336D01*
X52247Y-36321D01*
X51961Y-36321D02*
X51933Y-36321D01*
X51904Y-36336D01*
X51890Y-36350D01*
X51876Y-36379D01*
X51861Y-36436D01*
X51861Y-36507D01*
X51876Y-36564D01*
X51890Y-36593D01*
X51904Y-36607D01*
X51933Y-36621D01*
X51961Y-36621D01*
X51990Y-36607D01*
X52004Y-36593D01*
X52019Y-36564D01*
X52033Y-36507D01*
X52033Y-36436D01*
X52019Y-36379D01*
X52004Y-36350D01*
X51990Y-36336D01*
X51961Y-36321D01*
X51675Y-36321D02*
X51647Y-36321D01*
X51618Y-36336D01*
X51604Y-36350D01*
X51590Y-36379D01*
X51575Y-36436D01*
X51575Y-36507D01*
X51590Y-36564D01*
X51604Y-36593D01*
X51618Y-36607D01*
X51647Y-36621D01*
X51675Y-36621D01*
X51704Y-36607D01*
X51718Y-36593D01*
X51733Y-36564D01*
X51747Y-36507D01*
X51747Y-36436D01*
X51733Y-36379D01*
X51718Y-36350D01*
X51704Y-36336D01*
X51675Y-36321D01*
X55521Y-37101D02*
X55693Y-37101D01*
X55607Y-37101D02*
X55607Y-36801D01*
X55636Y-36844D01*
X55664Y-36873D01*
X55693Y-36887D01*
X55335Y-36801D02*
X55307Y-36801D01*
X55278Y-36816D01*
X55264Y-36830D01*
X55250Y-36859D01*
X55235Y-36916D01*
X55235Y-36987D01*
X55250Y-37044D01*
X55264Y-37073D01*
X55278Y-37087D01*
X55307Y-37101D01*
X55335Y-37101D01*
X55364Y-37087D01*
X55378Y-37073D01*
X55393Y-37044D01*
X55407Y-36987D01*
X55407Y-36916D01*
X55393Y-36859D01*
X55378Y-36830D01*
X55364Y-36816D01*
X55335Y-36801D01*
X54949Y-37101D02*
X55121Y-37101D01*
X55035Y-37101D02*
X55035Y-36801D01*
X55064Y-36844D01*
X55092Y-36873D01*
X55121Y-36887D01*
X54663Y-37101D02*
X54835Y-37101D01*
X54749Y-37101D02*
X54749Y-36801D01*
X54778Y-36844D01*
X54806Y-36873D01*
X54835Y-36887D01*
X54477Y-36801D02*
X54449Y-36801D01*
X54420Y-36816D01*
X54406Y-36830D01*
X54392Y-36859D01*
X54377Y-36916D01*
X54377Y-36987D01*
X54392Y-37044D01*
X54406Y-37073D01*
X54420Y-37087D01*
X54449Y-37101D01*
X54477Y-37101D01*
X54506Y-37087D01*
X54520Y-37073D01*
X54535Y-37044D01*
X54549Y-36987D01*
X54549Y-36916D01*
X54535Y-36859D01*
X54520Y-36830D01*
X54506Y-36816D01*
X54477Y-36801D01*
X54020Y-36987D02*
X53791Y-36987D01*
X53362Y-36801D02*
X53334Y-36801D01*
X53305Y-36816D01*
X53291Y-36830D01*
X53277Y-36859D01*
X53262Y-36916D01*
X53262Y-36987D01*
X53277Y-37044D01*
X53291Y-37073D01*
X53305Y-37087D01*
X53334Y-37101D01*
X53362Y-37101D01*
X53391Y-37087D01*
X53405Y-37073D01*
X53420Y-37044D01*
X53434Y-36987D01*
X53434Y-36916D01*
X53420Y-36859D01*
X53405Y-36830D01*
X53391Y-36816D01*
X53362Y-36801D01*
X53162Y-37101D02*
X53005Y-36901D01*
X53162Y-36901D02*
X53005Y-37101D01*
X52891Y-37101D02*
X52891Y-36801D01*
X52819Y-36801D01*
X52776Y-36816D01*
X52748Y-36844D01*
X52733Y-36873D01*
X52719Y-36930D01*
X52719Y-36973D01*
X52733Y-37030D01*
X52748Y-37059D01*
X52776Y-37087D01*
X52819Y-37101D01*
X52891Y-37101D01*
X52605Y-36830D02*
X52591Y-36816D01*
X52562Y-36801D01*
X52491Y-36801D01*
X52462Y-36816D01*
X52448Y-36830D01*
X52433Y-36859D01*
X52433Y-36887D01*
X52448Y-36930D01*
X52619Y-37101D01*
X52433Y-37101D01*
X52247Y-36801D02*
X52219Y-36801D01*
X52190Y-36816D01*
X52176Y-36830D01*
X52162Y-36859D01*
X52147Y-36916D01*
X52147Y-36987D01*
X52162Y-37044D01*
X52176Y-37073D01*
X52190Y-37087D01*
X52219Y-37101D01*
X52247Y-37101D01*
X52276Y-37087D01*
X52290Y-37073D01*
X52305Y-37044D01*
X52319Y-36987D01*
X52319Y-36916D01*
X52305Y-36859D01*
X52290Y-36830D01*
X52276Y-36816D01*
X52247Y-36801D01*
X51961Y-36801D02*
X51933Y-36801D01*
X51904Y-36816D01*
X51890Y-36830D01*
X51876Y-36859D01*
X51861Y-36916D01*
X51861Y-36987D01*
X51876Y-37044D01*
X51890Y-37073D01*
X51904Y-37087D01*
X51933Y-37101D01*
X51961Y-37101D01*
X51990Y-37087D01*
X52004Y-37073D01*
X52019Y-37044D01*
X52033Y-36987D01*
X52033Y-36916D01*
X52019Y-36859D01*
X52004Y-36830D01*
X51990Y-36816D01*
X51961Y-36801D01*
X51675Y-36801D02*
X51647Y-36801D01*
X51618Y-36816D01*
X51604Y-36830D01*
X51590Y-36859D01*
X51575Y-36916D01*
X51575Y-36987D01*
X51590Y-37044D01*
X51604Y-37073D01*
X51618Y-37087D01*
X51647Y-37101D01*
X51675Y-37101D01*
X51704Y-37087D01*
X51718Y-37073D01*
X51733Y-37044D01*
X51747Y-36987D01*
X51747Y-36916D01*
X51733Y-36859D01*
X51718Y-36830D01*
X51704Y-36816D01*
X51675Y-36801D01*
X55521Y-37581D02*
X55693Y-37581D01*
X55607Y-37581D02*
X55607Y-37281D01*
X55636Y-37324D01*
X55664Y-37353D01*
X55693Y-37367D01*
X55335Y-37281D02*
X55307Y-37281D01*
X55278Y-37296D01*
X55264Y-37310D01*
X55250Y-37339D01*
X55235Y-37396D01*
X55235Y-37467D01*
X55250Y-37524D01*
X55264Y-37553D01*
X55278Y-37567D01*
X55307Y-37581D01*
X55335Y-37581D01*
X55364Y-37567D01*
X55378Y-37553D01*
X55393Y-37524D01*
X55407Y-37467D01*
X55407Y-37396D01*
X55393Y-37339D01*
X55378Y-37310D01*
X55364Y-37296D01*
X55335Y-37281D01*
X54949Y-37581D02*
X55121Y-37581D01*
X55035Y-37581D02*
X55035Y-37281D01*
X55064Y-37324D01*
X55092Y-37353D01*
X55121Y-37367D01*
X54763Y-37281D02*
X54735Y-37281D01*
X54706Y-37296D01*
X54692Y-37310D01*
X54678Y-37339D01*
X54663Y-37396D01*
X54663Y-37467D01*
X54678Y-37524D01*
X54692Y-37553D01*
X54706Y-37567D01*
X54735Y-37581D01*
X54763Y-37581D01*
X54792Y-37567D01*
X54806Y-37553D01*
X54821Y-37524D01*
X54835Y-37467D01*
X54835Y-37396D01*
X54821Y-37339D01*
X54806Y-37310D01*
X54792Y-37296D01*
X54763Y-37281D01*
X54377Y-37581D02*
X54549Y-37581D01*
X54463Y-37581D02*
X54463Y-37281D01*
X54492Y-37324D01*
X54520Y-37353D01*
X54549Y-37367D01*
X54020Y-37467D02*
X53791Y-37467D01*
X53362Y-37281D02*
X53334Y-37281D01*
X53305Y-37296D01*
X53291Y-37310D01*
X53277Y-37339D01*
X53262Y-37396D01*
X53262Y-37467D01*
X53277Y-37524D01*
X53291Y-37553D01*
X53305Y-37567D01*
X53334Y-37581D01*
X53362Y-37581D01*
X53391Y-37567D01*
X53405Y-37553D01*
X53420Y-37524D01*
X53434Y-37467D01*
X53434Y-37396D01*
X53420Y-37339D01*
X53405Y-37310D01*
X53391Y-37296D01*
X53362Y-37281D01*
X53162Y-37581D02*
X53005Y-37381D01*
X53162Y-37381D02*
X53005Y-37581D01*
X52891Y-37581D02*
X52891Y-37281D01*
X52819Y-37281D01*
X52776Y-37296D01*
X52748Y-37324D01*
X52733Y-37353D01*
X52719Y-37410D01*
X52719Y-37453D01*
X52733Y-37510D01*
X52748Y-37539D01*
X52776Y-37567D01*
X52819Y-37581D01*
X52891Y-37581D01*
X52462Y-37381D02*
X52462Y-37581D01*
X52533Y-37267D02*
X52605Y-37481D01*
X52419Y-37481D01*
X52247Y-37281D02*
X52219Y-37281D01*
X52190Y-37296D01*
X52176Y-37310D01*
X52162Y-37339D01*
X52147Y-37396D01*
X52147Y-37467D01*
X52162Y-37524D01*
X52176Y-37553D01*
X52190Y-37567D01*
X52219Y-37581D01*
X52247Y-37581D01*
X52276Y-37567D01*
X52290Y-37553D01*
X52305Y-37524D01*
X52319Y-37467D01*
X52319Y-37396D01*
X52305Y-37339D01*
X52290Y-37310D01*
X52276Y-37296D01*
X52247Y-37281D01*
X51961Y-37281D02*
X51933Y-37281D01*
X51904Y-37296D01*
X51890Y-37310D01*
X51876Y-37339D01*
X51861Y-37396D01*
X51861Y-37467D01*
X51876Y-37524D01*
X51890Y-37553D01*
X51904Y-37567D01*
X51933Y-37581D01*
X51961Y-37581D01*
X51990Y-37567D01*
X52004Y-37553D01*
X52019Y-37524D01*
X52033Y-37467D01*
X52033Y-37396D01*
X52019Y-37339D01*
X52004Y-37310D01*
X51990Y-37296D01*
X51961Y-37281D01*
X51675Y-37281D02*
X51647Y-37281D01*
X51618Y-37296D01*
X51604Y-37310D01*
X51590Y-37339D01*
X51575Y-37396D01*
X51575Y-37467D01*
X51590Y-37524D01*
X51604Y-37553D01*
X51618Y-37567D01*
X51647Y-37581D01*
X51675Y-37581D01*
X51704Y-37567D01*
X51718Y-37553D01*
X51733Y-37524D01*
X51747Y-37467D01*
X51747Y-37396D01*
X51733Y-37339D01*
X51718Y-37310D01*
X51704Y-37296D01*
X51675Y-37281D01*
X55521Y-38061D02*
X55693Y-38061D01*
X55607Y-38061D02*
X55607Y-37761D01*
X55636Y-37804D01*
X55664Y-37833D01*
X55693Y-37847D01*
X55335Y-37761D02*
X55307Y-37761D01*
X55278Y-37776D01*
X55264Y-37790D01*
X55250Y-37819D01*
X55235Y-37876D01*
X55235Y-37947D01*
X55250Y-38004D01*
X55264Y-38033D01*
X55278Y-38047D01*
X55307Y-38061D01*
X55335Y-38061D01*
X55364Y-38047D01*
X55378Y-38033D01*
X55393Y-38004D01*
X55407Y-37947D01*
X55407Y-37876D01*
X55393Y-37819D01*
X55378Y-37790D01*
X55364Y-37776D01*
X55335Y-37761D01*
X54949Y-38061D02*
X55121Y-38061D01*
X55035Y-38061D02*
X55035Y-37761D01*
X55064Y-37804D01*
X55092Y-37833D01*
X55121Y-37847D01*
X54763Y-37761D02*
X54735Y-37761D01*
X54706Y-37776D01*
X54692Y-37790D01*
X54678Y-37819D01*
X54663Y-37876D01*
X54663Y-37947D01*
X54678Y-38004D01*
X54692Y-38033D01*
X54706Y-38047D01*
X54735Y-38061D01*
X54763Y-38061D01*
X54792Y-38047D01*
X54806Y-38033D01*
X54821Y-38004D01*
X54835Y-37947D01*
X54835Y-37876D01*
X54821Y-37819D01*
X54806Y-37790D01*
X54792Y-37776D01*
X54763Y-37761D01*
X54477Y-37761D02*
X54449Y-37761D01*
X54420Y-37776D01*
X54406Y-37790D01*
X54392Y-37819D01*
X54377Y-37876D01*
X54377Y-37947D01*
X54392Y-38004D01*
X54406Y-38033D01*
X54420Y-38047D01*
X54449Y-38061D01*
X54477Y-38061D01*
X54506Y-38047D01*
X54520Y-38033D01*
X54535Y-38004D01*
X54549Y-37947D01*
X54549Y-37876D01*
X54535Y-37819D01*
X54520Y-37790D01*
X54506Y-37776D01*
X54477Y-37761D01*
X54020Y-37947D02*
X53791Y-37947D01*
X53362Y-37761D02*
X53334Y-37761D01*
X53305Y-37776D01*
X53291Y-37790D01*
X53277Y-37819D01*
X53262Y-37876D01*
X53262Y-37947D01*
X53277Y-38004D01*
X53291Y-38033D01*
X53305Y-38047D01*
X53334Y-38061D01*
X53362Y-38061D01*
X53391Y-38047D01*
X53405Y-38033D01*
X53420Y-38004D01*
X53434Y-37947D01*
X53434Y-37876D01*
X53420Y-37819D01*
X53405Y-37790D01*
X53391Y-37776D01*
X53362Y-37761D01*
X53162Y-38061D02*
X53005Y-37861D01*
X53162Y-37861D02*
X53005Y-38061D01*
X52891Y-38061D02*
X52891Y-37761D01*
X52819Y-37761D01*
X52776Y-37776D01*
X52748Y-37804D01*
X52733Y-37833D01*
X52719Y-37890D01*
X52719Y-37933D01*
X52733Y-37990D01*
X52748Y-38019D01*
X52776Y-38047D01*
X52819Y-38061D01*
X52891Y-38061D01*
X52462Y-37761D02*
X52519Y-37761D01*
X52548Y-37776D01*
X52562Y-37790D01*
X52591Y-37833D01*
X52605Y-37890D01*
X52605Y-38004D01*
X52591Y-38033D01*
X52576Y-38047D01*
X52548Y-38061D01*
X52491Y-38061D01*
X52462Y-38047D01*
X52448Y-38033D01*
X52433Y-38004D01*
X52433Y-37933D01*
X52448Y-37904D01*
X52462Y-37890D01*
X52491Y-37876D01*
X52548Y-37876D01*
X52576Y-37890D01*
X52591Y-37904D01*
X52605Y-37933D01*
X52247Y-37761D02*
X52219Y-37761D01*
X52190Y-37776D01*
X52176Y-37790D01*
X52162Y-37819D01*
X52147Y-37876D01*
X52147Y-37947D01*
X52162Y-38004D01*
X52176Y-38033D01*
X52190Y-38047D01*
X52219Y-38061D01*
X52247Y-38061D01*
X52276Y-38047D01*
X52290Y-38033D01*
X52305Y-38004D01*
X52319Y-37947D01*
X52319Y-37876D01*
X52305Y-37819D01*
X52290Y-37790D01*
X52276Y-37776D01*
X52247Y-37761D01*
X51961Y-37761D02*
X51933Y-37761D01*
X51904Y-37776D01*
X51890Y-37790D01*
X51876Y-37819D01*
X51861Y-37876D01*
X51861Y-37947D01*
X51876Y-38004D01*
X51890Y-38033D01*
X51904Y-38047D01*
X51933Y-38061D01*
X51961Y-38061D01*
X51990Y-38047D01*
X52004Y-38033D01*
X52019Y-38004D01*
X52033Y-37947D01*
X52033Y-37876D01*
X52019Y-37819D01*
X52004Y-37790D01*
X51990Y-37776D01*
X51961Y-37761D01*
X51675Y-37761D02*
X51647Y-37761D01*
X51618Y-37776D01*
X51604Y-37790D01*
X51590Y-37819D01*
X51575Y-37876D01*
X51575Y-37947D01*
X51590Y-38004D01*
X51604Y-38033D01*
X51618Y-38047D01*
X51647Y-38061D01*
X51675Y-38061D01*
X51704Y-38047D01*
X51718Y-38033D01*
X51733Y-38004D01*
X51747Y-37947D01*
X51747Y-37876D01*
X51733Y-37819D01*
X51718Y-37790D01*
X51704Y-37776D01*
X51675Y-37761D01*
X50771Y-36621D02*
X50943Y-36621D01*
X50857Y-36621D02*
X50857Y-36321D01*
X50886Y-36364D01*
X50914Y-36393D01*
X50943Y-36407D01*
X50585Y-36321D02*
X50557Y-36321D01*
X50528Y-36336D01*
X50514Y-36350D01*
X50500Y-36379D01*
X50485Y-36436D01*
X50485Y-36507D01*
X50500Y-36564D01*
X50514Y-36593D01*
X50528Y-36607D01*
X50557Y-36621D01*
X50585Y-36621D01*
X50614Y-36607D01*
X50628Y-36593D01*
X50643Y-36564D01*
X50657Y-36507D01*
X50657Y-36436D01*
X50643Y-36379D01*
X50628Y-36350D01*
X50614Y-36336D01*
X50585Y-36321D01*
X50299Y-36321D02*
X50271Y-36321D01*
X50242Y-36336D01*
X50228Y-36350D01*
X50214Y-36379D01*
X50199Y-36436D01*
X50199Y-36507D01*
X50214Y-36564D01*
X50228Y-36593D01*
X50242Y-36607D01*
X50271Y-36621D01*
X50299Y-36621D01*
X50328Y-36607D01*
X50342Y-36593D01*
X50357Y-36564D01*
X50371Y-36507D01*
X50371Y-36436D01*
X50357Y-36379D01*
X50342Y-36350D01*
X50328Y-36336D01*
X50299Y-36321D01*
X49913Y-36621D02*
X50085Y-36621D01*
X49999Y-36621D02*
X49999Y-36321D01*
X50028Y-36364D01*
X50056Y-36393D01*
X50085Y-36407D01*
X49627Y-36621D02*
X49799Y-36621D01*
X49713Y-36621D02*
X49713Y-36321D01*
X49742Y-36364D01*
X49770Y-36393D01*
X49799Y-36407D01*
X49270Y-36507D02*
X49041Y-36507D01*
X48612Y-36321D02*
X48584Y-36321D01*
X48555Y-36336D01*
X48541Y-36350D01*
X48527Y-36379D01*
X48512Y-36436D01*
X48512Y-36507D01*
X48527Y-36564D01*
X48541Y-36593D01*
X48555Y-36607D01*
X48584Y-36621D01*
X48612Y-36621D01*
X48641Y-36607D01*
X48655Y-36593D01*
X48670Y-36564D01*
X48684Y-36507D01*
X48684Y-36436D01*
X48670Y-36379D01*
X48655Y-36350D01*
X48641Y-36336D01*
X48612Y-36321D01*
X48412Y-36621D02*
X48255Y-36421D01*
X48412Y-36421D02*
X48255Y-36621D01*
X48141Y-36621D02*
X48141Y-36321D01*
X48069Y-36321D01*
X48026Y-36336D01*
X47998Y-36364D01*
X47983Y-36393D01*
X47969Y-36450D01*
X47969Y-36493D01*
X47983Y-36550D01*
X47998Y-36579D01*
X48026Y-36607D01*
X48069Y-36621D01*
X48141Y-36621D01*
X47798Y-36450D02*
X47826Y-36436D01*
X47841Y-36421D01*
X47855Y-36393D01*
X47855Y-36379D01*
X47841Y-36350D01*
X47826Y-36336D01*
X47798Y-36321D01*
X47741Y-36321D01*
X47712Y-36336D01*
X47698Y-36350D01*
X47683Y-36379D01*
X47683Y-36393D01*
X47698Y-36421D01*
X47712Y-36436D01*
X47741Y-36450D01*
X47798Y-36450D01*
X47826Y-36464D01*
X47841Y-36479D01*
X47855Y-36507D01*
X47855Y-36564D01*
X47841Y-36593D01*
X47826Y-36607D01*
X47798Y-36621D01*
X47741Y-36621D01*
X47712Y-36607D01*
X47698Y-36593D01*
X47683Y-36564D01*
X47683Y-36507D01*
X47698Y-36479D01*
X47712Y-36464D01*
X47741Y-36450D01*
X47497Y-36321D02*
X47469Y-36321D01*
X47440Y-36336D01*
X47426Y-36350D01*
X47412Y-36379D01*
X47397Y-36436D01*
X47397Y-36507D01*
X47412Y-36564D01*
X47426Y-36593D01*
X47440Y-36607D01*
X47469Y-36621D01*
X47497Y-36621D01*
X47526Y-36607D01*
X47540Y-36593D01*
X47555Y-36564D01*
X47569Y-36507D01*
X47569Y-36436D01*
X47555Y-36379D01*
X47540Y-36350D01*
X47526Y-36336D01*
X47497Y-36321D01*
X47211Y-36321D02*
X47183Y-36321D01*
X47154Y-36336D01*
X47140Y-36350D01*
X47126Y-36379D01*
X47111Y-36436D01*
X47111Y-36507D01*
X47126Y-36564D01*
X47140Y-36593D01*
X47154Y-36607D01*
X47183Y-36621D01*
X47211Y-36621D01*
X47240Y-36607D01*
X47254Y-36593D01*
X47269Y-36564D01*
X47283Y-36507D01*
X47283Y-36436D01*
X47269Y-36379D01*
X47254Y-36350D01*
X47240Y-36336D01*
X47211Y-36321D01*
X46925Y-36321D02*
X46897Y-36321D01*
X46868Y-36336D01*
X46854Y-36350D01*
X46840Y-36379D01*
X46825Y-36436D01*
X46825Y-36507D01*
X46840Y-36564D01*
X46854Y-36593D01*
X46868Y-36607D01*
X46897Y-36621D01*
X46925Y-36621D01*
X46954Y-36607D01*
X46968Y-36593D01*
X46983Y-36564D01*
X46997Y-36507D01*
X46997Y-36436D01*
X46983Y-36379D01*
X46968Y-36350D01*
X46954Y-36336D01*
X46925Y-36321D01*
X50771Y-37101D02*
X50943Y-37101D01*
X50857Y-37101D02*
X50857Y-36801D01*
X50886Y-36844D01*
X50914Y-36873D01*
X50943Y-36887D01*
X50585Y-36801D02*
X50557Y-36801D01*
X50528Y-36816D01*
X50514Y-36830D01*
X50500Y-36859D01*
X50485Y-36916D01*
X50485Y-36987D01*
X50500Y-37044D01*
X50514Y-37073D01*
X50528Y-37087D01*
X50557Y-37101D01*
X50585Y-37101D01*
X50614Y-37087D01*
X50628Y-37073D01*
X50643Y-37044D01*
X50657Y-36987D01*
X50657Y-36916D01*
X50643Y-36859D01*
X50628Y-36830D01*
X50614Y-36816D01*
X50585Y-36801D01*
X50299Y-36801D02*
X50271Y-36801D01*
X50242Y-36816D01*
X50228Y-36830D01*
X50214Y-36859D01*
X50199Y-36916D01*
X50199Y-36987D01*
X50214Y-37044D01*
X50228Y-37073D01*
X50242Y-37087D01*
X50271Y-37101D01*
X50299Y-37101D01*
X50328Y-37087D01*
X50342Y-37073D01*
X50357Y-37044D01*
X50371Y-36987D01*
X50371Y-36916D01*
X50357Y-36859D01*
X50342Y-36830D01*
X50328Y-36816D01*
X50299Y-36801D01*
X49913Y-37101D02*
X50085Y-37101D01*
X49999Y-37101D02*
X49999Y-36801D01*
X50028Y-36844D01*
X50056Y-36873D01*
X50085Y-36887D01*
X49727Y-36801D02*
X49699Y-36801D01*
X49670Y-36816D01*
X49656Y-36830D01*
X49642Y-36859D01*
X49627Y-36916D01*
X49627Y-36987D01*
X49642Y-37044D01*
X49656Y-37073D01*
X49670Y-37087D01*
X49699Y-37101D01*
X49727Y-37101D01*
X49756Y-37087D01*
X49770Y-37073D01*
X49785Y-37044D01*
X49799Y-36987D01*
X49799Y-36916D01*
X49785Y-36859D01*
X49770Y-36830D01*
X49756Y-36816D01*
X49727Y-36801D01*
X49270Y-36987D02*
X49041Y-36987D01*
X48612Y-36801D02*
X48584Y-36801D01*
X48555Y-36816D01*
X48541Y-36830D01*
X48527Y-36859D01*
X48512Y-36916D01*
X48512Y-36987D01*
X48527Y-37044D01*
X48541Y-37073D01*
X48555Y-37087D01*
X48584Y-37101D01*
X48612Y-37101D01*
X48641Y-37087D01*
X48655Y-37073D01*
X48670Y-37044D01*
X48684Y-36987D01*
X48684Y-36916D01*
X48670Y-36859D01*
X48655Y-36830D01*
X48641Y-36816D01*
X48612Y-36801D01*
X48412Y-37101D02*
X48255Y-36901D01*
X48412Y-36901D02*
X48255Y-37101D01*
X48141Y-37101D02*
X48141Y-36801D01*
X48069Y-36801D01*
X48026Y-36816D01*
X47998Y-36844D01*
X47983Y-36873D01*
X47969Y-36930D01*
X47969Y-36973D01*
X47983Y-37030D01*
X47998Y-37059D01*
X48026Y-37087D01*
X48069Y-37101D01*
X48141Y-37101D01*
X47855Y-37016D02*
X47712Y-37016D01*
X47883Y-37101D02*
X47783Y-36801D01*
X47683Y-37101D01*
X47526Y-36801D02*
X47498Y-36801D01*
X47469Y-36816D01*
X47455Y-36830D01*
X47441Y-36859D01*
X47426Y-36916D01*
X47426Y-36987D01*
X47441Y-37044D01*
X47455Y-37073D01*
X47469Y-37087D01*
X47498Y-37101D01*
X47526Y-37101D01*
X47555Y-37087D01*
X47569Y-37073D01*
X47584Y-37044D01*
X47598Y-36987D01*
X47598Y-36916D01*
X47584Y-36859D01*
X47569Y-36830D01*
X47555Y-36816D01*
X47526Y-36801D01*
X47240Y-36801D02*
X47212Y-36801D01*
X47183Y-36816D01*
X47169Y-36830D01*
X47155Y-36859D01*
X47140Y-36916D01*
X47140Y-36987D01*
X47155Y-37044D01*
X47169Y-37073D01*
X47183Y-37087D01*
X47212Y-37101D01*
X47240Y-37101D01*
X47269Y-37087D01*
X47283Y-37073D01*
X47298Y-37044D01*
X47312Y-36987D01*
X47312Y-36916D01*
X47298Y-36859D01*
X47283Y-36830D01*
X47269Y-36816D01*
X47240Y-36801D01*
X46954Y-36801D02*
X46926Y-36801D01*
X46897Y-36816D01*
X46883Y-36830D01*
X46869Y-36859D01*
X46854Y-36916D01*
X46854Y-36987D01*
X46869Y-37044D01*
X46883Y-37073D01*
X46897Y-37087D01*
X46926Y-37101D01*
X46954Y-37101D01*
X46983Y-37087D01*
X46997Y-37073D01*
X47012Y-37044D01*
X47026Y-36987D01*
X47026Y-36916D01*
X47012Y-36859D01*
X46997Y-36830D01*
X46983Y-36816D01*
X46954Y-36801D01*
X50771Y-37581D02*
X50943Y-37581D01*
X50857Y-37581D02*
X50857Y-37281D01*
X50886Y-37324D01*
X50914Y-37353D01*
X50943Y-37367D01*
X50585Y-37281D02*
X50557Y-37281D01*
X50528Y-37296D01*
X50514Y-37310D01*
X50500Y-37339D01*
X50485Y-37396D01*
X50485Y-37467D01*
X50500Y-37524D01*
X50514Y-37553D01*
X50528Y-37567D01*
X50557Y-37581D01*
X50585Y-37581D01*
X50614Y-37567D01*
X50628Y-37553D01*
X50643Y-37524D01*
X50657Y-37467D01*
X50657Y-37396D01*
X50643Y-37339D01*
X50628Y-37310D01*
X50614Y-37296D01*
X50585Y-37281D01*
X50299Y-37281D02*
X50271Y-37281D01*
X50242Y-37296D01*
X50228Y-37310D01*
X50214Y-37339D01*
X50199Y-37396D01*
X50199Y-37467D01*
X50214Y-37524D01*
X50228Y-37553D01*
X50242Y-37567D01*
X50271Y-37581D01*
X50299Y-37581D01*
X50328Y-37567D01*
X50342Y-37553D01*
X50357Y-37524D01*
X50371Y-37467D01*
X50371Y-37396D01*
X50357Y-37339D01*
X50342Y-37310D01*
X50328Y-37296D01*
X50299Y-37281D01*
X50013Y-37281D02*
X49985Y-37281D01*
X49956Y-37296D01*
X49942Y-37310D01*
X49928Y-37339D01*
X49913Y-37396D01*
X49913Y-37467D01*
X49928Y-37524D01*
X49942Y-37553D01*
X49956Y-37567D01*
X49985Y-37581D01*
X50013Y-37581D01*
X50042Y-37567D01*
X50056Y-37553D01*
X50071Y-37524D01*
X50085Y-37467D01*
X50085Y-37396D01*
X50071Y-37339D01*
X50056Y-37310D01*
X50042Y-37296D01*
X50013Y-37281D01*
X49627Y-37581D02*
X49799Y-37581D01*
X49713Y-37581D02*
X49713Y-37281D01*
X49742Y-37324D01*
X49770Y-37353D01*
X49799Y-37367D01*
X49270Y-37467D02*
X49041Y-37467D01*
X48612Y-37281D02*
X48584Y-37281D01*
X48555Y-37296D01*
X48541Y-37310D01*
X48527Y-37339D01*
X48512Y-37396D01*
X48512Y-37467D01*
X48527Y-37524D01*
X48541Y-37553D01*
X48555Y-37567D01*
X48584Y-37581D01*
X48612Y-37581D01*
X48641Y-37567D01*
X48655Y-37553D01*
X48670Y-37524D01*
X48684Y-37467D01*
X48684Y-37396D01*
X48670Y-37339D01*
X48655Y-37310D01*
X48641Y-37296D01*
X48612Y-37281D01*
X48412Y-37581D02*
X48255Y-37381D01*
X48412Y-37381D02*
X48255Y-37581D01*
X48141Y-37581D02*
X48141Y-37281D01*
X48069Y-37281D01*
X48026Y-37296D01*
X47998Y-37324D01*
X47983Y-37353D01*
X47969Y-37410D01*
X47969Y-37453D01*
X47983Y-37510D01*
X47998Y-37539D01*
X48026Y-37567D01*
X48069Y-37581D01*
X48141Y-37581D01*
X47669Y-37553D02*
X47683Y-37567D01*
X47726Y-37581D01*
X47755Y-37581D01*
X47798Y-37567D01*
X47826Y-37539D01*
X47841Y-37510D01*
X47855Y-37453D01*
X47855Y-37410D01*
X47841Y-37353D01*
X47826Y-37324D01*
X47798Y-37296D01*
X47755Y-37281D01*
X47726Y-37281D01*
X47683Y-37296D01*
X47669Y-37310D01*
X47483Y-37281D02*
X47455Y-37281D01*
X47426Y-37296D01*
X47412Y-37310D01*
X47398Y-37339D01*
X47383Y-37396D01*
X47383Y-37467D01*
X47398Y-37524D01*
X47412Y-37553D01*
X47426Y-37567D01*
X47455Y-37581D01*
X47483Y-37581D01*
X47512Y-37567D01*
X47526Y-37553D01*
X47541Y-37524D01*
X47555Y-37467D01*
X47555Y-37396D01*
X47541Y-37339D01*
X47526Y-37310D01*
X47512Y-37296D01*
X47483Y-37281D01*
X47197Y-37281D02*
X47169Y-37281D01*
X47140Y-37296D01*
X47126Y-37310D01*
X47112Y-37339D01*
X47097Y-37396D01*
X47097Y-37467D01*
X47112Y-37524D01*
X47126Y-37553D01*
X47140Y-37567D01*
X47169Y-37581D01*
X47197Y-37581D01*
X47226Y-37567D01*
X47240Y-37553D01*
X47255Y-37524D01*
X47269Y-37467D01*
X47269Y-37396D01*
X47255Y-37339D01*
X47240Y-37310D01*
X47226Y-37296D01*
X47197Y-37281D01*
X46911Y-37281D02*
X46883Y-37281D01*
X46854Y-37296D01*
X46840Y-37310D01*
X46826Y-37339D01*
X46811Y-37396D01*
X46811Y-37467D01*
X46826Y-37524D01*
X46840Y-37553D01*
X46854Y-37567D01*
X46883Y-37581D01*
X46911Y-37581D01*
X46940Y-37567D01*
X46954Y-37553D01*
X46969Y-37524D01*
X46983Y-37467D01*
X46983Y-37396D01*
X46969Y-37339D01*
X46954Y-37310D01*
X46940Y-37296D01*
X46911Y-37281D01*
X50771Y-38061D02*
X50943Y-38061D01*
X50857Y-38061D02*
X50857Y-37761D01*
X50886Y-37804D01*
X50914Y-37833D01*
X50943Y-37847D01*
X50585Y-37761D02*
X50557Y-37761D01*
X50528Y-37776D01*
X50514Y-37790D01*
X50500Y-37819D01*
X50485Y-37876D01*
X50485Y-37947D01*
X50500Y-38004D01*
X50514Y-38033D01*
X50528Y-38047D01*
X50557Y-38061D01*
X50585Y-38061D01*
X50614Y-38047D01*
X50628Y-38033D01*
X50643Y-38004D01*
X50657Y-37947D01*
X50657Y-37876D01*
X50643Y-37819D01*
X50628Y-37790D01*
X50614Y-37776D01*
X50585Y-37761D01*
X50299Y-37761D02*
X50271Y-37761D01*
X50242Y-37776D01*
X50228Y-37790D01*
X50214Y-37819D01*
X50199Y-37876D01*
X50199Y-37947D01*
X50214Y-38004D01*
X50228Y-38033D01*
X50242Y-38047D01*
X50271Y-38061D01*
X50299Y-38061D01*
X50328Y-38047D01*
X50342Y-38033D01*
X50357Y-38004D01*
X50371Y-37947D01*
X50371Y-37876D01*
X50357Y-37819D01*
X50342Y-37790D01*
X50328Y-37776D01*
X50299Y-37761D01*
X50013Y-37761D02*
X49985Y-37761D01*
X49956Y-37776D01*
X49942Y-37790D01*
X49928Y-37819D01*
X49913Y-37876D01*
X49913Y-37947D01*
X49928Y-38004D01*
X49942Y-38033D01*
X49956Y-38047D01*
X49985Y-38061D01*
X50013Y-38061D01*
X50042Y-38047D01*
X50056Y-38033D01*
X50071Y-38004D01*
X50085Y-37947D01*
X50085Y-37876D01*
X50071Y-37819D01*
X50056Y-37790D01*
X50042Y-37776D01*
X50013Y-37761D01*
X49727Y-37761D02*
X49699Y-37761D01*
X49670Y-37776D01*
X49656Y-37790D01*
X49642Y-37819D01*
X49627Y-37876D01*
X49627Y-37947D01*
X49642Y-38004D01*
X49656Y-38033D01*
X49670Y-38047D01*
X49699Y-38061D01*
X49727Y-38061D01*
X49756Y-38047D01*
X49770Y-38033D01*
X49785Y-38004D01*
X49799Y-37947D01*
X49799Y-37876D01*
X49785Y-37819D01*
X49770Y-37790D01*
X49756Y-37776D01*
X49727Y-37761D01*
X49270Y-37947D02*
X49041Y-37947D01*
X48612Y-37761D02*
X48584Y-37761D01*
X48555Y-37776D01*
X48541Y-37790D01*
X48527Y-37819D01*
X48512Y-37876D01*
X48512Y-37947D01*
X48527Y-38004D01*
X48541Y-38033D01*
X48555Y-38047D01*
X48584Y-38061D01*
X48612Y-38061D01*
X48641Y-38047D01*
X48655Y-38033D01*
X48670Y-38004D01*
X48684Y-37947D01*
X48684Y-37876D01*
X48670Y-37819D01*
X48655Y-37790D01*
X48641Y-37776D01*
X48612Y-37761D01*
X48412Y-38061D02*
X48255Y-37861D01*
X48412Y-37861D02*
X48255Y-38061D01*
X48141Y-38061D02*
X48141Y-37761D01*
X48069Y-37761D01*
X48026Y-37776D01*
X47998Y-37804D01*
X47983Y-37833D01*
X47969Y-37890D01*
X47969Y-37933D01*
X47983Y-37990D01*
X47998Y-38019D01*
X48026Y-38047D01*
X48069Y-38061D01*
X48141Y-38061D01*
X47841Y-37904D02*
X47741Y-37904D01*
X47698Y-38061D02*
X47841Y-38061D01*
X47841Y-37761D01*
X47698Y-37761D01*
X47512Y-37761D02*
X47484Y-37761D01*
X47455Y-37776D01*
X47441Y-37790D01*
X47427Y-37819D01*
X47412Y-37876D01*
X47412Y-37947D01*
X47427Y-38004D01*
X47441Y-38033D01*
X47455Y-38047D01*
X47484Y-38061D01*
X47512Y-38061D01*
X47541Y-38047D01*
X47555Y-38033D01*
X47570Y-38004D01*
X47584Y-37947D01*
X47584Y-37876D01*
X47570Y-37819D01*
X47555Y-37790D01*
X47541Y-37776D01*
X47512Y-37761D01*
X47226Y-37761D02*
X47198Y-37761D01*
X47169Y-37776D01*
X47155Y-37790D01*
X47141Y-37819D01*
X47126Y-37876D01*
X47126Y-37947D01*
X47141Y-38004D01*
X47155Y-38033D01*
X47169Y-38047D01*
X47198Y-38061D01*
X47226Y-38061D01*
X47255Y-38047D01*
X47269Y-38033D01*
X47284Y-38004D01*
X47298Y-37947D01*
X47298Y-37876D01*
X47284Y-37819D01*
X47269Y-37790D01*
X47255Y-37776D01*
X47226Y-37761D01*
X46940Y-37761D02*
X46912Y-37761D01*
X46883Y-37776D01*
X46869Y-37790D01*
X46855Y-37819D01*
X46840Y-37876D01*
X46840Y-37947D01*
X46855Y-38004D01*
X46869Y-38033D01*
X46883Y-38047D01*
X46912Y-38061D01*
X46940Y-38061D01*
X46969Y-38047D01*
X46983Y-38033D01*
X46998Y-38004D01*
X47012Y-37947D01*
X47012Y-37876D01*
X46998Y-37819D01*
X46983Y-37790D01*
X46969Y-37776D01*
X46940Y-37761D01*
X61021Y-36621D02*
X61193Y-36621D01*
X61107Y-36621D02*
X61107Y-36321D01*
X61136Y-36364D01*
X61164Y-36393D01*
X61193Y-36407D01*
X60735Y-36621D02*
X60907Y-36621D01*
X60821Y-36621D02*
X60821Y-36321D01*
X60850Y-36364D01*
X60878Y-36393D01*
X60907Y-36407D01*
X60549Y-36321D02*
X60521Y-36321D01*
X60492Y-36336D01*
X60478Y-36350D01*
X60464Y-36379D01*
X60449Y-36436D01*
X60449Y-36507D01*
X60464Y-36564D01*
X60478Y-36593D01*
X60492Y-36607D01*
X60521Y-36621D01*
X60549Y-36621D01*
X60578Y-36607D01*
X60592Y-36593D01*
X60607Y-36564D01*
X60621Y-36507D01*
X60621Y-36436D01*
X60607Y-36379D01*
X60592Y-36350D01*
X60578Y-36336D01*
X60549Y-36321D01*
X60163Y-36621D02*
X60335Y-36621D01*
X60249Y-36621D02*
X60249Y-36321D01*
X60278Y-36364D01*
X60306Y-36393D01*
X60335Y-36407D01*
X59877Y-36621D02*
X60049Y-36621D01*
X59963Y-36621D02*
X59963Y-36321D01*
X59992Y-36364D01*
X60020Y-36393D01*
X60049Y-36407D01*
X59520Y-36507D02*
X59291Y-36507D01*
X58862Y-36321D02*
X58834Y-36321D01*
X58805Y-36336D01*
X58791Y-36350D01*
X58777Y-36379D01*
X58762Y-36436D01*
X58762Y-36507D01*
X58777Y-36564D01*
X58791Y-36593D01*
X58805Y-36607D01*
X58834Y-36621D01*
X58862Y-36621D01*
X58891Y-36607D01*
X58905Y-36593D01*
X58920Y-36564D01*
X58934Y-36507D01*
X58934Y-36436D01*
X58920Y-36379D01*
X58905Y-36350D01*
X58891Y-36336D01*
X58862Y-36321D01*
X58662Y-36621D02*
X58505Y-36421D01*
X58662Y-36421D02*
X58505Y-36621D01*
X58219Y-36593D02*
X58233Y-36607D01*
X58276Y-36621D01*
X58305Y-36621D01*
X58348Y-36607D01*
X58376Y-36579D01*
X58391Y-36550D01*
X58405Y-36493D01*
X58405Y-36450D01*
X58391Y-36393D01*
X58376Y-36364D01*
X58348Y-36336D01*
X58305Y-36321D01*
X58276Y-36321D01*
X58233Y-36336D01*
X58219Y-36350D01*
X58048Y-36450D02*
X58076Y-36436D01*
X58091Y-36421D01*
X58105Y-36393D01*
X58105Y-36379D01*
X58091Y-36350D01*
X58076Y-36336D01*
X58048Y-36321D01*
X57991Y-36321D01*
X57962Y-36336D01*
X57948Y-36350D01*
X57933Y-36379D01*
X57933Y-36393D01*
X57948Y-36421D01*
X57962Y-36436D01*
X57991Y-36450D01*
X58048Y-36450D01*
X58076Y-36464D01*
X58091Y-36479D01*
X58105Y-36507D01*
X58105Y-36564D01*
X58091Y-36593D01*
X58076Y-36607D01*
X58048Y-36621D01*
X57991Y-36621D01*
X57962Y-36607D01*
X57948Y-36593D01*
X57933Y-36564D01*
X57933Y-36507D01*
X57948Y-36479D01*
X57962Y-36464D01*
X57991Y-36450D01*
X57747Y-36321D02*
X57719Y-36321D01*
X57690Y-36336D01*
X57676Y-36350D01*
X57662Y-36379D01*
X57647Y-36436D01*
X57647Y-36507D01*
X57662Y-36564D01*
X57676Y-36593D01*
X57690Y-36607D01*
X57719Y-36621D01*
X57747Y-36621D01*
X57776Y-36607D01*
X57790Y-36593D01*
X57805Y-36564D01*
X57819Y-36507D01*
X57819Y-36436D01*
X57805Y-36379D01*
X57790Y-36350D01*
X57776Y-36336D01*
X57747Y-36321D01*
X57461Y-36321D02*
X57433Y-36321D01*
X57404Y-36336D01*
X57390Y-36350D01*
X57376Y-36379D01*
X57361Y-36436D01*
X57361Y-36507D01*
X57376Y-36564D01*
X57390Y-36593D01*
X57404Y-36607D01*
X57433Y-36621D01*
X57461Y-36621D01*
X57490Y-36607D01*
X57504Y-36593D01*
X57519Y-36564D01*
X57533Y-36507D01*
X57533Y-36436D01*
X57519Y-36379D01*
X57504Y-36350D01*
X57490Y-36336D01*
X57461Y-36321D01*
X57175Y-36321D02*
X57147Y-36321D01*
X57118Y-36336D01*
X57104Y-36350D01*
X57090Y-36379D01*
X57075Y-36436D01*
X57075Y-36507D01*
X57090Y-36564D01*
X57104Y-36593D01*
X57118Y-36607D01*
X57147Y-36621D01*
X57175Y-36621D01*
X57204Y-36607D01*
X57218Y-36593D01*
X57233Y-36564D01*
X57247Y-36507D01*
X57247Y-36436D01*
X57233Y-36379D01*
X57218Y-36350D01*
X57204Y-36336D01*
X57175Y-36321D01*
X61021Y-37101D02*
X61193Y-37101D01*
X61107Y-37101D02*
X61107Y-36801D01*
X61136Y-36844D01*
X61164Y-36873D01*
X61193Y-36887D01*
X60735Y-37101D02*
X60907Y-37101D01*
X60821Y-37101D02*
X60821Y-36801D01*
X60850Y-36844D01*
X60878Y-36873D01*
X60907Y-36887D01*
X60549Y-36801D02*
X60521Y-36801D01*
X60492Y-36816D01*
X60478Y-36830D01*
X60464Y-36859D01*
X60449Y-36916D01*
X60449Y-36987D01*
X60464Y-37044D01*
X60478Y-37073D01*
X60492Y-37087D01*
X60521Y-37101D01*
X60549Y-37101D01*
X60578Y-37087D01*
X60592Y-37073D01*
X60607Y-37044D01*
X60621Y-36987D01*
X60621Y-36916D01*
X60607Y-36859D01*
X60592Y-36830D01*
X60578Y-36816D01*
X60549Y-36801D01*
X60163Y-37101D02*
X60335Y-37101D01*
X60249Y-37101D02*
X60249Y-36801D01*
X60278Y-36844D01*
X60306Y-36873D01*
X60335Y-36887D01*
X59977Y-36801D02*
X59949Y-36801D01*
X59920Y-36816D01*
X59906Y-36830D01*
X59892Y-36859D01*
X59877Y-36916D01*
X59877Y-36987D01*
X59892Y-37044D01*
X59906Y-37073D01*
X59920Y-37087D01*
X59949Y-37101D01*
X59977Y-37101D01*
X60006Y-37087D01*
X60020Y-37073D01*
X60035Y-37044D01*
X60049Y-36987D01*
X60049Y-36916D01*
X60035Y-36859D01*
X60020Y-36830D01*
X60006Y-36816D01*
X59977Y-36801D01*
X59520Y-36987D02*
X59291Y-36987D01*
X58862Y-36801D02*
X58834Y-36801D01*
X58805Y-36816D01*
X58791Y-36830D01*
X58777Y-36859D01*
X58762Y-36916D01*
X58762Y-36987D01*
X58777Y-37044D01*
X58791Y-37073D01*
X58805Y-37087D01*
X58834Y-37101D01*
X58862Y-37101D01*
X58891Y-37087D01*
X58905Y-37073D01*
X58920Y-37044D01*
X58934Y-36987D01*
X58934Y-36916D01*
X58920Y-36859D01*
X58905Y-36830D01*
X58891Y-36816D01*
X58862Y-36801D01*
X58662Y-37101D02*
X58505Y-36901D01*
X58662Y-36901D02*
X58505Y-37101D01*
X58219Y-37073D02*
X58233Y-37087D01*
X58276Y-37101D01*
X58305Y-37101D01*
X58348Y-37087D01*
X58376Y-37059D01*
X58391Y-37030D01*
X58405Y-36973D01*
X58405Y-36930D01*
X58391Y-36873D01*
X58376Y-36844D01*
X58348Y-36816D01*
X58305Y-36801D01*
X58276Y-36801D01*
X58233Y-36816D01*
X58219Y-36830D01*
X58105Y-37016D02*
X57962Y-37016D01*
X58133Y-37101D02*
X58033Y-36801D01*
X57933Y-37101D01*
X57776Y-36801D02*
X57748Y-36801D01*
X57719Y-36816D01*
X57705Y-36830D01*
X57691Y-36859D01*
X57676Y-36916D01*
X57676Y-36987D01*
X57691Y-37044D01*
X57705Y-37073D01*
X57719Y-37087D01*
X57748Y-37101D01*
X57776Y-37101D01*
X57805Y-37087D01*
X57819Y-37073D01*
X57834Y-37044D01*
X57848Y-36987D01*
X57848Y-36916D01*
X57834Y-36859D01*
X57819Y-36830D01*
X57805Y-36816D01*
X57776Y-36801D01*
X57490Y-36801D02*
X57462Y-36801D01*
X57433Y-36816D01*
X57419Y-36830D01*
X57405Y-36859D01*
X57390Y-36916D01*
X57390Y-36987D01*
X57405Y-37044D01*
X57419Y-37073D01*
X57433Y-37087D01*
X57462Y-37101D01*
X57490Y-37101D01*
X57519Y-37087D01*
X57533Y-37073D01*
X57548Y-37044D01*
X57562Y-36987D01*
X57562Y-36916D01*
X57548Y-36859D01*
X57533Y-36830D01*
X57519Y-36816D01*
X57490Y-36801D01*
X57204Y-36801D02*
X57176Y-36801D01*
X57147Y-36816D01*
X57133Y-36830D01*
X57119Y-36859D01*
X57104Y-36916D01*
X57104Y-36987D01*
X57119Y-37044D01*
X57133Y-37073D01*
X57147Y-37087D01*
X57176Y-37101D01*
X57204Y-37101D01*
X57233Y-37087D01*
X57247Y-37073D01*
X57262Y-37044D01*
X57276Y-36987D01*
X57276Y-36916D01*
X57262Y-36859D01*
X57247Y-36830D01*
X57233Y-36816D01*
X57204Y-36801D01*
X61021Y-37581D02*
X61193Y-37581D01*
X61107Y-37581D02*
X61107Y-37281D01*
X61136Y-37324D01*
X61164Y-37353D01*
X61193Y-37367D01*
X60735Y-37581D02*
X60907Y-37581D01*
X60821Y-37581D02*
X60821Y-37281D01*
X60850Y-37324D01*
X60878Y-37353D01*
X60907Y-37367D01*
X60549Y-37281D02*
X60521Y-37281D01*
X60492Y-37296D01*
X60478Y-37310D01*
X60464Y-37339D01*
X60449Y-37396D01*
X60449Y-37467D01*
X60464Y-37524D01*
X60478Y-37553D01*
X60492Y-37567D01*
X60521Y-37581D01*
X60549Y-37581D01*
X60578Y-37567D01*
X60592Y-37553D01*
X60607Y-37524D01*
X60621Y-37467D01*
X60621Y-37396D01*
X60607Y-37339D01*
X60592Y-37310D01*
X60578Y-37296D01*
X60549Y-37281D01*
X60263Y-37281D02*
X60235Y-37281D01*
X60206Y-37296D01*
X60192Y-37310D01*
X60178Y-37339D01*
X60163Y-37396D01*
X60163Y-37467D01*
X60178Y-37524D01*
X60192Y-37553D01*
X60206Y-37567D01*
X60235Y-37581D01*
X60263Y-37581D01*
X60292Y-37567D01*
X60306Y-37553D01*
X60321Y-37524D01*
X60335Y-37467D01*
X60335Y-37396D01*
X60321Y-37339D01*
X60306Y-37310D01*
X60292Y-37296D01*
X60263Y-37281D01*
X59877Y-37581D02*
X60049Y-37581D01*
X59963Y-37581D02*
X59963Y-37281D01*
X59992Y-37324D01*
X60020Y-37353D01*
X60049Y-37367D01*
X59520Y-37467D02*
X59291Y-37467D01*
X58862Y-37281D02*
X58834Y-37281D01*
X58805Y-37296D01*
X58791Y-37310D01*
X58777Y-37339D01*
X58762Y-37396D01*
X58762Y-37467D01*
X58777Y-37524D01*
X58791Y-37553D01*
X58805Y-37567D01*
X58834Y-37581D01*
X58862Y-37581D01*
X58891Y-37567D01*
X58905Y-37553D01*
X58920Y-37524D01*
X58934Y-37467D01*
X58934Y-37396D01*
X58920Y-37339D01*
X58905Y-37310D01*
X58891Y-37296D01*
X58862Y-37281D01*
X58662Y-37581D02*
X58505Y-37381D01*
X58662Y-37381D02*
X58505Y-37581D01*
X58219Y-37553D02*
X58233Y-37567D01*
X58276Y-37581D01*
X58305Y-37581D01*
X58348Y-37567D01*
X58376Y-37539D01*
X58391Y-37510D01*
X58405Y-37453D01*
X58405Y-37410D01*
X58391Y-37353D01*
X58376Y-37324D01*
X58348Y-37296D01*
X58305Y-37281D01*
X58276Y-37281D01*
X58233Y-37296D01*
X58219Y-37310D01*
X57919Y-37553D02*
X57933Y-37567D01*
X57976Y-37581D01*
X58005Y-37581D01*
X58048Y-37567D01*
X58076Y-37539D01*
X58091Y-37510D01*
X58105Y-37453D01*
X58105Y-37410D01*
X58091Y-37353D01*
X58076Y-37324D01*
X58048Y-37296D01*
X58005Y-37281D01*
X57976Y-37281D01*
X57933Y-37296D01*
X57919Y-37310D01*
X57733Y-37281D02*
X57705Y-37281D01*
X57676Y-37296D01*
X57662Y-37310D01*
X57648Y-37339D01*
X57633Y-37396D01*
X57633Y-37467D01*
X57648Y-37524D01*
X57662Y-37553D01*
X57676Y-37567D01*
X57705Y-37581D01*
X57733Y-37581D01*
X57762Y-37567D01*
X57776Y-37553D01*
X57791Y-37524D01*
X57805Y-37467D01*
X57805Y-37396D01*
X57791Y-37339D01*
X57776Y-37310D01*
X57762Y-37296D01*
X57733Y-37281D01*
X57447Y-37281D02*
X57419Y-37281D01*
X57390Y-37296D01*
X57376Y-37310D01*
X57362Y-37339D01*
X57347Y-37396D01*
X57347Y-37467D01*
X57362Y-37524D01*
X57376Y-37553D01*
X57390Y-37567D01*
X57419Y-37581D01*
X57447Y-37581D01*
X57476Y-37567D01*
X57490Y-37553D01*
X57505Y-37524D01*
X57519Y-37467D01*
X57519Y-37396D01*
X57505Y-37339D01*
X57490Y-37310D01*
X57476Y-37296D01*
X57447Y-37281D01*
X57161Y-37281D02*
X57133Y-37281D01*
X57104Y-37296D01*
X57090Y-37310D01*
X57076Y-37339D01*
X57061Y-37396D01*
X57061Y-37467D01*
X57076Y-37524D01*
X57090Y-37553D01*
X57104Y-37567D01*
X57133Y-37581D01*
X57161Y-37581D01*
X57190Y-37567D01*
X57204Y-37553D01*
X57219Y-37524D01*
X57233Y-37467D01*
X57233Y-37396D01*
X57219Y-37339D01*
X57204Y-37310D01*
X57190Y-37296D01*
X57161Y-37281D01*
X61021Y-38061D02*
X61193Y-38061D01*
X61107Y-38061D02*
X61107Y-37761D01*
X61136Y-37804D01*
X61164Y-37833D01*
X61193Y-37847D01*
X60735Y-38061D02*
X60907Y-38061D01*
X60821Y-38061D02*
X60821Y-37761D01*
X60850Y-37804D01*
X60878Y-37833D01*
X60907Y-37847D01*
X60549Y-37761D02*
X60521Y-37761D01*
X60492Y-37776D01*
X60478Y-37790D01*
X60464Y-37819D01*
X60449Y-37876D01*
X60449Y-37947D01*
X60464Y-38004D01*
X60478Y-38033D01*
X60492Y-38047D01*
X60521Y-38061D01*
X60549Y-38061D01*
X60578Y-38047D01*
X60592Y-38033D01*
X60607Y-38004D01*
X60621Y-37947D01*
X60621Y-37876D01*
X60607Y-37819D01*
X60592Y-37790D01*
X60578Y-37776D01*
X60549Y-37761D01*
X60263Y-37761D02*
X60235Y-37761D01*
X60206Y-37776D01*
X60192Y-37790D01*
X60178Y-37819D01*
X60163Y-37876D01*
X60163Y-37947D01*
X60178Y-38004D01*
X60192Y-38033D01*
X60206Y-38047D01*
X60235Y-38061D01*
X60263Y-38061D01*
X60292Y-38047D01*
X60306Y-38033D01*
X60321Y-38004D01*
X60335Y-37947D01*
X60335Y-37876D01*
X60321Y-37819D01*
X60306Y-37790D01*
X60292Y-37776D01*
X60263Y-37761D01*
X59977Y-37761D02*
X59949Y-37761D01*
X59920Y-37776D01*
X59906Y-37790D01*
X59892Y-37819D01*
X59877Y-37876D01*
X59877Y-37947D01*
X59892Y-38004D01*
X59906Y-38033D01*
X59920Y-38047D01*
X59949Y-38061D01*
X59977Y-38061D01*
X60006Y-38047D01*
X60020Y-38033D01*
X60035Y-38004D01*
X60049Y-37947D01*
X60049Y-37876D01*
X60035Y-37819D01*
X60020Y-37790D01*
X60006Y-37776D01*
X59977Y-37761D01*
X59520Y-37947D02*
X59291Y-37947D01*
X58862Y-37761D02*
X58834Y-37761D01*
X58805Y-37776D01*
X58791Y-37790D01*
X58777Y-37819D01*
X58762Y-37876D01*
X58762Y-37947D01*
X58777Y-38004D01*
X58791Y-38033D01*
X58805Y-38047D01*
X58834Y-38061D01*
X58862Y-38061D01*
X58891Y-38047D01*
X58905Y-38033D01*
X58920Y-38004D01*
X58934Y-37947D01*
X58934Y-37876D01*
X58920Y-37819D01*
X58905Y-37790D01*
X58891Y-37776D01*
X58862Y-37761D01*
X58662Y-38061D02*
X58505Y-37861D01*
X58662Y-37861D02*
X58505Y-38061D01*
X58219Y-38033D02*
X58233Y-38047D01*
X58276Y-38061D01*
X58305Y-38061D01*
X58348Y-38047D01*
X58376Y-38019D01*
X58391Y-37990D01*
X58405Y-37933D01*
X58405Y-37890D01*
X58391Y-37833D01*
X58376Y-37804D01*
X58348Y-37776D01*
X58305Y-37761D01*
X58276Y-37761D01*
X58233Y-37776D01*
X58219Y-37790D01*
X58091Y-37904D02*
X57991Y-37904D01*
X57948Y-38061D02*
X58091Y-38061D01*
X58091Y-37761D01*
X57948Y-37761D01*
X57762Y-37761D02*
X57734Y-37761D01*
X57705Y-37776D01*
X57691Y-37790D01*
X57677Y-37819D01*
X57662Y-37876D01*
X57662Y-37947D01*
X57677Y-38004D01*
X57691Y-38033D01*
X57705Y-38047D01*
X57734Y-38061D01*
X57762Y-38061D01*
X57791Y-38047D01*
X57805Y-38033D01*
X57820Y-38004D01*
X57834Y-37947D01*
X57834Y-37876D01*
X57820Y-37819D01*
X57805Y-37790D01*
X57791Y-37776D01*
X57762Y-37761D01*
X57476Y-37761D02*
X57448Y-37761D01*
X57419Y-37776D01*
X57405Y-37790D01*
X57391Y-37819D01*
X57376Y-37876D01*
X57376Y-37947D01*
X57391Y-38004D01*
X57405Y-38033D01*
X57419Y-38047D01*
X57448Y-38061D01*
X57476Y-38061D01*
X57505Y-38047D01*
X57519Y-38033D01*
X57534Y-38004D01*
X57548Y-37947D01*
X57548Y-37876D01*
X57534Y-37819D01*
X57519Y-37790D01*
X57505Y-37776D01*
X57476Y-37761D01*
X57190Y-37761D02*
X57162Y-37761D01*
X57133Y-37776D01*
X57119Y-37790D01*
X57105Y-37819D01*
X57090Y-37876D01*
X57090Y-37947D01*
X57105Y-38004D01*
X57119Y-38033D01*
X57133Y-38047D01*
X57162Y-38061D01*
X57190Y-38061D01*
X57219Y-38047D01*
X57233Y-38033D01*
X57248Y-38004D01*
X57262Y-37947D01*
X57262Y-37876D01*
X57248Y-37819D01*
X57233Y-37790D01*
X57219Y-37776D01*
X57190Y-37761D01*
X65771Y-36621D02*
X65943Y-36621D01*
X65857Y-36621D02*
X65857Y-36321D01*
X65886Y-36364D01*
X65914Y-36393D01*
X65943Y-36407D01*
X65485Y-36621D02*
X65657Y-36621D01*
X65571Y-36621D02*
X65571Y-36321D01*
X65600Y-36364D01*
X65628Y-36393D01*
X65657Y-36407D01*
X65199Y-36621D02*
X65371Y-36621D01*
X65285Y-36621D02*
X65285Y-36321D01*
X65314Y-36364D01*
X65342Y-36393D01*
X65371Y-36407D01*
X64913Y-36621D02*
X65085Y-36621D01*
X64999Y-36621D02*
X64999Y-36321D01*
X65028Y-36364D01*
X65056Y-36393D01*
X65085Y-36407D01*
X64627Y-36621D02*
X64799Y-36621D01*
X64713Y-36621D02*
X64713Y-36321D01*
X64742Y-36364D01*
X64770Y-36393D01*
X64799Y-36407D01*
X64270Y-36507D02*
X64041Y-36507D01*
X63612Y-36321D02*
X63584Y-36321D01*
X63555Y-36336D01*
X63541Y-36350D01*
X63527Y-36379D01*
X63512Y-36436D01*
X63512Y-36507D01*
X63527Y-36564D01*
X63541Y-36593D01*
X63555Y-36607D01*
X63584Y-36621D01*
X63612Y-36621D01*
X63641Y-36607D01*
X63655Y-36593D01*
X63670Y-36564D01*
X63684Y-36507D01*
X63684Y-36436D01*
X63670Y-36379D01*
X63655Y-36350D01*
X63641Y-36336D01*
X63612Y-36321D01*
X63412Y-36621D02*
X63255Y-36421D01*
X63412Y-36421D02*
X63255Y-36621D01*
X62969Y-36593D02*
X62983Y-36607D01*
X63026Y-36621D01*
X63055Y-36621D01*
X63098Y-36607D01*
X63126Y-36579D01*
X63141Y-36550D01*
X63155Y-36493D01*
X63155Y-36450D01*
X63141Y-36393D01*
X63126Y-36364D01*
X63098Y-36336D01*
X63055Y-36321D01*
X63026Y-36321D01*
X62983Y-36336D01*
X62969Y-36350D01*
X62783Y-36321D02*
X62755Y-36321D01*
X62726Y-36336D01*
X62712Y-36350D01*
X62698Y-36379D01*
X62683Y-36436D01*
X62683Y-36507D01*
X62698Y-36564D01*
X62712Y-36593D01*
X62726Y-36607D01*
X62755Y-36621D01*
X62783Y-36621D01*
X62812Y-36607D01*
X62826Y-36593D01*
X62841Y-36564D01*
X62855Y-36507D01*
X62855Y-36436D01*
X62841Y-36379D01*
X62826Y-36350D01*
X62812Y-36336D01*
X62783Y-36321D01*
X62497Y-36321D02*
X62469Y-36321D01*
X62440Y-36336D01*
X62426Y-36350D01*
X62412Y-36379D01*
X62397Y-36436D01*
X62397Y-36507D01*
X62412Y-36564D01*
X62426Y-36593D01*
X62440Y-36607D01*
X62469Y-36621D01*
X62497Y-36621D01*
X62526Y-36607D01*
X62540Y-36593D01*
X62555Y-36564D01*
X62569Y-36507D01*
X62569Y-36436D01*
X62555Y-36379D01*
X62540Y-36350D01*
X62526Y-36336D01*
X62497Y-36321D01*
X62211Y-36321D02*
X62183Y-36321D01*
X62154Y-36336D01*
X62140Y-36350D01*
X62126Y-36379D01*
X62111Y-36436D01*
X62111Y-36507D01*
X62126Y-36564D01*
X62140Y-36593D01*
X62154Y-36607D01*
X62183Y-36621D01*
X62211Y-36621D01*
X62240Y-36607D01*
X62254Y-36593D01*
X62269Y-36564D01*
X62283Y-36507D01*
X62283Y-36436D01*
X62269Y-36379D01*
X62254Y-36350D01*
X62240Y-36336D01*
X62211Y-36321D01*
X61925Y-36321D02*
X61897Y-36321D01*
X61868Y-36336D01*
X61854Y-36350D01*
X61840Y-36379D01*
X61825Y-36436D01*
X61825Y-36507D01*
X61840Y-36564D01*
X61854Y-36593D01*
X61868Y-36607D01*
X61897Y-36621D01*
X61925Y-36621D01*
X61954Y-36607D01*
X61968Y-36593D01*
X61983Y-36564D01*
X61997Y-36507D01*
X61997Y-36436D01*
X61983Y-36379D01*
X61968Y-36350D01*
X61954Y-36336D01*
X61925Y-36321D01*
X65771Y-37101D02*
X65943Y-37101D01*
X65857Y-37101D02*
X65857Y-36801D01*
X65886Y-36844D01*
X65914Y-36873D01*
X65943Y-36887D01*
X65485Y-37101D02*
X65657Y-37101D01*
X65571Y-37101D02*
X65571Y-36801D01*
X65600Y-36844D01*
X65628Y-36873D01*
X65657Y-36887D01*
X65199Y-37101D02*
X65371Y-37101D01*
X65285Y-37101D02*
X65285Y-36801D01*
X65314Y-36844D01*
X65342Y-36873D01*
X65371Y-36887D01*
X64913Y-37101D02*
X65085Y-37101D01*
X64999Y-37101D02*
X64999Y-36801D01*
X65028Y-36844D01*
X65056Y-36873D01*
X65085Y-36887D01*
X64727Y-36801D02*
X64699Y-36801D01*
X64670Y-36816D01*
X64656Y-36830D01*
X64642Y-36859D01*
X64627Y-36916D01*
X64627Y-36987D01*
X64642Y-37044D01*
X64656Y-37073D01*
X64670Y-37087D01*
X64699Y-37101D01*
X64727Y-37101D01*
X64756Y-37087D01*
X64770Y-37073D01*
X64785Y-37044D01*
X64799Y-36987D01*
X64799Y-36916D01*
X64785Y-36859D01*
X64770Y-36830D01*
X64756Y-36816D01*
X64727Y-36801D01*
X64270Y-36987D02*
X64041Y-36987D01*
X63612Y-36801D02*
X63584Y-36801D01*
X63555Y-36816D01*
X63541Y-36830D01*
X63527Y-36859D01*
X63512Y-36916D01*
X63512Y-36987D01*
X63527Y-37044D01*
X63541Y-37073D01*
X63555Y-37087D01*
X63584Y-37101D01*
X63612Y-37101D01*
X63641Y-37087D01*
X63655Y-37073D01*
X63670Y-37044D01*
X63684Y-36987D01*
X63684Y-36916D01*
X63670Y-36859D01*
X63655Y-36830D01*
X63641Y-36816D01*
X63612Y-36801D01*
X63412Y-37101D02*
X63255Y-36901D01*
X63412Y-36901D02*
X63255Y-37101D01*
X62969Y-37073D02*
X62983Y-37087D01*
X63026Y-37101D01*
X63055Y-37101D01*
X63098Y-37087D01*
X63126Y-37059D01*
X63141Y-37030D01*
X63155Y-36973D01*
X63155Y-36930D01*
X63141Y-36873D01*
X63126Y-36844D01*
X63098Y-36816D01*
X63055Y-36801D01*
X63026Y-36801D01*
X62983Y-36816D01*
X62969Y-36830D01*
X62855Y-36830D02*
X62841Y-36816D01*
X62812Y-36801D01*
X62741Y-36801D01*
X62712Y-36816D01*
X62698Y-36830D01*
X62683Y-36859D01*
X62683Y-36887D01*
X62698Y-36930D01*
X62869Y-37101D01*
X62683Y-37101D01*
X62497Y-36801D02*
X62469Y-36801D01*
X62440Y-36816D01*
X62426Y-36830D01*
X62412Y-36859D01*
X62397Y-36916D01*
X62397Y-36987D01*
X62412Y-37044D01*
X62426Y-37073D01*
X62440Y-37087D01*
X62469Y-37101D01*
X62497Y-37101D01*
X62526Y-37087D01*
X62540Y-37073D01*
X62555Y-37044D01*
X62569Y-36987D01*
X62569Y-36916D01*
X62555Y-36859D01*
X62540Y-36830D01*
X62526Y-36816D01*
X62497Y-36801D01*
X62211Y-36801D02*
X62183Y-36801D01*
X62154Y-36816D01*
X62140Y-36830D01*
X62126Y-36859D01*
X62111Y-36916D01*
X62111Y-36987D01*
X62126Y-37044D01*
X62140Y-37073D01*
X62154Y-37087D01*
X62183Y-37101D01*
X62211Y-37101D01*
X62240Y-37087D01*
X62254Y-37073D01*
X62269Y-37044D01*
X62283Y-36987D01*
X62283Y-36916D01*
X62269Y-36859D01*
X62254Y-36830D01*
X62240Y-36816D01*
X62211Y-36801D01*
X61925Y-36801D02*
X61897Y-36801D01*
X61868Y-36816D01*
X61854Y-36830D01*
X61840Y-36859D01*
X61825Y-36916D01*
X61825Y-36987D01*
X61840Y-37044D01*
X61854Y-37073D01*
X61868Y-37087D01*
X61897Y-37101D01*
X61925Y-37101D01*
X61954Y-37087D01*
X61968Y-37073D01*
X61983Y-37044D01*
X61997Y-36987D01*
X61997Y-36916D01*
X61983Y-36859D01*
X61968Y-36830D01*
X61954Y-36816D01*
X61925Y-36801D01*
X65771Y-37581D02*
X65943Y-37581D01*
X65857Y-37581D02*
X65857Y-37281D01*
X65886Y-37324D01*
X65914Y-37353D01*
X65943Y-37367D01*
X65485Y-37581D02*
X65657Y-37581D01*
X65571Y-37581D02*
X65571Y-37281D01*
X65600Y-37324D01*
X65628Y-37353D01*
X65657Y-37367D01*
X65199Y-37581D02*
X65371Y-37581D01*
X65285Y-37581D02*
X65285Y-37281D01*
X65314Y-37324D01*
X65342Y-37353D01*
X65371Y-37367D01*
X65013Y-37281D02*
X64985Y-37281D01*
X64956Y-37296D01*
X64942Y-37310D01*
X64928Y-37339D01*
X64913Y-37396D01*
X64913Y-37467D01*
X64928Y-37524D01*
X64942Y-37553D01*
X64956Y-37567D01*
X64985Y-37581D01*
X65013Y-37581D01*
X65042Y-37567D01*
X65056Y-37553D01*
X65071Y-37524D01*
X65085Y-37467D01*
X65085Y-37396D01*
X65071Y-37339D01*
X65056Y-37310D01*
X65042Y-37296D01*
X65013Y-37281D01*
X64627Y-37581D02*
X64799Y-37581D01*
X64713Y-37581D02*
X64713Y-37281D01*
X64742Y-37324D01*
X64770Y-37353D01*
X64799Y-37367D01*
X64270Y-37467D02*
X64041Y-37467D01*
X63612Y-37281D02*
X63584Y-37281D01*
X63555Y-37296D01*
X63541Y-37310D01*
X63527Y-37339D01*
X63512Y-37396D01*
X63512Y-37467D01*
X63527Y-37524D01*
X63541Y-37553D01*
X63555Y-37567D01*
X63584Y-37581D01*
X63612Y-37581D01*
X63641Y-37567D01*
X63655Y-37553D01*
X63670Y-37524D01*
X63684Y-37467D01*
X63684Y-37396D01*
X63670Y-37339D01*
X63655Y-37310D01*
X63641Y-37296D01*
X63612Y-37281D01*
X63412Y-37581D02*
X63255Y-37381D01*
X63412Y-37381D02*
X63255Y-37581D01*
X62969Y-37553D02*
X62983Y-37567D01*
X63026Y-37581D01*
X63055Y-37581D01*
X63098Y-37567D01*
X63126Y-37539D01*
X63141Y-37510D01*
X63155Y-37453D01*
X63155Y-37410D01*
X63141Y-37353D01*
X63126Y-37324D01*
X63098Y-37296D01*
X63055Y-37281D01*
X63026Y-37281D01*
X62983Y-37296D01*
X62969Y-37310D01*
X62712Y-37381D02*
X62712Y-37581D01*
X62783Y-37267D02*
X62855Y-37481D01*
X62669Y-37481D01*
X62497Y-37281D02*
X62469Y-37281D01*
X62440Y-37296D01*
X62426Y-37310D01*
X62412Y-37339D01*
X62397Y-37396D01*
X62397Y-37467D01*
X62412Y-37524D01*
X62426Y-37553D01*
X62440Y-37567D01*
X62469Y-37581D01*
X62497Y-37581D01*
X62526Y-37567D01*
X62540Y-37553D01*
X62555Y-37524D01*
X62569Y-37467D01*
X62569Y-37396D01*
X62555Y-37339D01*
X62540Y-37310D01*
X62526Y-37296D01*
X62497Y-37281D01*
X62211Y-37281D02*
X62183Y-37281D01*
X62154Y-37296D01*
X62140Y-37310D01*
X62126Y-37339D01*
X62111Y-37396D01*
X62111Y-37467D01*
X62126Y-37524D01*
X62140Y-37553D01*
X62154Y-37567D01*
X62183Y-37581D01*
X62211Y-37581D01*
X62240Y-37567D01*
X62254Y-37553D01*
X62269Y-37524D01*
X62283Y-37467D01*
X62283Y-37396D01*
X62269Y-37339D01*
X62254Y-37310D01*
X62240Y-37296D01*
X62211Y-37281D01*
X61925Y-37281D02*
X61897Y-37281D01*
X61868Y-37296D01*
X61854Y-37310D01*
X61840Y-37339D01*
X61825Y-37396D01*
X61825Y-37467D01*
X61840Y-37524D01*
X61854Y-37553D01*
X61868Y-37567D01*
X61897Y-37581D01*
X61925Y-37581D01*
X61954Y-37567D01*
X61968Y-37553D01*
X61983Y-37524D01*
X61997Y-37467D01*
X61997Y-37396D01*
X61983Y-37339D01*
X61968Y-37310D01*
X61954Y-37296D01*
X61925Y-37281D01*
X65771Y-38061D02*
X65943Y-38061D01*
X65857Y-38061D02*
X65857Y-37761D01*
X65886Y-37804D01*
X65914Y-37833D01*
X65943Y-37847D01*
X65485Y-38061D02*
X65657Y-38061D01*
X65571Y-38061D02*
X65571Y-37761D01*
X65600Y-37804D01*
X65628Y-37833D01*
X65657Y-37847D01*
X65199Y-38061D02*
X65371Y-38061D01*
X65285Y-38061D02*
X65285Y-37761D01*
X65314Y-37804D01*
X65342Y-37833D01*
X65371Y-37847D01*
X65013Y-37761D02*
X64985Y-37761D01*
X64956Y-37776D01*
X64942Y-37790D01*
X64928Y-37819D01*
X64913Y-37876D01*
X64913Y-37947D01*
X64928Y-38004D01*
X64942Y-38033D01*
X64956Y-38047D01*
X64985Y-38061D01*
X65013Y-38061D01*
X65042Y-38047D01*
X65056Y-38033D01*
X65071Y-38004D01*
X65085Y-37947D01*
X65085Y-37876D01*
X65071Y-37819D01*
X65056Y-37790D01*
X65042Y-37776D01*
X65013Y-37761D01*
X64727Y-37761D02*
X64699Y-37761D01*
X64670Y-37776D01*
X64656Y-37790D01*
X64642Y-37819D01*
X64627Y-37876D01*
X64627Y-37947D01*
X64642Y-38004D01*
X64656Y-38033D01*
X64670Y-38047D01*
X64699Y-38061D01*
X64727Y-38061D01*
X64756Y-38047D01*
X64770Y-38033D01*
X64785Y-38004D01*
X64799Y-37947D01*
X64799Y-37876D01*
X64785Y-37819D01*
X64770Y-37790D01*
X64756Y-37776D01*
X64727Y-37761D01*
X64270Y-37947D02*
X64041Y-37947D01*
X63612Y-37761D02*
X63584Y-37761D01*
X63555Y-37776D01*
X63541Y-37790D01*
X63527Y-37819D01*
X63512Y-37876D01*
X63512Y-37947D01*
X63527Y-38004D01*
X63541Y-38033D01*
X63555Y-38047D01*
X63584Y-38061D01*
X63612Y-38061D01*
X63641Y-38047D01*
X63655Y-38033D01*
X63670Y-38004D01*
X63684Y-37947D01*
X63684Y-37876D01*
X63670Y-37819D01*
X63655Y-37790D01*
X63641Y-37776D01*
X63612Y-37761D01*
X63412Y-38061D02*
X63255Y-37861D01*
X63412Y-37861D02*
X63255Y-38061D01*
X62969Y-38033D02*
X62983Y-38047D01*
X63026Y-38061D01*
X63055Y-38061D01*
X63098Y-38047D01*
X63126Y-38019D01*
X63141Y-37990D01*
X63155Y-37933D01*
X63155Y-37890D01*
X63141Y-37833D01*
X63126Y-37804D01*
X63098Y-37776D01*
X63055Y-37761D01*
X63026Y-37761D01*
X62983Y-37776D01*
X62969Y-37790D01*
X62712Y-37761D02*
X62769Y-37761D01*
X62798Y-37776D01*
X62812Y-37790D01*
X62841Y-37833D01*
X62855Y-37890D01*
X62855Y-38004D01*
X62841Y-38033D01*
X62826Y-38047D01*
X62798Y-38061D01*
X62741Y-38061D01*
X62712Y-38047D01*
X62698Y-38033D01*
X62683Y-38004D01*
X62683Y-37933D01*
X62698Y-37904D01*
X62712Y-37890D01*
X62741Y-37876D01*
X62798Y-37876D01*
X62826Y-37890D01*
X62841Y-37904D01*
X62855Y-37933D01*
X62497Y-37761D02*
X62469Y-37761D01*
X62440Y-37776D01*
X62426Y-37790D01*
X62412Y-37819D01*
X62397Y-37876D01*
X62397Y-37947D01*
X62412Y-38004D01*
X62426Y-38033D01*
X62440Y-38047D01*
X62469Y-38061D01*
X62497Y-38061D01*
X62526Y-38047D01*
X62540Y-38033D01*
X62555Y-38004D01*
X62569Y-37947D01*
X62569Y-37876D01*
X62555Y-37819D01*
X62540Y-37790D01*
X62526Y-37776D01*
X62497Y-37761D01*
X62211Y-37761D02*
X62183Y-37761D01*
X62154Y-37776D01*
X62140Y-37790D01*
X62126Y-37819D01*
X62111Y-37876D01*
X62111Y-37947D01*
X62126Y-38004D01*
X62140Y-38033D01*
X62154Y-38047D01*
X62183Y-38061D01*
X62211Y-38061D01*
X62240Y-38047D01*
X62254Y-38033D01*
X62269Y-38004D01*
X62283Y-37947D01*
X62283Y-37876D01*
X62269Y-37819D01*
X62254Y-37790D01*
X62240Y-37776D01*
X62211Y-37761D01*
X61925Y-37761D02*
X61897Y-37761D01*
X61868Y-37776D01*
X61854Y-37790D01*
X61840Y-37819D01*
X61825Y-37876D01*
X61825Y-37947D01*
X61840Y-38004D01*
X61854Y-38033D01*
X61868Y-38047D01*
X61897Y-38061D01*
X61925Y-38061D01*
X61954Y-38047D01*
X61968Y-38033D01*
X61983Y-38004D01*
X61997Y-37947D01*
X61997Y-37876D01*
X61983Y-37819D01*
X61968Y-37790D01*
X61954Y-37776D01*
X61925Y-37761D01*
G54D11*
X65924Y-43643D02*
X65867Y-43662D01*
X65771Y-43662D01*
X65733Y-43643D01*
X65714Y-43624D01*
X65695Y-43586D01*
X65695Y-43548D01*
X65714Y-43510D01*
X65733Y-43490D01*
X65771Y-43471D01*
X65848Y-43452D01*
X65886Y-43433D01*
X65905Y-43414D01*
X65924Y-43376D01*
X65924Y-43338D01*
X65905Y-43300D01*
X65886Y-43281D01*
X65848Y-43262D01*
X65752Y-43262D01*
X65695Y-43281D01*
X65562Y-43262D02*
X65467Y-43662D01*
X65390Y-43376D01*
X65314Y-43662D01*
X65219Y-43262D01*
X65086Y-43300D02*
X65067Y-43281D01*
X65029Y-43262D01*
X64933Y-43262D01*
X64895Y-43281D01*
X64876Y-43300D01*
X64857Y-43338D01*
X64857Y-43376D01*
X64876Y-43433D01*
X65105Y-43662D01*
X64857Y-43662D01*
X64686Y-43624D02*
X64667Y-43643D01*
X64686Y-43662D01*
X64705Y-43643D01*
X64686Y-43624D01*
X64686Y-43662D01*
X64439Y-43433D02*
X64477Y-43414D01*
X64496Y-43395D01*
X64515Y-43357D01*
X64515Y-43338D01*
X64496Y-43300D01*
X64477Y-43281D01*
X64439Y-43262D01*
X64362Y-43262D01*
X64324Y-43281D01*
X64305Y-43300D01*
X64286Y-43338D01*
X64286Y-43357D01*
X64305Y-43395D01*
X64324Y-43414D01*
X64362Y-43433D01*
X64439Y-43433D01*
X64477Y-43452D01*
X64496Y-43471D01*
X64515Y-43510D01*
X64515Y-43586D01*
X64496Y-43624D01*
X64477Y-43643D01*
X64439Y-43662D01*
X64362Y-43662D01*
X64324Y-43643D01*
X64305Y-43624D01*
X64286Y-43586D01*
X64286Y-43510D01*
X64305Y-43471D01*
X64324Y-43452D01*
X64362Y-43433D01*
X63810Y-43510D02*
X63505Y-43510D01*
X63010Y-43662D02*
X63010Y-43262D01*
X62781Y-43662D01*
X62781Y-43262D01*
X62515Y-43262D02*
X62438Y-43262D01*
X62400Y-43281D01*
X62362Y-43319D01*
X62343Y-43395D01*
X62343Y-43529D01*
X62362Y-43605D01*
X62400Y-43643D01*
X62438Y-43662D01*
X62515Y-43662D01*
X62553Y-43643D01*
X62591Y-43605D01*
X62610Y-43529D01*
X62610Y-43395D01*
X62591Y-43319D01*
X62553Y-43281D01*
X62515Y-43262D01*
X62229Y-43262D02*
X62000Y-43262D01*
X62115Y-43662D02*
X62115Y-43262D01*
X61562Y-43262D02*
X61562Y-43586D01*
X61543Y-43624D01*
X61524Y-43643D01*
X61486Y-43662D01*
X61409Y-43662D01*
X61371Y-43643D01*
X61352Y-43624D01*
X61333Y-43586D01*
X61333Y-43262D01*
X61162Y-43643D02*
X61105Y-43662D01*
X61009Y-43662D01*
X60971Y-43643D01*
X60952Y-43624D01*
X60933Y-43586D01*
X60933Y-43548D01*
X60952Y-43510D01*
X60971Y-43490D01*
X61009Y-43471D01*
X61086Y-43452D01*
X61124Y-43433D01*
X61143Y-43414D01*
X61162Y-43376D01*
X61162Y-43338D01*
X61143Y-43300D01*
X61124Y-43281D01*
X61086Y-43262D01*
X60990Y-43262D01*
X60933Y-43281D01*
X60762Y-43452D02*
X60628Y-43452D01*
X60571Y-43662D02*
X60762Y-43662D01*
X60762Y-43262D01*
X60571Y-43262D01*
X60400Y-43662D02*
X60400Y-43262D01*
X60305Y-43262D01*
X60247Y-43281D01*
X60209Y-43319D01*
X60190Y-43357D01*
X60171Y-43433D01*
X60171Y-43490D01*
X60190Y-43567D01*
X60209Y-43605D01*
X60247Y-43643D01*
X60305Y-43662D01*
X60400Y-43662D01*
X65924Y-32893D02*
X65867Y-32912D01*
X65771Y-32912D01*
X65733Y-32893D01*
X65714Y-32874D01*
X65695Y-32836D01*
X65695Y-32798D01*
X65714Y-32760D01*
X65733Y-32740D01*
X65771Y-32721D01*
X65848Y-32702D01*
X65886Y-32683D01*
X65905Y-32664D01*
X65924Y-32626D01*
X65924Y-32588D01*
X65905Y-32550D01*
X65886Y-32531D01*
X65848Y-32512D01*
X65752Y-32512D01*
X65695Y-32531D01*
X65562Y-32512D02*
X65467Y-32912D01*
X65390Y-32626D01*
X65314Y-32912D01*
X65219Y-32512D01*
X65086Y-32550D02*
X65067Y-32531D01*
X65029Y-32512D01*
X64933Y-32512D01*
X64895Y-32531D01*
X64876Y-32550D01*
X64857Y-32588D01*
X64857Y-32626D01*
X64876Y-32683D01*
X65105Y-32912D01*
X64857Y-32912D01*
X64686Y-32874D02*
X64667Y-32893D01*
X64686Y-32912D01*
X64705Y-32893D01*
X64686Y-32874D01*
X64686Y-32912D01*
X64286Y-32912D02*
X64515Y-32912D01*
X64401Y-32912D02*
X64401Y-32512D01*
X64439Y-32569D01*
X64477Y-32607D01*
X64515Y-32626D01*
X64115Y-32874D02*
X64096Y-32893D01*
X64115Y-32912D01*
X64134Y-32893D01*
X64115Y-32874D01*
X64115Y-32912D01*
X64115Y-32664D02*
X64096Y-32683D01*
X64115Y-32702D01*
X64134Y-32683D01*
X64115Y-32664D01*
X64115Y-32702D01*
X63544Y-32512D02*
X63467Y-32512D01*
X63429Y-32531D01*
X63391Y-32569D01*
X63372Y-32645D01*
X63372Y-32779D01*
X63391Y-32855D01*
X63429Y-32893D01*
X63467Y-32912D01*
X63544Y-32912D01*
X63582Y-32893D01*
X63620Y-32855D01*
X63639Y-32779D01*
X63639Y-32645D01*
X63620Y-32569D01*
X63582Y-32531D01*
X63544Y-32512D01*
X63201Y-32912D02*
X63201Y-32512D01*
X62972Y-32912D01*
X62972Y-32512D01*
X62782Y-32874D02*
X62763Y-32893D01*
X62782Y-32912D01*
X62801Y-32893D01*
X62782Y-32874D01*
X62782Y-32912D01*
X62782Y-32664D02*
X62763Y-32683D01*
X62782Y-32702D01*
X62801Y-32683D01*
X62782Y-32664D01*
X62782Y-32702D01*
X62287Y-32702D02*
X62153Y-32702D01*
X62096Y-32912D02*
X62287Y-32912D01*
X62287Y-32512D01*
X62096Y-32512D01*
X61925Y-32645D02*
X61925Y-32912D01*
X61925Y-32683D02*
X61906Y-32664D01*
X61868Y-32645D01*
X61810Y-32645D01*
X61772Y-32664D01*
X61753Y-32702D01*
X61753Y-32912D01*
X61391Y-32912D02*
X61391Y-32702D01*
X61410Y-32664D01*
X61448Y-32645D01*
X61525Y-32645D01*
X61563Y-32664D01*
X61391Y-32893D02*
X61429Y-32912D01*
X61525Y-32912D01*
X61563Y-32893D01*
X61582Y-32855D01*
X61582Y-32817D01*
X61563Y-32779D01*
X61525Y-32760D01*
X61429Y-32760D01*
X61391Y-32740D01*
X61201Y-32912D02*
X61201Y-32512D01*
X61201Y-32664D02*
X61163Y-32645D01*
X61086Y-32645D01*
X61048Y-32664D01*
X61029Y-32683D01*
X61010Y-32721D01*
X61010Y-32836D01*
X61029Y-32874D01*
X61048Y-32893D01*
X61086Y-32912D01*
X61163Y-32912D01*
X61201Y-32893D01*
X60782Y-32912D02*
X60820Y-32893D01*
X60839Y-32855D01*
X60839Y-32512D01*
X60476Y-32893D02*
X60514Y-32912D01*
X60591Y-32912D01*
X60629Y-32893D01*
X60648Y-32855D01*
X60648Y-32702D01*
X60629Y-32664D01*
X60591Y-32645D01*
X60514Y-32645D01*
X60476Y-32664D01*
X60457Y-32702D01*
X60457Y-32740D01*
X60648Y-32779D01*
X59752Y-32912D02*
X59886Y-32721D01*
X59981Y-32912D02*
X59981Y-32512D01*
X59828Y-32512D01*
X59790Y-32531D01*
X59771Y-32550D01*
X59752Y-32588D01*
X59752Y-32645D01*
X59771Y-32683D01*
X59790Y-32702D01*
X59828Y-32721D01*
X59981Y-32721D01*
X59505Y-32512D02*
X59428Y-32512D01*
X59390Y-32531D01*
X59352Y-32569D01*
X59333Y-32645D01*
X59333Y-32779D01*
X59352Y-32855D01*
X59390Y-32893D01*
X59428Y-32912D01*
X59505Y-32912D01*
X59543Y-32893D01*
X59581Y-32855D01*
X59600Y-32779D01*
X59600Y-32645D01*
X59581Y-32569D01*
X59543Y-32531D01*
X59505Y-32512D01*
X59162Y-32912D02*
X59162Y-32512D01*
X59028Y-32798D01*
X58895Y-32512D01*
X58895Y-32912D01*
X65924Y-33533D02*
X65867Y-33552D01*
X65771Y-33552D01*
X65733Y-33533D01*
X65714Y-33514D01*
X65695Y-33476D01*
X65695Y-33438D01*
X65714Y-33400D01*
X65733Y-33380D01*
X65771Y-33361D01*
X65848Y-33342D01*
X65886Y-33323D01*
X65905Y-33304D01*
X65924Y-33266D01*
X65924Y-33228D01*
X65905Y-33190D01*
X65886Y-33171D01*
X65848Y-33152D01*
X65752Y-33152D01*
X65695Y-33171D01*
X65562Y-33152D02*
X65467Y-33552D01*
X65390Y-33266D01*
X65314Y-33552D01*
X65219Y-33152D01*
X65086Y-33190D02*
X65067Y-33171D01*
X65029Y-33152D01*
X64933Y-33152D01*
X64895Y-33171D01*
X64876Y-33190D01*
X64857Y-33228D01*
X64857Y-33266D01*
X64876Y-33323D01*
X65105Y-33552D01*
X64857Y-33552D01*
X64686Y-33514D02*
X64667Y-33533D01*
X64686Y-33552D01*
X64705Y-33533D01*
X64686Y-33514D01*
X64686Y-33552D01*
X64515Y-33190D02*
X64496Y-33171D01*
X64458Y-33152D01*
X64362Y-33152D01*
X64324Y-33171D01*
X64305Y-33190D01*
X64286Y-33228D01*
X64286Y-33266D01*
X64305Y-33323D01*
X64534Y-33552D01*
X64286Y-33552D01*
X64115Y-33514D02*
X64096Y-33533D01*
X64115Y-33552D01*
X64134Y-33533D01*
X64115Y-33514D01*
X64115Y-33552D01*
X64115Y-33304D02*
X64096Y-33323D01*
X64115Y-33342D01*
X64134Y-33323D01*
X64115Y-33304D01*
X64115Y-33342D01*
X63544Y-33152D02*
X63467Y-33152D01*
X63429Y-33171D01*
X63391Y-33209D01*
X63372Y-33285D01*
X63372Y-33419D01*
X63391Y-33495D01*
X63429Y-33533D01*
X63467Y-33552D01*
X63544Y-33552D01*
X63582Y-33533D01*
X63620Y-33495D01*
X63639Y-33419D01*
X63639Y-33285D01*
X63620Y-33209D01*
X63582Y-33171D01*
X63544Y-33152D01*
X63201Y-33552D02*
X63201Y-33152D01*
X62972Y-33552D01*
X62972Y-33152D01*
X62782Y-33514D02*
X62763Y-33533D01*
X62782Y-33552D01*
X62801Y-33533D01*
X62782Y-33514D01*
X62782Y-33552D01*
X62782Y-33304D02*
X62763Y-33323D01*
X62782Y-33342D01*
X62801Y-33323D01*
X62782Y-33304D01*
X62782Y-33342D01*
X62287Y-33342D02*
X62153Y-33342D01*
X62096Y-33552D02*
X62287Y-33552D01*
X62287Y-33152D01*
X62096Y-33152D01*
X61925Y-33285D02*
X61925Y-33552D01*
X61925Y-33323D02*
X61906Y-33304D01*
X61868Y-33285D01*
X61810Y-33285D01*
X61772Y-33304D01*
X61753Y-33342D01*
X61753Y-33552D01*
X61391Y-33552D02*
X61391Y-33342D01*
X61410Y-33304D01*
X61448Y-33285D01*
X61525Y-33285D01*
X61563Y-33304D01*
X61391Y-33533D02*
X61429Y-33552D01*
X61525Y-33552D01*
X61563Y-33533D01*
X61582Y-33495D01*
X61582Y-33457D01*
X61563Y-33419D01*
X61525Y-33400D01*
X61429Y-33400D01*
X61391Y-33380D01*
X61201Y-33552D02*
X61201Y-33152D01*
X61201Y-33304D02*
X61163Y-33285D01*
X61086Y-33285D01*
X61048Y-33304D01*
X61029Y-33323D01*
X61010Y-33361D01*
X61010Y-33476D01*
X61029Y-33514D01*
X61048Y-33533D01*
X61086Y-33552D01*
X61163Y-33552D01*
X61201Y-33533D01*
X60782Y-33552D02*
X60820Y-33533D01*
X60839Y-33495D01*
X60839Y-33152D01*
X60476Y-33533D02*
X60514Y-33552D01*
X60591Y-33552D01*
X60629Y-33533D01*
X60648Y-33495D01*
X60648Y-33342D01*
X60629Y-33304D01*
X60591Y-33285D01*
X60514Y-33285D01*
X60476Y-33304D01*
X60457Y-33342D01*
X60457Y-33380D01*
X60648Y-33419D01*
X59981Y-33342D02*
X59847Y-33342D01*
X59790Y-33552D02*
X59981Y-33552D01*
X59981Y-33152D01*
X59790Y-33152D01*
X59619Y-33342D02*
X59485Y-33342D01*
X59428Y-33552D02*
X59619Y-33552D01*
X59619Y-33152D01*
X59428Y-33152D01*
X59257Y-33552D02*
X59257Y-33152D01*
X59104Y-33152D01*
X59066Y-33171D01*
X59047Y-33190D01*
X59028Y-33228D01*
X59028Y-33285D01*
X59047Y-33323D01*
X59066Y-33342D01*
X59104Y-33361D01*
X59257Y-33361D01*
X58628Y-33552D02*
X58762Y-33361D01*
X58857Y-33552D02*
X58857Y-33152D01*
X58704Y-33152D01*
X58666Y-33171D01*
X58647Y-33190D01*
X58628Y-33228D01*
X58628Y-33285D01*
X58647Y-33323D01*
X58666Y-33342D01*
X58704Y-33361D01*
X58857Y-33361D01*
X58381Y-33152D02*
X58304Y-33152D01*
X58266Y-33171D01*
X58228Y-33209D01*
X58209Y-33285D01*
X58209Y-33419D01*
X58228Y-33495D01*
X58266Y-33533D01*
X58304Y-33552D01*
X58381Y-33552D01*
X58419Y-33533D01*
X58457Y-33495D01*
X58476Y-33419D01*
X58476Y-33285D01*
X58457Y-33209D01*
X58419Y-33171D01*
X58381Y-33152D01*
X58038Y-33552D02*
X58038Y-33152D01*
X57904Y-33438D01*
X57771Y-33152D01*
X57771Y-33552D01*
X57314Y-33285D02*
X57238Y-33552D01*
X57161Y-33361D01*
X57085Y-33552D01*
X57009Y-33285D01*
X56857Y-33552D02*
X56857Y-33285D01*
X56857Y-33361D02*
X56838Y-33323D01*
X56819Y-33304D01*
X56781Y-33285D01*
X56742Y-33285D01*
X56609Y-33552D02*
X56609Y-33285D01*
X56609Y-33152D02*
X56628Y-33171D01*
X56609Y-33190D01*
X56590Y-33171D01*
X56609Y-33152D01*
X56609Y-33190D01*
X56476Y-33285D02*
X56324Y-33285D01*
X56419Y-33152D02*
X56419Y-33495D01*
X56400Y-33533D01*
X56362Y-33552D01*
X56324Y-33552D01*
X56037Y-33533D02*
X56075Y-33552D01*
X56152Y-33552D01*
X56190Y-33533D01*
X56209Y-33495D01*
X56209Y-33342D01*
X56190Y-33304D01*
X56152Y-33285D01*
X56075Y-33285D01*
X56037Y-33304D01*
X56018Y-33342D01*
X56018Y-33380D01*
X56209Y-33419D01*
X65924Y-34393D02*
X65867Y-34412D01*
X65771Y-34412D01*
X65733Y-34393D01*
X65714Y-34374D01*
X65695Y-34336D01*
X65695Y-34298D01*
X65714Y-34260D01*
X65733Y-34240D01*
X65771Y-34221D01*
X65848Y-34202D01*
X65886Y-34183D01*
X65905Y-34164D01*
X65924Y-34126D01*
X65924Y-34088D01*
X65905Y-34050D01*
X65886Y-34031D01*
X65848Y-34012D01*
X65752Y-34012D01*
X65695Y-34031D01*
X65562Y-34012D02*
X65467Y-34412D01*
X65390Y-34126D01*
X65314Y-34412D01*
X65219Y-34012D01*
X65086Y-34050D02*
X65067Y-34031D01*
X65029Y-34012D01*
X64933Y-34012D01*
X64895Y-34031D01*
X64876Y-34050D01*
X64857Y-34088D01*
X64857Y-34126D01*
X64876Y-34183D01*
X65105Y-34412D01*
X64857Y-34412D01*
X64686Y-34374D02*
X64667Y-34393D01*
X64686Y-34412D01*
X64705Y-34393D01*
X64686Y-34374D01*
X64686Y-34412D01*
X64534Y-34012D02*
X64286Y-34012D01*
X64420Y-34164D01*
X64362Y-34164D01*
X64324Y-34183D01*
X64305Y-34202D01*
X64286Y-34240D01*
X64286Y-34336D01*
X64305Y-34374D01*
X64324Y-34393D01*
X64362Y-34412D01*
X64477Y-34412D01*
X64515Y-34393D01*
X64534Y-34374D01*
X63810Y-34260D02*
X63505Y-34260D01*
X63029Y-34393D02*
X62972Y-34412D01*
X62876Y-34412D01*
X62838Y-34393D01*
X62819Y-34374D01*
X62800Y-34336D01*
X62800Y-34298D01*
X62819Y-34260D01*
X62838Y-34240D01*
X62876Y-34221D01*
X62953Y-34202D01*
X62991Y-34183D01*
X63010Y-34164D01*
X63029Y-34126D01*
X63029Y-34088D01*
X63010Y-34050D01*
X62991Y-34031D01*
X62953Y-34012D01*
X62857Y-34012D01*
X62800Y-34031D01*
X62667Y-34012D02*
X62572Y-34412D01*
X62495Y-34126D01*
X62419Y-34412D01*
X62324Y-34012D01*
X62191Y-34050D02*
X62172Y-34031D01*
X62134Y-34012D01*
X62038Y-34012D01*
X62000Y-34031D01*
X61981Y-34050D01*
X61962Y-34088D01*
X61962Y-34126D01*
X61981Y-34183D01*
X62210Y-34412D01*
X61962Y-34412D01*
X61791Y-34374D02*
X61772Y-34393D01*
X61791Y-34412D01*
X61810Y-34393D01*
X61791Y-34374D01*
X61791Y-34412D01*
X61639Y-34012D02*
X61372Y-34012D01*
X61544Y-34412D01*
X61220Y-34374D02*
X61201Y-34393D01*
X61220Y-34412D01*
X61239Y-34393D01*
X61220Y-34374D01*
X61220Y-34412D01*
X61220Y-34164D02*
X61201Y-34183D01*
X61220Y-34202D01*
X61239Y-34183D01*
X61220Y-34164D01*
X61220Y-34202D01*
X60496Y-34412D02*
X60630Y-34221D01*
X60725Y-34412D02*
X60725Y-34012D01*
X60572Y-34012D01*
X60534Y-34031D01*
X60515Y-34050D01*
X60496Y-34088D01*
X60496Y-34145D01*
X60515Y-34183D01*
X60534Y-34202D01*
X60572Y-34221D01*
X60725Y-34221D01*
X60249Y-34012D02*
X60172Y-34012D01*
X60134Y-34031D01*
X60096Y-34069D01*
X60077Y-34145D01*
X60077Y-34279D01*
X60096Y-34355D01*
X60134Y-34393D01*
X60172Y-34412D01*
X60249Y-34412D01*
X60287Y-34393D01*
X60325Y-34355D01*
X60344Y-34279D01*
X60344Y-34145D01*
X60325Y-34069D01*
X60287Y-34031D01*
X60249Y-34012D01*
X59906Y-34412D02*
X59906Y-34012D01*
X59772Y-34298D01*
X59639Y-34012D01*
X59639Y-34412D01*
X59163Y-34298D02*
X58972Y-34298D01*
X59201Y-34412D02*
X59068Y-34012D01*
X58934Y-34412D01*
X58629Y-34412D02*
X58629Y-34012D01*
X58629Y-34393D02*
X58667Y-34412D01*
X58744Y-34412D01*
X58782Y-34393D01*
X58801Y-34374D01*
X58820Y-34336D01*
X58820Y-34221D01*
X58801Y-34183D01*
X58782Y-34164D01*
X58744Y-34145D01*
X58667Y-34145D01*
X58629Y-34164D01*
X58267Y-34412D02*
X58267Y-34012D01*
X58267Y-34393D02*
X58305Y-34412D01*
X58382Y-34412D01*
X58420Y-34393D01*
X58439Y-34374D01*
X58458Y-34336D01*
X58458Y-34221D01*
X58439Y-34183D01*
X58420Y-34164D01*
X58382Y-34145D01*
X58305Y-34145D01*
X58267Y-34164D01*
X58077Y-34412D02*
X58077Y-34145D01*
X58077Y-34221D02*
X58058Y-34183D01*
X58039Y-34164D01*
X58001Y-34145D01*
X57962Y-34145D01*
X57676Y-34393D02*
X57714Y-34412D01*
X57791Y-34412D01*
X57829Y-34393D01*
X57848Y-34355D01*
X57848Y-34202D01*
X57829Y-34164D01*
X57791Y-34145D01*
X57714Y-34145D01*
X57676Y-34164D01*
X57657Y-34202D01*
X57657Y-34240D01*
X57848Y-34279D01*
X57505Y-34393D02*
X57467Y-34412D01*
X57391Y-34412D01*
X57352Y-34393D01*
X57333Y-34355D01*
X57333Y-34336D01*
X57352Y-34298D01*
X57391Y-34279D01*
X57448Y-34279D01*
X57486Y-34260D01*
X57505Y-34221D01*
X57505Y-34202D01*
X57486Y-34164D01*
X57448Y-34145D01*
X57391Y-34145D01*
X57352Y-34164D01*
X57181Y-34393D02*
X57143Y-34412D01*
X57067Y-34412D01*
X57028Y-34393D01*
X57009Y-34355D01*
X57009Y-34336D01*
X57028Y-34298D01*
X57067Y-34279D01*
X57124Y-34279D01*
X57162Y-34260D01*
X57181Y-34221D01*
X57181Y-34202D01*
X57162Y-34164D01*
X57124Y-34145D01*
X57067Y-34145D01*
X57028Y-34164D01*
X56552Y-34393D02*
X56495Y-34412D01*
X56399Y-34412D01*
X56361Y-34393D01*
X56342Y-34374D01*
X56323Y-34336D01*
X56323Y-34298D01*
X56342Y-34260D01*
X56361Y-34240D01*
X56399Y-34221D01*
X56476Y-34202D01*
X56514Y-34183D01*
X56533Y-34164D01*
X56552Y-34126D01*
X56552Y-34088D01*
X56533Y-34050D01*
X56514Y-34031D01*
X56476Y-34012D01*
X56380Y-34012D01*
X56323Y-34031D01*
X55999Y-34393D02*
X56037Y-34412D01*
X56114Y-34412D01*
X56152Y-34393D01*
X56171Y-34355D01*
X56171Y-34202D01*
X56152Y-34164D01*
X56114Y-34145D01*
X56037Y-34145D01*
X55999Y-34164D01*
X55980Y-34202D01*
X55980Y-34240D01*
X56171Y-34279D01*
X55752Y-34412D02*
X55790Y-34393D01*
X55809Y-34355D01*
X55809Y-34012D01*
X55446Y-34393D02*
X55484Y-34412D01*
X55561Y-34412D01*
X55599Y-34393D01*
X55618Y-34355D01*
X55618Y-34202D01*
X55599Y-34164D01*
X55561Y-34145D01*
X55484Y-34145D01*
X55446Y-34164D01*
X55427Y-34202D01*
X55427Y-34240D01*
X55618Y-34279D01*
X55084Y-34393D02*
X55122Y-34412D01*
X55199Y-34412D01*
X55237Y-34393D01*
X55256Y-34374D01*
X55275Y-34336D01*
X55275Y-34221D01*
X55256Y-34183D01*
X55237Y-34164D01*
X55199Y-34145D01*
X55122Y-34145D01*
X55084Y-34164D01*
X54970Y-34145D02*
X54818Y-34145D01*
X54913Y-34012D02*
X54913Y-34355D01*
X54894Y-34393D01*
X54856Y-34412D01*
X54818Y-34412D01*
X54684Y-34412D02*
X54684Y-34145D01*
X54684Y-34012D02*
X54703Y-34031D01*
X54684Y-34050D01*
X54665Y-34031D01*
X54684Y-34012D01*
X54684Y-34050D01*
X54437Y-34412D02*
X54475Y-34393D01*
X54494Y-34374D01*
X54513Y-34336D01*
X54513Y-34221D01*
X54494Y-34183D01*
X54475Y-34164D01*
X54437Y-34145D01*
X54379Y-34145D01*
X54341Y-34164D01*
X54322Y-34183D01*
X54303Y-34221D01*
X54303Y-34336D01*
X54322Y-34374D01*
X54341Y-34393D01*
X54379Y-34412D01*
X54437Y-34412D01*
X54132Y-34145D02*
X54132Y-34412D01*
X54132Y-34183D02*
X54113Y-34164D01*
X54075Y-34145D01*
X54017Y-34145D01*
X53979Y-34164D01*
X53960Y-34202D01*
X53960Y-34412D01*
X65695Y-35052D02*
X65924Y-35052D01*
X65810Y-35052D02*
X65810Y-34652D01*
X65848Y-34709D01*
X65886Y-34747D01*
X65924Y-34766D01*
X65219Y-34842D02*
X64914Y-34842D01*
X64914Y-34957D02*
X65219Y-34957D01*
X64343Y-34652D02*
X64266Y-34652D01*
X64228Y-34671D01*
X64190Y-34709D01*
X64171Y-34785D01*
X64171Y-34919D01*
X64190Y-34995D01*
X64228Y-35033D01*
X64266Y-35052D01*
X64343Y-35052D01*
X64381Y-35033D01*
X64419Y-34995D01*
X64438Y-34919D01*
X64438Y-34785D01*
X64419Y-34709D01*
X64381Y-34671D01*
X64343Y-34652D01*
X64000Y-35052D02*
X64000Y-34652D01*
X63771Y-35052D01*
X63771Y-34652D01*
X63562Y-35033D02*
X63562Y-35052D01*
X63581Y-35090D01*
X63600Y-35109D01*
X63581Y-34804D02*
X63562Y-34823D01*
X63581Y-34842D01*
X63600Y-34823D01*
X63581Y-34804D01*
X63581Y-34842D01*
X63010Y-34652D02*
X62971Y-34652D01*
X62933Y-34671D01*
X62914Y-34690D01*
X62895Y-34728D01*
X62876Y-34804D01*
X62876Y-34900D01*
X62895Y-34976D01*
X62914Y-35014D01*
X62933Y-35033D01*
X62971Y-35052D01*
X63010Y-35052D01*
X63048Y-35033D01*
X63067Y-35014D01*
X63086Y-34976D01*
X63105Y-34900D01*
X63105Y-34804D01*
X63086Y-34728D01*
X63067Y-34690D01*
X63048Y-34671D01*
X63010Y-34652D01*
X62400Y-34842D02*
X62095Y-34842D01*
X62095Y-34957D02*
X62400Y-34957D01*
X61524Y-34652D02*
X61447Y-34652D01*
X61409Y-34671D01*
X61371Y-34709D01*
X61352Y-34785D01*
X61352Y-34919D01*
X61371Y-34995D01*
X61409Y-35033D01*
X61447Y-35052D01*
X61524Y-35052D01*
X61562Y-35033D01*
X61600Y-34995D01*
X61619Y-34919D01*
X61619Y-34785D01*
X61600Y-34709D01*
X61562Y-34671D01*
X61524Y-34652D01*
X61047Y-34842D02*
X61181Y-34842D01*
X61181Y-35052D02*
X61181Y-34652D01*
X60990Y-34652D01*
X60704Y-34842D02*
X60838Y-34842D01*
X60838Y-35052D02*
X60838Y-34652D01*
X60647Y-34652D01*
X65924Y-27143D02*
X65867Y-27162D01*
X65771Y-27162D01*
X65733Y-27143D01*
X65714Y-27124D01*
X65695Y-27086D01*
X65695Y-27048D01*
X65714Y-27010D01*
X65733Y-26990D01*
X65771Y-26971D01*
X65848Y-26952D01*
X65886Y-26933D01*
X65905Y-26914D01*
X65924Y-26876D01*
X65924Y-26838D01*
X65905Y-26800D01*
X65886Y-26781D01*
X65848Y-26762D01*
X65752Y-26762D01*
X65695Y-26781D01*
X65562Y-26762D02*
X65467Y-27162D01*
X65390Y-26876D01*
X65314Y-27162D01*
X65219Y-26762D01*
X64857Y-27162D02*
X65086Y-27162D01*
X64972Y-27162D02*
X64972Y-26762D01*
X65010Y-26819D01*
X65048Y-26857D01*
X65086Y-26876D01*
X64686Y-27124D02*
X64667Y-27143D01*
X64686Y-27162D01*
X64705Y-27143D01*
X64686Y-27124D01*
X64686Y-27162D01*
X64286Y-27162D02*
X64515Y-27162D01*
X64401Y-27162D02*
X64401Y-26762D01*
X64439Y-26819D01*
X64477Y-26857D01*
X64515Y-26876D01*
X63810Y-27010D02*
X63505Y-27010D01*
X63029Y-27143D02*
X62972Y-27162D01*
X62876Y-27162D01*
X62838Y-27143D01*
X62819Y-27124D01*
X62800Y-27086D01*
X62800Y-27048D01*
X62819Y-27010D01*
X62838Y-26990D01*
X62876Y-26971D01*
X62953Y-26952D01*
X62991Y-26933D01*
X63010Y-26914D01*
X63029Y-26876D01*
X63029Y-26838D01*
X63010Y-26800D01*
X62991Y-26781D01*
X62953Y-26762D01*
X62857Y-26762D01*
X62800Y-26781D01*
X62667Y-26762D02*
X62572Y-27162D01*
X62495Y-26876D01*
X62419Y-27162D01*
X62324Y-26762D01*
X61962Y-27162D02*
X62191Y-27162D01*
X62077Y-27162D02*
X62077Y-26762D01*
X62115Y-26819D01*
X62153Y-26857D01*
X62191Y-26876D01*
X61791Y-27124D02*
X61772Y-27143D01*
X61791Y-27162D01*
X61810Y-27143D01*
X61791Y-27124D01*
X61791Y-27162D01*
X61639Y-26762D02*
X61391Y-26762D01*
X61525Y-26914D01*
X61467Y-26914D01*
X61429Y-26933D01*
X61410Y-26952D01*
X61391Y-26990D01*
X61391Y-27086D01*
X61410Y-27124D01*
X61429Y-27143D01*
X61467Y-27162D01*
X61582Y-27162D01*
X61620Y-27143D01*
X61639Y-27124D01*
X61220Y-27124D02*
X61201Y-27143D01*
X61220Y-27162D01*
X61239Y-27143D01*
X61220Y-27124D01*
X61220Y-27162D01*
X61220Y-26914D02*
X61201Y-26933D01*
X61220Y-26952D01*
X61239Y-26933D01*
X61220Y-26914D01*
X61220Y-26952D01*
X60725Y-27162D02*
X60725Y-26762D01*
X60249Y-26743D02*
X60592Y-27257D01*
X60040Y-26762D02*
X59963Y-26762D01*
X59925Y-26781D01*
X59887Y-26819D01*
X59868Y-26895D01*
X59868Y-27029D01*
X59887Y-27105D01*
X59925Y-27143D01*
X59963Y-27162D01*
X60040Y-27162D01*
X60078Y-27143D01*
X60116Y-27105D01*
X60135Y-27029D01*
X60135Y-26895D01*
X60116Y-26819D01*
X60078Y-26781D01*
X60040Y-26762D01*
X59411Y-27048D02*
X59220Y-27048D01*
X59449Y-27162D02*
X59316Y-26762D01*
X59182Y-27162D01*
X58877Y-27162D02*
X58877Y-26762D01*
X58877Y-27143D02*
X58915Y-27162D01*
X58992Y-27162D01*
X59030Y-27143D01*
X59049Y-27124D01*
X59068Y-27086D01*
X59068Y-26971D01*
X59049Y-26933D01*
X59030Y-26914D01*
X58992Y-26895D01*
X58915Y-26895D01*
X58877Y-26914D01*
X58515Y-27162D02*
X58515Y-26762D01*
X58515Y-27143D02*
X58553Y-27162D01*
X58630Y-27162D01*
X58668Y-27143D01*
X58687Y-27124D01*
X58706Y-27086D01*
X58706Y-26971D01*
X58687Y-26933D01*
X58668Y-26914D01*
X58630Y-26895D01*
X58553Y-26895D01*
X58515Y-26914D01*
X58325Y-27162D02*
X58325Y-26895D01*
X58325Y-26971D02*
X58306Y-26933D01*
X58287Y-26914D01*
X58249Y-26895D01*
X58210Y-26895D01*
X57924Y-27143D02*
X57962Y-27162D01*
X58039Y-27162D01*
X58077Y-27143D01*
X58096Y-27105D01*
X58096Y-26952D01*
X58077Y-26914D01*
X58039Y-26895D01*
X57962Y-26895D01*
X57924Y-26914D01*
X57905Y-26952D01*
X57905Y-26990D01*
X58096Y-27029D01*
X57753Y-27143D02*
X57715Y-27162D01*
X57639Y-27162D01*
X57600Y-27143D01*
X57581Y-27105D01*
X57581Y-27086D01*
X57600Y-27048D01*
X57639Y-27029D01*
X57696Y-27029D01*
X57734Y-27010D01*
X57753Y-26971D01*
X57753Y-26952D01*
X57734Y-26914D01*
X57696Y-26895D01*
X57639Y-26895D01*
X57600Y-26914D01*
X57429Y-27143D02*
X57391Y-27162D01*
X57315Y-27162D01*
X57276Y-27143D01*
X57257Y-27105D01*
X57257Y-27086D01*
X57276Y-27048D01*
X57315Y-27029D01*
X57372Y-27029D01*
X57410Y-27010D01*
X57429Y-26971D01*
X57429Y-26952D01*
X57410Y-26914D01*
X57372Y-26895D01*
X57315Y-26895D01*
X57276Y-26914D01*
X56800Y-27143D02*
X56743Y-27162D01*
X56647Y-27162D01*
X56609Y-27143D01*
X56590Y-27124D01*
X56571Y-27086D01*
X56571Y-27048D01*
X56590Y-27010D01*
X56609Y-26990D01*
X56647Y-26971D01*
X56724Y-26952D01*
X56762Y-26933D01*
X56781Y-26914D01*
X56800Y-26876D01*
X56800Y-26838D01*
X56781Y-26800D01*
X56762Y-26781D01*
X56724Y-26762D01*
X56628Y-26762D01*
X56571Y-26781D01*
X56247Y-27143D02*
X56285Y-27162D01*
X56362Y-27162D01*
X56400Y-27143D01*
X56419Y-27105D01*
X56419Y-26952D01*
X56400Y-26914D01*
X56362Y-26895D01*
X56285Y-26895D01*
X56247Y-26914D01*
X56228Y-26952D01*
X56228Y-26990D01*
X56419Y-27029D01*
X56000Y-27162D02*
X56038Y-27143D01*
X56057Y-27105D01*
X56057Y-26762D01*
X55694Y-27143D02*
X55732Y-27162D01*
X55809Y-27162D01*
X55847Y-27143D01*
X55866Y-27105D01*
X55866Y-26952D01*
X55847Y-26914D01*
X55809Y-26895D01*
X55732Y-26895D01*
X55694Y-26914D01*
X55675Y-26952D01*
X55675Y-26990D01*
X55866Y-27029D01*
X55332Y-27143D02*
X55370Y-27162D01*
X55447Y-27162D01*
X55485Y-27143D01*
X55504Y-27124D01*
X55523Y-27086D01*
X55523Y-26971D01*
X55504Y-26933D01*
X55485Y-26914D01*
X55447Y-26895D01*
X55370Y-26895D01*
X55332Y-26914D01*
X55218Y-26895D02*
X55066Y-26895D01*
X55161Y-26762D02*
X55161Y-27105D01*
X55142Y-27143D01*
X55104Y-27162D01*
X55066Y-27162D01*
X54932Y-27162D02*
X54932Y-26895D01*
X54932Y-26762D02*
X54951Y-26781D01*
X54932Y-26800D01*
X54913Y-26781D01*
X54932Y-26762D01*
X54932Y-26800D01*
X54685Y-27162D02*
X54723Y-27143D01*
X54742Y-27124D01*
X54761Y-27086D01*
X54761Y-26971D01*
X54742Y-26933D01*
X54723Y-26914D01*
X54685Y-26895D01*
X54627Y-26895D01*
X54589Y-26914D01*
X54570Y-26933D01*
X54551Y-26971D01*
X54551Y-27086D01*
X54570Y-27124D01*
X54589Y-27143D01*
X54627Y-27162D01*
X54685Y-27162D01*
X54380Y-26895D02*
X54380Y-27162D01*
X54380Y-26933D02*
X54361Y-26914D01*
X54323Y-26895D01*
X54265Y-26895D01*
X54227Y-26914D01*
X54208Y-26952D01*
X54208Y-27162D01*
X65695Y-27802D02*
X65924Y-27802D01*
X65810Y-27802D02*
X65810Y-27402D01*
X65848Y-27459D01*
X65886Y-27497D01*
X65924Y-27516D01*
X65219Y-27592D02*
X64914Y-27592D01*
X64914Y-27707D02*
X65219Y-27707D01*
X64343Y-27402D02*
X64266Y-27402D01*
X64228Y-27421D01*
X64190Y-27459D01*
X64171Y-27535D01*
X64171Y-27669D01*
X64190Y-27745D01*
X64228Y-27783D01*
X64266Y-27802D01*
X64343Y-27802D01*
X64381Y-27783D01*
X64419Y-27745D01*
X64438Y-27669D01*
X64438Y-27535D01*
X64419Y-27459D01*
X64381Y-27421D01*
X64343Y-27402D01*
X64000Y-27802D02*
X64000Y-27402D01*
X63771Y-27802D01*
X63771Y-27402D01*
X63562Y-27783D02*
X63562Y-27802D01*
X63581Y-27840D01*
X63600Y-27859D01*
X63581Y-27554D02*
X63562Y-27573D01*
X63581Y-27592D01*
X63600Y-27573D01*
X63581Y-27554D01*
X63581Y-27592D01*
X63010Y-27402D02*
X62971Y-27402D01*
X62933Y-27421D01*
X62914Y-27440D01*
X62895Y-27478D01*
X62876Y-27554D01*
X62876Y-27650D01*
X62895Y-27726D01*
X62914Y-27764D01*
X62933Y-27783D01*
X62971Y-27802D01*
X63010Y-27802D01*
X63048Y-27783D01*
X63067Y-27764D01*
X63086Y-27726D01*
X63105Y-27650D01*
X63105Y-27554D01*
X63086Y-27478D01*
X63067Y-27440D01*
X63048Y-27421D01*
X63010Y-27402D01*
X62400Y-27592D02*
X62095Y-27592D01*
X62095Y-27707D02*
X62400Y-27707D01*
X61524Y-27402D02*
X61447Y-27402D01*
X61409Y-27421D01*
X61371Y-27459D01*
X61352Y-27535D01*
X61352Y-27669D01*
X61371Y-27745D01*
X61409Y-27783D01*
X61447Y-27802D01*
X61524Y-27802D01*
X61562Y-27783D01*
X61600Y-27745D01*
X61619Y-27669D01*
X61619Y-27535D01*
X61600Y-27459D01*
X61562Y-27421D01*
X61524Y-27402D01*
X61047Y-27592D02*
X61181Y-27592D01*
X61181Y-27802D02*
X61181Y-27402D01*
X60990Y-27402D01*
X60704Y-27592D02*
X60838Y-27592D01*
X60838Y-27802D02*
X60838Y-27402D01*
X60647Y-27402D01*
M02*
